G75*
%MOIN*%
%OFA0B0*%
%FSLAX24Y24*%
%IPPOS*%
%LPD*%
%AMOC8*
5,1,8,0,0,1.08239X$1,22.5*
%
%ADD10C,0.0000*%
D10*
X002730Y004290D02*
X002730Y054290D01*
X042730Y054290D01*
X042730Y004290D01*
X002730Y004290D01*
X003600Y005790D02*
X003602Y005840D01*
X003608Y005890D01*
X003618Y005939D01*
X003632Y005987D01*
X003649Y006034D01*
X003670Y006079D01*
X003695Y006123D01*
X003723Y006164D01*
X003755Y006203D01*
X003789Y006240D01*
X003826Y006274D01*
X003866Y006304D01*
X003908Y006331D01*
X003952Y006355D01*
X003998Y006376D01*
X004045Y006392D01*
X004093Y006405D01*
X004143Y006414D01*
X004192Y006419D01*
X004243Y006420D01*
X004293Y006417D01*
X004342Y006410D01*
X004391Y006399D01*
X004439Y006384D01*
X004485Y006366D01*
X004530Y006344D01*
X004573Y006318D01*
X004614Y006289D01*
X004653Y006257D01*
X004689Y006222D01*
X004721Y006184D01*
X004751Y006144D01*
X004778Y006101D01*
X004801Y006057D01*
X004820Y006011D01*
X004836Y005963D01*
X004848Y005914D01*
X004856Y005865D01*
X004860Y005815D01*
X004860Y005765D01*
X004856Y005715D01*
X004848Y005666D01*
X004836Y005617D01*
X004820Y005569D01*
X004801Y005523D01*
X004778Y005479D01*
X004751Y005436D01*
X004721Y005396D01*
X004689Y005358D01*
X004653Y005323D01*
X004614Y005291D01*
X004573Y005262D01*
X004530Y005236D01*
X004485Y005214D01*
X004439Y005196D01*
X004391Y005181D01*
X004342Y005170D01*
X004293Y005163D01*
X004243Y005160D01*
X004192Y005161D01*
X004143Y005166D01*
X004093Y005175D01*
X004045Y005188D01*
X003998Y005204D01*
X003952Y005225D01*
X003908Y005249D01*
X003866Y005276D01*
X003826Y005306D01*
X003789Y005340D01*
X003755Y005377D01*
X003723Y005416D01*
X003695Y005457D01*
X003670Y005501D01*
X003649Y005546D01*
X003632Y005593D01*
X003618Y005641D01*
X003608Y005690D01*
X003602Y005740D01*
X003600Y005790D01*
X009600Y029290D02*
X009602Y029340D01*
X009608Y029390D01*
X009618Y029439D01*
X009632Y029487D01*
X009649Y029534D01*
X009670Y029579D01*
X009695Y029623D01*
X009723Y029664D01*
X009755Y029703D01*
X009789Y029740D01*
X009826Y029774D01*
X009866Y029804D01*
X009908Y029831D01*
X009952Y029855D01*
X009998Y029876D01*
X010045Y029892D01*
X010093Y029905D01*
X010143Y029914D01*
X010192Y029919D01*
X010243Y029920D01*
X010293Y029917D01*
X010342Y029910D01*
X010391Y029899D01*
X010439Y029884D01*
X010485Y029866D01*
X010530Y029844D01*
X010573Y029818D01*
X010614Y029789D01*
X010653Y029757D01*
X010689Y029722D01*
X010721Y029684D01*
X010751Y029644D01*
X010778Y029601D01*
X010801Y029557D01*
X010820Y029511D01*
X010836Y029463D01*
X010848Y029414D01*
X010856Y029365D01*
X010860Y029315D01*
X010860Y029265D01*
X010856Y029215D01*
X010848Y029166D01*
X010836Y029117D01*
X010820Y029069D01*
X010801Y029023D01*
X010778Y028979D01*
X010751Y028936D01*
X010721Y028896D01*
X010689Y028858D01*
X010653Y028823D01*
X010614Y028791D01*
X010573Y028762D01*
X010530Y028736D01*
X010485Y028714D01*
X010439Y028696D01*
X010391Y028681D01*
X010342Y028670D01*
X010293Y028663D01*
X010243Y028660D01*
X010192Y028661D01*
X010143Y028666D01*
X010093Y028675D01*
X010045Y028688D01*
X009998Y028704D01*
X009952Y028725D01*
X009908Y028749D01*
X009866Y028776D01*
X009826Y028806D01*
X009789Y028840D01*
X009755Y028877D01*
X009723Y028916D01*
X009695Y028957D01*
X009670Y029001D01*
X009649Y029046D01*
X009632Y029093D01*
X009618Y029141D01*
X009608Y029190D01*
X009602Y029240D01*
X009600Y029290D01*
X003600Y052790D02*
X003602Y052840D01*
X003608Y052890D01*
X003618Y052939D01*
X003632Y052987D01*
X003649Y053034D01*
X003670Y053079D01*
X003695Y053123D01*
X003723Y053164D01*
X003755Y053203D01*
X003789Y053240D01*
X003826Y053274D01*
X003866Y053304D01*
X003908Y053331D01*
X003952Y053355D01*
X003998Y053376D01*
X004045Y053392D01*
X004093Y053405D01*
X004143Y053414D01*
X004192Y053419D01*
X004243Y053420D01*
X004293Y053417D01*
X004342Y053410D01*
X004391Y053399D01*
X004439Y053384D01*
X004485Y053366D01*
X004530Y053344D01*
X004573Y053318D01*
X004614Y053289D01*
X004653Y053257D01*
X004689Y053222D01*
X004721Y053184D01*
X004751Y053144D01*
X004778Y053101D01*
X004801Y053057D01*
X004820Y053011D01*
X004836Y052963D01*
X004848Y052914D01*
X004856Y052865D01*
X004860Y052815D01*
X004860Y052765D01*
X004856Y052715D01*
X004848Y052666D01*
X004836Y052617D01*
X004820Y052569D01*
X004801Y052523D01*
X004778Y052479D01*
X004751Y052436D01*
X004721Y052396D01*
X004689Y052358D01*
X004653Y052323D01*
X004614Y052291D01*
X004573Y052262D01*
X004530Y052236D01*
X004485Y052214D01*
X004439Y052196D01*
X004391Y052181D01*
X004342Y052170D01*
X004293Y052163D01*
X004243Y052160D01*
X004192Y052161D01*
X004143Y052166D01*
X004093Y052175D01*
X004045Y052188D01*
X003998Y052204D01*
X003952Y052225D01*
X003908Y052249D01*
X003866Y052276D01*
X003826Y052306D01*
X003789Y052340D01*
X003755Y052377D01*
X003723Y052416D01*
X003695Y052457D01*
X003670Y052501D01*
X003649Y052546D01*
X003632Y052593D01*
X003618Y052641D01*
X003608Y052690D01*
X003602Y052740D01*
X003600Y052790D01*
X040600Y052790D02*
X040602Y052840D01*
X040608Y052890D01*
X040618Y052939D01*
X040632Y052987D01*
X040649Y053034D01*
X040670Y053079D01*
X040695Y053123D01*
X040723Y053164D01*
X040755Y053203D01*
X040789Y053240D01*
X040826Y053274D01*
X040866Y053304D01*
X040908Y053331D01*
X040952Y053355D01*
X040998Y053376D01*
X041045Y053392D01*
X041093Y053405D01*
X041143Y053414D01*
X041192Y053419D01*
X041243Y053420D01*
X041293Y053417D01*
X041342Y053410D01*
X041391Y053399D01*
X041439Y053384D01*
X041485Y053366D01*
X041530Y053344D01*
X041573Y053318D01*
X041614Y053289D01*
X041653Y053257D01*
X041689Y053222D01*
X041721Y053184D01*
X041751Y053144D01*
X041778Y053101D01*
X041801Y053057D01*
X041820Y053011D01*
X041836Y052963D01*
X041848Y052914D01*
X041856Y052865D01*
X041860Y052815D01*
X041860Y052765D01*
X041856Y052715D01*
X041848Y052666D01*
X041836Y052617D01*
X041820Y052569D01*
X041801Y052523D01*
X041778Y052479D01*
X041751Y052436D01*
X041721Y052396D01*
X041689Y052358D01*
X041653Y052323D01*
X041614Y052291D01*
X041573Y052262D01*
X041530Y052236D01*
X041485Y052214D01*
X041439Y052196D01*
X041391Y052181D01*
X041342Y052170D01*
X041293Y052163D01*
X041243Y052160D01*
X041192Y052161D01*
X041143Y052166D01*
X041093Y052175D01*
X041045Y052188D01*
X040998Y052204D01*
X040952Y052225D01*
X040908Y052249D01*
X040866Y052276D01*
X040826Y052306D01*
X040789Y052340D01*
X040755Y052377D01*
X040723Y052416D01*
X040695Y052457D01*
X040670Y052501D01*
X040649Y052546D01*
X040632Y052593D01*
X040618Y052641D01*
X040608Y052690D01*
X040602Y052740D01*
X040600Y052790D01*
X040600Y032290D02*
X040602Y032340D01*
X040608Y032390D01*
X040618Y032439D01*
X040632Y032487D01*
X040649Y032534D01*
X040670Y032579D01*
X040695Y032623D01*
X040723Y032664D01*
X040755Y032703D01*
X040789Y032740D01*
X040826Y032774D01*
X040866Y032804D01*
X040908Y032831D01*
X040952Y032855D01*
X040998Y032876D01*
X041045Y032892D01*
X041093Y032905D01*
X041143Y032914D01*
X041192Y032919D01*
X041243Y032920D01*
X041293Y032917D01*
X041342Y032910D01*
X041391Y032899D01*
X041439Y032884D01*
X041485Y032866D01*
X041530Y032844D01*
X041573Y032818D01*
X041614Y032789D01*
X041653Y032757D01*
X041689Y032722D01*
X041721Y032684D01*
X041751Y032644D01*
X041778Y032601D01*
X041801Y032557D01*
X041820Y032511D01*
X041836Y032463D01*
X041848Y032414D01*
X041856Y032365D01*
X041860Y032315D01*
X041860Y032265D01*
X041856Y032215D01*
X041848Y032166D01*
X041836Y032117D01*
X041820Y032069D01*
X041801Y032023D01*
X041778Y031979D01*
X041751Y031936D01*
X041721Y031896D01*
X041689Y031858D01*
X041653Y031823D01*
X041614Y031791D01*
X041573Y031762D01*
X041530Y031736D01*
X041485Y031714D01*
X041439Y031696D01*
X041391Y031681D01*
X041342Y031670D01*
X041293Y031663D01*
X041243Y031660D01*
X041192Y031661D01*
X041143Y031666D01*
X041093Y031675D01*
X041045Y031688D01*
X040998Y031704D01*
X040952Y031725D01*
X040908Y031749D01*
X040866Y031776D01*
X040826Y031806D01*
X040789Y031840D01*
X040755Y031877D01*
X040723Y031916D01*
X040695Y031957D01*
X040670Y032001D01*
X040649Y032046D01*
X040632Y032093D01*
X040618Y032141D01*
X040608Y032190D01*
X040602Y032240D01*
X040600Y032290D01*
X040600Y005790D02*
X040602Y005840D01*
X040608Y005890D01*
X040618Y005939D01*
X040632Y005987D01*
X040649Y006034D01*
X040670Y006079D01*
X040695Y006123D01*
X040723Y006164D01*
X040755Y006203D01*
X040789Y006240D01*
X040826Y006274D01*
X040866Y006304D01*
X040908Y006331D01*
X040952Y006355D01*
X040998Y006376D01*
X041045Y006392D01*
X041093Y006405D01*
X041143Y006414D01*
X041192Y006419D01*
X041243Y006420D01*
X041293Y006417D01*
X041342Y006410D01*
X041391Y006399D01*
X041439Y006384D01*
X041485Y006366D01*
X041530Y006344D01*
X041573Y006318D01*
X041614Y006289D01*
X041653Y006257D01*
X041689Y006222D01*
X041721Y006184D01*
X041751Y006144D01*
X041778Y006101D01*
X041801Y006057D01*
X041820Y006011D01*
X041836Y005963D01*
X041848Y005914D01*
X041856Y005865D01*
X041860Y005815D01*
X041860Y005765D01*
X041856Y005715D01*
X041848Y005666D01*
X041836Y005617D01*
X041820Y005569D01*
X041801Y005523D01*
X041778Y005479D01*
X041751Y005436D01*
X041721Y005396D01*
X041689Y005358D01*
X041653Y005323D01*
X041614Y005291D01*
X041573Y005262D01*
X041530Y005236D01*
X041485Y005214D01*
X041439Y005196D01*
X041391Y005181D01*
X041342Y005170D01*
X041293Y005163D01*
X041243Y005160D01*
X041192Y005161D01*
X041143Y005166D01*
X041093Y005175D01*
X041045Y005188D01*
X040998Y005204D01*
X040952Y005225D01*
X040908Y005249D01*
X040866Y005276D01*
X040826Y005306D01*
X040789Y005340D01*
X040755Y005377D01*
X040723Y005416D01*
X040695Y005457D01*
X040670Y005501D01*
X040649Y005546D01*
X040632Y005593D01*
X040618Y005641D01*
X040608Y005690D01*
X040602Y005740D01*
X040600Y005790D01*
M02*
