G75*
%MOIN*%
%OFA0B0*%
%FSLAX24Y24*%
%IPPOS*%
%LPD*%
%AMOC8*
5,1,8,0,0,1.08239X$1,22.5*
%
%ADD10C,0.1320*%
%ADD11OC8,0.1060*%
%ADD12OC8,0.0660*%
%ADD13C,0.0660*%
%ADD14OC8,0.0540*%
%ADD15R,0.0572X0.0651*%
%ADD16R,0.0729X0.0769*%
%ADD17C,0.0945*%
%ADD18C,0.1110*%
%ADD19C,0.0720*%
%ADD20R,0.0651X0.0572*%
%ADD21C,0.0600*%
%ADD22C,0.0360*%
%ADD23C,0.0456*%
%ADD24R,0.0420X0.0420*%
D10*
X004230Y005790D03*
X010230Y029290D03*
X004230Y052790D03*
X041230Y052790D03*
X041230Y032290D03*
X041230Y005790D03*
D11*
X003790Y028580D03*
X003790Y030440D03*
X003910Y032610D03*
X003910Y034330D03*
X003970Y036030D03*
D12*
X012030Y045590D03*
X012630Y044190D03*
X014630Y045190D03*
X017430Y043490D03*
X019930Y043390D03*
X022630Y043390D03*
X022630Y037390D03*
X020530Y035590D03*
X019930Y037390D03*
X017430Y037490D03*
X014530Y035590D03*
X014430Y033290D03*
X012630Y038190D03*
X020430Y033290D03*
X014730Y025990D03*
X011930Y025790D03*
X010030Y021690D03*
X011930Y019790D03*
X012930Y019190D03*
X014730Y019990D03*
X018130Y018090D03*
X020430Y017990D03*
X023030Y017990D03*
X023030Y011990D03*
X020830Y010290D03*
X020430Y011990D03*
X018130Y012090D03*
X014830Y010290D03*
X015030Y007890D03*
X012930Y013190D03*
X021030Y007890D03*
X004030Y021690D03*
X004350Y047810D03*
X010350Y047810D03*
X012030Y051590D03*
X014630Y051190D03*
X028730Y031790D03*
X028730Y030790D03*
X029730Y030790D03*
X029730Y031790D03*
X030730Y031790D03*
X030730Y030790D03*
X031730Y030790D03*
X031730Y031790D03*
X032730Y031790D03*
X032730Y030790D03*
X033730Y030790D03*
X033730Y031790D03*
X034730Y031790D03*
X034730Y030790D03*
D13*
X041430Y022790D02*
X042030Y022790D01*
X042030Y021790D02*
X041430Y021790D01*
X041430Y020790D02*
X042030Y020790D01*
X042030Y014790D02*
X041430Y014790D01*
X041430Y013790D02*
X042030Y013790D01*
X042030Y012790D02*
X041430Y012790D01*
X041430Y040790D02*
X042030Y040790D01*
X042030Y041790D02*
X041430Y041790D01*
X041430Y042790D02*
X042030Y042790D01*
X042030Y048290D02*
X041430Y048290D01*
X041430Y049290D02*
X042030Y049290D01*
X042030Y050290D02*
X041430Y050290D01*
D14*
X034410Y049020D03*
X032410Y049020D03*
X031970Y044150D03*
X031970Y040150D03*
X030210Y021710D03*
X034210Y021710D03*
X033230Y014770D03*
X035230Y014770D03*
D15*
X033104Y018790D03*
X032356Y018790D03*
X034516Y043050D03*
X035264Y043050D03*
X006604Y040290D03*
X005856Y040290D03*
X006096Y014390D03*
X006844Y014390D03*
X006264Y012230D03*
X005516Y012230D03*
D16*
X033230Y044513D03*
X033230Y046127D03*
X034230Y019097D03*
X034230Y017483D03*
D17*
X040750Y028420D03*
X040670Y035420D03*
D18*
X039666Y034416D03*
X039666Y036424D03*
X041674Y036424D03*
X041674Y034416D03*
X041754Y029424D03*
X041754Y027416D03*
X039746Y027416D03*
X039746Y029424D03*
D19*
X015970Y017690D03*
X015970Y013690D03*
X015420Y038460D03*
X015420Y042460D03*
D20*
X005730Y037664D03*
X005730Y036916D03*
D21*
X004020Y027170D02*
X003480Y027170D01*
X003480Y026170D02*
X004020Y026170D01*
D22*
X004290Y023610D03*
X006930Y027090D03*
X007470Y026910D03*
X005430Y031770D03*
X007170Y033750D03*
X007890Y033750D03*
X008670Y034190D03*
X007530Y035790D03*
X006450Y035790D03*
X006510Y035250D03*
X005970Y034350D03*
X003990Y035250D03*
X006450Y037650D03*
X007430Y037490D03*
X005230Y038790D03*
X006270Y041970D03*
X012330Y036890D03*
X015930Y044990D03*
X025230Y035890D03*
X027090Y039330D03*
X029790Y034650D03*
X026790Y031770D03*
X026730Y030810D03*
X027810Y028710D03*
X026670Y027930D03*
X027990Y026970D03*
X033150Y020910D03*
X032790Y020190D03*
X032430Y020550D03*
X032130Y019770D03*
X033150Y018150D03*
X035070Y019530D03*
X035490Y020190D03*
X036090Y020670D03*
X035970Y021690D03*
X035070Y020910D03*
X036810Y017910D03*
X038490Y017910D03*
X040530Y016230D03*
X040050Y014910D03*
X038970Y013890D03*
X031350Y014790D03*
X027450Y013770D03*
X025770Y010530D03*
X026070Y018750D03*
X022130Y027890D03*
X016130Y020290D03*
X011730Y010590D03*
X008330Y007390D03*
X005490Y011670D03*
X006930Y013410D03*
X008230Y012090D03*
X006270Y015390D03*
X032850Y047550D03*
X034110Y044730D03*
X035264Y042270D03*
X039330Y042630D03*
X029730Y051150D03*
X025770Y051210D03*
X039090Y022770D03*
D23*
X024430Y017290D03*
X024430Y015390D03*
X022730Y039590D03*
X023930Y042990D03*
D24*
X007230Y036290D03*
X006770Y039590D03*
M02*
