%
M48
M72
T01C0.0140
T02C0.0200
T03C0.0236
T04C0.0320
T05C0.0360
T06C0.0400
T07C0.0440
T08C0.0590
T09C0.0700
T10C0.1260
%
T01
X8330Y7390
X11730Y10590
X8230Y12090
X6930Y13410
X6270Y15390
X5490Y11670
X4290Y23610
X6930Y27090
X7470Y26910
X5430Y31770
X7170Y33750
X7890Y33750
X8670Y34190
X7530Y35790
X6450Y35790
X6510Y35250
X5970Y34350
X3990Y35250
X6450Y37650
X7430Y37490
X5230Y38790
X6270Y41970
X12330Y36890
X15930Y44990
X25230Y35890
X27090Y39330
X29790Y34650
X26790Y31770
X26730Y30810
X27810Y28710
X26670Y27930
X27990Y26970
X33150Y20910
X32790Y20190
X32430Y20550
X32130Y19770
X33150Y18150
X35070Y19530
X35490Y20190
X36090Y20670
X35970Y21690
X35070Y20910
X36810Y17910
X38490Y17910
X40530Y16230
X40050Y14910
X38970Y13890
X31350Y14790
X27450Y13770
X25770Y10530
X26070Y18750
X22130Y27890
X16130Y20290
X35264Y42270
X34110Y44730
X32850Y47550
X29730Y51150
X25770Y51210
X39330Y42630
X39090Y22770
T02
X7230Y36290
X6770Y39590
T03
X22730Y39590
X23930Y42990
X24430Y17290
X24430Y15390
T04
X30210Y21710
X34210Y21710
X33230Y14770
X35230Y14770
X31970Y40150
X31970Y44150
X32410Y49020
X34410Y49020
T05
X3750Y27170
X3750Y26170
T06
X4030Y21690
X10030Y21690
X11930Y19790
X12930Y19190
X14730Y19990
X18130Y18090
X20430Y17990
X23030Y17990
X23030Y11990
X20830Y10290
X20430Y11990
X18130Y12090
X14830Y10290
X15030Y7890
X12930Y13190
X21030Y7890
X14730Y25990
X11930Y25790
X14430Y33290
X14530Y35590
X12630Y38190
X12630Y44190
X12030Y45590
X10350Y47810
X12030Y51590
X14630Y51190
X14630Y45190
X17430Y43490
X19930Y43390
X22630Y43390
X22630Y37390
X20530Y35590
X19930Y37390
X17430Y37490
X20430Y33290
X28730Y31790
X28730Y30790
X29730Y30790
X29730Y31790
X30730Y31790
X30730Y30790
X31730Y30790
X31730Y31790
X32730Y31790
X32730Y30790
X33730Y30790
X33730Y31790
X34730Y31790
X34730Y30790
X41730Y22790
X41730Y21790
X41730Y20790
X41730Y14790
X41730Y13790
X41730Y12790
X41730Y40790
X41730Y41790
X41730Y42790
X41730Y48290
X41730Y49290
X41730Y50290
X4350Y47810
T07
X3970Y36030
X3910Y34330
X3910Y32610
X3790Y30440
X3790Y28580
X15420Y38460
X15420Y42460
X15970Y17690
X15970Y13690
T08
X40750Y28420
X40670Y35420
T09
X39666Y34416
X39666Y36424
X41674Y36424
X41674Y34416
X41754Y29424
X41754Y27416
X39746Y27416
X39746Y29424
T10
X4230Y5790
X10230Y29290
X4230Y52790
X41230Y52790
X41230Y32290
X41230Y5790
M30
