G75*
%MOIN*%
%OFA0B0*%
%FSLAX24Y24*%
%IPPOS*%
%LPD*%
%AMOC8*
5,1,8,0,0,1.08239X$1,22.5*
%
%ADD10OC8,0.1000*%
%ADD11R,0.0480X0.0880*%
%ADD12R,0.1417X0.0866*%
%ADD13R,0.0472X0.0236*%
%ADD14R,0.0394X0.0433*%
%ADD15R,0.0709X0.0669*%
%ADD16OC8,0.0600*%
%ADD17R,0.0433X0.0394*%
%ADD18R,0.2677X0.0728*%
%ADD19R,0.0669X0.0709*%
%ADD20R,0.0150X0.0701*%
%ADD21C,0.0600*%
%ADD22OC8,0.0480*%
%ADD23R,0.0512X0.0591*%
%ADD24C,0.0885*%
%ADD25C,0.1050*%
%ADD26R,0.0295X0.0155*%
%ADD27R,0.0591X0.0512*%
%ADD28C,0.0660*%
%ADD29C,0.0394*%
%ADD30C,0.0540*%
%ADD31C,0.0300*%
%ADD32C,0.0100*%
%ADD33C,0.0320*%
%ADD34C,0.0240*%
%ADD35C,0.0396*%
%ADD36C,0.0160*%
%ADD37R,0.0360X0.0360*%
%ADD38C,0.0120*%
D10*
X003790Y028580D03*
X003790Y030440D03*
X003910Y032610D03*
X003910Y034330D03*
X003970Y036030D03*
D11*
X009120Y041710D03*
X010030Y041710D03*
X010940Y041710D03*
X010240Y045410D03*
X009330Y045410D03*
X008420Y045410D03*
X006840Y042970D03*
X005930Y042970D03*
X005020Y042970D03*
X009220Y034270D03*
X010130Y034270D03*
X011040Y034270D03*
X016620Y044670D03*
X017530Y044670D03*
X018440Y044670D03*
X018340Y048670D03*
X017430Y048670D03*
X016520Y048670D03*
X019620Y048670D03*
X020530Y048670D03*
X021440Y048670D03*
X021130Y023570D03*
X020220Y023570D03*
X018540Y023570D03*
X017630Y023570D03*
X016720Y023570D03*
X017020Y019570D03*
X017930Y019570D03*
X018840Y019570D03*
X022040Y023570D03*
X010940Y015810D03*
X010030Y015810D03*
X009120Y015810D03*
X006940Y017170D03*
X006030Y017170D03*
X005120Y017170D03*
X008320Y019610D03*
X009230Y019610D03*
X010140Y019610D03*
X010130Y007370D03*
X009220Y007370D03*
X011040Y007370D03*
D12*
X010130Y009810D03*
X010030Y013370D03*
X009230Y017170D03*
X006030Y019610D03*
X017630Y026010D03*
X017930Y022010D03*
X021130Y026010D03*
X010130Y036710D03*
X010030Y039270D03*
X009330Y042970D03*
X005930Y045410D03*
X017530Y047110D03*
X017430Y051110D03*
X020530Y051110D03*
D13*
X007044Y039164D03*
X007044Y038416D03*
X006016Y038416D03*
X006016Y038790D03*
X006016Y039164D03*
X006016Y012144D03*
X006016Y011770D03*
X006016Y011396D03*
X007044Y011396D03*
X007044Y012144D03*
D14*
X005265Y010770D03*
X004595Y010770D03*
X004595Y013590D03*
X005265Y013590D03*
X010395Y011790D03*
X011065Y011790D03*
X030295Y019060D03*
X030965Y019060D03*
X036135Y017020D03*
X036805Y017020D03*
X036945Y044020D03*
X036275Y044020D03*
X032045Y047060D03*
X031375Y047060D03*
X011065Y037990D03*
X010395Y037990D03*
X004765Y039990D03*
X004095Y039990D03*
D15*
X003923Y041490D03*
X005537Y041490D03*
X007243Y049770D03*
X008857Y049770D03*
X006817Y014770D03*
X005203Y014770D03*
D16*
X004030Y021690D03*
X010030Y021690D03*
X011930Y019790D03*
X012930Y019190D03*
X014730Y019990D03*
X018130Y018090D03*
X020430Y017990D03*
X023030Y017990D03*
X023030Y011990D03*
X020830Y010290D03*
X020430Y011990D03*
X018130Y012090D03*
X014830Y010290D03*
X015030Y007890D03*
X012930Y013190D03*
X021030Y007890D03*
X014730Y025990D03*
X011930Y025790D03*
X014430Y033290D03*
X014530Y035590D03*
X012630Y038190D03*
X012630Y044190D03*
X012030Y045590D03*
X010350Y047810D03*
X012030Y051590D03*
X014630Y051190D03*
X014630Y045190D03*
X017430Y043490D03*
X019930Y043390D03*
X022630Y043390D03*
X022630Y037390D03*
X020530Y035590D03*
X019930Y037390D03*
X017430Y037490D03*
X020430Y033290D03*
X028730Y031790D03*
X028730Y030790D03*
X029730Y030790D03*
X029730Y031790D03*
X030730Y031790D03*
X030730Y030790D03*
X031730Y030790D03*
X031730Y031790D03*
X032730Y031790D03*
X032730Y030790D03*
X033730Y030790D03*
X033730Y031790D03*
X034730Y031790D03*
X034730Y030790D03*
X004350Y047810D03*
D17*
X005310Y050835D03*
X005310Y051505D03*
X003930Y038325D03*
X003930Y037655D03*
X005930Y024725D03*
X005930Y024055D03*
D18*
X025330Y039386D03*
X025330Y041394D03*
X026530Y016494D03*
X026530Y014486D03*
D19*
X030470Y016173D03*
X030470Y017787D03*
X038470Y016997D03*
X038470Y015383D03*
X037730Y045033D03*
X037730Y046647D03*
X030230Y046837D03*
X030230Y045223D03*
X008230Y025497D03*
X008230Y023883D03*
D20*
X031915Y019024D03*
X032171Y019024D03*
X032427Y019024D03*
X032683Y019024D03*
X032939Y019024D03*
X033195Y019024D03*
X033450Y019024D03*
X033706Y019024D03*
X033962Y019024D03*
X034218Y019024D03*
X034474Y019024D03*
X034730Y019024D03*
X034730Y016556D03*
X034474Y016556D03*
X034218Y016556D03*
X033962Y016556D03*
X033706Y016556D03*
X033450Y016556D03*
X033195Y016556D03*
X032939Y016556D03*
X032683Y016556D03*
X032427Y016556D03*
X032171Y016556D03*
X031915Y016556D03*
X032690Y043996D03*
X032946Y043996D03*
X033202Y043996D03*
X033458Y043996D03*
X033714Y043996D03*
X033970Y043996D03*
X034225Y043996D03*
X034481Y043996D03*
X034737Y043996D03*
X034993Y043996D03*
X035249Y043996D03*
X035505Y043996D03*
X035505Y046464D03*
X035249Y046464D03*
X034993Y046464D03*
X034737Y046464D03*
X034481Y046464D03*
X034225Y046464D03*
X033970Y046464D03*
X033714Y046464D03*
X033458Y046464D03*
X033202Y046464D03*
X032946Y046464D03*
X032690Y046464D03*
D21*
X041430Y048290D02*
X042030Y048290D01*
X042030Y049290D02*
X041430Y049290D01*
X041430Y050290D02*
X042030Y050290D01*
X042030Y042790D02*
X041430Y042790D01*
X041430Y041790D02*
X042030Y041790D01*
X042030Y040790D02*
X041430Y040790D01*
X041430Y022790D02*
X042030Y022790D01*
X042030Y021790D02*
X041430Y021790D01*
X041430Y020790D02*
X042030Y020790D01*
X042030Y014790D02*
X041430Y014790D01*
X041430Y013790D02*
X042030Y013790D01*
X042030Y012790D02*
X041430Y012790D01*
D22*
X035230Y014770D03*
X033230Y014770D03*
X034210Y021710D03*
X030210Y021710D03*
X031970Y040150D03*
X031970Y044150D03*
X032410Y049020D03*
X034410Y049020D03*
D23*
X037356Y049290D03*
X037356Y048290D03*
X038104Y048290D03*
X038104Y049290D03*
X038104Y050290D03*
X037356Y050290D03*
X037856Y042790D03*
X038604Y042790D03*
X038604Y041790D03*
X037856Y041790D03*
X037856Y040790D03*
X038604Y040790D03*
X037604Y022790D03*
X036856Y022790D03*
X036856Y021790D03*
X037604Y021790D03*
X037604Y020790D03*
X036856Y020790D03*
X037356Y014290D03*
X038104Y014290D03*
X038104Y013290D03*
X037356Y013290D03*
X037356Y012290D03*
X038104Y012290D03*
X007704Y041530D03*
X006956Y041530D03*
X007264Y016090D03*
X006516Y016090D03*
D24*
X040750Y028420D03*
X040670Y035420D03*
D25*
X039666Y034416D03*
X039666Y036424D03*
X041674Y036424D03*
X041674Y034416D03*
X041754Y029424D03*
X041754Y027416D03*
X039746Y027416D03*
X039746Y029424D03*
D26*
X007193Y033082D03*
X007193Y033418D03*
X006467Y033418D03*
X006467Y033082D03*
D27*
X007990Y039086D03*
X007990Y039834D03*
X008070Y015024D03*
X008070Y014276D03*
D28*
X015970Y013690D03*
X015970Y017690D03*
X015420Y038460D03*
X015420Y042460D03*
D29*
X026730Y032290D03*
X026730Y030290D03*
X030730Y027790D03*
X031730Y029290D03*
X032730Y027790D03*
X033730Y029290D03*
X034730Y027790D03*
X034730Y033290D03*
X033730Y034790D03*
X032730Y033290D03*
X031730Y034790D03*
X030730Y033290D03*
D30*
X004020Y027170D02*
X003480Y027170D01*
X003480Y026170D02*
X004020Y026170D01*
D31*
X008330Y007390D03*
X011730Y010590D03*
X008230Y012090D03*
X006930Y013410D03*
X006270Y015390D03*
X005490Y011670D03*
X004290Y023610D03*
X006930Y027090D03*
X007470Y026910D03*
X005430Y031770D03*
X007170Y033750D03*
X007890Y033750D03*
X008670Y034190D03*
X007530Y035790D03*
X006450Y035790D03*
X006510Y035250D03*
X005970Y034350D03*
X003990Y035250D03*
X006450Y037650D03*
X007430Y037490D03*
X005230Y038790D03*
X006270Y041970D03*
X012330Y036890D03*
X015930Y044990D03*
X025230Y035890D03*
X027090Y039330D03*
X029790Y034650D03*
X026790Y031770D03*
X026730Y030810D03*
X027810Y028710D03*
X026670Y027930D03*
X027990Y026970D03*
X033150Y020910D03*
X032790Y020190D03*
X032430Y020550D03*
X032130Y019770D03*
X033150Y018150D03*
X035070Y019530D03*
X035490Y020190D03*
X036090Y020670D03*
X035970Y021690D03*
X035070Y020910D03*
X036810Y017910D03*
X038490Y017910D03*
X040530Y016230D03*
X040050Y014910D03*
X038970Y013890D03*
X031350Y014790D03*
X027450Y013770D03*
X025770Y010530D03*
X026070Y018750D03*
X022130Y027890D03*
X016130Y020290D03*
X035264Y042270D03*
X034110Y044730D03*
X032850Y047550D03*
X029730Y051150D03*
X025770Y051210D03*
X039330Y042630D03*
X039090Y022770D03*
D32*
X034730Y027790D02*
X034730Y030790D01*
X033730Y030790D02*
X033730Y029330D01*
X033750Y029310D01*
X032730Y030790D02*
X032730Y027790D01*
X031730Y029290D02*
X031730Y030790D01*
X031730Y031790D02*
X031730Y034790D01*
X031730Y035630D01*
X032910Y036810D01*
X032910Y043960D01*
X032946Y043996D01*
X033202Y043996D02*
X033210Y043988D01*
X033210Y035010D01*
X032730Y034530D01*
X032730Y033290D01*
X032730Y031790D01*
X033730Y031790D02*
X033730Y034790D01*
X033730Y041330D01*
X033510Y041550D01*
X033510Y043943D01*
X033458Y043996D01*
X033714Y043996D02*
X033750Y043959D01*
X033750Y041970D01*
X034730Y040990D01*
X034730Y033290D01*
X034730Y033130D01*
X034770Y033090D01*
X034770Y031830D01*
X034730Y031790D01*
X030730Y031790D02*
X030730Y033290D01*
X030730Y037450D01*
X032550Y039270D01*
X032550Y043856D01*
X032690Y043996D01*
X033970Y043996D02*
X033970Y044590D01*
X034110Y044730D01*
X034350Y044730D01*
X034481Y044599D01*
X034481Y043996D01*
X034225Y043996D02*
X034225Y042095D01*
X034710Y041610D01*
X034770Y041550D01*
X035550Y040770D01*
X037836Y040770D01*
X037856Y040790D01*
X037856Y041790D02*
X034890Y041790D01*
X034650Y042030D01*
X034650Y042570D01*
X034737Y042657D01*
X034737Y043996D01*
X034993Y043996D02*
X034993Y042613D01*
X034890Y042510D01*
X034890Y042150D01*
X035070Y041970D01*
X035610Y041970D01*
X035670Y042030D01*
X036090Y042450D01*
X036390Y042750D01*
X037816Y042750D01*
X037856Y042790D01*
X037360Y044020D02*
X036945Y044020D01*
X037360Y044020D02*
X037770Y044430D01*
X037770Y044993D01*
X037730Y045033D01*
X037673Y046590D02*
X037170Y046590D01*
X036210Y045630D01*
X034110Y045630D01*
X033970Y045770D01*
X033970Y046464D01*
X033970Y048580D01*
X034410Y049020D01*
X034230Y049710D02*
X036030Y049710D01*
X036450Y049290D01*
X037356Y049290D01*
X037356Y048290D02*
X037336Y048270D01*
X035190Y048270D01*
X034225Y047305D01*
X034225Y046464D01*
X033714Y046464D02*
X033714Y049194D01*
X034230Y049710D01*
X034410Y050250D02*
X037316Y050250D01*
X037356Y050290D01*
X034410Y050250D02*
X033458Y049298D01*
X033458Y046464D01*
X032946Y046464D02*
X032946Y047454D01*
X032850Y047550D01*
X032045Y047060D02*
X032640Y046464D01*
X032690Y046464D01*
X031375Y047060D02*
X030453Y047060D01*
X030230Y046837D01*
X035249Y043996D02*
X035264Y043981D01*
X035264Y042270D01*
X035505Y043996D02*
X036251Y043996D01*
X036275Y044020D01*
X037673Y046590D02*
X037730Y046647D01*
X027090Y039330D02*
X025386Y039330D01*
X025330Y039386D01*
X022930Y039390D02*
X022630Y039090D01*
X022630Y037390D01*
X026730Y032310D02*
X026730Y032290D01*
X026730Y032310D02*
X026790Y032310D01*
X026790Y032010D01*
X026790Y031770D01*
X026730Y030810D02*
X026730Y030330D01*
X026730Y030290D01*
X026730Y030330D01*
X026670Y030270D01*
X026670Y028170D01*
X026670Y027930D01*
X030730Y027790D02*
X030730Y030790D01*
X022230Y027890D02*
X022130Y027890D01*
X032939Y019024D02*
X032939Y018361D01*
X033150Y018150D01*
X033450Y018450D01*
X033450Y019024D01*
X027450Y013770D02*
X027246Y013770D01*
X026530Y014486D01*
X018130Y012090D02*
X013930Y012090D01*
X013871Y012088D01*
X013813Y012082D01*
X013754Y012073D01*
X013697Y012059D01*
X013641Y012042D01*
X013586Y012021D01*
X013532Y011997D01*
X013480Y011969D01*
X013430Y011938D01*
X013382Y011904D01*
X013337Y011867D01*
X013294Y011826D01*
X013253Y011783D01*
X013216Y011738D01*
X013182Y011690D01*
X013151Y011640D01*
X013123Y011588D01*
X013099Y011534D01*
X013078Y011479D01*
X013061Y011423D01*
X013047Y011366D01*
X013038Y011307D01*
X013032Y011249D01*
X013030Y011190D01*
X013030Y010990D01*
X013028Y010956D01*
X013022Y010923D01*
X013013Y010891D01*
X013000Y010860D01*
X012984Y010830D01*
X012965Y010803D01*
X012942Y010778D01*
X012917Y010755D01*
X012890Y010736D01*
X012860Y010720D01*
X012829Y010707D01*
X012797Y010698D01*
X012764Y010692D01*
X012730Y010690D01*
X011830Y010690D01*
X011813Y010688D01*
X011796Y010684D01*
X011780Y010677D01*
X011766Y010667D01*
X011753Y010654D01*
X011743Y010640D01*
X011736Y010624D01*
X011732Y010607D01*
X011730Y010590D01*
X008230Y012090D02*
X008230Y012189D01*
X008057Y012362D01*
X008070Y012390D01*
X008070Y014250D01*
X008070Y014276D01*
X008070Y014970D02*
X008070Y015024D01*
X008070Y014970D02*
X008010Y015030D01*
X008010Y015990D01*
X007364Y015990D01*
X007264Y016090D01*
X007264Y016846D01*
X006940Y017170D01*
X006516Y016090D02*
X006516Y015636D01*
X006270Y015390D01*
X006817Y014843D01*
X006817Y014770D01*
X005630Y013590D02*
X005265Y013590D01*
X005630Y013590D02*
X005668Y013588D01*
X005705Y013583D01*
X005742Y013573D01*
X005778Y013561D01*
X005812Y013544D01*
X005844Y013525D01*
X005875Y013502D01*
X005903Y013477D01*
X005928Y013449D01*
X005951Y013418D01*
X005970Y013386D01*
X005987Y013352D01*
X005999Y013316D01*
X006009Y013279D01*
X006014Y013242D01*
X006016Y013204D01*
X006016Y012144D01*
X004630Y012090D02*
X004595Y010770D01*
X004630Y012090D02*
X004630Y012390D01*
X003830Y013190D01*
X003830Y019390D01*
X003070Y020190D01*
X005120Y017170D02*
X005130Y017090D01*
X005130Y014710D01*
X005290Y014710D01*
X005203Y014770D01*
X005290Y014710D01*
X005130Y014710D01*
X004630Y014710D01*
X004630Y013590D01*
X004595Y013590D01*
X005430Y031770D02*
X005430Y032310D01*
X004710Y033030D01*
X004710Y037530D01*
X004590Y037650D01*
X003930Y037650D01*
X003930Y037655D01*
X003930Y038325D02*
X005070Y038390D01*
X005230Y038390D01*
X005930Y038390D01*
X006016Y038416D01*
X006016Y039164D02*
X005930Y039190D01*
X005230Y039190D01*
X005230Y039490D01*
X004765Y039990D01*
X005537Y041490D02*
X005790Y041490D01*
X006270Y041970D01*
X006516Y041970D01*
X006956Y041530D01*
D33*
X007704Y041530D02*
X007710Y041670D01*
X007710Y042210D01*
X007290Y042210D01*
X007170Y042330D01*
X007170Y042810D01*
X006870Y042810D01*
X006870Y042930D01*
X006840Y042970D01*
X007704Y041530D02*
X007710Y041490D01*
X007710Y039810D01*
X007950Y039810D01*
X007990Y039834D01*
X007990Y039086D02*
X007950Y039030D01*
X007950Y038610D01*
X007770Y038430D01*
X007530Y038430D01*
X007410Y038370D01*
X007350Y038430D01*
X007050Y038430D01*
X007044Y038416D01*
X007410Y038370D02*
X007410Y038190D01*
X007430Y038030D01*
X007430Y037490D01*
X006510Y035250D02*
X006510Y033990D01*
X006510Y033450D01*
X007890Y033750D02*
X007890Y029490D01*
X007470Y029130D01*
X007470Y026910D01*
X008523Y025790D02*
X011930Y025790D01*
X011932Y025807D01*
X011936Y025824D01*
X011943Y025840D01*
X011953Y025854D01*
X011966Y025867D01*
X011980Y025877D01*
X011996Y025884D01*
X012013Y025888D01*
X012030Y025890D01*
X014730Y025990D01*
X014713Y025979D01*
X014695Y025970D01*
X014676Y025965D01*
X014656Y025962D01*
X014636Y025963D01*
X014616Y025967D01*
X014597Y025973D01*
X014580Y025983D01*
X014564Y025995D01*
X014550Y026010D01*
X017630Y026010D01*
X017410Y026010D01*
X017430Y025990D02*
X017610Y025990D01*
X017618Y025992D01*
X017624Y025996D01*
X017628Y026002D01*
X017630Y026010D01*
X021130Y026010D01*
X019630Y027590D01*
X019630Y030290D01*
X020830Y031390D01*
X022130Y033690D01*
X025230Y035890D01*
X022630Y037390D02*
X019930Y037390D01*
X019330Y035590D02*
X019245Y035592D01*
X019160Y035598D01*
X019075Y035607D01*
X018991Y035621D01*
X018907Y035638D01*
X018825Y035658D01*
X018743Y035683D01*
X018662Y035711D01*
X018583Y035743D01*
X018506Y035778D01*
X018430Y035817D01*
X018355Y035859D01*
X018283Y035904D01*
X018213Y035953D01*
X018145Y036005D01*
X018080Y036059D01*
X018017Y036117D01*
X017957Y036177D01*
X017899Y036240D01*
X017845Y036305D01*
X017793Y036373D01*
X017744Y036443D01*
X017699Y036515D01*
X017657Y036590D01*
X017618Y036666D01*
X017583Y036743D01*
X017551Y036822D01*
X017523Y036903D01*
X017498Y036985D01*
X017478Y037067D01*
X017461Y037151D01*
X017447Y037235D01*
X017438Y037320D01*
X017432Y037405D01*
X017430Y037490D01*
X017428Y037440D01*
X017423Y037390D01*
X017414Y037341D01*
X017402Y037293D01*
X017386Y037245D01*
X017367Y037199D01*
X017344Y037155D01*
X017319Y037112D01*
X017290Y037071D01*
X017259Y037032D01*
X017225Y036995D01*
X017188Y036961D01*
X017149Y036930D01*
X017108Y036901D01*
X017065Y036876D01*
X017021Y036853D01*
X016975Y036834D01*
X016927Y036818D01*
X016879Y036806D01*
X016830Y036797D01*
X016780Y036792D01*
X016730Y036790D01*
X012430Y036790D01*
X012413Y036792D01*
X012396Y036796D01*
X012380Y036803D01*
X012366Y036813D01*
X012353Y036826D01*
X012343Y036840D01*
X012336Y036856D01*
X012332Y036873D01*
X012330Y036890D01*
X012630Y038190D02*
X012830Y038190D01*
X011530Y038990D02*
X011532Y039037D01*
X011537Y039084D01*
X011547Y039130D01*
X011559Y039175D01*
X011576Y039220D01*
X011595Y039262D01*
X011618Y039303D01*
X011645Y039343D01*
X011674Y039380D01*
X011706Y039414D01*
X011740Y039446D01*
X011777Y039475D01*
X011817Y039502D01*
X011858Y039525D01*
X011900Y039544D01*
X011945Y039561D01*
X011990Y039573D01*
X012036Y039583D01*
X012083Y039588D01*
X012130Y039590D01*
X012330Y039590D01*
X012830Y038190D02*
X012911Y038192D01*
X012992Y038198D01*
X013072Y038207D01*
X013152Y038221D01*
X013231Y038238D01*
X013309Y038259D01*
X013386Y038283D01*
X013462Y038312D01*
X013536Y038344D01*
X013609Y038379D01*
X013680Y038418D01*
X013749Y038460D01*
X013816Y038505D01*
X013881Y038554D01*
X013943Y038605D01*
X014003Y038660D01*
X014060Y038717D01*
X014115Y038777D01*
X014166Y038839D01*
X014215Y038904D01*
X014260Y038971D01*
X014302Y039040D01*
X014341Y039111D01*
X014376Y039184D01*
X014408Y039258D01*
X014437Y039334D01*
X014461Y039411D01*
X014482Y039489D01*
X014499Y039568D01*
X014513Y039648D01*
X014522Y039728D01*
X014528Y039809D01*
X014530Y039890D01*
X014530Y040090D01*
X014532Y040140D01*
X014537Y040190D01*
X014546Y040239D01*
X014558Y040287D01*
X014574Y040335D01*
X014593Y040381D01*
X014616Y040425D01*
X014641Y040468D01*
X014670Y040509D01*
X014701Y040548D01*
X014735Y040585D01*
X014772Y040619D01*
X014811Y040650D01*
X014852Y040679D01*
X014895Y040704D01*
X014939Y040727D01*
X014985Y040746D01*
X015033Y040762D01*
X015081Y040774D01*
X015130Y040783D01*
X015180Y040788D01*
X015230Y040790D01*
X015530Y040790D01*
X015615Y040792D01*
X015700Y040798D01*
X015785Y040807D01*
X015869Y040821D01*
X015953Y040838D01*
X016035Y040858D01*
X016117Y040883D01*
X016198Y040911D01*
X016277Y040943D01*
X016354Y040978D01*
X016430Y041017D01*
X016505Y041059D01*
X016577Y041104D01*
X016647Y041153D01*
X016715Y041205D01*
X016780Y041259D01*
X016843Y041317D01*
X016903Y041377D01*
X016961Y041440D01*
X017015Y041505D01*
X017067Y041573D01*
X017116Y041643D01*
X017161Y041715D01*
X017203Y041790D01*
X017242Y041866D01*
X017277Y041943D01*
X017309Y042022D01*
X017337Y042103D01*
X017362Y042185D01*
X017382Y042267D01*
X017399Y042351D01*
X017413Y042435D01*
X017422Y042520D01*
X017428Y042605D01*
X017430Y042690D01*
X017430Y043490D01*
X017630Y043490D01*
X017689Y043492D01*
X017747Y043498D01*
X017806Y043507D01*
X017863Y043521D01*
X017919Y043538D01*
X017974Y043559D01*
X018028Y043583D01*
X018080Y043611D01*
X018130Y043642D01*
X018178Y043676D01*
X018223Y043713D01*
X018266Y043754D01*
X018307Y043797D01*
X018344Y043842D01*
X018378Y043890D01*
X018409Y043940D01*
X018437Y043992D01*
X018461Y044046D01*
X018482Y044101D01*
X018499Y044157D01*
X018513Y044214D01*
X018522Y044273D01*
X018528Y044331D01*
X018530Y044390D01*
X018530Y044580D01*
X018528Y044598D01*
X018523Y044614D01*
X018515Y044630D01*
X018504Y044644D01*
X018490Y044655D01*
X018474Y044663D01*
X018458Y044668D01*
X018440Y044670D01*
X018530Y044390D02*
X018532Y044330D01*
X018537Y044269D01*
X018546Y044210D01*
X018559Y044151D01*
X018575Y044092D01*
X018595Y044035D01*
X018618Y043980D01*
X018645Y043925D01*
X018674Y043873D01*
X018707Y043822D01*
X018743Y043773D01*
X018781Y043727D01*
X018823Y043683D01*
X018867Y043641D01*
X018913Y043603D01*
X018962Y043567D01*
X019013Y043534D01*
X019065Y043505D01*
X019120Y043478D01*
X019175Y043455D01*
X019232Y043435D01*
X019291Y043419D01*
X019350Y043406D01*
X019409Y043397D01*
X019470Y043392D01*
X019530Y043390D01*
X019930Y043390D01*
X019930Y042590D01*
X019932Y042526D01*
X019937Y042462D01*
X019947Y042399D01*
X019960Y042336D01*
X019976Y042275D01*
X019996Y042214D01*
X020020Y042154D01*
X020047Y042096D01*
X020077Y042040D01*
X020111Y041986D01*
X020148Y041933D01*
X020187Y041883D01*
X020230Y041835D01*
X020275Y041790D01*
X020323Y041747D01*
X020373Y041708D01*
X020426Y041671D01*
X020480Y041637D01*
X020536Y041607D01*
X020594Y041580D01*
X020654Y041556D01*
X020715Y041536D01*
X020776Y041520D01*
X020839Y041507D01*
X020902Y041497D01*
X020966Y041492D01*
X021030Y041490D01*
X025234Y041490D01*
X025253Y041488D01*
X025271Y041483D01*
X025287Y041474D01*
X025302Y041462D01*
X025314Y041447D01*
X025323Y041431D01*
X025328Y041413D01*
X025330Y041394D01*
X023930Y042990D02*
X024030Y043090D01*
X023430Y047190D01*
X023428Y047265D01*
X023422Y047340D01*
X023413Y047414D01*
X023400Y047488D01*
X023383Y047561D01*
X023362Y047633D01*
X023338Y047704D01*
X023310Y047774D01*
X023279Y047842D01*
X023244Y047908D01*
X023206Y047973D01*
X023165Y048035D01*
X023120Y048096D01*
X023073Y048154D01*
X023023Y048210D01*
X022970Y048263D01*
X022914Y048313D01*
X022856Y048360D01*
X022795Y048405D01*
X022733Y048446D01*
X022668Y048484D01*
X022602Y048519D01*
X022534Y048550D01*
X022464Y048578D01*
X022393Y048602D01*
X022321Y048623D01*
X022248Y048640D01*
X022174Y048653D01*
X022100Y048662D01*
X022025Y048668D01*
X021950Y048670D01*
X021440Y048670D01*
X019620Y048670D02*
X018340Y048670D01*
X017530Y047110D02*
X017469Y047112D01*
X017408Y047117D01*
X017348Y047127D01*
X017288Y047139D01*
X017230Y047156D01*
X017172Y047176D01*
X017115Y047199D01*
X017061Y047226D01*
X017007Y047256D01*
X016956Y047289D01*
X016907Y047325D01*
X016860Y047364D01*
X016816Y047406D01*
X016774Y047450D01*
X016735Y047497D01*
X016699Y047546D01*
X016666Y047597D01*
X016636Y047651D01*
X016609Y047705D01*
X016586Y047762D01*
X016566Y047820D01*
X016549Y047878D01*
X016537Y047938D01*
X016527Y047998D01*
X016522Y048059D01*
X016520Y048120D01*
X016520Y048670D01*
X017530Y047110D02*
X014950Y047110D01*
X014879Y047108D01*
X014807Y047102D01*
X014736Y047093D01*
X014666Y047079D01*
X014597Y047062D01*
X014529Y047041D01*
X014461Y047016D01*
X014396Y046988D01*
X014332Y046956D01*
X014269Y046921D01*
X014209Y046883D01*
X014151Y046841D01*
X014095Y046796D01*
X014042Y046748D01*
X013992Y046698D01*
X013944Y046645D01*
X013899Y046589D01*
X013857Y046531D01*
X013819Y046471D01*
X013784Y046408D01*
X013752Y046344D01*
X013724Y046279D01*
X013699Y046211D01*
X013678Y046143D01*
X013661Y046074D01*
X013647Y046004D01*
X013638Y045933D01*
X013632Y045861D01*
X013630Y045790D01*
X013630Y040890D01*
X013628Y040820D01*
X013622Y040749D01*
X013613Y040680D01*
X013600Y040611D01*
X013583Y040542D01*
X013562Y040475D01*
X013538Y040409D01*
X013510Y040344D01*
X013479Y040281D01*
X013444Y040220D01*
X013406Y040160D01*
X013365Y040103D01*
X013321Y040048D01*
X013274Y039996D01*
X013224Y039946D01*
X013172Y039899D01*
X013117Y039855D01*
X013060Y039814D01*
X013000Y039776D01*
X012939Y039741D01*
X012876Y039710D01*
X012811Y039682D01*
X012745Y039658D01*
X012678Y039637D01*
X012609Y039620D01*
X012540Y039607D01*
X012471Y039598D01*
X012400Y039592D01*
X012330Y039590D01*
X011530Y038990D02*
X011530Y038455D01*
X011528Y038414D01*
X011523Y038374D01*
X011514Y038335D01*
X011502Y038296D01*
X011486Y038258D01*
X011468Y038223D01*
X011446Y038188D01*
X011421Y038156D01*
X011394Y038126D01*
X011364Y038099D01*
X011332Y038074D01*
X011298Y038052D01*
X011262Y038034D01*
X011224Y038018D01*
X011185Y038006D01*
X011146Y037997D01*
X011106Y037992D01*
X011065Y037990D01*
X010395Y037990D02*
X010395Y036975D01*
X010393Y036945D01*
X010388Y036916D01*
X010380Y036887D01*
X010369Y036860D01*
X010354Y036834D01*
X010337Y036810D01*
X010317Y036788D01*
X010295Y036768D01*
X010271Y036751D01*
X010245Y036736D01*
X010218Y036725D01*
X010189Y036717D01*
X010160Y036712D01*
X010130Y036710D01*
X010030Y038355D02*
X010030Y039270D01*
X010030Y041710D01*
X009120Y041710D02*
X009120Y042760D01*
X009122Y042787D01*
X009127Y042814D01*
X009136Y042840D01*
X009148Y042865D01*
X009163Y042888D01*
X009182Y042908D01*
X009202Y042927D01*
X009225Y042942D01*
X009250Y042954D01*
X009276Y042963D01*
X009303Y042968D01*
X009330Y042970D01*
X009330Y045410D01*
X008430Y045420D02*
X007243Y049770D01*
X008857Y049770D02*
X010690Y051603D01*
X005310Y051505D01*
X011230Y051590D01*
X012030Y051590D01*
X014230Y051590D01*
X014269Y051588D01*
X014308Y051582D01*
X014346Y051573D01*
X014383Y051560D01*
X014419Y051543D01*
X014452Y051523D01*
X014484Y051499D01*
X014513Y051473D01*
X014539Y051444D01*
X014563Y051412D01*
X014583Y051379D01*
X014600Y051343D01*
X014613Y051306D01*
X014622Y051268D01*
X014628Y051229D01*
X014630Y051190D01*
X014630Y051110D01*
X017430Y051110D01*
X017432Y051102D01*
X017436Y051096D01*
X017442Y051092D01*
X017450Y051090D01*
X017730Y051090D01*
X017732Y051098D01*
X017736Y051104D01*
X017742Y051108D01*
X017750Y051110D01*
X020530Y051110D01*
X020530Y051130D01*
X020532Y051186D01*
X020537Y051242D01*
X020547Y051298D01*
X020559Y051353D01*
X020576Y051406D01*
X020595Y051459D01*
X020619Y051510D01*
X020645Y051560D01*
X020675Y051608D01*
X020708Y051654D01*
X020743Y051697D01*
X020782Y051738D01*
X020823Y051777D01*
X020866Y051812D01*
X020912Y051845D01*
X020960Y051875D01*
X021010Y051901D01*
X021061Y051925D01*
X021114Y051944D01*
X021167Y051961D01*
X021222Y051973D01*
X021278Y051983D01*
X021334Y051988D01*
X021390Y051990D01*
X024990Y051990D01*
X025046Y051988D01*
X025101Y051982D01*
X025156Y051972D01*
X025210Y051958D01*
X025263Y051941D01*
X025314Y051920D01*
X025364Y051895D01*
X025412Y051866D01*
X025457Y051834D01*
X025501Y051799D01*
X025542Y051762D01*
X025579Y051721D01*
X025614Y051677D01*
X025646Y051632D01*
X025675Y051584D01*
X025700Y051534D01*
X025721Y051483D01*
X025738Y051430D01*
X025752Y051376D01*
X025762Y051321D01*
X025768Y051266D01*
X025770Y051210D01*
X016300Y044990D02*
X015930Y044990D01*
X016300Y044990D02*
X016333Y044988D01*
X016367Y044983D01*
X016399Y044974D01*
X016430Y044962D01*
X016460Y044947D01*
X016488Y044929D01*
X016514Y044908D01*
X016538Y044884D01*
X016559Y044858D01*
X016577Y044830D01*
X016592Y044800D01*
X016604Y044769D01*
X016613Y044737D01*
X016618Y044703D01*
X016620Y044670D01*
X012630Y044190D02*
X012583Y044192D01*
X012536Y044197D01*
X012490Y044207D01*
X012445Y044219D01*
X012400Y044236D01*
X012358Y044255D01*
X012317Y044278D01*
X012277Y044305D01*
X012240Y044334D01*
X012206Y044366D01*
X012174Y044400D01*
X012145Y044437D01*
X012118Y044477D01*
X012095Y044518D01*
X012076Y044560D01*
X012059Y044605D01*
X012047Y044650D01*
X012037Y044696D01*
X012032Y044743D01*
X012030Y044790D01*
X012030Y045590D01*
X012630Y044190D02*
X012630Y043400D01*
X012628Y043320D01*
X012622Y043239D01*
X012613Y043159D01*
X012599Y043080D01*
X012582Y043002D01*
X012562Y042924D01*
X012537Y042847D01*
X012509Y042772D01*
X012477Y042698D01*
X012442Y042626D01*
X012404Y042555D01*
X012362Y042486D01*
X012317Y042420D01*
X012268Y042355D01*
X012217Y042293D01*
X012163Y042234D01*
X012106Y042177D01*
X012047Y042123D01*
X011985Y042072D01*
X011920Y042023D01*
X011854Y041978D01*
X011785Y041936D01*
X011714Y041898D01*
X011642Y041863D01*
X011568Y041831D01*
X011493Y041803D01*
X011416Y041778D01*
X011338Y041758D01*
X011260Y041741D01*
X011181Y041727D01*
X011101Y041718D01*
X011020Y041712D01*
X010940Y041710D01*
X010030Y038355D02*
X010032Y038319D01*
X010037Y038284D01*
X010046Y038249D01*
X010058Y038215D01*
X010073Y038183D01*
X010092Y038152D01*
X010113Y038123D01*
X010137Y038097D01*
X010163Y038073D01*
X010192Y038052D01*
X010223Y038033D01*
X010255Y038018D01*
X010289Y038006D01*
X010324Y037997D01*
X010359Y037992D01*
X010395Y037990D01*
X009220Y034270D02*
X009218Y034254D01*
X009214Y034239D01*
X009207Y034226D01*
X009197Y034213D01*
X009184Y034203D01*
X009171Y034196D01*
X009156Y034192D01*
X009140Y034190D01*
X008670Y034190D01*
X011040Y034270D02*
X011042Y034208D01*
X011048Y034147D01*
X011057Y034086D01*
X011071Y034026D01*
X011088Y033967D01*
X011109Y033909D01*
X011133Y033853D01*
X011161Y033798D01*
X011193Y033745D01*
X011227Y033694D01*
X011265Y033645D01*
X011306Y033599D01*
X011349Y033556D01*
X011395Y033515D01*
X011444Y033477D01*
X011495Y033443D01*
X011548Y033411D01*
X011603Y033383D01*
X011659Y033359D01*
X011717Y033338D01*
X011776Y033321D01*
X011836Y033307D01*
X011897Y033298D01*
X011958Y033292D01*
X012020Y033290D01*
X014430Y033290D01*
X019330Y035590D02*
X020530Y035590D01*
X022930Y039390D02*
X022730Y039590D01*
X027990Y026970D02*
X029670Y025290D01*
X030210Y021710D01*
X026530Y016494D02*
X026528Y016476D01*
X026524Y016458D01*
X026516Y016442D01*
X026506Y016427D01*
X026493Y016414D01*
X026478Y016404D01*
X026462Y016396D01*
X026444Y016392D01*
X026426Y016390D01*
X021630Y016390D01*
X021563Y016392D01*
X021496Y016398D01*
X021429Y016407D01*
X021363Y016420D01*
X021298Y016437D01*
X021234Y016457D01*
X021171Y016481D01*
X021109Y016509D01*
X021050Y016540D01*
X020992Y016574D01*
X020936Y016611D01*
X020882Y016652D01*
X020830Y016695D01*
X020781Y016741D01*
X020735Y016790D01*
X020692Y016842D01*
X020651Y016896D01*
X020614Y016952D01*
X020580Y017010D01*
X020549Y017069D01*
X020521Y017131D01*
X020497Y017194D01*
X020477Y017258D01*
X020460Y017323D01*
X020447Y017389D01*
X020438Y017456D01*
X020432Y017523D01*
X020430Y017590D01*
X020430Y017990D01*
X018430Y017990D01*
X018413Y017992D01*
X018396Y017996D01*
X018380Y018003D01*
X018366Y018013D01*
X018353Y018026D01*
X018343Y018040D01*
X018336Y018056D01*
X018332Y018073D01*
X018330Y018090D01*
X018130Y018090D01*
X018330Y018090D02*
X018377Y018092D01*
X018424Y018097D01*
X018470Y018107D01*
X018515Y018119D01*
X018560Y018136D01*
X018602Y018155D01*
X018643Y018178D01*
X018683Y018205D01*
X018720Y018234D01*
X018754Y018266D01*
X018786Y018300D01*
X018815Y018337D01*
X018842Y018377D01*
X018865Y018418D01*
X018884Y018460D01*
X018901Y018505D01*
X018913Y018550D01*
X018923Y018596D01*
X018928Y018643D01*
X018930Y018690D01*
X018930Y019480D01*
X018928Y019498D01*
X018923Y019514D01*
X018915Y019530D01*
X018904Y019544D01*
X018890Y019555D01*
X018874Y019563D01*
X018858Y019568D01*
X018840Y019570D01*
X017930Y022010D02*
X014950Y022010D01*
X014889Y022018D01*
X014827Y022022D01*
X014766Y022021D01*
X014704Y022017D01*
X014643Y022009D01*
X014582Y021998D01*
X014523Y021982D01*
X014464Y021963D01*
X014407Y021940D01*
X014351Y021913D01*
X014297Y021883D01*
X014245Y021850D01*
X014195Y021814D01*
X014148Y021774D01*
X014103Y021732D01*
X014061Y021687D01*
X014022Y021639D01*
X013986Y021589D01*
X013953Y021537D01*
X013923Y021483D01*
X013897Y021427D01*
X013875Y021369D01*
X013856Y021311D01*
X013841Y021251D01*
X013830Y021190D01*
X013830Y016990D01*
X012930Y018590D02*
X012930Y019190D01*
X012932Y019173D01*
X012936Y019156D01*
X012943Y019140D01*
X012953Y019126D01*
X012966Y019113D01*
X012980Y019103D01*
X012996Y019096D01*
X013013Y019092D01*
X013030Y019090D01*
X013130Y019090D01*
X012330Y019090D01*
X012291Y019092D01*
X012252Y019098D01*
X012214Y019107D01*
X012177Y019120D01*
X012141Y019137D01*
X012108Y019157D01*
X012076Y019181D01*
X012047Y019207D01*
X012021Y019236D01*
X011997Y019268D01*
X011977Y019301D01*
X011960Y019337D01*
X011947Y019374D01*
X011938Y019412D01*
X011932Y019451D01*
X011930Y019490D01*
X011930Y019790D01*
X012930Y018590D02*
X012928Y018517D01*
X012922Y018444D01*
X012913Y018371D01*
X012899Y018299D01*
X012882Y018228D01*
X012861Y018157D01*
X012837Y018088D01*
X012809Y018021D01*
X012777Y017954D01*
X012742Y017890D01*
X012704Y017828D01*
X012663Y017767D01*
X012618Y017709D01*
X012570Y017653D01*
X012520Y017600D01*
X012467Y017550D01*
X012411Y017502D01*
X012353Y017457D01*
X012292Y017416D01*
X012230Y017378D01*
X012166Y017343D01*
X012099Y017311D01*
X012032Y017283D01*
X011963Y017259D01*
X011892Y017238D01*
X011821Y017221D01*
X011749Y017207D01*
X011676Y017198D01*
X011603Y017192D01*
X011530Y017190D01*
X011330Y017190D01*
X011286Y017188D01*
X011243Y017182D01*
X011201Y017173D01*
X011159Y017160D01*
X011119Y017143D01*
X011080Y017123D01*
X011043Y017100D01*
X011009Y017073D01*
X010976Y017044D01*
X010947Y017011D01*
X010920Y016977D01*
X010897Y016940D01*
X010877Y016901D01*
X010860Y016861D01*
X010847Y016819D01*
X010838Y016777D01*
X010832Y016734D01*
X010830Y016690D01*
X010830Y015920D01*
X010832Y015901D01*
X010837Y015882D01*
X010845Y015865D01*
X010856Y015849D01*
X010869Y015836D01*
X010885Y015825D01*
X010902Y015817D01*
X010921Y015812D01*
X010940Y015810D01*
X010030Y015810D02*
X010030Y013370D01*
X010013Y013368D01*
X009996Y013364D01*
X009980Y013357D01*
X009966Y013347D01*
X009953Y013334D01*
X009943Y013320D01*
X009936Y013304D01*
X009932Y013287D01*
X009930Y013270D01*
X009930Y012090D01*
X009932Y012056D01*
X009938Y012023D01*
X009947Y011991D01*
X009960Y011960D01*
X009976Y011930D01*
X009995Y011903D01*
X010018Y011878D01*
X010043Y011855D01*
X010070Y011836D01*
X010100Y011820D01*
X010131Y011807D01*
X010163Y011798D01*
X010196Y011792D01*
X010230Y011790D01*
X010395Y011790D01*
X010395Y010075D01*
X010393Y010045D01*
X010388Y010016D01*
X010380Y009987D01*
X010369Y009960D01*
X010354Y009934D01*
X010337Y009910D01*
X010317Y009888D01*
X010295Y009868D01*
X010271Y009851D01*
X010245Y009836D01*
X010218Y009825D01*
X010189Y009817D01*
X010160Y009812D01*
X010130Y009810D01*
X009220Y007370D02*
X008350Y007370D01*
X008342Y007372D01*
X008336Y007376D01*
X008332Y007382D01*
X008330Y007390D01*
X011040Y007370D02*
X014510Y007370D01*
X014553Y007372D01*
X014596Y007377D01*
X014638Y007386D01*
X014679Y007398D01*
X014719Y007414D01*
X014757Y007433D01*
X014794Y007455D01*
X014829Y007480D01*
X014862Y007507D01*
X014893Y007538D01*
X014920Y007571D01*
X014945Y007606D01*
X014967Y007643D01*
X014986Y007681D01*
X015002Y007721D01*
X015014Y007762D01*
X015023Y007804D01*
X015028Y007847D01*
X015030Y007890D01*
X018130Y011790D02*
X018130Y012090D01*
X018130Y011790D02*
X018132Y011717D01*
X018138Y011644D01*
X018147Y011571D01*
X018161Y011499D01*
X018178Y011428D01*
X018199Y011357D01*
X018223Y011288D01*
X018251Y011221D01*
X018283Y011154D01*
X018318Y011090D01*
X018356Y011028D01*
X018397Y010967D01*
X018442Y010909D01*
X018490Y010853D01*
X018540Y010800D01*
X018593Y010750D01*
X018649Y010702D01*
X018707Y010657D01*
X018768Y010616D01*
X018830Y010578D01*
X018894Y010543D01*
X018961Y010511D01*
X019028Y010483D01*
X019097Y010459D01*
X019168Y010438D01*
X019239Y010421D01*
X019311Y010407D01*
X019384Y010398D01*
X019457Y010392D01*
X019530Y010390D01*
X020730Y010390D01*
X020747Y010388D01*
X020764Y010384D01*
X020780Y010377D01*
X020794Y010367D01*
X020807Y010354D01*
X020817Y010340D01*
X020824Y010324D01*
X020828Y010307D01*
X020830Y010290D01*
X020430Y011990D02*
X023030Y011990D01*
X023103Y011992D01*
X023176Y011998D01*
X023249Y012007D01*
X023321Y012021D01*
X023392Y012038D01*
X023463Y012059D01*
X023532Y012083D01*
X023599Y012111D01*
X023666Y012143D01*
X023730Y012178D01*
X023792Y012216D01*
X023853Y012257D01*
X023911Y012302D01*
X023967Y012350D01*
X024020Y012400D01*
X024070Y012453D01*
X024118Y012509D01*
X024163Y012567D01*
X024204Y012628D01*
X024242Y012690D01*
X024277Y012754D01*
X024309Y012821D01*
X024337Y012888D01*
X024361Y012957D01*
X024382Y013028D01*
X024399Y013099D01*
X024413Y013171D01*
X024422Y013244D01*
X024428Y013317D01*
X024430Y013390D01*
X024430Y015390D01*
X024430Y017290D02*
X024430Y019590D01*
X024428Y019629D01*
X024422Y019668D01*
X024413Y019706D01*
X024400Y019743D01*
X024383Y019779D01*
X024363Y019812D01*
X024339Y019844D01*
X024313Y019873D01*
X024284Y019899D01*
X024252Y019923D01*
X024219Y019943D01*
X024183Y019960D01*
X024146Y019973D01*
X024108Y019982D01*
X024069Y019988D01*
X024030Y019990D01*
X023930Y019990D01*
X023845Y019992D01*
X023761Y019998D01*
X023676Y020007D01*
X023593Y020020D01*
X023509Y020037D01*
X023427Y020058D01*
X023346Y020083D01*
X023266Y020111D01*
X023187Y020142D01*
X023110Y020177D01*
X023034Y020216D01*
X022961Y020258D01*
X022889Y020303D01*
X022819Y020351D01*
X022752Y020402D01*
X022686Y020457D01*
X022624Y020514D01*
X022564Y020574D01*
X022507Y020636D01*
X022452Y020702D01*
X022401Y020769D01*
X022353Y020839D01*
X022308Y020911D01*
X022266Y020984D01*
X022227Y021060D01*
X022192Y021137D01*
X022161Y021216D01*
X022133Y021296D01*
X022108Y021377D01*
X022087Y021459D01*
X022070Y021543D01*
X022057Y021626D01*
X022048Y021711D01*
X022042Y021795D01*
X022040Y021880D01*
X022040Y023570D01*
X020220Y023570D02*
X018540Y023570D01*
X017930Y022010D02*
X017862Y022012D01*
X017795Y022018D01*
X017727Y022027D01*
X017661Y022040D01*
X017595Y022057D01*
X017530Y022078D01*
X017467Y022102D01*
X017405Y022130D01*
X017345Y022161D01*
X017286Y022195D01*
X017230Y022233D01*
X017176Y022274D01*
X017124Y022318D01*
X017074Y022364D01*
X017028Y022414D01*
X016984Y022466D01*
X016943Y022520D01*
X016905Y022576D01*
X016871Y022635D01*
X016840Y022695D01*
X016812Y022757D01*
X016788Y022820D01*
X016767Y022885D01*
X016750Y022951D01*
X016737Y023017D01*
X016728Y023085D01*
X016722Y023152D01*
X016720Y023220D01*
X016720Y023570D01*
X017410Y026010D02*
X017394Y026012D01*
X017379Y026016D01*
X017366Y026023D01*
X017353Y026033D01*
X017343Y026046D01*
X017336Y026059D01*
X017332Y026074D01*
X017330Y026090D01*
X017332Y026073D01*
X017336Y026056D01*
X017343Y026040D01*
X017353Y026026D01*
X017366Y026013D01*
X017380Y026003D01*
X017396Y025996D01*
X017413Y025992D01*
X017430Y025990D01*
X016300Y020290D02*
X016130Y020290D01*
X016300Y020290D02*
X016351Y020288D01*
X016402Y020283D01*
X016453Y020274D01*
X016503Y020261D01*
X016552Y020245D01*
X016599Y020225D01*
X016645Y020202D01*
X016689Y020176D01*
X016731Y020146D01*
X016771Y020114D01*
X016809Y020079D01*
X016844Y020041D01*
X016876Y020001D01*
X016906Y019959D01*
X016932Y019915D01*
X016955Y019869D01*
X016975Y019822D01*
X016991Y019773D01*
X017004Y019723D01*
X017013Y019672D01*
X017018Y019621D01*
X017020Y019570D01*
X018130Y018090D02*
X018128Y017985D01*
X018122Y017881D01*
X018112Y017776D01*
X018099Y017673D01*
X018081Y017569D01*
X018060Y017467D01*
X018035Y017365D01*
X018006Y017265D01*
X017973Y017165D01*
X017936Y017067D01*
X017896Y016970D01*
X017853Y016875D01*
X017806Y016782D01*
X017755Y016690D01*
X017701Y016600D01*
X017643Y016513D01*
X017583Y016427D01*
X017519Y016344D01*
X017452Y016264D01*
X017383Y016186D01*
X017310Y016110D01*
X017234Y016037D01*
X017156Y015968D01*
X017076Y015901D01*
X016993Y015837D01*
X016907Y015777D01*
X016820Y015719D01*
X016730Y015665D01*
X016638Y015614D01*
X016545Y015567D01*
X016450Y015524D01*
X016353Y015484D01*
X016255Y015447D01*
X016155Y015414D01*
X016055Y015385D01*
X015953Y015360D01*
X015851Y015339D01*
X015747Y015321D01*
X015644Y015308D01*
X015539Y015298D01*
X015435Y015292D01*
X015330Y015290D01*
X014530Y015290D01*
X014451Y015288D01*
X014373Y015282D01*
X014295Y015273D01*
X014218Y015259D01*
X014141Y015242D01*
X014066Y015221D01*
X013991Y015196D01*
X013918Y015168D01*
X013846Y015136D01*
X013776Y015101D01*
X013707Y015062D01*
X013641Y015020D01*
X013577Y014975D01*
X013515Y014927D01*
X013456Y014876D01*
X013399Y014821D01*
X013344Y014764D01*
X013293Y014705D01*
X013245Y014643D01*
X013200Y014579D01*
X013158Y014513D01*
X013119Y014444D01*
X013084Y014374D01*
X013052Y014302D01*
X013024Y014229D01*
X012999Y014154D01*
X012978Y014079D01*
X012961Y014002D01*
X012947Y013925D01*
X012938Y013847D01*
X012932Y013769D01*
X012930Y013690D01*
X012930Y013190D01*
X011830Y012555D02*
X011830Y014890D01*
X011832Y014934D01*
X011838Y014977D01*
X011847Y015019D01*
X011860Y015061D01*
X011877Y015101D01*
X011897Y015140D01*
X011920Y015177D01*
X011947Y015211D01*
X011976Y015244D01*
X012009Y015273D01*
X012043Y015300D01*
X012080Y015323D01*
X012119Y015343D01*
X012159Y015360D01*
X012201Y015373D01*
X012243Y015382D01*
X012286Y015388D01*
X012330Y015390D01*
X012530Y015390D01*
X012606Y015400D01*
X012681Y015413D01*
X012755Y015431D01*
X012828Y015453D01*
X012900Y015478D01*
X012971Y015507D01*
X013040Y015540D01*
X013107Y015576D01*
X013172Y015616D01*
X013235Y015659D01*
X013296Y015705D01*
X013354Y015755D01*
X013409Y015807D01*
X013462Y015863D01*
X013512Y015921D01*
X013558Y015981D01*
X013601Y016044D01*
X013641Y016109D01*
X013678Y016176D01*
X013711Y016245D01*
X013740Y016315D01*
X013766Y016387D01*
X013788Y016460D01*
X013806Y016535D01*
X013820Y016610D01*
X013830Y016685D01*
X013836Y016761D01*
X013838Y016838D01*
X013836Y016914D01*
X013830Y016990D01*
X014730Y019590D02*
X014730Y019990D01*
X010230Y019790D02*
X010204Y019792D01*
X010178Y019797D01*
X010153Y019805D01*
X010130Y019817D01*
X010108Y019831D01*
X010089Y019849D01*
X010071Y019868D01*
X010057Y019890D01*
X010045Y019913D01*
X010037Y019938D01*
X010032Y019964D01*
X010030Y019990D01*
X010030Y021690D01*
X010230Y019790D02*
X010230Y019700D01*
X010228Y019682D01*
X010223Y019666D01*
X010215Y019650D01*
X010204Y019636D01*
X010190Y019625D01*
X010174Y019617D01*
X010158Y019612D01*
X010140Y019610D01*
X009230Y019610D02*
X009230Y017500D01*
X009130Y017490D02*
X009132Y017473D01*
X009136Y017456D01*
X009143Y017440D01*
X009153Y017426D01*
X009166Y017413D01*
X009180Y017403D01*
X009196Y017396D01*
X009213Y017392D01*
X009230Y017390D01*
X009230Y017170D01*
X009120Y017390D02*
X009120Y017580D01*
X009121Y017585D01*
X009125Y017589D01*
X009130Y017590D01*
X009130Y017490D01*
X009120Y017390D02*
X009139Y017392D01*
X009158Y017397D01*
X009175Y017405D01*
X009191Y017416D01*
X009204Y017429D01*
X009215Y017445D01*
X009223Y017462D01*
X009228Y017481D01*
X009230Y017500D01*
X009120Y017390D02*
X009120Y015810D01*
X006930Y013410D02*
X007050Y013290D01*
X007050Y013170D01*
X011065Y011790D02*
X011120Y011792D01*
X011174Y011798D01*
X011228Y011807D01*
X011281Y011821D01*
X011332Y011838D01*
X011383Y011859D01*
X011432Y011884D01*
X011479Y011911D01*
X011523Y011943D01*
X011566Y011977D01*
X011606Y012014D01*
X011643Y012054D01*
X011677Y012097D01*
X011709Y012141D01*
X011736Y012188D01*
X011761Y012237D01*
X011782Y012288D01*
X011799Y012339D01*
X011813Y012392D01*
X011822Y012446D01*
X011828Y012500D01*
X011830Y012555D01*
X008320Y019610D02*
X008302Y019612D01*
X008286Y019617D01*
X008270Y019625D01*
X008256Y019636D01*
X008245Y019650D01*
X008237Y019666D01*
X008232Y019682D01*
X008230Y019700D01*
X008230Y023883D01*
X008230Y025497D02*
X006702Y025497D01*
X006647Y025495D01*
X006592Y025489D01*
X006538Y025479D01*
X006485Y025466D01*
X006432Y025448D01*
X006381Y025427D01*
X006332Y025403D01*
X006285Y025374D01*
X006239Y025343D01*
X006196Y025308D01*
X006156Y025271D01*
X006119Y025231D01*
X006084Y025188D01*
X006053Y025142D01*
X006024Y025095D01*
X006000Y025046D01*
X005979Y024995D01*
X005961Y024942D01*
X005948Y024889D01*
X005938Y024835D01*
X005932Y024780D01*
X005930Y024725D01*
X005930Y025150D01*
X005928Y025212D01*
X005922Y025273D01*
X005913Y025334D01*
X005899Y025394D01*
X005882Y025453D01*
X005861Y025511D01*
X005837Y025567D01*
X005809Y025622D01*
X005777Y025675D01*
X005743Y025726D01*
X005705Y025775D01*
X005664Y025821D01*
X005621Y025864D01*
X005575Y025905D01*
X005526Y025943D01*
X005475Y025977D01*
X005422Y026009D01*
X005367Y026037D01*
X005311Y026061D01*
X005253Y026082D01*
X005194Y026099D01*
X005134Y026113D01*
X005073Y026122D01*
X005012Y026128D01*
X004950Y026130D01*
X003790Y026130D01*
X003780Y026131D01*
X003770Y026135D01*
X003762Y026142D01*
X003755Y026150D01*
X003751Y026160D01*
X003750Y026170D01*
X005930Y024055D02*
X005930Y022490D01*
X005928Y022446D01*
X005922Y022403D01*
X005913Y022361D01*
X005900Y022319D01*
X005883Y022279D01*
X005863Y022240D01*
X005840Y022203D01*
X005813Y022169D01*
X005784Y022136D01*
X005751Y022107D01*
X005717Y022080D01*
X005680Y022057D01*
X005641Y022037D01*
X005601Y022020D01*
X005559Y022007D01*
X005517Y021998D01*
X005474Y021992D01*
X005430Y021990D01*
X004330Y021990D01*
X004296Y021988D01*
X004263Y021982D01*
X004231Y021973D01*
X004200Y021960D01*
X004170Y021944D01*
X004143Y021925D01*
X004118Y021902D01*
X004095Y021877D01*
X004076Y021850D01*
X004060Y021820D01*
X004047Y021789D01*
X004038Y021757D01*
X004032Y021724D01*
X004030Y021690D01*
X004030Y021610D01*
X004032Y021523D01*
X004038Y021436D01*
X004047Y021349D01*
X004060Y021263D01*
X004077Y021177D01*
X004098Y021092D01*
X004123Y021009D01*
X004151Y020926D01*
X004182Y020845D01*
X004217Y020765D01*
X004256Y020687D01*
X004298Y020610D01*
X004343Y020535D01*
X004392Y020463D01*
X004443Y020392D01*
X004498Y020324D01*
X004555Y020259D01*
X004616Y020196D01*
X004679Y020135D01*
X004744Y020078D01*
X004812Y020023D01*
X004883Y019972D01*
X004955Y019923D01*
X005030Y019878D01*
X005107Y019836D01*
X005185Y019797D01*
X005265Y019762D01*
X005346Y019731D01*
X005429Y019703D01*
X005512Y019678D01*
X005597Y019657D01*
X005683Y019640D01*
X005769Y019627D01*
X005856Y019618D01*
X005943Y019612D01*
X006030Y019610D01*
X008230Y025497D02*
X008232Y025530D01*
X008237Y025562D01*
X008246Y025594D01*
X008259Y025624D01*
X008275Y025653D01*
X008294Y025680D01*
X008316Y025704D01*
X008340Y025726D01*
X008367Y025745D01*
X008396Y025761D01*
X008426Y025774D01*
X008458Y025783D01*
X008490Y025788D01*
X008523Y025790D01*
X003990Y035250D02*
X003990Y036030D01*
X003970Y036030D01*
X004095Y039990D02*
X004095Y040162D01*
X004049Y040199D01*
X004006Y040240D01*
X003965Y040283D01*
X003927Y040329D01*
X003892Y040377D01*
X003860Y040427D01*
X003831Y040479D01*
X003805Y040533D01*
X003783Y040588D01*
X003765Y040645D01*
X003750Y040702D01*
X003738Y040761D01*
X003731Y040820D01*
X003727Y040879D01*
X003726Y040938D01*
X003730Y040998D01*
X003737Y041057D01*
X003748Y041115D01*
X003763Y041173D01*
X003781Y041230D01*
X003803Y041285D01*
X003828Y041339D01*
X003856Y041391D01*
X003888Y041442D01*
X003923Y041490D01*
X004923Y042873D01*
X004924Y042890D01*
X004929Y042906D01*
X004936Y042922D01*
X004946Y042935D01*
X004958Y042947D01*
X004972Y042957D01*
X004987Y042964D01*
X005003Y042969D01*
X005020Y042970D01*
X008420Y045410D02*
X008425Y045411D01*
X008429Y045415D01*
X008430Y045420D01*
X010240Y045410D02*
X010240Y047380D01*
X010267Y047398D01*
X010293Y047419D01*
X010316Y047443D01*
X010336Y047468D01*
X010354Y047496D01*
X010368Y047526D01*
X010380Y047556D01*
X010388Y047588D01*
X010393Y047621D01*
X010394Y047654D01*
X010392Y047686D01*
X010386Y047719D01*
X010378Y047750D01*
X010365Y047781D01*
X010350Y047810D01*
X005930Y045410D02*
X005849Y045412D01*
X005768Y045418D01*
X005688Y045427D01*
X005608Y045441D01*
X005529Y045458D01*
X005451Y045479D01*
X005374Y045503D01*
X005298Y045532D01*
X005224Y045564D01*
X005151Y045599D01*
X005080Y045638D01*
X005011Y045680D01*
X004944Y045725D01*
X004879Y045774D01*
X004817Y045825D01*
X004757Y045880D01*
X004700Y045937D01*
X004645Y045997D01*
X004594Y046059D01*
X004545Y046124D01*
X004500Y046191D01*
X004458Y046260D01*
X004419Y046331D01*
X004384Y046404D01*
X004352Y046478D01*
X004323Y046554D01*
X004299Y046631D01*
X004278Y046709D01*
X004261Y046788D01*
X004247Y046868D01*
X004238Y046948D01*
X004232Y047029D01*
X004230Y047110D01*
X004350Y047810D01*
X004402Y047801D01*
X004455Y047796D01*
X004509Y047795D01*
X004562Y047798D01*
X004615Y047804D01*
X004667Y047814D01*
X004718Y047828D01*
X004768Y047845D01*
X004817Y047866D01*
X004865Y047890D01*
X004910Y047918D01*
X004953Y047949D01*
X004994Y047983D01*
X005033Y048019D01*
X005069Y048059D01*
X005102Y048100D01*
X005131Y048144D01*
X005158Y048191D01*
X005181Y048238D01*
X005201Y048288D01*
X005217Y048338D01*
X005230Y048390D01*
X005310Y050835D01*
D34*
X005970Y034350D02*
X005970Y033090D01*
X006030Y033090D01*
X006450Y033090D01*
X006467Y033082D01*
X006467Y033418D02*
X006510Y033450D01*
X007050Y013170D02*
X007410Y012810D01*
X007410Y012330D01*
X007224Y012144D01*
X007044Y012144D01*
X007044Y011396D02*
X007536Y011396D01*
X008230Y012090D01*
X026530Y016494D02*
X026614Y016410D01*
X028530Y016410D01*
X029310Y015630D01*
X029310Y012090D01*
X030690Y010710D01*
X039270Y010710D01*
X040470Y011910D01*
X040470Y013530D01*
X040323Y013530D01*
X038470Y015383D01*
X038570Y014290D02*
X038104Y014290D01*
X038104Y013290D01*
X038104Y012290D01*
X038970Y013890D02*
X038570Y014290D01*
X040050Y014910D02*
X041610Y014910D01*
X041730Y014790D01*
X041730Y013790D02*
X040730Y013790D01*
X040470Y013530D01*
X040530Y016230D02*
X040470Y016290D01*
X040470Y021450D01*
X040770Y021750D01*
X040470Y022050D01*
X040470Y022530D01*
X040750Y022810D01*
X040750Y028420D01*
X039090Y022770D02*
X037624Y022770D01*
X037604Y022790D01*
X037604Y021790D01*
X037604Y020790D01*
X040770Y021750D02*
X041690Y021750D01*
X041730Y021790D01*
X040810Y021790D01*
X040770Y021750D01*
X031350Y014790D02*
X030470Y015670D01*
X030470Y016173D01*
X027810Y028710D02*
X027810Y035990D01*
X031970Y040150D01*
X030270Y043710D02*
X030270Y045183D01*
X030230Y045223D01*
X029777Y045223D01*
X029310Y045690D01*
X029310Y050730D01*
X029730Y051150D01*
X030270Y043710D02*
X027954Y041394D01*
X025330Y041394D01*
X037730Y046647D02*
X037813Y046730D01*
X040170Y046730D01*
X041730Y048290D01*
X041730Y050290D02*
X038104Y050290D01*
X038104Y049290D01*
X038104Y048290D01*
X040170Y046730D02*
X040170Y042330D01*
X040470Y042030D01*
X040530Y042030D01*
X040770Y041790D01*
X041730Y041790D01*
X040650Y041790D01*
X040170Y041310D01*
X040170Y038610D01*
X040690Y037970D01*
X040690Y035720D01*
X040670Y035420D01*
X038604Y040790D02*
X038604Y041790D01*
X038604Y042790D01*
X039170Y042790D01*
X039330Y042630D01*
X038604Y042790D02*
X038604Y041790D01*
D35*
X023930Y042990D03*
X022730Y039590D03*
X024430Y017290D03*
X024430Y015390D03*
D36*
X007470Y033090D02*
X007230Y033090D01*
X007193Y033082D01*
X007470Y033090D02*
X007530Y033150D01*
X007530Y033510D01*
X007470Y033570D01*
X007470Y035730D01*
X007530Y035790D01*
X007230Y036290D02*
X007230Y033750D01*
X007230Y033455D01*
X007229Y033445D01*
X007225Y033437D01*
X007219Y033429D01*
X007212Y033423D01*
X007203Y033419D01*
X007193Y033418D01*
X006450Y035790D02*
X006450Y037650D01*
X006016Y038790D02*
X005230Y038790D01*
X006770Y039590D02*
X007010Y039470D01*
X007023Y039468D01*
X007036Y039464D01*
X007047Y039457D01*
X007057Y039447D01*
X007064Y039436D01*
X007068Y039423D01*
X007070Y039410D01*
X007070Y039190D01*
X007069Y039182D01*
X007065Y039175D01*
X007059Y039169D01*
X007052Y039165D01*
X007044Y039164D01*
D37*
X006770Y039590D03*
X007230Y036290D03*
D38*
X007170Y033750D02*
X007230Y033750D01*
X007193Y033082D02*
X006930Y032819D01*
X006930Y027090D01*
X004290Y023610D02*
X003150Y023610D01*
X003050Y023510D01*
X003050Y020330D01*
X003070Y020190D01*
X005550Y011790D02*
X005970Y011790D01*
X006016Y011770D01*
X006016Y011396D02*
X005390Y010770D01*
X005265Y010770D01*
X005490Y011670D02*
X005490Y011730D01*
X005550Y011790D01*
X020830Y010290D02*
X021070Y010530D01*
X025770Y010530D01*
X030470Y017787D02*
X030470Y018310D01*
X030210Y018570D01*
X030210Y018975D01*
X030295Y019060D01*
X030965Y019060D02*
X031879Y019060D01*
X031915Y019024D01*
X032150Y019045D02*
X032150Y019610D01*
X032130Y019630D01*
X032130Y019770D01*
X030810Y021090D01*
X030210Y021710D01*
X032427Y020547D02*
X032427Y019024D01*
X032683Y019024D02*
X032683Y019903D01*
X032790Y020190D01*
X032427Y020547D02*
X032430Y020550D01*
X033150Y020910D02*
X033190Y019750D01*
X033190Y019590D01*
X033190Y019029D01*
X033195Y019024D01*
X033690Y019050D02*
X033690Y019410D01*
X033570Y019530D01*
X033570Y020910D01*
X033270Y021210D01*
X033270Y023850D01*
X030750Y026370D01*
X030750Y027770D01*
X030730Y027790D01*
X031770Y026670D02*
X031770Y029250D01*
X031730Y029290D01*
X032730Y027790D02*
X032730Y026910D01*
X033750Y025890D01*
X033750Y021390D01*
X034218Y020922D01*
X034218Y019024D01*
X033990Y019050D02*
X033962Y019024D01*
X033990Y019050D02*
X033990Y019350D01*
X033870Y019470D01*
X033870Y019530D01*
X033750Y019650D01*
X033750Y021030D01*
X033450Y021330D01*
X033450Y023970D01*
X032910Y024510D01*
X032910Y024570D01*
X032910Y025530D01*
X031770Y026670D01*
X029730Y028710D02*
X028650Y027630D01*
X027330Y027630D01*
X027270Y027570D01*
X027270Y019950D01*
X026070Y018750D01*
X032150Y019045D02*
X032171Y019024D01*
X033690Y019050D02*
X033706Y019024D01*
X034470Y019050D02*
X034474Y019024D01*
X034470Y019050D02*
X034470Y019410D01*
X034410Y019470D01*
X034410Y020910D01*
X034530Y021030D01*
X034530Y021510D01*
X034590Y021570D01*
X034590Y022170D01*
X033930Y022830D01*
X033930Y029310D01*
X033750Y029310D01*
X033730Y029290D01*
X034730Y027790D02*
X034770Y027750D01*
X034770Y021450D01*
X034710Y021390D01*
X034710Y019050D01*
X034730Y019024D01*
X035070Y019530D02*
X035070Y020910D01*
X035490Y020190D02*
X035490Y022170D01*
X035970Y022650D01*
X036716Y022650D01*
X036856Y022790D01*
X036856Y021790D02*
X036070Y021790D01*
X035970Y021690D01*
X036090Y020670D02*
X036736Y020670D01*
X036856Y020790D01*
X036810Y017910D02*
X036810Y017070D01*
X036805Y017020D01*
X036150Y017010D02*
X036150Y016530D01*
X035790Y016530D01*
X034770Y016530D01*
X034730Y016556D01*
X034474Y016556D02*
X034450Y016532D01*
X034450Y015550D01*
X035230Y014770D01*
X034710Y014490D02*
X035010Y014190D01*
X037350Y014190D01*
X037350Y014250D01*
X037356Y014290D01*
X037350Y013290D02*
X037356Y013290D01*
X037350Y013290D02*
X037350Y013170D01*
X035790Y013170D01*
X034950Y014010D01*
X034890Y014010D01*
X033690Y015030D01*
X033690Y015990D01*
X033690Y016050D01*
X033690Y016110D01*
X033690Y016230D01*
X033690Y016530D01*
X033706Y016556D01*
X033450Y016556D02*
X033450Y016530D01*
X033450Y015090D01*
X033210Y015090D01*
X033210Y014790D01*
X033230Y014770D01*
X032730Y015390D02*
X033210Y015870D01*
X033210Y016530D01*
X033195Y016556D01*
X033930Y016170D02*
X033990Y016230D01*
X033990Y016530D01*
X033962Y016556D01*
X033930Y016170D02*
X033930Y015150D01*
X034710Y014490D01*
X032850Y013590D02*
X033930Y012510D01*
X034170Y012270D01*
X034230Y012270D01*
X035430Y012270D01*
X035490Y012270D01*
X036690Y012270D01*
X037350Y012270D01*
X037356Y012290D01*
X034230Y012270D02*
X034170Y012270D01*
X034230Y012270D01*
X032850Y013590D02*
X032730Y013710D01*
X032730Y015390D01*
X036135Y017020D02*
X036150Y017010D01*
X038470Y016997D02*
X038490Y017010D01*
X038490Y017910D01*
X029730Y028710D02*
X029730Y030790D01*
X029730Y031790D02*
X029730Y034590D01*
X029790Y034650D01*
M02*
