G75*
%MOIN*%
%OFA0B0*%
%FSLAX24Y24*%
%IPPOS*%
%LPD*%
%AMOC8*
5,1,8,0,0,1.08239X$1,22.5*
%
%ADD10C,0.0000*%
%ADD11C,0.0080*%
%ADD12C,0.0020*%
%ADD13C,0.0060*%
%ADD14C,0.0050*%
%ADD15C,0.0040*%
%ADD16C,0.0100*%
%ADD17R,0.0118X0.0827*%
%ADD18C,0.0030*%
%ADD19R,0.0827X0.0118*%
%ADD20R,0.0300X0.4200*%
%ADD21R,0.0200X0.0750*%
%ADD22R,0.0200X0.0300*%
%ADD23C,0.0120*%
%ADD24R,0.0240X0.0340*%
%ADD25R,0.0340X0.0240*%
%ADD26R,0.1000X0.0200*%
%ADD27R,0.0300X0.0750*%
D10*
X002730Y004290D02*
X002730Y054290D01*
X042730Y054290D01*
X042730Y004290D01*
X002730Y004290D01*
X003600Y005790D02*
X003602Y005840D01*
X003608Y005890D01*
X003618Y005939D01*
X003632Y005987D01*
X003649Y006034D01*
X003670Y006079D01*
X003695Y006123D01*
X003723Y006164D01*
X003755Y006203D01*
X003789Y006240D01*
X003826Y006274D01*
X003866Y006304D01*
X003908Y006331D01*
X003952Y006355D01*
X003998Y006376D01*
X004045Y006392D01*
X004093Y006405D01*
X004143Y006414D01*
X004192Y006419D01*
X004243Y006420D01*
X004293Y006417D01*
X004342Y006410D01*
X004391Y006399D01*
X004439Y006384D01*
X004485Y006366D01*
X004530Y006344D01*
X004573Y006318D01*
X004614Y006289D01*
X004653Y006257D01*
X004689Y006222D01*
X004721Y006184D01*
X004751Y006144D01*
X004778Y006101D01*
X004801Y006057D01*
X004820Y006011D01*
X004836Y005963D01*
X004848Y005914D01*
X004856Y005865D01*
X004860Y005815D01*
X004860Y005765D01*
X004856Y005715D01*
X004848Y005666D01*
X004836Y005617D01*
X004820Y005569D01*
X004801Y005523D01*
X004778Y005479D01*
X004751Y005436D01*
X004721Y005396D01*
X004689Y005358D01*
X004653Y005323D01*
X004614Y005291D01*
X004573Y005262D01*
X004530Y005236D01*
X004485Y005214D01*
X004439Y005196D01*
X004391Y005181D01*
X004342Y005170D01*
X004293Y005163D01*
X004243Y005160D01*
X004192Y005161D01*
X004143Y005166D01*
X004093Y005175D01*
X004045Y005188D01*
X003998Y005204D01*
X003952Y005225D01*
X003908Y005249D01*
X003866Y005276D01*
X003826Y005306D01*
X003789Y005340D01*
X003755Y005377D01*
X003723Y005416D01*
X003695Y005457D01*
X003670Y005501D01*
X003649Y005546D01*
X003632Y005593D01*
X003618Y005641D01*
X003608Y005690D01*
X003602Y005740D01*
X003600Y005790D01*
X009600Y029290D02*
X009602Y029340D01*
X009608Y029390D01*
X009618Y029439D01*
X009632Y029487D01*
X009649Y029534D01*
X009670Y029579D01*
X009695Y029623D01*
X009723Y029664D01*
X009755Y029703D01*
X009789Y029740D01*
X009826Y029774D01*
X009866Y029804D01*
X009908Y029831D01*
X009952Y029855D01*
X009998Y029876D01*
X010045Y029892D01*
X010093Y029905D01*
X010143Y029914D01*
X010192Y029919D01*
X010243Y029920D01*
X010293Y029917D01*
X010342Y029910D01*
X010391Y029899D01*
X010439Y029884D01*
X010485Y029866D01*
X010530Y029844D01*
X010573Y029818D01*
X010614Y029789D01*
X010653Y029757D01*
X010689Y029722D01*
X010721Y029684D01*
X010751Y029644D01*
X010778Y029601D01*
X010801Y029557D01*
X010820Y029511D01*
X010836Y029463D01*
X010848Y029414D01*
X010856Y029365D01*
X010860Y029315D01*
X010860Y029265D01*
X010856Y029215D01*
X010848Y029166D01*
X010836Y029117D01*
X010820Y029069D01*
X010801Y029023D01*
X010778Y028979D01*
X010751Y028936D01*
X010721Y028896D01*
X010689Y028858D01*
X010653Y028823D01*
X010614Y028791D01*
X010573Y028762D01*
X010530Y028736D01*
X010485Y028714D01*
X010439Y028696D01*
X010391Y028681D01*
X010342Y028670D01*
X010293Y028663D01*
X010243Y028660D01*
X010192Y028661D01*
X010143Y028666D01*
X010093Y028675D01*
X010045Y028688D01*
X009998Y028704D01*
X009952Y028725D01*
X009908Y028749D01*
X009866Y028776D01*
X009826Y028806D01*
X009789Y028840D01*
X009755Y028877D01*
X009723Y028916D01*
X009695Y028957D01*
X009670Y029001D01*
X009649Y029046D01*
X009632Y029093D01*
X009618Y029141D01*
X009608Y029190D01*
X009602Y029240D01*
X009600Y029290D01*
X003600Y052790D02*
X003602Y052840D01*
X003608Y052890D01*
X003618Y052939D01*
X003632Y052987D01*
X003649Y053034D01*
X003670Y053079D01*
X003695Y053123D01*
X003723Y053164D01*
X003755Y053203D01*
X003789Y053240D01*
X003826Y053274D01*
X003866Y053304D01*
X003908Y053331D01*
X003952Y053355D01*
X003998Y053376D01*
X004045Y053392D01*
X004093Y053405D01*
X004143Y053414D01*
X004192Y053419D01*
X004243Y053420D01*
X004293Y053417D01*
X004342Y053410D01*
X004391Y053399D01*
X004439Y053384D01*
X004485Y053366D01*
X004530Y053344D01*
X004573Y053318D01*
X004614Y053289D01*
X004653Y053257D01*
X004689Y053222D01*
X004721Y053184D01*
X004751Y053144D01*
X004778Y053101D01*
X004801Y053057D01*
X004820Y053011D01*
X004836Y052963D01*
X004848Y052914D01*
X004856Y052865D01*
X004860Y052815D01*
X004860Y052765D01*
X004856Y052715D01*
X004848Y052666D01*
X004836Y052617D01*
X004820Y052569D01*
X004801Y052523D01*
X004778Y052479D01*
X004751Y052436D01*
X004721Y052396D01*
X004689Y052358D01*
X004653Y052323D01*
X004614Y052291D01*
X004573Y052262D01*
X004530Y052236D01*
X004485Y052214D01*
X004439Y052196D01*
X004391Y052181D01*
X004342Y052170D01*
X004293Y052163D01*
X004243Y052160D01*
X004192Y052161D01*
X004143Y052166D01*
X004093Y052175D01*
X004045Y052188D01*
X003998Y052204D01*
X003952Y052225D01*
X003908Y052249D01*
X003866Y052276D01*
X003826Y052306D01*
X003789Y052340D01*
X003755Y052377D01*
X003723Y052416D01*
X003695Y052457D01*
X003670Y052501D01*
X003649Y052546D01*
X003632Y052593D01*
X003618Y052641D01*
X003608Y052690D01*
X003602Y052740D01*
X003600Y052790D01*
X040600Y052790D02*
X040602Y052840D01*
X040608Y052890D01*
X040618Y052939D01*
X040632Y052987D01*
X040649Y053034D01*
X040670Y053079D01*
X040695Y053123D01*
X040723Y053164D01*
X040755Y053203D01*
X040789Y053240D01*
X040826Y053274D01*
X040866Y053304D01*
X040908Y053331D01*
X040952Y053355D01*
X040998Y053376D01*
X041045Y053392D01*
X041093Y053405D01*
X041143Y053414D01*
X041192Y053419D01*
X041243Y053420D01*
X041293Y053417D01*
X041342Y053410D01*
X041391Y053399D01*
X041439Y053384D01*
X041485Y053366D01*
X041530Y053344D01*
X041573Y053318D01*
X041614Y053289D01*
X041653Y053257D01*
X041689Y053222D01*
X041721Y053184D01*
X041751Y053144D01*
X041778Y053101D01*
X041801Y053057D01*
X041820Y053011D01*
X041836Y052963D01*
X041848Y052914D01*
X041856Y052865D01*
X041860Y052815D01*
X041860Y052765D01*
X041856Y052715D01*
X041848Y052666D01*
X041836Y052617D01*
X041820Y052569D01*
X041801Y052523D01*
X041778Y052479D01*
X041751Y052436D01*
X041721Y052396D01*
X041689Y052358D01*
X041653Y052323D01*
X041614Y052291D01*
X041573Y052262D01*
X041530Y052236D01*
X041485Y052214D01*
X041439Y052196D01*
X041391Y052181D01*
X041342Y052170D01*
X041293Y052163D01*
X041243Y052160D01*
X041192Y052161D01*
X041143Y052166D01*
X041093Y052175D01*
X041045Y052188D01*
X040998Y052204D01*
X040952Y052225D01*
X040908Y052249D01*
X040866Y052276D01*
X040826Y052306D01*
X040789Y052340D01*
X040755Y052377D01*
X040723Y052416D01*
X040695Y052457D01*
X040670Y052501D01*
X040649Y052546D01*
X040632Y052593D01*
X040618Y052641D01*
X040608Y052690D01*
X040602Y052740D01*
X040600Y052790D01*
X040600Y032290D02*
X040602Y032340D01*
X040608Y032390D01*
X040618Y032439D01*
X040632Y032487D01*
X040649Y032534D01*
X040670Y032579D01*
X040695Y032623D01*
X040723Y032664D01*
X040755Y032703D01*
X040789Y032740D01*
X040826Y032774D01*
X040866Y032804D01*
X040908Y032831D01*
X040952Y032855D01*
X040998Y032876D01*
X041045Y032892D01*
X041093Y032905D01*
X041143Y032914D01*
X041192Y032919D01*
X041243Y032920D01*
X041293Y032917D01*
X041342Y032910D01*
X041391Y032899D01*
X041439Y032884D01*
X041485Y032866D01*
X041530Y032844D01*
X041573Y032818D01*
X041614Y032789D01*
X041653Y032757D01*
X041689Y032722D01*
X041721Y032684D01*
X041751Y032644D01*
X041778Y032601D01*
X041801Y032557D01*
X041820Y032511D01*
X041836Y032463D01*
X041848Y032414D01*
X041856Y032365D01*
X041860Y032315D01*
X041860Y032265D01*
X041856Y032215D01*
X041848Y032166D01*
X041836Y032117D01*
X041820Y032069D01*
X041801Y032023D01*
X041778Y031979D01*
X041751Y031936D01*
X041721Y031896D01*
X041689Y031858D01*
X041653Y031823D01*
X041614Y031791D01*
X041573Y031762D01*
X041530Y031736D01*
X041485Y031714D01*
X041439Y031696D01*
X041391Y031681D01*
X041342Y031670D01*
X041293Y031663D01*
X041243Y031660D01*
X041192Y031661D01*
X041143Y031666D01*
X041093Y031675D01*
X041045Y031688D01*
X040998Y031704D01*
X040952Y031725D01*
X040908Y031749D01*
X040866Y031776D01*
X040826Y031806D01*
X040789Y031840D01*
X040755Y031877D01*
X040723Y031916D01*
X040695Y031957D01*
X040670Y032001D01*
X040649Y032046D01*
X040632Y032093D01*
X040618Y032141D01*
X040608Y032190D01*
X040602Y032240D01*
X040600Y032290D01*
X040600Y005790D02*
X040602Y005840D01*
X040608Y005890D01*
X040618Y005939D01*
X040632Y005987D01*
X040649Y006034D01*
X040670Y006079D01*
X040695Y006123D01*
X040723Y006164D01*
X040755Y006203D01*
X040789Y006240D01*
X040826Y006274D01*
X040866Y006304D01*
X040908Y006331D01*
X040952Y006355D01*
X040998Y006376D01*
X041045Y006392D01*
X041093Y006405D01*
X041143Y006414D01*
X041192Y006419D01*
X041243Y006420D01*
X041293Y006417D01*
X041342Y006410D01*
X041391Y006399D01*
X041439Y006384D01*
X041485Y006366D01*
X041530Y006344D01*
X041573Y006318D01*
X041614Y006289D01*
X041653Y006257D01*
X041689Y006222D01*
X041721Y006184D01*
X041751Y006144D01*
X041778Y006101D01*
X041801Y006057D01*
X041820Y006011D01*
X041836Y005963D01*
X041848Y005914D01*
X041856Y005865D01*
X041860Y005815D01*
X041860Y005765D01*
X041856Y005715D01*
X041848Y005666D01*
X041836Y005617D01*
X041820Y005569D01*
X041801Y005523D01*
X041778Y005479D01*
X041751Y005436D01*
X041721Y005396D01*
X041689Y005358D01*
X041653Y005323D01*
X041614Y005291D01*
X041573Y005262D01*
X041530Y005236D01*
X041485Y005214D01*
X041439Y005196D01*
X041391Y005181D01*
X041342Y005170D01*
X041293Y005163D01*
X041243Y005160D01*
X041192Y005161D01*
X041143Y005166D01*
X041093Y005175D01*
X041045Y005188D01*
X040998Y005204D01*
X040952Y005225D01*
X040908Y005249D01*
X040866Y005276D01*
X040826Y005306D01*
X040789Y005340D01*
X040755Y005377D01*
X040723Y005416D01*
X040695Y005457D01*
X040670Y005501D01*
X040649Y005546D01*
X040632Y005593D01*
X040618Y005641D01*
X040608Y005690D01*
X040602Y005740D01*
X040600Y005790D01*
D11*
X040379Y005830D02*
X040993Y005830D01*
X040686Y006290D02*
X040379Y006290D01*
X040072Y005983D02*
X039918Y005830D01*
X039611Y005830D01*
X039458Y005983D01*
X039458Y006597D01*
X039611Y006751D01*
X039918Y006751D01*
X040072Y006597D01*
X040379Y006751D02*
X040379Y005830D01*
X040379Y006751D02*
X040993Y006751D01*
X039151Y006751D02*
X038844Y006751D01*
X038998Y006751D02*
X038998Y005830D01*
X039151Y005830D02*
X038844Y005830D01*
X038537Y006137D02*
X038537Y006751D01*
X037923Y006751D02*
X037923Y006137D01*
X038230Y005830D01*
X038537Y006137D01*
X037616Y006290D02*
X037463Y006137D01*
X037003Y006137D01*
X037310Y006137D02*
X037616Y005830D01*
X037616Y006290D02*
X037616Y006597D01*
X037463Y006751D01*
X037003Y006751D01*
X037003Y005830D01*
X036696Y005830D02*
X036082Y005830D01*
X036082Y006751D01*
X036696Y006751D01*
X036389Y006290D02*
X036082Y006290D01*
X035775Y006137D02*
X035775Y005983D01*
X035621Y005830D01*
X035314Y005830D01*
X035161Y005983D01*
X035314Y006290D02*
X035161Y006444D01*
X035161Y006597D01*
X035314Y006751D01*
X035621Y006751D01*
X035775Y006597D01*
X035621Y006290D02*
X035775Y006137D01*
X035621Y006290D02*
X035314Y006290D01*
X033933Y005983D02*
X033933Y006597D01*
X033780Y006751D01*
X033473Y006751D01*
X033319Y006597D01*
X033319Y005983D01*
X033473Y005830D01*
X033780Y005830D01*
X033933Y005983D01*
X033013Y006751D02*
X032399Y006751D01*
X032706Y006751D02*
X032706Y005830D01*
X033013Y007330D02*
X033013Y008251D01*
X033013Y007790D02*
X032399Y007790D01*
X032092Y007483D02*
X031938Y007330D01*
X031631Y007330D01*
X031478Y007483D01*
X031478Y008097D01*
X031631Y008251D01*
X031938Y008251D01*
X032092Y008097D01*
X032399Y008251D02*
X032399Y007330D01*
X032399Y008830D02*
X032399Y009444D01*
X032706Y009751D01*
X033013Y009444D01*
X033013Y008830D01*
X033319Y008983D02*
X033473Y008830D01*
X033780Y008830D01*
X033933Y008983D01*
X033933Y009290D01*
X033626Y009290D01*
X033319Y009597D02*
X033319Y008983D01*
X033013Y009290D02*
X032399Y009290D01*
X032092Y009751D02*
X031478Y009751D01*
X031785Y009751D02*
X031785Y008830D01*
X031171Y008830D02*
X030557Y008830D01*
X030557Y009751D01*
X030250Y009597D02*
X030250Y008983D01*
X030097Y008830D01*
X029790Y008830D01*
X029636Y008983D01*
X029636Y009597D01*
X029790Y009751D01*
X030097Y009751D01*
X030250Y009597D01*
X029329Y009751D02*
X029329Y009137D01*
X029022Y008830D01*
X028716Y009137D01*
X028716Y009751D01*
X028716Y008251D02*
X029329Y008251D01*
X029022Y008251D02*
X029022Y007330D01*
X029636Y007483D02*
X029636Y008097D01*
X029790Y008251D01*
X030097Y008251D01*
X030250Y008097D01*
X030250Y007483D01*
X030097Y007330D01*
X029790Y007330D01*
X029636Y007483D01*
X029636Y006751D02*
X030097Y006751D01*
X030250Y006597D01*
X030250Y006290D01*
X030097Y006137D01*
X029636Y006137D01*
X029636Y005830D02*
X029636Y006751D01*
X029329Y006751D02*
X029022Y006444D01*
X028716Y006751D01*
X028716Y005830D01*
X028409Y005830D02*
X027795Y005830D01*
X027795Y006751D01*
X028409Y006751D01*
X028102Y006290D02*
X027795Y006290D01*
X027488Y006751D02*
X026874Y006751D01*
X027181Y006751D02*
X027181Y005830D01*
X026260Y005830D02*
X026260Y006751D01*
X025953Y006751D02*
X026567Y006751D01*
X026414Y007330D02*
X026107Y007330D01*
X025953Y007483D01*
X025953Y008097D01*
X026107Y008251D01*
X026414Y008251D01*
X026567Y008097D01*
X026567Y007483D01*
X026414Y007330D01*
X026874Y008251D02*
X027488Y008251D01*
X027181Y008251D02*
X027181Y007330D01*
X026874Y008830D02*
X027488Y008830D01*
X026874Y008830D02*
X026874Y009751D01*
X026567Y009444D02*
X026567Y008830D01*
X026567Y009290D02*
X025953Y009290D01*
X025953Y009444D02*
X026260Y009751D01*
X026567Y009444D01*
X025953Y009444D02*
X025953Y008830D01*
X025646Y008830D02*
X025646Y009751D01*
X025646Y009290D02*
X025032Y009290D01*
X025032Y008830D02*
X025032Y009751D01*
X024725Y009751D02*
X024112Y009751D01*
X024419Y009751D02*
X024419Y008830D01*
X025032Y008251D02*
X025646Y007330D01*
X025646Y008251D01*
X025032Y008251D02*
X025032Y007330D01*
X025339Y006751D02*
X025646Y006444D01*
X025646Y005830D01*
X025646Y006290D02*
X025032Y006290D01*
X025032Y006444D02*
X025339Y006751D01*
X025032Y006444D02*
X025032Y005830D01*
X023805Y005830D02*
X023498Y006137D01*
X023651Y006137D02*
X023191Y006137D01*
X023191Y005830D02*
X023191Y006751D01*
X023651Y006751D01*
X023805Y006597D01*
X023805Y006290D01*
X023651Y006137D01*
X022884Y005983D02*
X022884Y006597D01*
X022730Y006751D01*
X022423Y006751D01*
X022270Y006597D01*
X022270Y005983D01*
X022423Y005830D01*
X022730Y005830D01*
X022884Y005983D01*
X022730Y007330D02*
X022270Y007330D01*
X022270Y008251D01*
X022730Y008251D01*
X022884Y008097D01*
X022884Y007483D01*
X022730Y007330D01*
X023191Y007483D02*
X023191Y008097D01*
X023344Y008251D01*
X023651Y008251D01*
X023805Y008097D01*
X023805Y007483D01*
X023651Y007330D01*
X023344Y007330D01*
X023191Y007483D01*
X023191Y008830D02*
X023805Y008830D01*
X023498Y009290D02*
X023191Y009290D01*
X023191Y008830D02*
X023191Y009751D01*
X023805Y009751D01*
X022884Y008830D02*
X022270Y008830D01*
X022270Y009751D01*
X029329Y006751D02*
X029329Y005830D01*
X030557Y006751D02*
X031171Y006751D01*
X030864Y006751D02*
X030864Y005830D01*
X030711Y007330D02*
X031017Y007330D01*
X031171Y007483D01*
X031171Y008251D01*
X030557Y008251D02*
X030557Y007483D01*
X030711Y007330D01*
X033319Y009597D02*
X033473Y009751D01*
X033780Y009751D01*
X033933Y009597D01*
X034240Y009751D02*
X034240Y008830D01*
X034854Y008830D01*
X035161Y008983D02*
X035314Y008830D01*
X035621Y008830D01*
X035775Y008983D01*
X035775Y009137D01*
X035621Y009290D01*
X035314Y009290D01*
X035161Y009444D01*
X035161Y009597D01*
X035314Y009751D01*
X035621Y009751D01*
X035775Y009597D01*
X036082Y009904D02*
X036082Y009290D01*
X036082Y008983D02*
X036082Y008830D01*
X034854Y009751D02*
X034240Y009751D01*
X034240Y009290D02*
X034547Y009290D01*
X022420Y024090D02*
X019840Y024090D01*
X019840Y025490D01*
X022420Y025490D01*
X022420Y024090D01*
X018920Y024090D02*
X016340Y024090D01*
X016340Y025490D01*
X018920Y025490D01*
X018920Y024090D01*
X019220Y021490D02*
X016640Y021490D01*
X016640Y020090D01*
X019220Y020090D01*
X019220Y021490D01*
X017762Y030330D02*
X017609Y030330D01*
X017609Y030483D01*
X017762Y030483D01*
X017762Y030330D01*
X017302Y030330D02*
X017302Y031251D01*
X017609Y030944D02*
X017609Y030790D01*
X017762Y030790D01*
X017762Y030944D01*
X017609Y030944D01*
X017302Y030330D02*
X016688Y031251D01*
X016688Y030330D01*
X016381Y030483D02*
X016381Y031097D01*
X016227Y031251D01*
X015920Y031251D01*
X015767Y031097D01*
X015767Y030483D01*
X015920Y030330D01*
X016227Y030330D01*
X016381Y030483D01*
X015460Y030330D02*
X015153Y030330D01*
X015307Y030330D02*
X015307Y031251D01*
X015460Y031251D02*
X015153Y031251D01*
X014846Y031251D02*
X014232Y031251D01*
X013925Y031251D02*
X013925Y030483D01*
X013772Y030330D01*
X013465Y030330D01*
X013312Y030483D01*
X013312Y031251D01*
X013005Y030944D02*
X013005Y030330D01*
X013005Y030790D02*
X012391Y030790D01*
X012391Y030944D02*
X012391Y030330D01*
X012084Y030483D02*
X011930Y030330D01*
X011623Y030330D01*
X011470Y030483D01*
X011470Y031097D01*
X011623Y031251D01*
X011930Y031251D01*
X012084Y031097D01*
X012391Y030944D02*
X012698Y031251D01*
X013005Y030944D01*
X014539Y031251D02*
X014539Y030330D01*
X011420Y034790D02*
X008840Y034790D01*
X008840Y036190D01*
X011420Y036190D01*
X011420Y034790D01*
X011320Y039790D02*
X008740Y039790D01*
X008740Y041190D01*
X011320Y041190D01*
X011320Y039790D01*
X010620Y043490D02*
X008040Y043490D01*
X008040Y044890D01*
X010620Y044890D01*
X010620Y043490D01*
X007220Y043490D02*
X004640Y043490D01*
X004640Y044890D01*
X007220Y044890D01*
X007220Y043490D01*
X016240Y045190D02*
X016240Y046590D01*
X018820Y046590D01*
X018820Y045190D01*
X016240Y045190D01*
X016140Y049190D02*
X016140Y050590D01*
X018720Y050590D01*
X018720Y049190D01*
X016140Y049190D01*
X019240Y049190D02*
X019240Y050590D01*
X021820Y050590D01*
X021820Y049190D01*
X019240Y049190D01*
X039410Y035853D02*
X039410Y034987D01*
X040237Y034160D02*
X041103Y034160D01*
X041930Y034987D02*
X041930Y035853D01*
X041103Y036680D02*
X040237Y036680D01*
X040001Y035420D02*
X040003Y035471D01*
X040009Y035522D01*
X040019Y035572D01*
X040032Y035622D01*
X040050Y035670D01*
X040070Y035717D01*
X040095Y035762D01*
X040123Y035805D01*
X040154Y035846D01*
X040188Y035884D01*
X040225Y035919D01*
X040264Y035952D01*
X040306Y035982D01*
X040350Y036008D01*
X040396Y036030D01*
X040444Y036050D01*
X040493Y036065D01*
X040543Y036077D01*
X040593Y036085D01*
X040644Y036089D01*
X040696Y036089D01*
X040747Y036085D01*
X040797Y036077D01*
X040847Y036065D01*
X040896Y036050D01*
X040944Y036030D01*
X040990Y036008D01*
X041034Y035982D01*
X041076Y035952D01*
X041115Y035919D01*
X041152Y035884D01*
X041186Y035846D01*
X041217Y035805D01*
X041245Y035762D01*
X041270Y035717D01*
X041290Y035670D01*
X041308Y035622D01*
X041321Y035572D01*
X041331Y035522D01*
X041337Y035471D01*
X041339Y035420D01*
X041337Y035369D01*
X041331Y035318D01*
X041321Y035268D01*
X041308Y035218D01*
X041290Y035170D01*
X041270Y035123D01*
X041245Y035078D01*
X041217Y035035D01*
X041186Y034994D01*
X041152Y034956D01*
X041115Y034921D01*
X041076Y034888D01*
X041034Y034858D01*
X040990Y034832D01*
X040944Y034810D01*
X040896Y034790D01*
X040847Y034775D01*
X040797Y034763D01*
X040747Y034755D01*
X040696Y034751D01*
X040644Y034751D01*
X040593Y034755D01*
X040543Y034763D01*
X040493Y034775D01*
X040444Y034790D01*
X040396Y034810D01*
X040350Y034832D01*
X040306Y034858D01*
X040264Y034888D01*
X040225Y034921D01*
X040188Y034956D01*
X040154Y034994D01*
X040123Y035035D01*
X040095Y035078D01*
X040070Y035123D01*
X040050Y035170D01*
X040032Y035218D01*
X040019Y035268D01*
X040009Y035318D01*
X040003Y035369D01*
X040001Y035420D01*
X040317Y029680D02*
X041183Y029680D01*
X042010Y028853D02*
X042010Y027987D01*
X041183Y027160D02*
X040317Y027160D01*
X039490Y027987D02*
X039490Y028853D01*
X040081Y028420D02*
X040083Y028471D01*
X040089Y028522D01*
X040099Y028572D01*
X040112Y028622D01*
X040130Y028670D01*
X040150Y028717D01*
X040175Y028762D01*
X040203Y028805D01*
X040234Y028846D01*
X040268Y028884D01*
X040305Y028919D01*
X040344Y028952D01*
X040386Y028982D01*
X040430Y029008D01*
X040476Y029030D01*
X040524Y029050D01*
X040573Y029065D01*
X040623Y029077D01*
X040673Y029085D01*
X040724Y029089D01*
X040776Y029089D01*
X040827Y029085D01*
X040877Y029077D01*
X040927Y029065D01*
X040976Y029050D01*
X041024Y029030D01*
X041070Y029008D01*
X041114Y028982D01*
X041156Y028952D01*
X041195Y028919D01*
X041232Y028884D01*
X041266Y028846D01*
X041297Y028805D01*
X041325Y028762D01*
X041350Y028717D01*
X041370Y028670D01*
X041388Y028622D01*
X041401Y028572D01*
X041411Y028522D01*
X041417Y028471D01*
X041419Y028420D01*
X041417Y028369D01*
X041411Y028318D01*
X041401Y028268D01*
X041388Y028218D01*
X041370Y028170D01*
X041350Y028123D01*
X041325Y028078D01*
X041297Y028035D01*
X041266Y027994D01*
X041232Y027956D01*
X041195Y027921D01*
X041156Y027888D01*
X041114Y027858D01*
X041070Y027832D01*
X041024Y027810D01*
X040976Y027790D01*
X040927Y027775D01*
X040877Y027763D01*
X040827Y027755D01*
X040776Y027751D01*
X040724Y027751D01*
X040673Y027755D01*
X040623Y027763D01*
X040573Y027775D01*
X040524Y027790D01*
X040476Y027810D01*
X040430Y027832D01*
X040386Y027858D01*
X040344Y027888D01*
X040305Y027921D01*
X040268Y027956D01*
X040234Y027994D01*
X040203Y028035D01*
X040175Y028078D01*
X040150Y028123D01*
X040130Y028170D01*
X040112Y028218D01*
X040099Y028268D01*
X040089Y028318D01*
X040083Y028369D01*
X040081Y028420D01*
X011320Y015290D02*
X011320Y013890D01*
X008740Y013890D01*
X008740Y015290D01*
X011320Y015290D01*
X010520Y017690D02*
X007940Y017690D01*
X007940Y019090D01*
X010520Y019090D01*
X010520Y017690D01*
X007320Y017690D02*
X004740Y017690D01*
X004740Y019090D01*
X007320Y019090D01*
X007320Y017690D01*
X008840Y009290D02*
X011420Y009290D01*
X011420Y007890D01*
X008840Y007890D01*
X008840Y009290D01*
D12*
X013013Y029000D02*
X012940Y029073D01*
X012940Y029147D01*
X013013Y029220D01*
X013124Y029147D02*
X013087Y029110D01*
X013087Y029037D01*
X013124Y029000D01*
X013234Y029000D01*
X013308Y029000D02*
X013382Y029073D01*
X013382Y029147D01*
X013308Y029220D01*
X013234Y029147D02*
X013124Y029147D01*
X013161Y029360D02*
X013161Y029507D01*
X013234Y029580D01*
X013308Y029507D01*
X013308Y029360D01*
X013382Y029360D02*
X013455Y029360D01*
X013419Y029360D02*
X013419Y029580D01*
X013455Y029580D02*
X013382Y029580D01*
X013308Y029470D02*
X013161Y029470D01*
X013087Y029580D02*
X012940Y029580D01*
X012940Y029360D01*
X012940Y029470D02*
X013013Y029470D01*
X013529Y029360D02*
X013529Y029580D01*
X013603Y029507D01*
X013676Y029580D01*
X013676Y029360D01*
X013750Y029397D02*
X013787Y029360D01*
X013860Y029360D01*
X013897Y029397D01*
X013897Y029433D01*
X013860Y029470D01*
X013787Y029470D01*
X013750Y029507D01*
X013750Y029543D01*
X013787Y029580D01*
X013860Y029580D01*
X013897Y029543D01*
X014192Y029470D02*
X014192Y029397D01*
X014229Y029360D01*
X014339Y029360D01*
X014413Y029397D02*
X014450Y029360D01*
X014523Y029360D01*
X014560Y029397D01*
X014560Y029470D01*
X014523Y029507D01*
X014450Y029507D01*
X014413Y029470D01*
X014413Y029397D01*
X014339Y029507D02*
X014229Y029507D01*
X014192Y029470D01*
X014155Y029147D02*
X014229Y029147D01*
X014265Y029110D01*
X014265Y029073D01*
X014119Y029073D01*
X014119Y029037D02*
X014119Y029110D01*
X014155Y029147D01*
X014119Y029037D02*
X014155Y029000D01*
X014229Y029000D01*
X014044Y029000D02*
X014044Y029110D01*
X014008Y029147D01*
X013934Y029147D01*
X013898Y029110D01*
X013898Y029220D02*
X013898Y029000D01*
X013750Y029000D02*
X013750Y029220D01*
X013677Y029220D02*
X013823Y029220D01*
X014561Y029220D02*
X014707Y029220D01*
X014634Y029220D02*
X014634Y029000D01*
X014782Y029037D02*
X014782Y029110D01*
X014818Y029147D01*
X014892Y029147D01*
X014928Y029110D01*
X014928Y029073D01*
X014782Y029073D01*
X014782Y029037D02*
X014818Y029000D01*
X014892Y029000D01*
X015003Y029037D02*
X015039Y029000D01*
X015149Y029000D01*
X015224Y029000D02*
X015224Y029220D01*
X015260Y029147D02*
X015334Y029147D01*
X015370Y029110D01*
X015370Y029000D01*
X015224Y029110D02*
X015260Y029147D01*
X015149Y029147D02*
X015039Y029147D01*
X015003Y029110D01*
X015003Y029037D01*
X015003Y029360D02*
X015003Y029507D01*
X015076Y029507D02*
X015113Y029507D01*
X015076Y029507D02*
X015003Y029433D01*
X014929Y029360D02*
X014892Y029397D01*
X014892Y029543D01*
X014855Y029507D02*
X014929Y029507D01*
X014781Y029470D02*
X014781Y029360D01*
X014781Y029470D02*
X014744Y029507D01*
X014634Y029507D01*
X014634Y029360D01*
X015187Y029397D02*
X015223Y029360D01*
X015297Y029360D01*
X015334Y029397D01*
X015334Y029470D01*
X015297Y029507D01*
X015223Y029507D01*
X015187Y029470D01*
X015187Y029397D01*
X015408Y029360D02*
X015481Y029360D01*
X015444Y029360D02*
X015444Y029580D01*
X015408Y029580D01*
X015776Y029470D02*
X015813Y029507D01*
X015923Y029507D01*
X015997Y029507D02*
X015997Y029397D01*
X016034Y029360D01*
X016144Y029360D01*
X016144Y029323D02*
X016107Y029287D01*
X016070Y029287D01*
X016144Y029323D02*
X016144Y029507D01*
X016218Y029470D02*
X016255Y029507D01*
X016365Y029507D01*
X016439Y029507D02*
X016512Y029507D01*
X016476Y029543D02*
X016476Y029397D01*
X016512Y029360D01*
X016586Y029397D02*
X016586Y029470D01*
X016623Y029507D01*
X016696Y029507D01*
X016733Y029470D01*
X016733Y029433D01*
X016586Y029433D01*
X016586Y029397D02*
X016623Y029360D01*
X016696Y029360D01*
X016807Y029360D02*
X016807Y029507D01*
X016844Y029507D01*
X016881Y029470D01*
X016917Y029507D01*
X016954Y029470D01*
X016954Y029360D01*
X016881Y029360D02*
X016881Y029470D01*
X016917Y029147D02*
X016770Y029000D01*
X016696Y029037D02*
X016696Y029110D01*
X016660Y029147D01*
X016586Y029147D01*
X016549Y029110D01*
X016549Y029037D01*
X016586Y029000D01*
X016660Y029000D01*
X016696Y029037D01*
X016770Y029147D02*
X016917Y029000D01*
X017212Y029000D02*
X017359Y029147D01*
X017359Y029183D01*
X017323Y029220D01*
X017249Y029220D01*
X017212Y029183D01*
X017212Y029000D02*
X017359Y029000D01*
X017433Y029037D02*
X017580Y029183D01*
X017580Y029037D01*
X017544Y029000D01*
X017470Y029000D01*
X017433Y029037D01*
X017433Y029183D01*
X017470Y029220D01*
X017544Y029220D01*
X017580Y029183D01*
X017654Y029147D02*
X017728Y029220D01*
X017728Y029000D01*
X017801Y029000D02*
X017654Y029000D01*
X017875Y029037D02*
X017912Y029000D01*
X017985Y029000D01*
X018022Y029037D01*
X018022Y029073D01*
X017985Y029110D01*
X017875Y029110D01*
X017875Y029037D01*
X017875Y029110D02*
X017949Y029183D01*
X018022Y029220D01*
X018133Y029037D02*
X018133Y029000D01*
X018170Y029000D01*
X018170Y029037D01*
X018133Y029037D01*
X018170Y029000D02*
X018096Y028927D01*
X018244Y029000D02*
X018391Y029147D01*
X018391Y029183D01*
X018354Y029220D01*
X018280Y029220D01*
X018244Y029183D01*
X018244Y029000D02*
X018391Y029000D01*
X018465Y029037D02*
X018611Y029183D01*
X018611Y029037D01*
X018575Y029000D01*
X018501Y029000D01*
X018465Y029037D01*
X018465Y029183D01*
X018501Y029220D01*
X018575Y029220D01*
X018611Y029183D01*
X018686Y029147D02*
X018759Y029220D01*
X018759Y029000D01*
X018686Y029000D02*
X018832Y029000D01*
X018907Y029000D02*
X018907Y029037D01*
X019053Y029183D01*
X019053Y029220D01*
X018907Y029220D01*
X016475Y029110D02*
X016439Y029147D01*
X016328Y029147D01*
X016328Y029220D02*
X016328Y029000D01*
X016439Y029000D01*
X016475Y029037D01*
X016475Y029110D01*
X016254Y029147D02*
X016254Y028963D01*
X016218Y028927D01*
X016181Y028927D01*
X016144Y029000D02*
X016254Y029000D01*
X016144Y029000D02*
X016107Y029037D01*
X016107Y029147D01*
X016033Y029110D02*
X015997Y029147D01*
X015923Y029147D01*
X015887Y029110D01*
X015887Y029037D01*
X015923Y029000D01*
X015997Y029000D01*
X016033Y029037D01*
X016033Y029110D01*
X015812Y029220D02*
X015666Y029220D01*
X015739Y029220D02*
X015739Y029000D01*
X015776Y029360D02*
X015886Y029360D01*
X015923Y029397D01*
X015886Y029433D01*
X015813Y029433D01*
X015776Y029470D01*
X016218Y029470D02*
X016255Y029433D01*
X016328Y029433D01*
X016365Y029397D01*
X016328Y029360D01*
X016218Y029360D01*
D13*
X015330Y032390D02*
X014980Y032390D01*
X014963Y032392D01*
X014946Y032396D01*
X014930Y032403D01*
X014916Y032413D01*
X014903Y032426D01*
X014893Y032440D01*
X014886Y032456D01*
X014882Y032473D01*
X014880Y032490D01*
X014880Y033040D01*
X014880Y033540D02*
X014880Y034090D01*
X014882Y034107D01*
X014886Y034124D01*
X014893Y034140D01*
X014903Y034154D01*
X014916Y034167D01*
X014930Y034177D01*
X014946Y034184D01*
X014963Y034188D01*
X014980Y034190D01*
X015330Y034190D01*
X015380Y034140D01*
X019480Y034140D01*
X019530Y034190D01*
X019880Y034190D01*
X019897Y034188D01*
X019914Y034184D01*
X019930Y034177D01*
X019944Y034167D01*
X019957Y034154D01*
X019967Y034140D01*
X019974Y034124D01*
X019978Y034107D01*
X019980Y034090D01*
X019980Y033540D01*
X019980Y033040D02*
X019980Y032490D01*
X019978Y032473D01*
X019974Y032456D01*
X019967Y032440D01*
X019957Y032426D01*
X019944Y032413D01*
X019930Y032403D01*
X019914Y032396D01*
X019897Y032392D01*
X019880Y032390D01*
X019530Y032390D01*
X019480Y032440D01*
X015380Y032440D01*
X015330Y032390D01*
X015430Y034690D02*
X015080Y034690D01*
X015063Y034692D01*
X015046Y034696D01*
X015030Y034703D01*
X015016Y034713D01*
X015003Y034726D01*
X014993Y034740D01*
X014986Y034756D01*
X014982Y034773D01*
X014980Y034790D01*
X014980Y035340D01*
X014980Y035840D02*
X014980Y036390D01*
X014982Y036407D01*
X014986Y036424D01*
X014993Y036440D01*
X015003Y036454D01*
X015016Y036467D01*
X015030Y036477D01*
X015046Y036484D01*
X015063Y036488D01*
X015080Y036490D01*
X015430Y036490D01*
X015480Y036440D01*
X019580Y036440D01*
X019630Y036490D01*
X019980Y036490D01*
X019997Y036488D01*
X020014Y036484D01*
X020030Y036477D01*
X020044Y036467D01*
X020057Y036454D01*
X020067Y036440D01*
X020074Y036424D01*
X020078Y036407D01*
X020080Y036390D01*
X020080Y035840D01*
X020080Y035340D02*
X020080Y034790D01*
X020078Y034773D01*
X020074Y034756D01*
X020067Y034740D01*
X020057Y034726D01*
X020044Y034713D01*
X020030Y034703D01*
X020014Y034696D01*
X019997Y034692D01*
X019980Y034690D01*
X019630Y034690D01*
X019580Y034740D01*
X015480Y034740D01*
X015430Y034690D01*
X016630Y037940D02*
X017180Y037940D01*
X017680Y037940D02*
X018230Y037940D01*
X018247Y037942D01*
X018264Y037946D01*
X018280Y037953D01*
X018294Y037963D01*
X018307Y037976D01*
X018317Y037990D01*
X018324Y038006D01*
X018328Y038023D01*
X018330Y038040D01*
X018330Y038390D01*
X018280Y038440D01*
X018280Y042540D01*
X018330Y042590D01*
X018330Y042940D01*
X018328Y042957D01*
X018324Y042974D01*
X018317Y042990D01*
X018307Y043004D01*
X018294Y043017D01*
X018280Y043027D01*
X018264Y043034D01*
X018247Y043038D01*
X018230Y043040D01*
X017680Y043040D01*
X017180Y043040D02*
X016630Y043040D01*
X016613Y043038D01*
X016596Y043034D01*
X016580Y043027D01*
X016566Y043017D01*
X016553Y043004D01*
X016543Y042990D01*
X016536Y042974D01*
X016532Y042957D01*
X016530Y042940D01*
X016530Y042590D01*
X016580Y042540D01*
X016580Y038440D01*
X016530Y038390D01*
X016530Y038040D01*
X016532Y038023D01*
X016536Y038006D01*
X016543Y037990D01*
X016553Y037976D01*
X016566Y037963D01*
X016580Y037953D01*
X016596Y037946D01*
X016613Y037942D01*
X016630Y037940D01*
X015920Y039660D02*
X015920Y041260D01*
X014920Y041260D01*
X014920Y039660D01*
X015920Y039660D01*
X015670Y040060D02*
X015170Y040060D01*
X015420Y040460D01*
X015670Y040460D01*
X015670Y040360D01*
X015420Y040460D02*
X015420Y039860D01*
X015670Y040060D02*
X015420Y040460D01*
X015170Y040460D01*
X015420Y040460D02*
X015420Y040710D01*
X013530Y039090D02*
X013530Y038740D01*
X013528Y038723D01*
X013524Y038706D01*
X013517Y038690D01*
X013507Y038676D01*
X013494Y038663D01*
X013480Y038653D01*
X013464Y038646D01*
X013447Y038642D01*
X013430Y038640D01*
X012880Y038640D01*
X013480Y039140D02*
X013480Y043240D01*
X013530Y043290D01*
X013530Y043640D01*
X013528Y043657D01*
X013524Y043674D01*
X013517Y043690D01*
X013507Y043704D01*
X013494Y043717D01*
X013480Y043727D01*
X013464Y043734D01*
X013447Y043738D01*
X013430Y043740D01*
X012880Y043740D01*
X012380Y043740D02*
X011830Y043740D01*
X011813Y043738D01*
X011796Y043734D01*
X011780Y043727D01*
X011766Y043717D01*
X011753Y043704D01*
X011743Y043690D01*
X011736Y043674D01*
X011732Y043657D01*
X011730Y043640D01*
X011730Y043290D01*
X011780Y043240D01*
X011780Y039140D01*
X011730Y039090D01*
X011730Y038740D01*
X011732Y038723D01*
X011736Y038706D01*
X011743Y038690D01*
X011753Y038676D01*
X011766Y038663D01*
X011780Y038653D01*
X011796Y038646D01*
X011813Y038642D01*
X011830Y038640D01*
X012380Y038640D01*
X013480Y039140D02*
X013530Y039090D01*
X019030Y038290D02*
X019030Y037940D01*
X019032Y037923D01*
X019036Y037906D01*
X019043Y037890D01*
X019053Y037876D01*
X019066Y037863D01*
X019080Y037853D01*
X019096Y037846D01*
X019113Y037842D01*
X019130Y037840D01*
X019680Y037840D01*
X019080Y038340D02*
X019080Y042440D01*
X019030Y042490D01*
X019030Y042840D01*
X019032Y042857D01*
X019036Y042874D01*
X019043Y042890D01*
X019053Y042904D01*
X019066Y042917D01*
X019080Y042927D01*
X019096Y042934D01*
X019113Y042938D01*
X019130Y042940D01*
X019680Y042940D01*
X020180Y042940D02*
X020730Y042940D01*
X020747Y042938D01*
X020764Y042934D01*
X020780Y042927D01*
X020794Y042917D01*
X020807Y042904D01*
X020817Y042890D01*
X020824Y042874D01*
X020828Y042857D01*
X020830Y042840D01*
X020830Y042490D01*
X020780Y042440D01*
X020780Y038340D01*
X020830Y038290D01*
X020830Y037940D01*
X020828Y037923D01*
X020824Y037906D01*
X020817Y037890D01*
X020807Y037876D01*
X020794Y037863D01*
X020780Y037853D01*
X020764Y037846D01*
X020747Y037842D01*
X020730Y037840D01*
X020180Y037840D01*
X019080Y038340D02*
X019030Y038290D01*
X021730Y038290D02*
X021730Y037940D01*
X021732Y037923D01*
X021736Y037906D01*
X021743Y037890D01*
X021753Y037876D01*
X021766Y037863D01*
X021780Y037853D01*
X021796Y037846D01*
X021813Y037842D01*
X021830Y037840D01*
X022380Y037840D01*
X022880Y037840D02*
X023430Y037840D01*
X023447Y037842D01*
X023464Y037846D01*
X023480Y037853D01*
X023494Y037863D01*
X023507Y037876D01*
X023517Y037890D01*
X023524Y037906D01*
X023528Y037923D01*
X023530Y037940D01*
X023530Y038290D01*
X023480Y038340D01*
X023480Y042440D01*
X023530Y042490D01*
X023530Y042840D01*
X023528Y042857D01*
X023524Y042874D01*
X023517Y042890D01*
X023507Y042904D01*
X023494Y042917D01*
X023480Y042927D01*
X023464Y042934D01*
X023447Y042938D01*
X023430Y042940D01*
X022880Y042940D01*
X022380Y042940D02*
X021830Y042940D01*
X021813Y042938D01*
X021796Y042934D01*
X021780Y042927D01*
X021766Y042917D01*
X021753Y042904D01*
X021743Y042890D01*
X021736Y042874D01*
X021732Y042857D01*
X021730Y042840D01*
X021730Y042490D01*
X021780Y042440D01*
X021780Y038340D01*
X021730Y038290D01*
X028230Y032040D02*
X028230Y030540D01*
X028480Y030290D01*
X028980Y030290D01*
X029230Y030540D01*
X029480Y030290D01*
X029980Y030290D01*
X030230Y030540D01*
X030480Y030290D01*
X030980Y030290D01*
X031230Y030540D01*
X031480Y030290D01*
X031980Y030290D01*
X032230Y030540D01*
X032480Y030290D01*
X032980Y030290D01*
X033230Y030540D01*
X033480Y030290D01*
X033980Y030290D01*
X034230Y030540D01*
X034480Y030290D01*
X034980Y030290D01*
X035230Y030540D01*
X035230Y032040D01*
X034980Y032290D01*
X034480Y032290D01*
X034230Y032040D01*
X033980Y032290D01*
X033480Y032290D01*
X033230Y032040D01*
X032980Y032290D01*
X032480Y032290D01*
X032230Y032040D01*
X031980Y032290D01*
X031480Y032290D01*
X031230Y032040D01*
X030980Y032290D01*
X030480Y032290D01*
X030230Y032040D01*
X029980Y032290D01*
X029480Y032290D01*
X029230Y032040D01*
X028980Y032290D01*
X028480Y032290D01*
X028230Y032040D01*
X031620Y040900D02*
X032320Y040900D01*
X032337Y040902D01*
X032354Y040906D01*
X032370Y040913D01*
X032384Y040923D01*
X032397Y040936D01*
X032407Y040950D01*
X032414Y040966D01*
X032418Y040983D01*
X032420Y041000D01*
X032420Y041150D01*
X032370Y041200D01*
X032370Y043100D01*
X032420Y043150D01*
X032420Y043300D01*
X032418Y043317D01*
X032414Y043334D01*
X032407Y043350D01*
X032397Y043364D01*
X032384Y043377D01*
X032370Y043387D01*
X032354Y043394D01*
X032337Y043398D01*
X032320Y043400D01*
X031620Y043400D01*
X031603Y043398D01*
X031586Y043394D01*
X031570Y043387D01*
X031556Y043377D01*
X031543Y043364D01*
X031533Y043350D01*
X031526Y043334D01*
X031522Y043317D01*
X031520Y043300D01*
X031520Y043150D01*
X031570Y043100D01*
X031570Y041200D01*
X031520Y041150D01*
X031520Y041000D01*
X031522Y040983D01*
X031526Y040966D01*
X031533Y040950D01*
X031543Y040936D01*
X031556Y040923D01*
X031570Y040913D01*
X031586Y040906D01*
X031603Y040902D01*
X031620Y040900D01*
X032060Y048320D02*
X034760Y048320D01*
X034777Y048322D01*
X034794Y048326D01*
X034810Y048333D01*
X034824Y048343D01*
X034837Y048356D01*
X034847Y048370D01*
X034854Y048386D01*
X034858Y048403D01*
X034860Y048420D01*
X034860Y049620D01*
X034858Y049637D01*
X034854Y049654D01*
X034847Y049670D01*
X034837Y049684D01*
X034824Y049697D01*
X034810Y049707D01*
X034794Y049714D01*
X034777Y049718D01*
X034760Y049720D01*
X032060Y049720D01*
X032043Y049718D01*
X032026Y049714D01*
X032010Y049707D01*
X031996Y049697D01*
X031983Y049684D01*
X031973Y049670D01*
X031966Y049654D01*
X031962Y049637D01*
X031960Y049620D01*
X031960Y048420D01*
X031962Y048403D01*
X031966Y048386D01*
X031973Y048370D01*
X031983Y048356D01*
X031996Y048343D01*
X032010Y048333D01*
X032026Y048326D01*
X032043Y048322D01*
X032060Y048320D01*
X032810Y049020D02*
X033290Y049020D01*
X033540Y049020D02*
X034010Y049020D01*
X041030Y047440D02*
X041030Y051140D01*
X041130Y051240D01*
X042280Y051290D01*
X041170Y051060D02*
X041172Y051080D01*
X041178Y051098D01*
X041187Y051116D01*
X041199Y051131D01*
X041214Y051143D01*
X041232Y051152D01*
X041250Y051158D01*
X041270Y051160D01*
X041290Y051158D01*
X041308Y051152D01*
X041326Y051143D01*
X041341Y051131D01*
X041353Y051116D01*
X041362Y051098D01*
X041368Y051080D01*
X041370Y051060D01*
X041368Y051040D01*
X041362Y051022D01*
X041353Y051004D01*
X041341Y050989D01*
X041326Y050977D01*
X041308Y050968D01*
X041290Y050962D01*
X041270Y050960D01*
X041250Y050962D01*
X041232Y050968D01*
X041214Y050977D01*
X041199Y050989D01*
X041187Y051004D01*
X041178Y051022D01*
X041172Y051040D01*
X041170Y051060D01*
X041030Y047440D02*
X041130Y047340D01*
X042280Y047290D01*
X042280Y043790D02*
X041130Y043740D01*
X041030Y043640D01*
X041030Y039940D01*
X041130Y039840D01*
X042280Y039790D01*
X041170Y043560D02*
X041172Y043580D01*
X041178Y043598D01*
X041187Y043616D01*
X041199Y043631D01*
X041214Y043643D01*
X041232Y043652D01*
X041250Y043658D01*
X041270Y043660D01*
X041290Y043658D01*
X041308Y043652D01*
X041326Y043643D01*
X041341Y043631D01*
X041353Y043616D01*
X041362Y043598D01*
X041368Y043580D01*
X041370Y043560D01*
X041368Y043540D01*
X041362Y043522D01*
X041353Y043504D01*
X041341Y043489D01*
X041326Y043477D01*
X041308Y043468D01*
X041290Y043462D01*
X041270Y043460D01*
X041250Y043462D01*
X041232Y043468D01*
X041214Y043477D01*
X041199Y043489D01*
X041187Y043504D01*
X041178Y043522D01*
X041172Y043540D01*
X041170Y043560D01*
X042280Y023790D02*
X041130Y023740D01*
X041030Y023640D01*
X041030Y019940D01*
X041130Y019840D01*
X042280Y019790D01*
X041170Y023560D02*
X041172Y023580D01*
X041178Y023598D01*
X041187Y023616D01*
X041199Y023631D01*
X041214Y023643D01*
X041232Y023652D01*
X041250Y023658D01*
X041270Y023660D01*
X041290Y023658D01*
X041308Y023652D01*
X041326Y023643D01*
X041341Y023631D01*
X041353Y023616D01*
X041362Y023598D01*
X041368Y023580D01*
X041370Y023560D01*
X041368Y023540D01*
X041362Y023522D01*
X041353Y023504D01*
X041341Y023489D01*
X041326Y023477D01*
X041308Y023468D01*
X041290Y023462D01*
X041270Y023460D01*
X041250Y023462D01*
X041232Y023468D01*
X041214Y023477D01*
X041199Y023489D01*
X041187Y023504D01*
X041178Y023522D01*
X041172Y023540D01*
X041170Y023560D01*
X041130Y015740D02*
X042280Y015790D01*
X041170Y015560D02*
X041172Y015580D01*
X041178Y015598D01*
X041187Y015616D01*
X041199Y015631D01*
X041214Y015643D01*
X041232Y015652D01*
X041250Y015658D01*
X041270Y015660D01*
X041290Y015658D01*
X041308Y015652D01*
X041326Y015643D01*
X041341Y015631D01*
X041353Y015616D01*
X041362Y015598D01*
X041368Y015580D01*
X041370Y015560D01*
X041368Y015540D01*
X041362Y015522D01*
X041353Y015504D01*
X041341Y015489D01*
X041326Y015477D01*
X041308Y015468D01*
X041290Y015462D01*
X041270Y015460D01*
X041250Y015462D01*
X041232Y015468D01*
X041214Y015477D01*
X041199Y015489D01*
X041187Y015504D01*
X041178Y015522D01*
X041172Y015540D01*
X041170Y015560D01*
X041030Y015640D02*
X041130Y015740D01*
X041030Y015640D02*
X041030Y011940D01*
X041130Y011840D01*
X042280Y011790D01*
X035680Y014170D02*
X035680Y015370D01*
X035678Y015387D01*
X035674Y015404D01*
X035667Y015420D01*
X035657Y015434D01*
X035644Y015447D01*
X035630Y015457D01*
X035614Y015464D01*
X035597Y015468D01*
X035580Y015470D01*
X032880Y015470D01*
X032863Y015468D01*
X032846Y015464D01*
X032830Y015457D01*
X032816Y015447D01*
X032803Y015434D01*
X032793Y015420D01*
X032786Y015404D01*
X032782Y015387D01*
X032780Y015370D01*
X032780Y014170D01*
X032782Y014153D01*
X032786Y014136D01*
X032793Y014120D01*
X032803Y014106D01*
X032816Y014093D01*
X032830Y014083D01*
X032846Y014076D01*
X032863Y014072D01*
X032880Y014070D01*
X035580Y014070D01*
X035597Y014072D01*
X035614Y014076D01*
X035630Y014083D01*
X035644Y014093D01*
X035657Y014106D01*
X035667Y014120D01*
X035674Y014136D01*
X035678Y014153D01*
X035680Y014170D01*
X034830Y014770D02*
X034350Y014770D01*
X034100Y014770D02*
X033630Y014770D01*
X033360Y021260D02*
X033210Y021260D01*
X033160Y021310D01*
X031260Y021310D01*
X031210Y021260D01*
X031060Y021260D01*
X031043Y021262D01*
X031026Y021266D01*
X031010Y021273D01*
X030996Y021283D01*
X030983Y021296D01*
X030973Y021310D01*
X030966Y021326D01*
X030962Y021343D01*
X030960Y021360D01*
X030960Y022060D01*
X030962Y022077D01*
X030966Y022094D01*
X030973Y022110D01*
X030983Y022124D01*
X030996Y022137D01*
X031010Y022147D01*
X031026Y022154D01*
X031043Y022158D01*
X031060Y022160D01*
X031210Y022160D01*
X031260Y022110D01*
X033160Y022110D01*
X033210Y022160D01*
X033360Y022160D01*
X033377Y022158D01*
X033394Y022154D01*
X033410Y022147D01*
X033424Y022137D01*
X033437Y022124D01*
X033447Y022110D01*
X033454Y022094D01*
X033458Y022077D01*
X033460Y022060D01*
X033460Y021360D01*
X033458Y021343D01*
X033454Y021326D01*
X033447Y021310D01*
X033437Y021296D01*
X033424Y021283D01*
X033410Y021273D01*
X033394Y021266D01*
X033377Y021262D01*
X033360Y021260D01*
X023930Y017440D02*
X023930Y017090D01*
X023880Y017040D01*
X023880Y012940D01*
X023930Y012890D01*
X023930Y012540D01*
X023928Y012523D01*
X023924Y012506D01*
X023917Y012490D01*
X023907Y012476D01*
X023894Y012463D01*
X023880Y012453D01*
X023864Y012446D01*
X023847Y012442D01*
X023830Y012440D01*
X023280Y012440D01*
X022780Y012440D02*
X022230Y012440D01*
X022213Y012442D01*
X022196Y012446D01*
X022180Y012453D01*
X022166Y012463D01*
X022153Y012476D01*
X022143Y012490D01*
X022136Y012506D01*
X022132Y012523D01*
X022130Y012540D01*
X022130Y012890D01*
X022180Y012940D01*
X022180Y017040D01*
X022130Y017090D01*
X022130Y017440D01*
X022132Y017457D01*
X022136Y017474D01*
X022143Y017490D01*
X022153Y017504D01*
X022166Y017517D01*
X022180Y017527D01*
X022196Y017534D01*
X022213Y017538D01*
X022230Y017540D01*
X022780Y017540D01*
X023280Y017540D02*
X023830Y017540D01*
X023847Y017538D01*
X023864Y017534D01*
X023880Y017527D01*
X023894Y017517D01*
X023907Y017504D01*
X023917Y017490D01*
X023924Y017474D01*
X023928Y017457D01*
X023930Y017440D01*
X021330Y017440D02*
X021330Y017090D01*
X021280Y017040D01*
X021280Y012940D01*
X021330Y012890D01*
X021330Y012540D01*
X021328Y012523D01*
X021324Y012506D01*
X021317Y012490D01*
X021307Y012476D01*
X021294Y012463D01*
X021280Y012453D01*
X021264Y012446D01*
X021247Y012442D01*
X021230Y012440D01*
X020680Y012440D01*
X020180Y012440D02*
X019630Y012440D01*
X019613Y012442D01*
X019596Y012446D01*
X019580Y012453D01*
X019566Y012463D01*
X019553Y012476D01*
X019543Y012490D01*
X019536Y012506D01*
X019532Y012523D01*
X019530Y012540D01*
X019530Y012890D01*
X019580Y012940D01*
X019580Y017040D01*
X019530Y017090D01*
X019530Y017440D01*
X019532Y017457D01*
X019536Y017474D01*
X019543Y017490D01*
X019553Y017504D01*
X019566Y017517D01*
X019580Y017527D01*
X019596Y017534D01*
X019613Y017538D01*
X019630Y017540D01*
X020180Y017540D01*
X020680Y017540D02*
X021230Y017540D01*
X021247Y017538D01*
X021264Y017534D01*
X021280Y017527D01*
X021294Y017517D01*
X021307Y017504D01*
X021317Y017490D01*
X021324Y017474D01*
X021328Y017457D01*
X021330Y017440D01*
X019030Y017540D02*
X019030Y017190D01*
X018980Y017140D01*
X018980Y013040D01*
X019030Y012990D01*
X019030Y012640D01*
X019028Y012623D01*
X019024Y012606D01*
X019017Y012590D01*
X019007Y012576D01*
X018994Y012563D01*
X018980Y012553D01*
X018964Y012546D01*
X018947Y012542D01*
X018930Y012540D01*
X018380Y012540D01*
X017880Y012540D02*
X017330Y012540D01*
X017313Y012542D01*
X017296Y012546D01*
X017280Y012553D01*
X017266Y012563D01*
X017253Y012576D01*
X017243Y012590D01*
X017236Y012606D01*
X017232Y012623D01*
X017230Y012640D01*
X017230Y012990D01*
X017280Y013040D01*
X017280Y017140D01*
X017230Y017190D01*
X017230Y017540D01*
X017232Y017557D01*
X017236Y017574D01*
X017243Y017590D01*
X017253Y017604D01*
X017266Y017617D01*
X017280Y017627D01*
X017296Y017634D01*
X017313Y017638D01*
X017330Y017640D01*
X017880Y017640D01*
X018380Y017640D02*
X018930Y017640D01*
X018947Y017638D01*
X018964Y017634D01*
X018980Y017627D01*
X018994Y017617D01*
X019007Y017604D01*
X019017Y017590D01*
X019024Y017574D01*
X019028Y017557D01*
X019030Y017540D01*
X016470Y016490D02*
X016470Y014890D01*
X015470Y014890D01*
X015470Y016490D01*
X016470Y016490D01*
X015970Y015940D02*
X015970Y015690D01*
X016220Y015690D01*
X016220Y015590D01*
X015970Y015690D02*
X016220Y015290D01*
X015720Y015290D01*
X015970Y015690D01*
X015720Y015690D01*
X015970Y015690D02*
X015970Y015090D01*
X013830Y014090D02*
X013830Y013740D01*
X013828Y013723D01*
X013824Y013706D01*
X013817Y013690D01*
X013807Y013676D01*
X013794Y013663D01*
X013780Y013653D01*
X013764Y013646D01*
X013747Y013642D01*
X013730Y013640D01*
X013180Y013640D01*
X012680Y013640D02*
X012130Y013640D01*
X012113Y013642D01*
X012096Y013646D01*
X012080Y013653D01*
X012066Y013663D01*
X012053Y013676D01*
X012043Y013690D01*
X012036Y013706D01*
X012032Y013723D01*
X012030Y013740D01*
X012030Y014090D01*
X012080Y014140D01*
X012080Y018240D01*
X012030Y018290D01*
X012030Y018640D01*
X012032Y018657D01*
X012036Y018674D01*
X012043Y018690D01*
X012053Y018704D01*
X012066Y018717D01*
X012080Y018727D01*
X012096Y018734D01*
X012113Y018738D01*
X012130Y018740D01*
X012680Y018740D01*
X013180Y018740D02*
X013730Y018740D01*
X013747Y018738D01*
X013764Y018734D01*
X013780Y018727D01*
X013794Y018717D01*
X013807Y018704D01*
X013817Y018690D01*
X013824Y018674D01*
X013828Y018657D01*
X013830Y018640D01*
X013830Y018290D01*
X013780Y018240D01*
X013780Y014140D01*
X013830Y014090D01*
X015380Y011190D02*
X015730Y011190D01*
X015780Y011140D01*
X019880Y011140D01*
X019930Y011190D01*
X020280Y011190D01*
X020297Y011188D01*
X020314Y011184D01*
X020330Y011177D01*
X020344Y011167D01*
X020357Y011154D01*
X020367Y011140D01*
X020374Y011124D01*
X020378Y011107D01*
X020380Y011090D01*
X020380Y010540D01*
X020380Y010040D02*
X020380Y009490D01*
X020378Y009473D01*
X020374Y009456D01*
X020367Y009440D01*
X020357Y009426D01*
X020344Y009413D01*
X020330Y009403D01*
X020314Y009396D01*
X020297Y009392D01*
X020280Y009390D01*
X019930Y009390D01*
X019880Y009440D01*
X015780Y009440D01*
X015730Y009390D01*
X015380Y009390D01*
X015363Y009392D01*
X015346Y009396D01*
X015330Y009403D01*
X015316Y009413D01*
X015303Y009426D01*
X015293Y009440D01*
X015286Y009456D01*
X015282Y009473D01*
X015280Y009490D01*
X015280Y010040D01*
X015280Y010540D02*
X015280Y011090D01*
X015282Y011107D01*
X015286Y011124D01*
X015293Y011140D01*
X015303Y011154D01*
X015316Y011167D01*
X015330Y011177D01*
X015346Y011184D01*
X015363Y011188D01*
X015380Y011190D01*
X015580Y008790D02*
X015930Y008790D01*
X015980Y008740D01*
X020080Y008740D01*
X020130Y008790D01*
X020480Y008790D01*
X020497Y008788D01*
X020514Y008784D01*
X020530Y008777D01*
X020544Y008767D01*
X020557Y008754D01*
X020567Y008740D01*
X020574Y008724D01*
X020578Y008707D01*
X020580Y008690D01*
X020580Y008140D01*
X020580Y007640D02*
X020580Y007090D01*
X020578Y007073D01*
X020574Y007056D01*
X020567Y007040D01*
X020557Y007026D01*
X020544Y007013D01*
X020530Y007003D01*
X020514Y006996D01*
X020497Y006992D01*
X020480Y006990D01*
X020130Y006990D01*
X020080Y007040D01*
X015980Y007040D01*
X015930Y006990D01*
X015580Y006990D01*
X015563Y006992D01*
X015546Y006996D01*
X015530Y007003D01*
X015516Y007013D01*
X015503Y007026D01*
X015493Y007040D01*
X015486Y007056D01*
X015482Y007073D01*
X015480Y007090D01*
X015480Y007640D01*
X015480Y008140D02*
X015480Y008690D01*
X015482Y008707D01*
X015486Y008724D01*
X015493Y008740D01*
X015503Y008754D01*
X015516Y008767D01*
X015530Y008777D01*
X015546Y008784D01*
X015563Y008788D01*
X015580Y008790D01*
X006811Y011162D02*
X006250Y011162D01*
X006250Y012378D01*
X006811Y012378D01*
X006811Y011162D01*
X011130Y020240D02*
X011680Y020240D01*
X012180Y020240D02*
X012730Y020240D01*
X012747Y020242D01*
X012764Y020246D01*
X012780Y020253D01*
X012794Y020263D01*
X012807Y020276D01*
X012817Y020290D01*
X012824Y020306D01*
X012828Y020323D01*
X012830Y020340D01*
X012830Y020690D01*
X012780Y020740D01*
X012780Y024840D01*
X012830Y024890D01*
X012830Y025240D01*
X012828Y025257D01*
X012824Y025274D01*
X012817Y025290D01*
X012807Y025304D01*
X012794Y025317D01*
X012780Y025327D01*
X012764Y025334D01*
X012747Y025338D01*
X012730Y025340D01*
X012180Y025340D01*
X011680Y025340D02*
X011130Y025340D01*
X011113Y025338D01*
X011096Y025334D01*
X011080Y025327D01*
X011066Y025317D01*
X011053Y025304D01*
X011043Y025290D01*
X011036Y025274D01*
X011032Y025257D01*
X011030Y025240D01*
X011030Y024890D01*
X011080Y024840D01*
X011080Y020740D01*
X011030Y020690D01*
X011030Y020340D01*
X011032Y020323D01*
X011036Y020306D01*
X011043Y020290D01*
X011053Y020276D01*
X011066Y020263D01*
X011080Y020253D01*
X011096Y020246D01*
X011113Y020242D01*
X011130Y020240D01*
X009580Y020890D02*
X009580Y021440D01*
X009580Y021940D02*
X009580Y022490D01*
X009578Y022507D01*
X009574Y022524D01*
X009567Y022540D01*
X009557Y022554D01*
X009544Y022567D01*
X009530Y022577D01*
X009514Y022584D01*
X009497Y022588D01*
X009480Y022590D01*
X009130Y022590D01*
X009080Y022540D01*
X004980Y022540D01*
X004930Y022590D01*
X004580Y022590D01*
X004563Y022588D01*
X004546Y022584D01*
X004530Y022577D01*
X004516Y022567D01*
X004503Y022554D01*
X004493Y022540D01*
X004486Y022524D01*
X004482Y022507D01*
X004480Y022490D01*
X004480Y021940D01*
X004480Y021440D02*
X004480Y020890D01*
X004482Y020873D01*
X004486Y020856D01*
X004493Y020840D01*
X004503Y020826D01*
X004516Y020813D01*
X004530Y020803D01*
X004546Y020796D01*
X004563Y020792D01*
X004580Y020790D01*
X004930Y020790D01*
X004980Y020840D01*
X009080Y020840D01*
X009130Y020790D01*
X009480Y020790D01*
X009497Y020792D01*
X009514Y020796D01*
X009530Y020803D01*
X009544Y020813D01*
X009557Y020826D01*
X009567Y020840D01*
X009574Y020856D01*
X009578Y020873D01*
X009580Y020890D01*
X013830Y020890D02*
X013830Y020540D01*
X013832Y020523D01*
X013836Y020506D01*
X013843Y020490D01*
X013853Y020476D01*
X013866Y020463D01*
X013880Y020453D01*
X013896Y020446D01*
X013913Y020442D01*
X013930Y020440D01*
X014480Y020440D01*
X014980Y020440D02*
X015530Y020440D01*
X015547Y020442D01*
X015564Y020446D01*
X015580Y020453D01*
X015594Y020463D01*
X015607Y020476D01*
X015617Y020490D01*
X015624Y020506D01*
X015628Y020523D01*
X015630Y020540D01*
X015630Y020890D01*
X015580Y020940D01*
X015580Y025040D01*
X015630Y025090D01*
X015630Y025440D01*
X015628Y025457D01*
X015624Y025474D01*
X015617Y025490D01*
X015607Y025504D01*
X015594Y025517D01*
X015580Y025527D01*
X015564Y025534D01*
X015547Y025538D01*
X015530Y025540D01*
X014980Y025540D01*
X014480Y025540D02*
X013930Y025540D01*
X013913Y025538D01*
X013896Y025534D01*
X013880Y025527D01*
X013866Y025517D01*
X013853Y025504D01*
X013843Y025490D01*
X013836Y025474D01*
X013832Y025457D01*
X013830Y025440D01*
X013830Y025090D01*
X013880Y025040D01*
X013880Y020940D01*
X013830Y020890D01*
X004250Y025770D02*
X004150Y025670D01*
X003350Y025670D01*
X003250Y025770D01*
X003250Y026570D01*
X003350Y026670D01*
X003250Y026770D01*
X003250Y027570D01*
X003350Y027670D01*
X004150Y027670D01*
X004250Y027570D01*
X004250Y026770D01*
X004150Y026670D01*
X004250Y026570D01*
X004250Y025770D01*
X004290Y028080D02*
X004090Y028080D01*
X004290Y028080D02*
X004290Y028280D01*
X004290Y028880D02*
X004290Y029080D01*
X004090Y029080D01*
X003490Y029080D02*
X003290Y029080D01*
X003290Y028880D01*
X003290Y028280D02*
X003290Y028080D01*
X003490Y028080D01*
X003490Y029940D02*
X003290Y029940D01*
X003290Y030140D01*
X003290Y030740D02*
X003290Y030940D01*
X003490Y030940D01*
X004090Y030940D02*
X004290Y030940D01*
X004290Y030740D01*
X004290Y030140D02*
X004290Y029940D01*
X004090Y029940D01*
X004210Y032110D02*
X004410Y032110D01*
X004410Y032310D01*
X004410Y032910D02*
X004410Y033110D01*
X004210Y033110D01*
X004210Y033830D02*
X004410Y033830D01*
X004410Y034030D01*
X004410Y034630D02*
X004410Y034830D01*
X004210Y034830D01*
X004270Y035530D02*
X004470Y035530D01*
X004470Y035730D01*
X004470Y036330D02*
X004470Y036530D01*
X004270Y036530D01*
X003670Y036530D02*
X003470Y036530D01*
X003470Y036330D01*
X003470Y035730D02*
X003470Y035530D01*
X003670Y035530D01*
X003610Y034830D02*
X003410Y034830D01*
X003410Y034630D01*
X003410Y034030D02*
X003410Y033830D01*
X003610Y033830D01*
X003610Y033110D02*
X003410Y033110D01*
X003410Y032910D01*
X003410Y032310D02*
X003410Y032110D01*
X003610Y032110D01*
X006250Y038182D02*
X006250Y039398D01*
X006811Y039398D01*
X006811Y038182D01*
X006250Y038182D01*
X011230Y046040D02*
X011780Y046040D01*
X012280Y046040D02*
X012830Y046040D01*
X012847Y046042D01*
X012864Y046046D01*
X012880Y046053D01*
X012894Y046063D01*
X012907Y046076D01*
X012917Y046090D01*
X012924Y046106D01*
X012928Y046123D01*
X012930Y046140D01*
X012930Y046490D01*
X012880Y046540D01*
X012880Y050640D01*
X012930Y050690D01*
X012930Y051040D01*
X012928Y051057D01*
X012924Y051074D01*
X012917Y051090D01*
X012907Y051104D01*
X012894Y051117D01*
X012880Y051127D01*
X012864Y051134D01*
X012847Y051138D01*
X012830Y051140D01*
X012280Y051140D01*
X011780Y051140D02*
X011230Y051140D01*
X011213Y051138D01*
X011196Y051134D01*
X011180Y051127D01*
X011166Y051117D01*
X011153Y051104D01*
X011143Y051090D01*
X011136Y051074D01*
X011132Y051057D01*
X011130Y051040D01*
X011130Y050690D01*
X011180Y050640D01*
X011180Y046540D01*
X011130Y046490D01*
X011130Y046140D01*
X011132Y046123D01*
X011136Y046106D01*
X011143Y046090D01*
X011153Y046076D01*
X011166Y046063D01*
X011180Y046053D01*
X011196Y046046D01*
X011213Y046042D01*
X011230Y046040D01*
X009900Y047010D02*
X009900Y047560D01*
X009900Y048060D02*
X009900Y048610D01*
X009898Y048627D01*
X009894Y048644D01*
X009887Y048660D01*
X009877Y048674D01*
X009864Y048687D01*
X009850Y048697D01*
X009834Y048704D01*
X009817Y048708D01*
X009800Y048710D01*
X009450Y048710D01*
X009400Y048660D01*
X005300Y048660D01*
X005250Y048710D01*
X004900Y048710D01*
X004883Y048708D01*
X004866Y048704D01*
X004850Y048697D01*
X004836Y048687D01*
X004823Y048674D01*
X004813Y048660D01*
X004806Y048644D01*
X004802Y048627D01*
X004800Y048610D01*
X004800Y048060D01*
X004800Y047560D02*
X004800Y047010D01*
X004802Y046993D01*
X004806Y046976D01*
X004813Y046960D01*
X004823Y046946D01*
X004836Y046933D01*
X004850Y046923D01*
X004866Y046916D01*
X004883Y046912D01*
X004900Y046910D01*
X005250Y046910D01*
X005300Y046960D01*
X009400Y046960D01*
X009450Y046910D01*
X009800Y046910D01*
X009817Y046912D01*
X009834Y046916D01*
X009850Y046923D01*
X009864Y046933D01*
X009877Y046946D01*
X009887Y046960D01*
X009894Y046976D01*
X009898Y046993D01*
X009900Y047010D01*
X013730Y046090D02*
X013730Y045740D01*
X013732Y045723D01*
X013736Y045706D01*
X013743Y045690D01*
X013753Y045676D01*
X013766Y045663D01*
X013780Y045653D01*
X013796Y045646D01*
X013813Y045642D01*
X013830Y045640D01*
X014380Y045640D01*
X014880Y045640D02*
X015430Y045640D01*
X015447Y045642D01*
X015464Y045646D01*
X015480Y045653D01*
X015494Y045663D01*
X015507Y045676D01*
X015517Y045690D01*
X015524Y045706D01*
X015528Y045723D01*
X015530Y045740D01*
X015530Y046090D01*
X015480Y046140D01*
X015480Y050240D01*
X015530Y050290D01*
X015530Y050640D01*
X015528Y050657D01*
X015524Y050674D01*
X015517Y050690D01*
X015507Y050704D01*
X015494Y050717D01*
X015480Y050727D01*
X015464Y050734D01*
X015447Y050738D01*
X015430Y050740D01*
X014880Y050740D01*
X014380Y050740D02*
X013830Y050740D01*
X013813Y050738D01*
X013796Y050734D01*
X013780Y050727D01*
X013766Y050717D01*
X013753Y050704D01*
X013743Y050690D01*
X013736Y050674D01*
X013732Y050657D01*
X013730Y050640D01*
X013730Y050290D01*
X013780Y050240D01*
X013780Y046140D01*
X013730Y046090D01*
D14*
X013790Y043605D02*
X013715Y043530D01*
X013715Y043380D01*
X013790Y043305D01*
X013865Y043305D01*
X013940Y043380D01*
X013940Y043530D01*
X014015Y043605D01*
X014090Y043605D01*
X014165Y043530D01*
X014165Y043380D01*
X014090Y043305D01*
X014015Y043305D01*
X013940Y043380D01*
X013940Y043530D02*
X013865Y043605D01*
X013790Y043605D01*
X013790Y043144D02*
X013715Y043069D01*
X013715Y042844D01*
X014165Y042844D01*
X014015Y042844D02*
X014015Y043069D01*
X013940Y043144D01*
X013790Y043144D01*
X014015Y042994D02*
X014165Y043144D01*
X016095Y040925D02*
X016245Y040775D01*
X016170Y040614D02*
X016095Y040539D01*
X016095Y040314D01*
X016545Y040314D01*
X016545Y040539D01*
X016470Y040614D01*
X016170Y040614D01*
X016095Y040925D02*
X016545Y040925D01*
X016545Y040775D02*
X016545Y041075D01*
X018495Y042365D02*
X018495Y042590D01*
X018570Y042665D01*
X018720Y042665D01*
X018795Y042590D01*
X018795Y042365D01*
X018945Y042365D02*
X018495Y042365D01*
X018795Y042515D02*
X018945Y042665D01*
X018945Y042825D02*
X018945Y043126D01*
X018945Y042976D02*
X018495Y042976D01*
X018645Y042825D01*
X018570Y043286D02*
X018495Y043361D01*
X018495Y043511D01*
X018570Y043586D01*
X018870Y043286D01*
X018945Y043361D01*
X018945Y043511D01*
X018870Y043586D01*
X018570Y043586D01*
X018570Y043286D02*
X018870Y043286D01*
X021015Y042805D02*
X021015Y042505D01*
X021240Y042505D01*
X021165Y042655D01*
X021165Y042730D01*
X021240Y042805D01*
X021390Y042805D01*
X021465Y042730D01*
X021465Y042580D01*
X021390Y042505D01*
X021465Y042344D02*
X021315Y042194D01*
X021315Y042269D02*
X021315Y042044D01*
X021465Y042044D02*
X021015Y042044D01*
X021015Y042269D01*
X021090Y042344D01*
X021240Y042344D01*
X021315Y042269D01*
X023595Y042765D02*
X023595Y042990D01*
X023670Y043065D01*
X023820Y043065D01*
X023895Y042990D01*
X023895Y042765D01*
X024045Y042765D02*
X023595Y042765D01*
X023895Y042915D02*
X024045Y043065D01*
X023970Y043225D02*
X023820Y043225D01*
X023820Y043451D01*
X023895Y043526D01*
X023970Y043526D01*
X024045Y043451D01*
X024045Y043300D01*
X023970Y043225D01*
X023820Y043225D02*
X023670Y043376D01*
X023595Y043526D01*
X029248Y045016D02*
X029248Y045241D01*
X029323Y045316D01*
X029624Y045316D01*
X029699Y045241D01*
X029699Y045016D01*
X029248Y045016D01*
X029398Y045476D02*
X029248Y045626D01*
X029699Y045626D01*
X029699Y045476D02*
X029699Y045776D01*
X029624Y045936D02*
X029323Y046237D01*
X029624Y046237D01*
X029699Y046162D01*
X029699Y046011D01*
X029624Y045936D01*
X029323Y045936D01*
X029248Y046011D01*
X029248Y046162D01*
X029323Y046237D01*
X032395Y046273D02*
X032395Y044187D01*
X032040Y044206D02*
X032042Y044229D01*
X032048Y044252D01*
X032058Y044273D01*
X032071Y044293D01*
X032087Y044310D01*
X032106Y044324D01*
X032127Y044334D01*
X032149Y044341D01*
X032172Y044344D01*
X032196Y044343D01*
X032218Y044338D01*
X032240Y044329D01*
X032260Y044317D01*
X032278Y044301D01*
X032292Y044283D01*
X032304Y044263D01*
X032312Y044241D01*
X032316Y044218D01*
X032316Y044194D01*
X032312Y044171D01*
X032304Y044149D01*
X032292Y044129D01*
X032278Y044111D01*
X032260Y044095D01*
X032240Y044083D01*
X032218Y044074D01*
X032196Y044069D01*
X032172Y044068D01*
X032149Y044071D01*
X032127Y044078D01*
X032106Y044088D01*
X032087Y044102D01*
X032071Y044119D01*
X032058Y044139D01*
X032048Y044160D01*
X032042Y044183D01*
X032040Y044206D01*
X031270Y042196D02*
X030970Y042196D01*
X030895Y042121D01*
X030895Y041971D01*
X030970Y041896D01*
X031045Y041896D01*
X031120Y041971D01*
X031120Y042196D01*
X031270Y042196D02*
X031345Y042121D01*
X031345Y041971D01*
X031270Y041896D01*
X031345Y041736D02*
X031345Y041435D01*
X031045Y041736D01*
X030970Y041736D01*
X030895Y041661D01*
X030895Y041510D01*
X030970Y041435D01*
X030970Y041275D02*
X031120Y041275D01*
X031195Y041200D01*
X031195Y040975D01*
X031345Y040975D02*
X030895Y040975D01*
X030895Y041200D01*
X030970Y041275D01*
X031195Y041125D02*
X031345Y041275D01*
X035800Y044187D02*
X035800Y046273D01*
X038261Y046134D02*
X038711Y046134D01*
X038711Y045984D02*
X038711Y046284D01*
X038711Y046444D02*
X038711Y046744D01*
X038711Y046594D02*
X038261Y046594D01*
X038411Y046444D01*
X038261Y046134D02*
X038411Y045984D01*
X038336Y045823D02*
X038261Y045748D01*
X038261Y045523D01*
X038711Y045523D01*
X038711Y045748D01*
X038636Y045823D01*
X038336Y045823D01*
X040450Y043655D02*
X040525Y043655D01*
X040600Y043580D01*
X040600Y043430D01*
X040525Y043355D01*
X040450Y043355D01*
X040375Y043430D01*
X040375Y043580D01*
X040450Y043655D01*
X040600Y043580D02*
X040675Y043655D01*
X040750Y043655D01*
X040825Y043580D01*
X040825Y043430D01*
X040750Y043355D01*
X040675Y043355D01*
X040600Y043430D01*
X040675Y043194D02*
X040600Y043119D01*
X040600Y042969D01*
X040525Y042894D01*
X040450Y042894D01*
X040375Y042969D01*
X040375Y043119D01*
X040450Y043194D01*
X040300Y043044D02*
X040900Y043044D01*
X040825Y042969D02*
X040825Y043119D01*
X040750Y043194D01*
X040675Y043194D01*
X040825Y042969D02*
X040750Y042894D01*
X040750Y042734D02*
X040375Y042734D01*
X040375Y042434D02*
X040750Y042434D01*
X040825Y042509D01*
X040825Y042659D01*
X040750Y042734D01*
X040750Y049934D02*
X040825Y050009D01*
X040825Y050159D01*
X040750Y050234D01*
X040375Y050234D01*
X040450Y050394D02*
X040375Y050469D01*
X040375Y050619D01*
X040450Y050694D01*
X040600Y050619D02*
X040600Y050469D01*
X040525Y050394D01*
X040450Y050394D01*
X040300Y050544D02*
X040900Y050544D01*
X040825Y050469D02*
X040825Y050619D01*
X040750Y050694D01*
X040675Y050694D01*
X040600Y050619D01*
X040750Y050394D02*
X040825Y050469D01*
X040825Y050855D02*
X040750Y050855D01*
X040450Y051155D01*
X040375Y051155D01*
X040375Y050855D01*
X040375Y049934D02*
X040750Y049934D01*
X033256Y049895D02*
X032956Y049895D01*
X033106Y049895D02*
X033106Y050345D01*
X032956Y050195D01*
X032796Y049895D02*
X032495Y049895D01*
X032646Y049895D02*
X032646Y050345D01*
X032495Y050195D01*
X032335Y050270D02*
X032260Y050345D01*
X032110Y050345D01*
X032035Y050270D01*
X032035Y049970D01*
X032110Y049895D01*
X032260Y049895D01*
X032335Y049970D01*
X034455Y032915D02*
X034305Y032765D01*
X034455Y032915D02*
X034455Y032465D01*
X034305Y032465D02*
X034605Y032465D01*
X034765Y032690D02*
X035066Y032690D01*
X034991Y032465D02*
X034991Y032915D01*
X034765Y032690D01*
X029476Y032465D02*
X029176Y032465D01*
X029326Y032465D02*
X029326Y032915D01*
X029176Y032765D01*
X029016Y032615D02*
X029016Y032915D01*
X029016Y032615D02*
X028866Y032465D01*
X028715Y032615D01*
X028715Y032915D01*
X028555Y032840D02*
X028480Y032915D01*
X028330Y032915D01*
X028255Y032840D01*
X028255Y032765D01*
X028330Y032690D01*
X028480Y032690D01*
X028555Y032615D01*
X028555Y032540D01*
X028480Y032465D01*
X028330Y032465D01*
X028255Y032540D01*
X028705Y030115D02*
X028705Y029665D01*
X028555Y029665D02*
X028855Y029665D01*
X028555Y029965D02*
X028705Y030115D01*
X031035Y022785D02*
X031260Y022785D01*
X031335Y022710D01*
X031335Y022560D01*
X031260Y022485D01*
X031035Y022485D01*
X031035Y022335D02*
X031035Y022785D01*
X031185Y022485D02*
X031335Y022335D01*
X031495Y022410D02*
X031570Y022335D01*
X031721Y022335D01*
X031796Y022410D01*
X031796Y022485D01*
X031721Y022560D01*
X031646Y022560D01*
X031721Y022560D02*
X031796Y022635D01*
X031796Y022710D01*
X031721Y022785D01*
X031570Y022785D01*
X031495Y022710D01*
X031956Y022710D02*
X031956Y022635D01*
X032031Y022560D01*
X032181Y022560D01*
X032256Y022485D01*
X032256Y022410D01*
X032181Y022335D01*
X032031Y022335D01*
X031956Y022410D01*
X031956Y022485D01*
X032031Y022560D01*
X032181Y022560D02*
X032256Y022635D01*
X032256Y022710D01*
X032181Y022785D01*
X032031Y022785D01*
X031956Y022710D01*
X031620Y018833D02*
X031620Y016747D01*
X029939Y016726D02*
X029939Y016426D01*
X029939Y016576D02*
X029488Y016576D01*
X029638Y016426D01*
X029563Y016266D02*
X029488Y016191D01*
X029488Y015966D01*
X029939Y015966D01*
X029939Y016191D01*
X029864Y016266D01*
X029563Y016266D01*
X029563Y016886D02*
X029488Y016961D01*
X029488Y017112D01*
X029563Y017187D01*
X029638Y017187D01*
X029714Y017112D01*
X029789Y017187D01*
X029864Y017187D01*
X029939Y017112D01*
X029939Y016961D01*
X029864Y016886D01*
X029714Y017037D02*
X029714Y017112D01*
X034274Y013820D02*
X034274Y013520D01*
X034349Y013445D01*
X034499Y013445D01*
X034574Y013520D01*
X034734Y013445D02*
X035034Y013445D01*
X034884Y013445D02*
X034884Y013895D01*
X034734Y013745D01*
X034574Y013820D02*
X034499Y013895D01*
X034349Y013895D01*
X034274Y013820D01*
X035195Y013820D02*
X035270Y013895D01*
X035420Y013895D01*
X035495Y013820D01*
X035495Y013745D01*
X035420Y013670D01*
X035495Y013595D01*
X035495Y013520D01*
X035420Y013445D01*
X035270Y013445D01*
X035195Y013520D01*
X035345Y013670D02*
X035420Y013670D01*
X037488Y015176D02*
X037488Y015401D01*
X037563Y015476D01*
X037864Y015476D01*
X037939Y015401D01*
X037939Y015176D01*
X037488Y015176D01*
X037638Y015636D02*
X037488Y015786D01*
X037939Y015786D01*
X037939Y015636D02*
X037939Y015936D01*
X037714Y016096D02*
X037714Y016397D01*
X037939Y016322D02*
X037488Y016322D01*
X037714Y016096D01*
X040300Y014584D02*
X040900Y014584D01*
X040825Y014659D02*
X040750Y014734D01*
X040675Y014734D01*
X040600Y014659D01*
X040600Y014509D01*
X040525Y014434D01*
X040450Y014434D01*
X040375Y014509D01*
X040375Y014659D01*
X040450Y014734D01*
X040525Y014894D02*
X040375Y015044D01*
X040825Y015044D01*
X040825Y014894D02*
X040825Y015194D01*
X040750Y015355D02*
X040825Y015430D01*
X040825Y015580D01*
X040750Y015655D01*
X040450Y015655D01*
X040750Y015355D01*
X040450Y015355D01*
X040375Y015430D01*
X040375Y015580D01*
X040450Y015655D01*
X040825Y014659D02*
X040825Y014509D01*
X040750Y014434D01*
X040750Y014274D02*
X040375Y014274D01*
X040375Y013973D02*
X040750Y013973D01*
X040825Y014048D01*
X040825Y014199D01*
X040750Y014274D01*
X035025Y016747D02*
X035025Y018833D01*
X035104Y018814D02*
X035106Y018837D01*
X035112Y018860D01*
X035122Y018881D01*
X035135Y018901D01*
X035151Y018918D01*
X035170Y018932D01*
X035191Y018942D01*
X035213Y018949D01*
X035236Y018952D01*
X035260Y018951D01*
X035282Y018946D01*
X035304Y018937D01*
X035324Y018925D01*
X035342Y018909D01*
X035356Y018891D01*
X035368Y018871D01*
X035376Y018849D01*
X035380Y018826D01*
X035380Y018802D01*
X035376Y018779D01*
X035368Y018757D01*
X035356Y018737D01*
X035342Y018719D01*
X035324Y018703D01*
X035304Y018691D01*
X035282Y018682D01*
X035260Y018677D01*
X035236Y018676D01*
X035213Y018679D01*
X035191Y018686D01*
X035170Y018696D01*
X035151Y018710D01*
X035135Y018727D01*
X035122Y018747D01*
X035112Y018768D01*
X035106Y018791D01*
X035104Y018814D01*
X040300Y022584D02*
X040900Y022584D01*
X040825Y022659D02*
X040750Y022734D01*
X040675Y022734D01*
X040600Y022659D01*
X040600Y022509D01*
X040525Y022434D01*
X040450Y022434D01*
X040375Y022509D01*
X040375Y022659D01*
X040450Y022734D01*
X040525Y022894D02*
X040375Y023044D01*
X040825Y023044D01*
X040825Y022894D02*
X040825Y023194D01*
X040825Y023355D02*
X040825Y023655D01*
X040825Y023505D02*
X040375Y023505D01*
X040525Y023355D01*
X040825Y022659D02*
X040825Y022509D01*
X040750Y022434D01*
X040750Y022274D02*
X040375Y022274D01*
X040375Y021973D02*
X040750Y021973D01*
X040825Y022048D01*
X040825Y022199D01*
X040750Y022274D01*
X024545Y018186D02*
X024470Y018186D01*
X024170Y018486D01*
X024095Y018486D01*
X024095Y018186D01*
X024095Y017876D02*
X024545Y017876D01*
X024545Y018026D02*
X024545Y017725D01*
X024545Y017565D02*
X024395Y017415D01*
X024395Y017490D02*
X024395Y017265D01*
X024545Y017265D02*
X024095Y017265D01*
X024095Y017490D01*
X024170Y017565D01*
X024320Y017565D01*
X024395Y017490D01*
X024245Y017725D02*
X024095Y017876D01*
X021965Y017330D02*
X021890Y017405D01*
X021815Y017405D01*
X021740Y017330D01*
X021740Y017105D01*
X021890Y017105D01*
X021965Y017180D01*
X021965Y017330D01*
X021740Y017105D02*
X021590Y017255D01*
X021515Y017405D01*
X021965Y016944D02*
X021965Y016644D01*
X021965Y016794D02*
X021515Y016794D01*
X021665Y016644D01*
X021740Y016484D02*
X021815Y016409D01*
X021815Y016184D01*
X021815Y016334D02*
X021965Y016484D01*
X021740Y016484D02*
X021590Y016484D01*
X021515Y016409D01*
X021515Y016184D01*
X021965Y016184D01*
X019545Y017265D02*
X019095Y017265D01*
X019095Y017490D01*
X019170Y017565D01*
X019320Y017565D01*
X019395Y017490D01*
X019395Y017265D01*
X019395Y017415D02*
X019545Y017565D01*
X019545Y017725D02*
X019245Y018026D01*
X019170Y018026D01*
X019095Y017951D01*
X019095Y017800D01*
X019170Y017725D01*
X019545Y017725D02*
X019545Y018026D01*
X019470Y018186D02*
X019545Y018261D01*
X019545Y018411D01*
X019470Y018486D01*
X019395Y018486D01*
X019320Y018411D01*
X019320Y018336D01*
X019320Y018411D02*
X019245Y018486D01*
X019170Y018486D01*
X019095Y018411D01*
X019095Y018261D01*
X019170Y018186D01*
X017095Y016305D02*
X017095Y016005D01*
X016795Y016305D01*
X016720Y016305D01*
X016645Y016230D01*
X016645Y016080D01*
X016720Y016005D01*
X016720Y015844D02*
X016645Y015769D01*
X016645Y015544D01*
X017095Y015544D01*
X017095Y015769D01*
X017020Y015844D01*
X016720Y015844D01*
X014465Y017384D02*
X014015Y017384D01*
X014015Y017609D01*
X014090Y017684D01*
X014240Y017684D01*
X014315Y017609D01*
X014315Y017384D01*
X014315Y017534D02*
X014465Y017684D01*
X014465Y017844D02*
X014465Y018144D01*
X014465Y017994D02*
X014015Y017994D01*
X014165Y017844D01*
X014165Y018305D02*
X014240Y018380D01*
X014240Y018605D01*
X014390Y018605D02*
X014090Y018605D01*
X014015Y018530D01*
X014015Y018380D01*
X014090Y018305D01*
X014165Y018305D01*
X014390Y018305D02*
X014465Y018380D01*
X014465Y018530D01*
X014390Y018605D01*
X013645Y020465D02*
X013195Y020465D01*
X013195Y020690D01*
X013270Y020765D01*
X013420Y020765D01*
X013495Y020690D01*
X013495Y020465D01*
X013495Y020615D02*
X013645Y020765D01*
X013645Y020925D02*
X013345Y021226D01*
X013270Y021226D01*
X013195Y021151D01*
X013195Y021000D01*
X013270Y020925D01*
X013645Y020925D02*
X013645Y021226D01*
X013570Y021386D02*
X013645Y021461D01*
X013645Y021611D01*
X013570Y021686D01*
X013495Y021686D01*
X013420Y021611D01*
X013420Y021386D01*
X013570Y021386D01*
X013420Y021386D02*
X013270Y021536D01*
X013195Y021686D01*
X013315Y023984D02*
X013315Y024209D01*
X013240Y024284D01*
X013090Y024284D01*
X013015Y024209D01*
X013015Y023984D01*
X013465Y023984D01*
X013315Y024134D02*
X013465Y024284D01*
X013465Y024444D02*
X013165Y024744D01*
X013090Y024744D01*
X013015Y024669D01*
X013015Y024519D01*
X013090Y024444D01*
X013465Y024444D02*
X013465Y024744D01*
X013465Y024905D02*
X013465Y025205D01*
X013465Y025055D02*
X013015Y025055D01*
X013165Y024905D01*
X009370Y020605D02*
X009445Y020530D01*
X009145Y020230D01*
X009220Y020155D01*
X009370Y020155D01*
X009445Y020230D01*
X009445Y020530D01*
X009370Y020605D02*
X009220Y020605D01*
X009145Y020530D01*
X009145Y020230D01*
X008984Y020155D02*
X008684Y020155D01*
X008984Y020455D01*
X008984Y020530D01*
X008909Y020605D01*
X008759Y020605D01*
X008684Y020530D01*
X008524Y020530D02*
X008524Y020380D01*
X008449Y020305D01*
X008224Y020305D01*
X008374Y020305D02*
X008524Y020155D01*
X008224Y020155D02*
X008224Y020605D01*
X008449Y020605D01*
X008524Y020530D01*
X007699Y023676D02*
X007248Y023676D01*
X007248Y023901D01*
X007323Y023976D01*
X007624Y023976D01*
X007699Y023901D01*
X007699Y023676D01*
X007699Y024136D02*
X007624Y024136D01*
X007323Y024436D01*
X007248Y024436D01*
X007248Y024136D01*
X003075Y025770D02*
X003075Y025845D01*
X003000Y025920D01*
X002625Y025920D01*
X002625Y025845D02*
X002625Y025995D01*
X002625Y026155D02*
X002625Y026381D01*
X002700Y026456D01*
X002850Y026456D01*
X002925Y026381D01*
X002925Y026155D01*
X003075Y026155D02*
X002625Y026155D01*
X002775Y026616D02*
X002625Y026766D01*
X003075Y026766D01*
X003075Y026616D02*
X003075Y026916D01*
X003075Y025770D02*
X003000Y025695D01*
X003390Y029205D02*
X003315Y029280D01*
X003315Y029355D01*
X003390Y029430D01*
X003540Y029430D01*
X003615Y029355D01*
X003615Y029280D01*
X003540Y029205D01*
X003390Y029205D01*
X003390Y029430D02*
X003315Y029505D01*
X003315Y029580D01*
X003390Y029655D01*
X003540Y029655D01*
X003615Y029580D01*
X003615Y029505D01*
X003540Y029430D01*
X003775Y029280D02*
X004076Y029580D01*
X004076Y029280D01*
X004001Y029205D01*
X003850Y029205D01*
X003775Y029280D01*
X003775Y029580D01*
X003850Y029655D01*
X004001Y029655D01*
X004076Y029580D01*
X004236Y029580D02*
X004311Y029655D01*
X004461Y029655D01*
X004536Y029580D01*
X004236Y029280D01*
X004311Y029205D01*
X004461Y029205D01*
X004536Y029280D01*
X004536Y029580D01*
X004696Y029655D02*
X004696Y029355D01*
X004846Y029205D01*
X004996Y029355D01*
X004996Y029655D01*
X005157Y029430D02*
X005457Y029430D01*
X005307Y029580D02*
X005307Y029280D01*
X004236Y029280D02*
X004236Y029580D01*
X004236Y031065D02*
X004236Y031515D01*
X004461Y031515D01*
X004536Y031440D01*
X004536Y031290D01*
X004461Y031215D01*
X004236Y031215D01*
X004386Y031215D02*
X004536Y031065D01*
X004846Y031065D02*
X004846Y031515D01*
X004774Y031595D02*
X004774Y032045D01*
X004614Y032045D02*
X004314Y032045D01*
X004464Y032045D02*
X004464Y031595D01*
X004696Y031515D02*
X004996Y031515D01*
X005074Y031595D02*
X005074Y032045D01*
X005235Y031895D02*
X005385Y032045D01*
X005385Y031595D01*
X005457Y031515D02*
X005457Y031065D01*
X005617Y031065D02*
X005917Y031365D01*
X005917Y031440D01*
X005842Y031515D01*
X005692Y031515D01*
X005617Y031440D01*
X005535Y031595D02*
X005235Y031595D01*
X005157Y031515D02*
X005157Y031065D01*
X005157Y031290D02*
X005457Y031290D01*
X005617Y031065D02*
X005917Y031065D01*
X005074Y031820D02*
X004774Y031820D01*
X004154Y031820D02*
X004154Y031970D01*
X004079Y032045D01*
X003853Y032045D01*
X003853Y031595D01*
X003926Y031515D02*
X004076Y031365D01*
X004076Y031065D01*
X004076Y031290D02*
X003775Y031290D01*
X003775Y031365D02*
X003926Y031515D01*
X003775Y031365D02*
X003775Y031065D01*
X003615Y031065D02*
X003315Y031065D01*
X003315Y031515D01*
X003615Y031515D01*
X003693Y031595D02*
X003693Y031895D01*
X003543Y032045D01*
X003393Y031895D01*
X003393Y031595D01*
X003233Y031595D02*
X002933Y031595D01*
X002933Y032045D01*
X003233Y032045D01*
X003083Y031820D02*
X002933Y031820D01*
X003393Y031820D02*
X003693Y031820D01*
X003853Y031745D02*
X004079Y031745D01*
X004154Y031820D01*
X004004Y031745D02*
X004154Y031595D01*
X003465Y031290D02*
X003315Y031290D01*
X003354Y033255D02*
X003054Y033255D01*
X003204Y033255D02*
X003204Y033705D01*
X003054Y033555D01*
X002894Y033480D02*
X002593Y033480D01*
X003514Y033480D02*
X003664Y033555D01*
X003739Y033555D01*
X003814Y033480D01*
X003814Y033330D01*
X003739Y033255D01*
X003589Y033255D01*
X003514Y033330D01*
X003514Y033480D02*
X003514Y033705D01*
X003814Y033705D01*
X003975Y033705D02*
X003975Y033405D01*
X004125Y033255D01*
X004275Y033405D01*
X004275Y033705D01*
X004185Y034955D02*
X004035Y035105D01*
X004035Y035405D01*
X003874Y035405D02*
X003574Y035405D01*
X003574Y035180D01*
X003724Y035255D01*
X003799Y035255D01*
X003874Y035180D01*
X003874Y035030D01*
X003799Y034955D01*
X003649Y034955D01*
X003574Y035030D01*
X003414Y034955D02*
X003114Y034955D01*
X003264Y034955D02*
X003264Y035405D01*
X003114Y035255D01*
X002954Y035180D02*
X002653Y035180D01*
X002804Y035330D02*
X002804Y035030D01*
X004185Y034955D02*
X004335Y035105D01*
X004335Y035405D01*
X006230Y033590D02*
X006230Y032910D01*
X007430Y032910D01*
X007430Y033590D01*
X006230Y033590D01*
X006237Y039515D02*
X006387Y039515D01*
X006462Y039590D01*
X006622Y039515D02*
X006923Y039515D01*
X006772Y039515D02*
X006772Y039965D01*
X006622Y039815D01*
X006462Y039890D02*
X006387Y039965D01*
X006237Y039965D01*
X006162Y039890D01*
X006162Y039590D01*
X006237Y039515D01*
X006005Y039515D02*
X005855Y039515D01*
X005930Y039515D02*
X005930Y039965D01*
X005855Y039965D02*
X006005Y039965D01*
X004401Y042021D02*
X004476Y042096D01*
X004476Y042171D01*
X004401Y042246D01*
X004176Y042246D01*
X004176Y042096D01*
X004251Y042021D01*
X004401Y042021D01*
X004176Y042246D02*
X004326Y042397D01*
X004476Y042472D01*
X004016Y042397D02*
X003941Y042472D01*
X003716Y042472D01*
X003716Y042021D01*
X003941Y042021D01*
X004016Y042096D01*
X004016Y042397D01*
X009004Y046275D02*
X009004Y046725D01*
X009229Y046725D01*
X009304Y046650D01*
X009304Y046500D01*
X009229Y046425D01*
X009004Y046425D01*
X009154Y046425D02*
X009304Y046275D01*
X009465Y046275D02*
X009765Y046275D01*
X009615Y046275D02*
X009615Y046725D01*
X009465Y046575D01*
X007721Y050301D02*
X007571Y050301D01*
X007496Y050376D01*
X007496Y050526D02*
X007646Y050602D01*
X007721Y050602D01*
X007796Y050526D01*
X007796Y050376D01*
X007721Y050301D01*
X007496Y050526D02*
X007496Y050752D01*
X007796Y050752D01*
X007336Y050677D02*
X007336Y050376D01*
X007261Y050301D01*
X007036Y050301D01*
X007036Y050752D01*
X007261Y050752D01*
X007336Y050677D01*
X013115Y050780D02*
X013190Y050705D01*
X013265Y050705D01*
X013340Y050780D01*
X013340Y051005D01*
X013490Y051005D02*
X013190Y051005D01*
X013115Y050930D01*
X013115Y050780D01*
X013190Y050544D02*
X013340Y050544D01*
X013415Y050469D01*
X013415Y050244D01*
X013565Y050244D02*
X013115Y050244D01*
X013115Y050469D01*
X013190Y050544D01*
X013415Y050394D02*
X013565Y050544D01*
X013490Y050705D02*
X013565Y050780D01*
X013565Y050930D01*
X013490Y051005D01*
X015495Y050990D02*
X015570Y051065D01*
X015720Y051065D01*
X015795Y050990D01*
X015795Y050765D01*
X015945Y050765D02*
X015495Y050765D01*
X015495Y050990D01*
X015570Y051225D02*
X015495Y051300D01*
X015495Y051451D01*
X015570Y051526D01*
X015645Y051526D01*
X015945Y051225D01*
X015945Y051526D01*
X015945Y051065D02*
X015795Y050915D01*
X015616Y037125D02*
X015616Y036675D01*
X015766Y036675D02*
X015465Y036675D01*
X015305Y036675D02*
X015155Y036825D01*
X015230Y036825D02*
X015005Y036825D01*
X015005Y036675D02*
X015005Y037125D01*
X015230Y037125D01*
X015305Y037050D01*
X015305Y036900D01*
X015230Y036825D01*
X015465Y036975D02*
X015616Y037125D01*
X015926Y036975D02*
X016076Y037125D01*
X016076Y036675D01*
X015926Y036675D02*
X016226Y036675D01*
X018624Y032205D02*
X018849Y032205D01*
X018924Y032130D01*
X018924Y031980D01*
X018849Y031905D01*
X018624Y031905D01*
X018774Y031905D02*
X018924Y031755D01*
X019084Y031755D02*
X019384Y031755D01*
X019234Y031755D02*
X019234Y032205D01*
X019084Y032055D01*
X019545Y031980D02*
X019845Y031980D01*
X019770Y031755D02*
X019770Y032205D01*
X019545Y031980D01*
X018624Y031755D02*
X018624Y032205D01*
X005681Y015752D02*
X005756Y015677D01*
X005756Y015602D01*
X005681Y015526D01*
X005531Y015526D01*
X005456Y015602D01*
X005456Y015677D01*
X005531Y015752D01*
X005681Y015752D01*
X005681Y015526D02*
X005756Y015451D01*
X005756Y015376D01*
X005681Y015301D01*
X005531Y015301D01*
X005456Y015376D01*
X005456Y015451D01*
X005531Y015526D01*
X005296Y015376D02*
X005296Y015677D01*
X005221Y015752D01*
X004996Y015752D01*
X004996Y015301D01*
X005221Y015301D01*
X005296Y015376D01*
X005855Y012945D02*
X006005Y012945D01*
X005930Y012945D02*
X005930Y012495D01*
X005855Y012495D02*
X006005Y012495D01*
X006162Y012570D02*
X006237Y012495D01*
X006387Y012495D01*
X006462Y012570D01*
X006622Y012495D02*
X006923Y012795D01*
X006923Y012870D01*
X006848Y012945D01*
X006697Y012945D01*
X006622Y012870D01*
X006462Y012870D02*
X006387Y012945D01*
X006237Y012945D01*
X006162Y012870D01*
X006162Y012570D01*
X006622Y012495D02*
X006923Y012495D01*
X019224Y006805D02*
X019224Y006355D01*
X019224Y006505D02*
X019449Y006505D01*
X019524Y006580D01*
X019524Y006730D01*
X019449Y006805D01*
X019224Y006805D01*
X019374Y006505D02*
X019524Y006355D01*
X019684Y006355D02*
X019984Y006655D01*
X019984Y006730D01*
X019909Y006805D01*
X019759Y006805D01*
X019684Y006730D01*
X019684Y006355D02*
X019984Y006355D01*
X020145Y006430D02*
X020145Y006505D01*
X020220Y006580D01*
X020370Y006580D01*
X020445Y006505D01*
X020445Y006430D01*
X020370Y006355D01*
X020220Y006355D01*
X020145Y006430D01*
X020220Y006580D02*
X020145Y006655D01*
X020145Y006730D01*
X020220Y006805D01*
X020370Y006805D01*
X020445Y006730D01*
X020445Y006655D01*
X020370Y006580D01*
X020451Y008975D02*
X020451Y009425D01*
X020226Y009200D01*
X020526Y009200D01*
X020066Y009275D02*
X020066Y009350D01*
X019991Y009425D01*
X019840Y009425D01*
X019765Y009350D01*
X019605Y009350D02*
X019605Y009200D01*
X019530Y009125D01*
X019305Y009125D01*
X019305Y008975D02*
X019305Y009425D01*
X019530Y009425D01*
X019605Y009350D01*
X019455Y009125D02*
X019605Y008975D01*
X019765Y008975D02*
X020066Y009275D01*
X020066Y008975D02*
X019765Y008975D01*
D15*
X011728Y012137D02*
X011651Y012060D01*
X011498Y012060D01*
X011421Y012137D01*
X011421Y012290D02*
X011574Y012367D01*
X011651Y012367D01*
X011728Y012290D01*
X011728Y012137D01*
X011421Y012290D02*
X011421Y012520D01*
X011728Y012520D01*
X011267Y012444D02*
X011191Y012520D01*
X011037Y012520D01*
X010960Y012444D01*
X010807Y012444D02*
X010807Y012290D01*
X010730Y012213D01*
X010500Y012213D01*
X010500Y012060D02*
X010500Y012520D01*
X010730Y012520D01*
X010807Y012444D01*
X010653Y012213D02*
X010807Y012060D01*
X010960Y012060D02*
X011267Y012367D01*
X011267Y012444D01*
X011267Y012060D02*
X010960Y012060D01*
X009192Y013430D02*
X009005Y013430D01*
X009145Y013570D01*
X009145Y013290D01*
X008973Y014249D02*
X008666Y014249D01*
X008590Y014326D01*
X008590Y014479D01*
X008666Y014556D01*
X008590Y014710D02*
X008820Y014710D01*
X008743Y014863D01*
X008743Y014940D01*
X008820Y015017D01*
X008973Y015017D01*
X009050Y014940D01*
X009050Y014786D01*
X008973Y014710D01*
X008973Y014556D02*
X009050Y014479D01*
X009050Y014326D01*
X008973Y014249D01*
X008590Y014710D02*
X008590Y015017D01*
X009400Y015990D02*
X009353Y016037D01*
X009400Y015990D02*
X009494Y015990D01*
X009540Y016037D01*
X009540Y016083D01*
X009494Y016130D01*
X009447Y016130D01*
X009494Y016130D02*
X009540Y016177D01*
X009540Y016224D01*
X009494Y016270D01*
X009400Y016270D01*
X009353Y016224D01*
X010263Y016227D02*
X010310Y016274D01*
X010404Y016274D01*
X010450Y016227D01*
X010450Y016181D01*
X010263Y015994D01*
X010450Y015994D01*
X011115Y015990D02*
X011301Y015990D01*
X011208Y015990D02*
X011208Y016270D01*
X011115Y016177D01*
X010820Y014550D02*
X010897Y014474D01*
X010590Y014167D01*
X010666Y014090D01*
X010820Y014090D01*
X010897Y014167D01*
X010897Y014474D01*
X010820Y014550D02*
X010666Y014550D01*
X010590Y014474D01*
X010590Y014167D01*
X010436Y014090D02*
X010129Y014090D01*
X010283Y014090D02*
X010283Y014550D01*
X010129Y014397D01*
X009976Y014550D02*
X009669Y014550D01*
X009822Y014550D02*
X009822Y014090D01*
X007811Y016610D02*
X007658Y016610D01*
X007581Y016687D01*
X007427Y016610D02*
X007120Y016610D01*
X006967Y016610D02*
X006813Y016763D01*
X006890Y016763D02*
X006660Y016763D01*
X006639Y016757D02*
X006592Y016710D01*
X006499Y016710D01*
X006452Y016757D01*
X006545Y016850D02*
X006592Y016850D01*
X006639Y016803D01*
X006639Y016757D01*
X006592Y016850D02*
X006639Y016897D01*
X006639Y016944D01*
X006592Y016990D01*
X006499Y016990D01*
X006452Y016944D01*
X006660Y017070D02*
X006890Y017070D01*
X006967Y016994D01*
X006967Y016840D01*
X006890Y016763D01*
X006660Y016610D02*
X006660Y017070D01*
X007120Y016917D02*
X007274Y017070D01*
X007274Y016610D01*
X007581Y016994D02*
X007658Y017070D01*
X007811Y017070D01*
X007888Y016994D01*
X007888Y016917D01*
X007811Y016840D01*
X007888Y016763D01*
X007888Y016687D01*
X007811Y016610D01*
X007811Y016840D02*
X007734Y016840D01*
X008205Y017230D02*
X008392Y017230D01*
X008345Y017090D02*
X008345Y017370D01*
X008205Y017230D01*
X009483Y017890D02*
X009483Y018350D01*
X009636Y018350D02*
X009329Y018350D01*
X009790Y018274D02*
X009790Y018197D01*
X009866Y018120D01*
X010097Y018120D01*
X010097Y017967D02*
X010097Y018274D01*
X010020Y018350D01*
X009866Y018350D01*
X009790Y018274D01*
X009790Y017967D02*
X009866Y017890D01*
X010020Y017890D01*
X010097Y017967D01*
X010315Y019790D02*
X010501Y019790D01*
X010408Y019790D02*
X010408Y020070D01*
X010315Y019977D01*
X009650Y019981D02*
X009650Y020027D01*
X009604Y020074D01*
X009510Y020074D01*
X009463Y020027D01*
X009650Y019981D02*
X009463Y019794D01*
X009650Y019794D01*
X008740Y019837D02*
X008694Y019790D01*
X008600Y019790D01*
X008553Y019837D01*
X008647Y019930D02*
X008694Y019930D01*
X008740Y019883D01*
X008740Y019837D01*
X008694Y019930D02*
X008740Y019977D01*
X008740Y020024D01*
X008694Y020070D01*
X008600Y020070D01*
X008553Y020024D01*
X006987Y019550D02*
X006800Y019550D01*
X006940Y019690D01*
X006940Y019410D01*
X006278Y018814D02*
X006278Y018737D01*
X006201Y018660D01*
X006278Y018583D01*
X006278Y018507D01*
X006201Y018430D01*
X006048Y018430D01*
X005971Y018507D01*
X005817Y018430D02*
X005510Y018430D01*
X005664Y018430D02*
X005664Y018890D01*
X005510Y018737D01*
X005357Y018890D02*
X005050Y018890D01*
X005203Y018890D02*
X005203Y018430D01*
X005971Y018814D02*
X006048Y018890D01*
X006201Y018890D01*
X006278Y018814D01*
X006201Y018660D02*
X006124Y018660D01*
X005682Y016987D02*
X005589Y016987D01*
X005542Y016940D01*
X005682Y016987D02*
X005729Y016940D01*
X005729Y016893D01*
X005542Y016706D01*
X005729Y016706D01*
X004878Y016710D02*
X004691Y016710D01*
X004784Y016710D02*
X004784Y016990D01*
X004691Y016897D01*
X004747Y013020D02*
X004440Y013020D01*
X004440Y012790D01*
X004593Y012867D01*
X004670Y012867D01*
X004747Y012790D01*
X004747Y012637D01*
X004670Y012560D01*
X004516Y012560D01*
X004440Y012637D01*
X004286Y012560D02*
X003979Y012560D01*
X003826Y012560D02*
X003672Y012713D01*
X003749Y012713D02*
X003519Y012713D01*
X003519Y012560D02*
X003519Y013020D01*
X003749Y013020D01*
X003826Y012944D01*
X003826Y012790D01*
X003749Y012713D01*
X003979Y012867D02*
X004133Y013020D01*
X004133Y012560D01*
X004100Y010200D02*
X004330Y010200D01*
X004407Y010124D01*
X004407Y009970D01*
X004330Y009893D01*
X004100Y009893D01*
X004100Y009740D02*
X004100Y010200D01*
X004253Y009893D02*
X004407Y009740D01*
X004560Y009740D02*
X004867Y010047D01*
X004867Y010124D01*
X004791Y010200D01*
X004637Y010200D01*
X004560Y010124D01*
X004560Y009740D02*
X004867Y009740D01*
X005021Y009740D02*
X005328Y010047D01*
X005328Y010124D01*
X005251Y010200D01*
X005098Y010200D01*
X005021Y010124D01*
X005021Y009740D02*
X005328Y009740D01*
X009150Y009090D02*
X009457Y009090D01*
X009303Y009090D02*
X009303Y008630D01*
X009610Y008630D02*
X009917Y008630D01*
X009764Y008630D02*
X009764Y009090D01*
X009610Y008937D01*
X010071Y008860D02*
X010378Y008860D01*
X010301Y008630D02*
X010301Y009090D01*
X010071Y008860D01*
X010900Y009750D02*
X011087Y009750D01*
X011040Y009610D02*
X011040Y009890D01*
X010900Y009750D01*
X010692Y007190D02*
X010739Y007144D01*
X010739Y007097D01*
X010692Y007050D01*
X010739Y007003D01*
X010739Y006957D01*
X010692Y006910D01*
X010599Y006910D01*
X010552Y006957D01*
X010645Y007050D02*
X010692Y007050D01*
X010692Y007190D02*
X010599Y007190D01*
X010552Y007144D01*
X009829Y007140D02*
X009782Y007187D01*
X009689Y007187D01*
X009642Y007140D01*
X009829Y007140D02*
X009829Y007093D01*
X009642Y006906D01*
X009829Y006906D01*
X008978Y006910D02*
X008791Y006910D01*
X008884Y006910D02*
X008884Y007190D01*
X008791Y007097D01*
X016591Y019110D02*
X016778Y019110D01*
X016684Y019110D02*
X016684Y019390D01*
X016591Y019297D01*
X017442Y019340D02*
X017489Y019387D01*
X017582Y019387D01*
X017629Y019340D01*
X017629Y019293D01*
X017442Y019106D01*
X017629Y019106D01*
X018352Y019157D02*
X018399Y019110D01*
X018492Y019110D01*
X018539Y019157D01*
X018539Y019203D01*
X018492Y019250D01*
X018445Y019250D01*
X018492Y019250D02*
X018539Y019297D01*
X018539Y019344D01*
X018492Y019390D01*
X018399Y019390D01*
X018352Y019344D01*
X018178Y020830D02*
X017871Y020830D01*
X018178Y021137D01*
X018178Y021214D01*
X018101Y021290D01*
X017948Y021290D01*
X017871Y021214D01*
X017564Y021290D02*
X017564Y020830D01*
X017717Y020830D02*
X017410Y020830D01*
X017103Y020830D02*
X017103Y021290D01*
X016950Y021290D02*
X017257Y021290D01*
X017410Y021137D02*
X017564Y021290D01*
X018700Y021950D02*
X018887Y021950D01*
X018840Y021810D02*
X018840Y022090D01*
X018700Y021950D01*
X018192Y023110D02*
X018099Y023110D01*
X018052Y023157D01*
X018145Y023250D02*
X018192Y023250D01*
X018239Y023203D01*
X018239Y023157D01*
X018192Y023110D01*
X018192Y023250D02*
X018239Y023297D01*
X018239Y023344D01*
X018192Y023390D01*
X018099Y023390D01*
X018052Y023344D01*
X017329Y023340D02*
X017282Y023387D01*
X017189Y023387D01*
X017142Y023340D01*
X017329Y023340D02*
X017329Y023293D01*
X017142Y023106D01*
X017329Y023106D01*
X016478Y023110D02*
X016291Y023110D01*
X016384Y023110D02*
X016384Y023390D01*
X016291Y023297D01*
X016803Y024830D02*
X016803Y025290D01*
X016650Y025290D02*
X016957Y025290D01*
X017110Y025137D02*
X017264Y025290D01*
X017264Y024830D01*
X017417Y024830D02*
X017110Y024830D01*
X017571Y024830D02*
X017878Y024830D01*
X017724Y024830D02*
X017724Y025290D01*
X017571Y025137D01*
X018400Y025950D02*
X018587Y025950D01*
X018540Y025810D02*
X018540Y026090D01*
X018400Y025950D01*
X020150Y025290D02*
X020457Y025290D01*
X020303Y025290D02*
X020303Y024830D01*
X020610Y024907D02*
X020610Y024983D01*
X020687Y025060D01*
X020841Y025060D01*
X020917Y024983D01*
X020917Y024907D01*
X020841Y024830D01*
X020687Y024830D01*
X020610Y024907D01*
X020687Y025060D02*
X020610Y025137D01*
X020610Y025214D01*
X020687Y025290D01*
X020841Y025290D01*
X020917Y025214D01*
X020917Y025137D01*
X020841Y025060D01*
X021900Y025950D02*
X022087Y025950D01*
X022040Y025810D02*
X022040Y026090D01*
X021900Y025950D01*
X021692Y023390D02*
X021739Y023344D01*
X021739Y023297D01*
X021692Y023250D01*
X021739Y023203D01*
X021739Y023157D01*
X021692Y023110D01*
X021599Y023110D01*
X021552Y023157D01*
X021645Y023250D02*
X021692Y023250D01*
X021692Y023390D02*
X021599Y023390D01*
X021552Y023344D01*
X020829Y023340D02*
X020782Y023387D01*
X020689Y023387D01*
X020642Y023340D01*
X020829Y023340D02*
X020829Y023293D01*
X020642Y023106D01*
X020829Y023106D01*
X019978Y023110D02*
X019791Y023110D01*
X019884Y023110D02*
X019884Y023390D01*
X019791Y023297D01*
X026553Y030526D02*
X026553Y030987D01*
X026783Y030987D01*
X026860Y030910D01*
X026860Y030603D01*
X026783Y030526D01*
X026553Y030526D01*
X027014Y030526D02*
X027014Y030833D01*
X027167Y030987D01*
X027320Y030833D01*
X027320Y030526D01*
X027474Y030603D02*
X027551Y030526D01*
X027704Y030526D01*
X027781Y030603D01*
X027934Y030526D02*
X028241Y030833D01*
X028241Y030910D01*
X028164Y030987D01*
X028011Y030987D01*
X027934Y030910D01*
X027781Y030910D02*
X027704Y030987D01*
X027551Y030987D01*
X027474Y030910D01*
X027474Y030603D01*
X027320Y030757D02*
X027014Y030757D01*
X027934Y030526D02*
X028241Y030526D01*
X028241Y032526D02*
X027934Y032526D01*
X028088Y032526D02*
X028088Y032987D01*
X027934Y032833D01*
X027781Y032910D02*
X027704Y032987D01*
X027551Y032987D01*
X027474Y032910D01*
X027474Y032603D01*
X027551Y032526D01*
X027704Y032526D01*
X027781Y032603D01*
X027320Y032526D02*
X027320Y032833D01*
X027167Y032987D01*
X027014Y032833D01*
X027014Y032526D01*
X026860Y032603D02*
X026860Y032910D01*
X026783Y032987D01*
X026553Y032987D01*
X026553Y032526D01*
X026783Y032526D01*
X026860Y032603D01*
X027014Y032757D02*
X027320Y032757D01*
X030553Y033526D02*
X030553Y033987D01*
X030783Y033987D01*
X030860Y033910D01*
X030860Y033757D01*
X030783Y033680D01*
X030553Y033680D01*
X031014Y033833D02*
X031167Y033987D01*
X031167Y033526D01*
X031014Y033526D02*
X031320Y033526D01*
X031474Y033526D02*
X031474Y033987D01*
X031474Y033757D02*
X031781Y033757D01*
X031781Y033987D02*
X031781Y033526D01*
X032553Y033603D02*
X032553Y033910D01*
X032630Y033987D01*
X032783Y033987D01*
X032860Y033910D01*
X033014Y033987D02*
X033014Y033526D01*
X033320Y033526D01*
X033474Y033526D02*
X033474Y033987D01*
X033704Y033987D01*
X033781Y033910D01*
X033781Y033757D01*
X033704Y033680D01*
X033474Y033680D01*
X033627Y033680D02*
X033781Y033526D01*
X033934Y033526D02*
X034241Y033526D01*
X034088Y033526D02*
X034088Y033987D01*
X033934Y033833D01*
X034553Y033987D02*
X034630Y034064D01*
X034783Y033910D01*
X034860Y033987D01*
X035014Y033987D02*
X035320Y033987D01*
X035474Y033833D02*
X035627Y033987D01*
X035627Y033526D01*
X035474Y033526D02*
X035781Y033526D01*
X035167Y033757D02*
X035014Y033757D01*
X035014Y033987D02*
X035014Y033526D01*
X034934Y035026D02*
X034934Y035487D01*
X035241Y035487D01*
X035395Y035487D02*
X035395Y035026D01*
X035702Y035026D01*
X036009Y035026D02*
X036009Y035487D01*
X036162Y035487D02*
X035855Y035487D01*
X036315Y035333D02*
X036469Y035487D01*
X036469Y035026D01*
X036622Y035026D02*
X036315Y035026D01*
X035088Y035257D02*
X034934Y035257D01*
X034781Y035410D02*
X034781Y035487D01*
X034781Y035410D02*
X034627Y035257D01*
X034627Y035026D01*
X034627Y035257D02*
X034474Y035410D01*
X034474Y035487D01*
X034320Y035410D02*
X034244Y035487D01*
X034090Y035487D01*
X034014Y035410D01*
X034014Y035333D01*
X034090Y035257D01*
X034244Y035257D01*
X034320Y035180D01*
X034320Y035103D01*
X034244Y035026D01*
X034090Y035026D01*
X034014Y035103D01*
X033783Y035410D02*
X033860Y035487D01*
X033783Y035410D02*
X033630Y035564D01*
X033553Y035487D01*
X032781Y035026D02*
X032474Y035026D01*
X032474Y035487D01*
X032167Y035487D02*
X032167Y035026D01*
X032014Y035026D02*
X032320Y035026D01*
X032014Y035333D02*
X032167Y035487D01*
X031860Y035410D02*
X031860Y035257D01*
X031783Y035180D01*
X031553Y035180D01*
X031553Y035026D02*
X031553Y035487D01*
X031783Y035487D01*
X031860Y035410D01*
X032553Y033603D02*
X032630Y033526D01*
X032783Y033526D01*
X032860Y033603D01*
X032934Y029987D02*
X033241Y029987D01*
X033395Y029987D02*
X033395Y029526D01*
X033702Y029526D01*
X033553Y029526D02*
X033553Y029987D01*
X033783Y029987D01*
X033860Y029910D01*
X033860Y029757D01*
X033783Y029680D01*
X033553Y029680D01*
X033855Y029987D02*
X034162Y029987D01*
X034090Y029987D02*
X034014Y029910D01*
X034009Y029987D02*
X034009Y029526D01*
X034014Y029526D02*
X034320Y029833D01*
X034320Y029910D01*
X034244Y029987D01*
X034090Y029987D01*
X034315Y029910D02*
X034392Y029987D01*
X034546Y029987D01*
X034622Y029910D01*
X034622Y029833D01*
X034315Y029526D01*
X034622Y029526D01*
X034474Y029526D02*
X034781Y029526D01*
X034474Y029526D02*
X034474Y029987D01*
X034320Y029526D02*
X034014Y029526D01*
X033088Y029757D02*
X032934Y029757D01*
X032781Y029910D02*
X032781Y029987D01*
X032781Y029910D02*
X032627Y029757D01*
X032627Y029526D01*
X032627Y029757D02*
X032474Y029910D01*
X032474Y029987D01*
X032320Y029910D02*
X032244Y029987D01*
X032090Y029987D01*
X032014Y029910D01*
X032014Y029833D01*
X032090Y029757D01*
X032244Y029757D01*
X032320Y029680D01*
X032320Y029603D01*
X032244Y029526D01*
X032090Y029526D01*
X032014Y029603D01*
X031783Y029910D02*
X031630Y030064D01*
X031553Y029987D01*
X031783Y029910D02*
X031860Y029987D01*
X032934Y029987D02*
X032934Y029526D01*
X033014Y028487D02*
X033014Y028026D01*
X033320Y028026D01*
X033474Y028026D02*
X033474Y028487D01*
X033704Y028487D01*
X033781Y028410D01*
X033781Y028257D01*
X033704Y028180D01*
X033474Y028180D01*
X033627Y028180D02*
X033781Y028026D01*
X033934Y028026D02*
X034241Y028333D01*
X034241Y028410D01*
X034164Y028487D01*
X034011Y028487D01*
X033934Y028410D01*
X033934Y028026D02*
X034241Y028026D01*
X034553Y028026D02*
X034553Y028487D01*
X034783Y028487D01*
X034860Y028410D01*
X034860Y028257D01*
X034783Y028180D01*
X034553Y028180D01*
X035014Y028026D02*
X035320Y028333D01*
X035320Y028410D01*
X035244Y028487D01*
X035090Y028487D01*
X035014Y028410D01*
X035014Y028026D02*
X035320Y028026D01*
X035474Y028026D02*
X035474Y028487D01*
X035474Y028257D02*
X035781Y028257D01*
X035781Y028487D02*
X035781Y028026D01*
X032860Y028103D02*
X032783Y028026D01*
X032630Y028026D01*
X032553Y028103D01*
X032553Y028410D01*
X032630Y028487D01*
X032783Y028487D01*
X032860Y028410D01*
X031781Y028410D02*
X031704Y028487D01*
X031551Y028487D01*
X031474Y028410D01*
X031320Y028487D02*
X031014Y028487D01*
X031014Y028026D01*
X031014Y028257D02*
X031167Y028257D01*
X030860Y028487D02*
X030783Y028410D01*
X030630Y028564D01*
X030553Y028487D01*
X031474Y028026D02*
X031781Y028333D01*
X031781Y028410D01*
X031781Y028026D02*
X031474Y028026D01*
X036119Y022270D02*
X036349Y022270D01*
X036426Y022194D01*
X036426Y022040D01*
X036349Y021963D01*
X036119Y021963D01*
X036119Y021810D02*
X036119Y022270D01*
X036272Y021963D02*
X036426Y021810D01*
X036579Y022040D02*
X036886Y022040D01*
X037040Y022194D02*
X037116Y022270D01*
X037270Y022270D01*
X037347Y022194D01*
X037347Y022117D01*
X037040Y021810D01*
X037347Y021810D01*
X036809Y021810D02*
X036809Y022270D01*
X036579Y022040D01*
X036349Y021270D02*
X036119Y021270D01*
X036119Y020810D01*
X036119Y020963D02*
X036349Y020963D01*
X036426Y021040D01*
X036426Y021194D01*
X036349Y021270D01*
X036272Y020963D02*
X036426Y020810D01*
X036579Y021040D02*
X036886Y021040D01*
X037040Y021117D02*
X037193Y021270D01*
X037193Y020810D01*
X037040Y020810D02*
X037347Y020810D01*
X036809Y020810D02*
X036809Y021270D01*
X036579Y021040D01*
X036349Y020270D02*
X036119Y020270D01*
X036119Y019810D01*
X036119Y019963D02*
X036349Y019963D01*
X036426Y020040D01*
X036426Y020194D01*
X036349Y020270D01*
X036272Y019963D02*
X036426Y019810D01*
X036579Y020040D02*
X036886Y020040D01*
X037040Y019887D02*
X037116Y019810D01*
X037270Y019810D01*
X037347Y019887D01*
X037347Y019963D01*
X037270Y020040D01*
X037193Y020040D01*
X037270Y020040D02*
X037347Y020117D01*
X037347Y020194D01*
X037270Y020270D01*
X037116Y020270D01*
X037040Y020194D01*
X036809Y020270D02*
X036579Y020040D01*
X036809Y019810D02*
X036809Y020270D01*
X036777Y017750D02*
X036931Y017750D01*
X037007Y017674D01*
X037007Y017597D01*
X036931Y017520D01*
X037007Y017443D01*
X037007Y017367D01*
X036931Y017290D01*
X036777Y017290D01*
X036700Y017367D01*
X036547Y017290D02*
X036393Y017443D01*
X036470Y017443D02*
X036240Y017443D01*
X036240Y017290D02*
X036240Y017750D01*
X036470Y017750D01*
X036547Y017674D01*
X036547Y017520D01*
X036470Y017443D01*
X036700Y017674D02*
X036777Y017750D01*
X036854Y017520D02*
X036931Y017520D01*
X037161Y017597D02*
X037238Y017520D01*
X037468Y017520D01*
X037468Y017367D02*
X037468Y017674D01*
X037391Y017750D01*
X037238Y017750D01*
X037161Y017674D01*
X037161Y017597D01*
X037161Y017367D02*
X037238Y017290D01*
X037391Y017290D01*
X037468Y017367D01*
X037309Y013770D02*
X037079Y013540D01*
X037386Y013540D01*
X037540Y013540D02*
X037770Y013540D01*
X037847Y013463D01*
X037847Y013387D01*
X037770Y013310D01*
X037616Y013310D01*
X037540Y013387D01*
X037540Y013540D01*
X037693Y013694D01*
X037847Y013770D01*
X037309Y013770D02*
X037309Y013310D01*
X036926Y013310D02*
X036772Y013463D01*
X036849Y013463D02*
X036619Y013463D01*
X036619Y013310D02*
X036619Y013770D01*
X036849Y013770D01*
X036926Y013694D01*
X036926Y013540D01*
X036849Y013463D01*
X036849Y012770D02*
X036619Y012770D01*
X036619Y012310D01*
X036619Y012463D02*
X036849Y012463D01*
X036926Y012540D01*
X036926Y012694D01*
X036849Y012770D01*
X036772Y012463D02*
X036926Y012310D01*
X037079Y012540D02*
X037386Y012540D01*
X037540Y012540D02*
X037693Y012617D01*
X037770Y012617D01*
X037847Y012540D01*
X037847Y012387D01*
X037770Y012310D01*
X037616Y012310D01*
X037540Y012387D01*
X037540Y012540D02*
X037540Y012770D01*
X037847Y012770D01*
X037309Y012770D02*
X037309Y012310D01*
X037079Y012540D02*
X037309Y012770D01*
X037309Y011770D02*
X037079Y011540D01*
X037386Y011540D01*
X037540Y011540D02*
X037847Y011540D01*
X037770Y011310D02*
X037770Y011770D01*
X037540Y011540D01*
X037309Y011310D02*
X037309Y011770D01*
X036926Y011694D02*
X036926Y011540D01*
X036849Y011463D01*
X036619Y011463D01*
X036619Y011310D02*
X036619Y011770D01*
X036849Y011770D01*
X036926Y011694D01*
X036772Y011463D02*
X036926Y011310D01*
X034264Y017054D02*
X034341Y017131D01*
X034341Y017438D01*
X034264Y017514D01*
X034110Y017514D01*
X034034Y017438D01*
X034034Y017361D01*
X034110Y017284D01*
X034341Y017284D01*
X034264Y017054D02*
X034110Y017054D01*
X034034Y017131D01*
X033880Y017131D02*
X033880Y017208D01*
X033804Y017284D01*
X033650Y017284D01*
X033573Y017361D01*
X033573Y017438D01*
X033650Y017514D01*
X033804Y017514D01*
X033880Y017438D01*
X033727Y017591D02*
X033727Y016977D01*
X033804Y017054D02*
X033880Y017131D01*
X033804Y017054D02*
X033650Y017054D01*
X033573Y017131D01*
X033420Y017131D02*
X033420Y017514D01*
X033113Y017514D02*
X033113Y017131D01*
X033190Y017054D01*
X033343Y017054D01*
X033420Y017131D01*
X030747Y018407D02*
X030670Y018330D01*
X030516Y018330D01*
X030440Y018407D01*
X030747Y018714D01*
X030747Y018407D01*
X030747Y018714D02*
X030670Y018790D01*
X030516Y018790D01*
X030440Y018714D01*
X030440Y018407D01*
X030286Y018560D02*
X029979Y018560D01*
X030209Y018790D01*
X030209Y018330D01*
X029826Y018330D02*
X029672Y018483D01*
X029749Y018483D02*
X029519Y018483D01*
X029519Y018330D02*
X029519Y018790D01*
X029749Y018790D01*
X029826Y018714D01*
X029826Y018560D01*
X029749Y018483D01*
X039847Y030190D02*
X039770Y030267D01*
X039770Y030650D01*
X040077Y030650D02*
X040077Y030267D01*
X040000Y030190D01*
X039847Y030190D01*
X040230Y030267D02*
X040307Y030190D01*
X040461Y030190D01*
X040537Y030267D01*
X040537Y030343D01*
X040461Y030420D01*
X040307Y030420D01*
X040230Y030497D01*
X040230Y030574D01*
X040307Y030650D01*
X040461Y030650D01*
X040537Y030574D01*
X040691Y030497D02*
X040844Y030650D01*
X040844Y030190D01*
X040691Y030190D02*
X040998Y030190D01*
X041151Y030190D02*
X041458Y030497D01*
X041458Y030574D01*
X041381Y030650D01*
X041228Y030650D01*
X041151Y030574D01*
X041151Y030190D02*
X041458Y030190D01*
X040384Y030113D02*
X040384Y030727D01*
X040304Y037113D02*
X040304Y037727D01*
X040227Y037650D02*
X040381Y037650D01*
X040457Y037574D01*
X040381Y037420D02*
X040227Y037420D01*
X040150Y037497D01*
X040150Y037574D01*
X040227Y037650D01*
X039997Y037650D02*
X039997Y037267D01*
X039920Y037190D01*
X039767Y037190D01*
X039690Y037267D01*
X039690Y037650D01*
X040150Y037267D02*
X040227Y037190D01*
X040381Y037190D01*
X040457Y037267D01*
X040457Y037343D01*
X040381Y037420D01*
X040611Y037497D02*
X040764Y037650D01*
X040764Y037190D01*
X040611Y037190D02*
X040918Y037190D01*
X041071Y037267D02*
X041148Y037190D01*
X041301Y037190D01*
X041378Y037267D01*
X041378Y037343D01*
X041301Y037420D01*
X041225Y037420D01*
X041301Y037420D02*
X041378Y037497D01*
X041378Y037574D01*
X041301Y037650D01*
X041148Y037650D01*
X041071Y037574D01*
X038347Y039810D02*
X038040Y039810D01*
X038347Y040117D01*
X038347Y040194D01*
X038270Y040270D01*
X038116Y040270D01*
X038040Y040194D01*
X037886Y040194D02*
X037886Y040117D01*
X037809Y040040D01*
X037886Y039963D01*
X037886Y039887D01*
X037809Y039810D01*
X037656Y039810D01*
X037579Y039887D01*
X037426Y039810D02*
X037272Y039963D01*
X037349Y039963D02*
X037119Y039963D01*
X037119Y039810D02*
X037119Y040270D01*
X037349Y040270D01*
X037426Y040194D01*
X037426Y040040D01*
X037349Y039963D01*
X037579Y040194D02*
X037656Y040270D01*
X037809Y040270D01*
X037886Y040194D01*
X037809Y040040D02*
X037733Y040040D01*
X037809Y040810D02*
X037656Y040810D01*
X037579Y040887D01*
X037426Y040810D02*
X037272Y040963D01*
X037349Y040963D02*
X037119Y040963D01*
X037119Y040810D02*
X037119Y041270D01*
X037349Y041270D01*
X037426Y041194D01*
X037426Y041040D01*
X037349Y040963D01*
X037579Y041194D02*
X037656Y041270D01*
X037809Y041270D01*
X037886Y041194D01*
X037886Y041117D01*
X037809Y041040D01*
X037886Y040963D01*
X037886Y040887D01*
X037809Y040810D01*
X037809Y041040D02*
X037733Y041040D01*
X038040Y040887D02*
X038116Y040810D01*
X038270Y040810D01*
X038347Y040887D01*
X038347Y040963D01*
X038270Y041040D01*
X038193Y041040D01*
X038270Y041040D02*
X038347Y041117D01*
X038347Y041194D01*
X038270Y041270D01*
X038116Y041270D01*
X038040Y041194D01*
X038270Y041810D02*
X038270Y042270D01*
X038040Y042040D01*
X038347Y042040D01*
X037886Y041963D02*
X037886Y041887D01*
X037809Y041810D01*
X037656Y041810D01*
X037579Y041887D01*
X037426Y041810D02*
X037272Y041963D01*
X037349Y041963D02*
X037119Y041963D01*
X037119Y041810D02*
X037119Y042270D01*
X037349Y042270D01*
X037426Y042194D01*
X037426Y042040D01*
X037349Y041963D01*
X037579Y042194D02*
X037656Y042270D01*
X037809Y042270D01*
X037886Y042194D01*
X037886Y042117D01*
X037809Y042040D01*
X037886Y041963D01*
X037809Y042040D02*
X037733Y042040D01*
X037608Y044290D02*
X037301Y044290D01*
X037454Y044290D02*
X037454Y044750D01*
X037301Y044597D01*
X037147Y044597D02*
X037071Y044520D01*
X037147Y044443D01*
X037147Y044367D01*
X037071Y044290D01*
X036917Y044290D01*
X036840Y044367D01*
X036687Y044290D02*
X036533Y044443D01*
X036610Y044443D02*
X036380Y044443D01*
X036380Y044290D02*
X036380Y044750D01*
X036610Y044750D01*
X036687Y044674D01*
X036687Y044520D01*
X036610Y044443D01*
X036840Y044674D02*
X036917Y044750D01*
X037071Y044750D01*
X037147Y044674D01*
X037147Y044597D01*
X037071Y044520D02*
X036994Y044520D01*
X036926Y047310D02*
X036772Y047463D01*
X036849Y047463D02*
X036619Y047463D01*
X036619Y047310D02*
X036619Y047770D01*
X036849Y047770D01*
X036926Y047694D01*
X036926Y047540D01*
X036849Y047463D01*
X037079Y047387D02*
X037156Y047310D01*
X037309Y047310D01*
X037386Y047387D01*
X037386Y047463D01*
X037309Y047540D01*
X037233Y047540D01*
X037309Y047540D02*
X037386Y047617D01*
X037386Y047694D01*
X037309Y047770D01*
X037156Y047770D01*
X037079Y047694D01*
X037540Y047770D02*
X037540Y047540D01*
X037693Y047617D01*
X037770Y047617D01*
X037847Y047540D01*
X037847Y047387D01*
X037770Y047310D01*
X037616Y047310D01*
X037540Y047387D01*
X037540Y047770D02*
X037847Y047770D01*
X037770Y048310D02*
X037847Y048387D01*
X037847Y048463D01*
X037770Y048540D01*
X037540Y048540D01*
X037540Y048387D01*
X037616Y048310D01*
X037770Y048310D01*
X037540Y048540D02*
X037693Y048694D01*
X037847Y048770D01*
X037386Y048694D02*
X037386Y048617D01*
X037309Y048540D01*
X037386Y048463D01*
X037386Y048387D01*
X037309Y048310D01*
X037156Y048310D01*
X037079Y048387D01*
X036926Y048310D02*
X036772Y048463D01*
X036849Y048463D02*
X036619Y048463D01*
X036619Y048310D02*
X036619Y048770D01*
X036849Y048770D01*
X036926Y048694D01*
X036926Y048540D01*
X036849Y048463D01*
X037079Y048694D02*
X037156Y048770D01*
X037309Y048770D01*
X037386Y048694D01*
X037309Y048540D02*
X037233Y048540D01*
X037309Y049310D02*
X037156Y049310D01*
X037079Y049387D01*
X036926Y049310D02*
X036772Y049463D01*
X036849Y049463D02*
X036619Y049463D01*
X036619Y049310D02*
X036619Y049770D01*
X036849Y049770D01*
X036926Y049694D01*
X036926Y049540D01*
X036849Y049463D01*
X037079Y049694D02*
X037156Y049770D01*
X037309Y049770D01*
X037386Y049694D01*
X037386Y049617D01*
X037309Y049540D01*
X037386Y049463D01*
X037386Y049387D01*
X037309Y049310D01*
X037309Y049540D02*
X037233Y049540D01*
X037540Y049387D02*
X037540Y049310D01*
X037540Y049387D02*
X037847Y049694D01*
X037847Y049770D01*
X037540Y049770D01*
X034194Y045966D02*
X034040Y045890D01*
X033887Y045736D01*
X034117Y045736D01*
X034194Y045659D01*
X034194Y045583D01*
X034117Y045506D01*
X033963Y045506D01*
X033887Y045583D01*
X033887Y045736D01*
X033733Y045659D02*
X033656Y045736D01*
X033503Y045736D01*
X033426Y045813D01*
X033426Y045890D01*
X033503Y045966D01*
X033656Y045966D01*
X033733Y045890D01*
X033580Y046043D02*
X033580Y045429D01*
X033656Y045506D02*
X033733Y045583D01*
X033733Y045659D01*
X033656Y045506D02*
X033503Y045506D01*
X033426Y045583D01*
X033273Y045583D02*
X033273Y045966D01*
X032966Y045966D02*
X032966Y045583D01*
X033043Y045506D01*
X033196Y045506D01*
X033273Y045583D01*
X031827Y046407D02*
X031750Y046330D01*
X031596Y046330D01*
X031520Y046407D01*
X031827Y046714D01*
X031827Y046407D01*
X031827Y046714D02*
X031750Y046790D01*
X031596Y046790D01*
X031520Y046714D01*
X031520Y046407D01*
X031366Y046407D02*
X031289Y046330D01*
X031136Y046330D01*
X031059Y046407D01*
X030906Y046330D02*
X030752Y046483D01*
X030829Y046483D02*
X030599Y046483D01*
X030599Y046330D02*
X030599Y046790D01*
X030829Y046790D01*
X030906Y046714D01*
X030906Y046560D01*
X030829Y046483D01*
X031059Y046714D02*
X031136Y046790D01*
X031289Y046790D01*
X031366Y046714D01*
X031366Y046637D01*
X031289Y046560D01*
X031366Y046483D01*
X031366Y046407D01*
X031289Y046560D02*
X031213Y046560D01*
X022917Y048230D02*
X022610Y048230D01*
X022764Y048230D02*
X022764Y048690D01*
X022610Y048537D01*
X022457Y048690D02*
X022150Y048690D01*
X022303Y048690D02*
X022303Y048230D01*
X021139Y048257D02*
X021092Y048210D01*
X020999Y048210D01*
X020952Y048257D01*
X021045Y048350D02*
X021092Y048350D01*
X021139Y048303D01*
X021139Y048257D01*
X021092Y048350D02*
X021139Y048397D01*
X021139Y048444D01*
X021092Y048490D01*
X020999Y048490D01*
X020952Y048444D01*
X020229Y048440D02*
X020182Y048487D01*
X020089Y048487D01*
X020042Y048440D01*
X020229Y048440D02*
X020229Y048393D01*
X020042Y048206D01*
X020229Y048206D01*
X019378Y048210D02*
X019191Y048210D01*
X019284Y048210D02*
X019284Y048490D01*
X019191Y048397D01*
X018941Y048090D02*
X018710Y047860D01*
X019017Y047860D01*
X018941Y047630D02*
X018941Y048090D01*
X018557Y048090D02*
X018250Y048090D01*
X018403Y048090D02*
X018403Y047630D01*
X018440Y047190D02*
X018300Y047050D01*
X018487Y047050D01*
X018440Y046910D02*
X018440Y047190D01*
X017992Y048210D02*
X017899Y048210D01*
X017852Y048257D01*
X017945Y048350D02*
X017992Y048350D01*
X018039Y048303D01*
X018039Y048257D01*
X017992Y048210D01*
X017992Y048350D02*
X018039Y048397D01*
X018039Y048444D01*
X017992Y048490D01*
X017899Y048490D01*
X017852Y048444D01*
X017129Y048440D02*
X017082Y048487D01*
X016989Y048487D01*
X016942Y048440D01*
X017129Y048440D02*
X017129Y048393D01*
X016942Y048206D01*
X017129Y048206D01*
X016278Y048210D02*
X016091Y048210D01*
X016184Y048210D02*
X016184Y048490D01*
X016091Y048397D01*
X018340Y050910D02*
X018340Y051190D01*
X018200Y051050D01*
X018387Y051050D01*
X021300Y051050D02*
X021487Y051050D01*
X021440Y050910D02*
X021440Y051190D01*
X021300Y051050D01*
X019617Y044890D02*
X019310Y044890D01*
X019310Y044660D01*
X019464Y044737D01*
X019541Y044737D01*
X019617Y044660D01*
X019617Y044507D01*
X019541Y044430D01*
X019387Y044430D01*
X019310Y044507D01*
X019003Y044430D02*
X019003Y044890D01*
X018850Y044890D02*
X019157Y044890D01*
X018139Y044444D02*
X018139Y044397D01*
X018092Y044350D01*
X018139Y044303D01*
X018139Y044257D01*
X018092Y044210D01*
X017999Y044210D01*
X017952Y044257D01*
X018045Y044350D02*
X018092Y044350D01*
X018139Y044444D02*
X018092Y044490D01*
X017999Y044490D01*
X017952Y044444D01*
X017229Y044440D02*
X017182Y044487D01*
X017089Y044487D01*
X017042Y044440D01*
X017229Y044440D02*
X017229Y044393D01*
X017042Y044206D01*
X017229Y044206D01*
X016378Y044210D02*
X016191Y044210D01*
X016284Y044210D02*
X016284Y044490D01*
X016191Y044397D01*
X011651Y038720D02*
X011498Y038720D01*
X011421Y038644D01*
X011651Y038720D02*
X011728Y038644D01*
X011728Y038567D01*
X011421Y038260D01*
X011728Y038260D01*
X011267Y038260D02*
X010960Y038260D01*
X010807Y038260D02*
X010653Y038413D01*
X010730Y038413D02*
X010500Y038413D01*
X010500Y038260D02*
X010500Y038720D01*
X010730Y038720D01*
X010807Y038644D01*
X010807Y038490D01*
X010730Y038413D01*
X010960Y038567D02*
X011114Y038720D01*
X011114Y038260D01*
X011040Y036790D02*
X010900Y036650D01*
X011087Y036650D01*
X011040Y036510D02*
X011040Y036790D01*
X009917Y035990D02*
X009917Y035914D01*
X009610Y035607D01*
X009610Y035530D01*
X009303Y035530D02*
X009303Y035990D01*
X009150Y035990D02*
X009457Y035990D01*
X009610Y035990D02*
X009917Y035990D01*
X009782Y034087D02*
X009689Y034087D01*
X009642Y034040D01*
X009782Y034087D02*
X009829Y034040D01*
X009829Y033993D01*
X009642Y033806D01*
X009829Y033806D01*
X010552Y033857D02*
X010599Y033810D01*
X010692Y033810D01*
X010739Y033857D01*
X010739Y033903D01*
X010692Y033950D01*
X010645Y033950D01*
X010692Y033950D02*
X010739Y033997D01*
X010739Y034044D01*
X010692Y034090D01*
X010599Y034090D01*
X010552Y034044D01*
X010474Y032770D02*
X010474Y032310D01*
X010474Y032463D02*
X010781Y032770D01*
X010934Y032770D02*
X010934Y032310D01*
X011241Y032310D01*
X011088Y032540D02*
X010934Y032540D01*
X010934Y032770D02*
X011241Y032770D01*
X010781Y032310D02*
X010551Y032540D01*
X010320Y032387D02*
X010320Y032694D01*
X010244Y032770D01*
X010090Y032770D01*
X010014Y032694D01*
X010014Y032387D01*
X010090Y032310D01*
X010244Y032310D01*
X010320Y032387D01*
X009860Y032310D02*
X009860Y032770D01*
X009860Y032540D02*
X009553Y032540D01*
X009400Y032387D02*
X009323Y032310D01*
X009169Y032310D01*
X009093Y032387D01*
X009093Y032694D01*
X009169Y032770D01*
X009323Y032770D01*
X009400Y032694D01*
X009553Y032770D02*
X009553Y032310D01*
X008939Y032233D02*
X008632Y032233D01*
X008479Y032310D02*
X008172Y032310D01*
X008325Y032310D02*
X008325Y032770D01*
X008172Y032617D01*
X008018Y032694D02*
X007712Y032387D01*
X007788Y032310D01*
X007942Y032310D01*
X008018Y032387D01*
X008018Y032694D01*
X007942Y032770D01*
X007788Y032770D01*
X007712Y032694D01*
X007712Y032387D01*
X007558Y032310D02*
X007251Y032310D01*
X007558Y032617D01*
X007558Y032694D01*
X007481Y032770D01*
X007328Y032770D01*
X007251Y032694D01*
X007098Y032770D02*
X006791Y032770D01*
X006791Y032310D01*
X006637Y032310D02*
X006484Y032463D01*
X006561Y032463D02*
X006330Y032463D01*
X006330Y032310D02*
X006330Y032770D01*
X006561Y032770D01*
X006637Y032694D01*
X006637Y032540D01*
X006561Y032463D01*
X006791Y032540D02*
X006944Y032540D01*
X006177Y032463D02*
X006177Y032387D01*
X006100Y032310D01*
X005947Y032310D01*
X005870Y032387D01*
X005947Y032540D02*
X006100Y032540D01*
X006177Y032463D01*
X006177Y032694D02*
X006100Y032770D01*
X005947Y032770D01*
X005870Y032694D01*
X005870Y032617D01*
X005947Y032540D01*
X005947Y033730D02*
X006100Y033730D01*
X006177Y033807D01*
X006177Y034190D01*
X006330Y034114D02*
X006407Y034190D01*
X006561Y034190D01*
X006637Y034114D01*
X006561Y033960D02*
X006407Y033960D01*
X006330Y034037D01*
X006330Y034114D01*
X006484Y034267D02*
X006484Y033653D01*
X006561Y033730D02*
X006637Y033807D01*
X006637Y033883D01*
X006561Y033960D01*
X006561Y033730D02*
X006407Y033730D01*
X006330Y033807D01*
X005947Y033730D02*
X005870Y033807D01*
X005870Y034190D01*
X006791Y034037D02*
X006944Y034190D01*
X006944Y033730D01*
X006791Y033730D02*
X007098Y033730D01*
X008791Y033810D02*
X008978Y033810D01*
X008884Y033810D02*
X008884Y034090D01*
X008791Y033997D01*
X008893Y039059D02*
X008586Y039059D01*
X008510Y039136D01*
X008510Y039289D01*
X008586Y039366D01*
X008663Y039520D02*
X008510Y039673D01*
X008970Y039673D01*
X008970Y039520D02*
X008970Y039827D01*
X009145Y039470D02*
X009005Y039330D01*
X009192Y039330D01*
X009145Y039190D02*
X009145Y039470D01*
X008970Y039289D02*
X008893Y039366D01*
X008970Y039289D02*
X008970Y039136D01*
X008893Y039059D01*
X010283Y039990D02*
X010283Y040450D01*
X010436Y040450D02*
X010129Y040450D01*
X010590Y040374D02*
X010666Y040450D01*
X010820Y040450D01*
X010897Y040374D01*
X010897Y040297D01*
X010820Y040220D01*
X010897Y040143D01*
X010897Y040067D01*
X010820Y039990D01*
X010666Y039990D01*
X010590Y040067D01*
X010743Y040220D02*
X010820Y040220D01*
X011115Y041890D02*
X011301Y041890D01*
X011208Y041890D02*
X011208Y042170D01*
X011115Y042077D01*
X010450Y042081D02*
X010263Y041894D01*
X010450Y041894D01*
X010450Y042081D02*
X010450Y042127D01*
X010404Y042174D01*
X010310Y042174D01*
X010263Y042127D01*
X009540Y042124D02*
X009540Y042077D01*
X009494Y042030D01*
X009540Y041983D01*
X009540Y041937D01*
X009494Y041890D01*
X009400Y041890D01*
X009353Y041937D01*
X009447Y042030D02*
X009494Y042030D01*
X009540Y042124D02*
X009494Y042170D01*
X009400Y042170D01*
X009353Y042124D01*
X008328Y042434D02*
X008021Y042127D01*
X008021Y042050D01*
X007791Y042050D02*
X007791Y042510D01*
X007560Y042280D01*
X007867Y042280D01*
X008021Y042510D02*
X008328Y042510D01*
X008328Y042434D01*
X008445Y042890D02*
X008445Y043170D01*
X008305Y043030D01*
X008492Y043030D01*
X007407Y042434D02*
X007407Y042280D01*
X007330Y042203D01*
X007100Y042203D01*
X007100Y042050D02*
X007100Y042510D01*
X007330Y042510D01*
X007407Y042434D01*
X007253Y042203D02*
X007407Y042050D01*
X006539Y042557D02*
X006492Y042510D01*
X006399Y042510D01*
X006352Y042557D01*
X006445Y042650D02*
X006492Y042650D01*
X006539Y042603D01*
X006539Y042557D01*
X006492Y042650D02*
X006539Y042697D01*
X006539Y042744D01*
X006492Y042790D01*
X006399Y042790D01*
X006352Y042744D01*
X005629Y042740D02*
X005582Y042787D01*
X005489Y042787D01*
X005442Y042740D01*
X005629Y042740D02*
X005629Y042693D01*
X005442Y042506D01*
X005629Y042506D01*
X004778Y042510D02*
X004591Y042510D01*
X004684Y042510D02*
X004684Y042790D01*
X004591Y042697D01*
X005103Y044230D02*
X005103Y044690D01*
X004950Y044690D02*
X005257Y044690D01*
X005410Y044460D02*
X005641Y044460D01*
X005717Y044383D01*
X005717Y044307D01*
X005641Y044230D01*
X005487Y044230D01*
X005410Y044307D01*
X005410Y044460D01*
X005564Y044614D01*
X005717Y044690D01*
X006700Y045350D02*
X006840Y045490D01*
X006840Y045210D01*
X006887Y045350D02*
X006700Y045350D01*
X008653Y045637D02*
X008700Y045590D01*
X008794Y045590D01*
X008840Y045637D01*
X008840Y045683D01*
X008794Y045730D01*
X008747Y045730D01*
X008794Y045730D02*
X008840Y045777D01*
X008840Y045824D01*
X008794Y045870D01*
X008700Y045870D01*
X008653Y045824D01*
X009563Y045827D02*
X009610Y045874D01*
X009704Y045874D01*
X009750Y045827D01*
X009750Y045781D01*
X009563Y045594D01*
X009750Y045594D01*
X010415Y045590D02*
X010601Y045590D01*
X010508Y045590D02*
X010508Y045870D01*
X010415Y045777D01*
X010120Y044150D02*
X009966Y044150D01*
X009890Y044074D01*
X009736Y044150D02*
X009429Y044150D01*
X009583Y044150D02*
X009583Y043690D01*
X009890Y043690D02*
X010197Y043997D01*
X010197Y044074D01*
X010120Y044150D01*
X010197Y043690D02*
X009890Y043690D01*
X004547Y039644D02*
X004547Y039567D01*
X004470Y039490D01*
X004547Y039413D01*
X004547Y039337D01*
X004470Y039260D01*
X004316Y039260D01*
X004240Y039337D01*
X004086Y039260D02*
X003933Y039413D01*
X004009Y039413D02*
X003779Y039413D01*
X003779Y039260D02*
X003779Y039720D01*
X004009Y039720D01*
X004086Y039644D01*
X004086Y039490D01*
X004009Y039413D01*
X004240Y039644D02*
X004316Y039720D01*
X004470Y039720D01*
X004547Y039644D01*
X004470Y039490D02*
X004393Y039490D01*
X003660Y038451D02*
X003200Y038451D01*
X003430Y038220D01*
X003430Y038527D01*
X003430Y038067D02*
X003507Y037990D01*
X003507Y037760D01*
X003660Y037760D02*
X003200Y037760D01*
X003200Y037990D01*
X003276Y038067D01*
X003430Y038067D01*
X003507Y037913D02*
X003660Y038067D01*
X005276Y025388D02*
X005353Y025388D01*
X005430Y025311D01*
X005430Y025158D01*
X005353Y025081D01*
X005276Y025081D01*
X005200Y025158D01*
X005200Y025311D01*
X005276Y025388D01*
X005430Y025311D02*
X005507Y025388D01*
X005583Y025388D01*
X005660Y025311D01*
X005660Y025158D01*
X005583Y025081D01*
X005507Y025081D01*
X005430Y025158D01*
X005660Y024927D02*
X005660Y024620D01*
X005660Y024467D02*
X005507Y024313D01*
X005507Y024390D02*
X005507Y024160D01*
X005660Y024160D02*
X005200Y024160D01*
X005200Y024390D01*
X005276Y024467D01*
X005430Y024467D01*
X005507Y024390D01*
X005353Y024620D02*
X005200Y024774D01*
X005660Y024774D01*
X005040Y050940D02*
X004580Y050940D01*
X004580Y051170D01*
X004656Y051247D01*
X004810Y051247D01*
X004887Y051170D01*
X004887Y050940D01*
X004887Y051093D02*
X005040Y051247D01*
X005040Y051400D02*
X004963Y051400D01*
X004656Y051707D01*
X004580Y051707D01*
X004580Y051400D01*
D16*
X007735Y049770D02*
X008148Y049494D01*
X008148Y050065D01*
X007735Y049770D01*
X004828Y041785D02*
X004415Y041490D01*
X004828Y041214D01*
X004828Y041785D01*
X007935Y024788D02*
X008506Y024788D01*
X008230Y024375D01*
X007935Y024788D01*
X006108Y015065D02*
X005695Y014770D01*
X006108Y014494D01*
X006108Y015065D01*
X030175Y017078D02*
X030746Y017078D01*
X030470Y016665D01*
X030175Y017078D01*
X038175Y016288D02*
X038470Y015875D01*
X038746Y016288D01*
X038175Y016288D01*
X038025Y045742D02*
X037454Y045742D01*
X037730Y046155D01*
X038025Y045742D01*
X030506Y046128D02*
X030230Y045715D01*
X029935Y046128D01*
X030506Y046128D01*
D17*
X007715Y049770D03*
X004395Y041490D03*
X005675Y014770D03*
D18*
X026824Y040771D02*
X027071Y040771D01*
X027132Y040832D01*
X027132Y040956D01*
X027071Y041018D01*
X027071Y041139D02*
X027132Y041201D01*
X027132Y041324D01*
X027071Y041386D01*
X026824Y041386D01*
X026762Y041324D01*
X026762Y041201D01*
X026824Y041139D01*
X026885Y041139D01*
X026947Y041201D01*
X026947Y041386D01*
X026824Y041018D02*
X026762Y040956D01*
X026762Y040832D01*
X026824Y040771D01*
X028024Y016486D02*
X027962Y016424D01*
X027962Y016301D01*
X028024Y016239D01*
X028271Y016239D01*
X028024Y016486D01*
X028271Y016486D01*
X028332Y016424D01*
X028332Y016301D01*
X028271Y016239D01*
X028332Y016118D02*
X028332Y015871D01*
X028332Y015994D02*
X027962Y015994D01*
X028085Y015871D01*
X028024Y015749D02*
X027962Y015688D01*
X027962Y015564D01*
X028024Y015502D01*
X028271Y015502D01*
X028332Y015564D01*
X028332Y015688D01*
X028271Y015749D01*
D19*
X030470Y016645D03*
X038470Y015855D03*
X030230Y045695D03*
X037730Y046175D03*
X008230Y024355D03*
D20*
X042580Y021790D03*
X042580Y013790D03*
X042580Y041790D03*
X042580Y049290D03*
D21*
X042330Y047565D03*
X042330Y051015D03*
X042330Y043515D03*
X042330Y040065D03*
X042330Y023515D03*
X042330Y020065D03*
X042330Y015515D03*
X042330Y012065D03*
D22*
X042330Y013290D03*
X042330Y014290D03*
X042330Y021290D03*
X042330Y022290D03*
X042330Y041290D03*
X042330Y042290D03*
X042330Y048790D03*
X042330Y049790D03*
D23*
X033540Y049270D02*
X033540Y049020D01*
X033540Y048770D01*
X033290Y048770D02*
X033290Y049020D01*
X033290Y049270D01*
X034100Y015020D02*
X034100Y014770D01*
X034100Y014520D01*
X034350Y014520D02*
X034350Y014770D01*
X034350Y015020D01*
D24*
X031970Y040730D03*
X031970Y043570D03*
D25*
X030790Y021710D03*
X033630Y021710D03*
D26*
X015970Y016240D03*
X015420Y041010D03*
D27*
X015420Y041635D03*
X015420Y039285D03*
X015970Y016865D03*
X015970Y014515D03*
M02*
