%
M48
M72
T01C0.0140
T02C0.0236
T03C0.0400
T04C0.0440
T05C0.1260
%
T01
X8800Y5260
X8900Y6360
X9040Y7670
X8640Y7670
X8640Y8070
X9040Y8070
X9440Y8070
X9840Y8070
X10240Y8070
X10240Y7670
X9840Y7670
X9440Y7670
X12320Y5710
X13100Y5360
X12500Y5060
X13800Y4860
X12100Y2460
X17940Y1830
X21480Y2670
X19390Y4250
X20950Y4330
X22450Y5950
X23350Y6150
X22850Y6750
X20850Y7650
X22770Y8370
X21570Y9570
X20650Y8950
X19050Y8950
X17630Y9350
X17450Y9970
X16250Y10250
X15750Y10550
X16050Y10850
X16350Y11350
X17450Y11150
X17650Y11650
X17450Y13150
X18250Y13650
X20250Y13550
X20650Y13150
X21250Y13550
X22310Y13410
X23750Y14150
X23990Y12830
X23690Y12560
X24920Y12830
X25400Y12620
X26110Y11780
X25630Y10970
X24840Y10970
X24670Y10430
X24160Y10170
X23800Y10410
X23550Y11150
X24020Y11790
X23470Y11930
X22250Y11350
X22340Y10910
X21700Y10760
X21780Y11910
X20590Y12030
X16350Y13250
X13950Y14150
X18350Y14750
X20050Y14650
X20090Y17370
X20750Y17350
X18350Y17850
X16250Y17850
X26850Y16950
X31430Y16730
X34430Y16190
X30110Y13460
X28550Y12680
X27590Y11810
X28700Y11570
X30200Y10700
X31670Y11190
X31070Y9890
X32250Y9370
X31070Y8010
X32910Y7770
X31670Y6750
X35670Y5870
X36790Y7250
X34670Y11210
X35250Y13050
X26720Y10430
X25970Y10350
X25670Y8130
X24570Y8130
X18850Y7650
X16760Y8270
X15800Y8390
X16090Y9470
X26600Y3550
X27800Y2920
T02
X27830Y8630
X28310Y8960
X29060Y9290
X30350Y8630
X27830Y10700
X24920Y8960
X22130Y9440
X6050Y12470
X4160Y12470
X3230Y13190
X3200Y14330
X4160Y8570
X38870Y12320
T03
X39050Y11450
X38050Y11450
X37050Y11450
X40050Y11450
X30380Y6490
X29380Y6490
X28380Y6490
X27380Y6490
X26380Y6490
X25380Y6490
X24380Y6490
X24380Y5490
X25380Y5490
X26380Y5490
X27380Y5490
X28380Y5490
X29380Y5490
X30380Y5490
X13750Y11450
X12750Y11450
X12750Y12450
X13750Y12450
X13750Y13450
X12750Y13450
X10050Y13350
X9050Y13350
X8050Y13350
X7050Y13350
X6050Y13350
X5050Y13350
X24550Y14450
X25550Y14450
X26550Y14450
X27550Y14450
X28550Y14450
X29550Y14450
T04
X5240Y10470
X5240Y8570
X3560Y5090
X4700Y3680
X5570Y2150
T05
X2780Y2570
X30200Y2630
X39700Y2890
X39780Y15570
X2780Y17070
M30
