G75*
%MOIN*%
%OFA0B0*%
%FSLAX24Y24*%
%IPPOS*%
%LPD*%
%AMOC8*
5,1,8,0,0,1.08239X$1,22.5*
%
%ADD10R,0.0580X0.0110*%
%ADD11R,0.0110X0.0580*%
%ADD12R,0.0590X0.0120*%
%ADD13R,0.0591X0.0512*%
%ADD14R,0.0276X0.0354*%
%ADD15R,0.0394X0.0394*%
%ADD16R,0.0748X0.0945*%
%ADD17R,0.0354X0.0276*%
%ADD18C,0.0600*%
%ADD19OC8,0.0600*%
%ADD20C,0.0600*%
%ADD21R,0.0630X0.0460*%
%ADD22R,0.0512X0.0591*%
%ADD23R,0.0591X0.0551*%
%ADD24R,0.0689X0.0276*%
%ADD25R,0.0800X0.0276*%
%ADD26R,0.0591X0.0315*%
%ADD27R,0.0394X0.0551*%
%ADD28R,0.0551X0.0315*%
%ADD29R,0.0610X0.0394*%
%ADD30R,0.0460X0.0630*%
%ADD31R,0.0433X0.0394*%
%ADD32R,0.0394X0.0433*%
%ADD33R,0.0500X0.1000*%
%ADD34R,0.1060X0.0440*%
%ADD35OC8,0.1000*%
%ADD36R,0.0591X0.0157*%
%ADD37R,0.0155X0.0295*%
%ADD38C,0.0400*%
%ADD39C,0.0320*%
%ADD40C,0.0396*%
%ADD41C,0.0160*%
%ADD42C,0.0100*%
%ADD43C,0.0300*%
%ADD44C,0.0060*%
%ADD45C,0.0120*%
%ADD46C,0.0070*%
%ADD47C,0.0240*%
D10*
X016850Y008790D03*
X016850Y008980D03*
X016850Y009180D03*
X016850Y009380D03*
X016850Y009580D03*
X016850Y009770D03*
X016850Y009970D03*
X016850Y010170D03*
X016850Y010360D03*
X016850Y010560D03*
X016850Y010760D03*
X016850Y010950D03*
X016850Y011150D03*
X016850Y011350D03*
X016850Y011540D03*
X016850Y011740D03*
X016850Y011940D03*
X016850Y012130D03*
X016850Y012330D03*
X016850Y012530D03*
X016850Y012720D03*
X016850Y012920D03*
X016850Y013120D03*
X016850Y013320D03*
X016850Y013510D03*
X022850Y013510D03*
X022850Y013320D03*
X022850Y013120D03*
X022850Y012920D03*
X022850Y012720D03*
X022850Y012530D03*
X022850Y012330D03*
X022850Y012130D03*
X022850Y011940D03*
X022850Y011740D03*
X022850Y011540D03*
X022850Y011350D03*
X022850Y011150D03*
X022850Y010950D03*
X022850Y010760D03*
X022850Y010560D03*
X022850Y010360D03*
X022850Y010170D03*
X022850Y009970D03*
X022850Y009770D03*
X022850Y009580D03*
X022850Y009380D03*
X022850Y009180D03*
X022850Y008980D03*
X022850Y008790D03*
D11*
X022210Y008150D03*
X022020Y008150D03*
X021820Y008150D03*
X021620Y008150D03*
X021420Y008150D03*
X021230Y008150D03*
X021030Y008150D03*
X020830Y008150D03*
X020640Y008150D03*
X020440Y008150D03*
X020240Y008150D03*
X020050Y008150D03*
X019850Y008150D03*
X019650Y008150D03*
X019460Y008150D03*
X019260Y008150D03*
X019060Y008150D03*
X018870Y008150D03*
X018670Y008150D03*
X018470Y008150D03*
X018280Y008150D03*
X018080Y008150D03*
X017880Y008150D03*
X017680Y008150D03*
X017490Y008150D03*
X017490Y014150D03*
X017680Y014150D03*
X017880Y014150D03*
X018080Y014150D03*
X018280Y014150D03*
X018470Y014150D03*
X018670Y014150D03*
X018870Y014150D03*
X019060Y014150D03*
X019260Y014150D03*
X019460Y014150D03*
X019650Y014150D03*
X019850Y014150D03*
X020050Y014150D03*
X020240Y014150D03*
X020440Y014150D03*
X020640Y014150D03*
X020830Y014150D03*
X021030Y014150D03*
X021230Y014150D03*
X021420Y014150D03*
X021620Y014150D03*
X021820Y014150D03*
X022020Y014150D03*
X022210Y014150D03*
D12*
X011310Y006150D03*
X011310Y005960D03*
X011310Y005760D03*
X011310Y005560D03*
X011310Y005370D03*
X009690Y005370D03*
X009690Y005560D03*
X009690Y005760D03*
X009690Y005960D03*
X009690Y006150D03*
D13*
X012900Y004134D03*
X012900Y003386D03*
X014400Y003386D03*
X016000Y003286D03*
X016000Y004034D03*
X014400Y004134D03*
X031667Y010712D03*
D14*
X026006Y016850D03*
X025494Y016850D03*
X017646Y016390D03*
X017134Y016390D03*
X015606Y016150D03*
X015094Y016150D03*
X010756Y004460D03*
X010244Y004460D03*
D15*
X021350Y015556D03*
X021350Y016344D03*
D16*
X018157Y015450D03*
X016543Y015450D03*
D17*
X016250Y016694D03*
X016250Y017206D03*
X018350Y017206D03*
X018350Y016694D03*
X030450Y011806D03*
X030450Y011294D03*
X031550Y012194D03*
X031550Y012706D03*
D18*
X012750Y013450D03*
D19*
X013750Y013450D03*
X013750Y012450D03*
X012750Y012450D03*
X012750Y011450D03*
X013750Y011450D03*
X024380Y006490D03*
X025380Y006490D03*
X026380Y006490D03*
X027380Y006490D03*
X028380Y006490D03*
X029380Y006490D03*
X030380Y006490D03*
X030380Y005490D03*
X029380Y005490D03*
X028380Y005490D03*
X027380Y005490D03*
X026380Y005490D03*
X025380Y005490D03*
X024380Y005490D03*
D20*
X037050Y011150D02*
X037050Y011750D01*
X038050Y011750D02*
X038050Y011150D01*
X039050Y011150D02*
X039050Y011750D01*
X040050Y011750D02*
X040050Y011150D01*
X029550Y014150D02*
X029550Y014750D01*
X028550Y014750D02*
X028550Y014150D01*
X027550Y014150D02*
X027550Y014750D01*
X026550Y014750D02*
X026550Y014150D01*
X025550Y014150D02*
X025550Y014750D01*
X024550Y014750D02*
X024550Y014150D01*
X010050Y013650D02*
X010050Y013050D01*
X009050Y013050D02*
X009050Y013650D01*
X008050Y013650D02*
X008050Y013050D01*
X007050Y013050D02*
X007050Y013650D01*
X006050Y013650D02*
X006050Y013050D01*
X005050Y013050D02*
X005050Y013650D01*
D21*
X024150Y015950D03*
X024150Y016550D03*
D22*
X025376Y016050D03*
X026124Y016050D03*
X007924Y012150D03*
X007176Y012150D03*
D23*
X031667Y006263D03*
D24*
X031627Y007208D03*
X031627Y007641D03*
X031627Y008074D03*
X031627Y008941D03*
X031627Y009807D03*
X031627Y010220D03*
D25*
X031627Y009374D03*
X031627Y008507D03*
D26*
X034659Y010830D03*
D27*
X035249Y010712D03*
D28*
X034915Y006145D03*
D29*
X035879Y006283D03*
D30*
X013450Y014550D03*
X012850Y014550D03*
X021350Y017150D03*
X021950Y017150D03*
D31*
X032750Y012585D03*
X032750Y011915D03*
X033950Y011915D03*
X033950Y012585D03*
X033650Y005185D03*
X033650Y004515D03*
X034950Y004415D03*
X034950Y005085D03*
D32*
X036815Y005450D03*
X037485Y005450D03*
D33*
X008040Y008470D03*
X007040Y008470D03*
X007040Y010370D03*
X008040Y010370D03*
D34*
X009440Y009960D03*
X009440Y008780D03*
D35*
X005570Y002150D03*
X004700Y003680D03*
X003560Y005090D03*
X005240Y008570D03*
X005240Y010470D03*
D36*
X026723Y011054D03*
X026723Y011310D03*
X026723Y011566D03*
X026723Y011822D03*
X026723Y012078D03*
X026723Y012334D03*
X026723Y012590D03*
X026723Y012846D03*
X029577Y012846D03*
X029577Y012590D03*
X029577Y012334D03*
X029577Y012078D03*
X029577Y011822D03*
X029577Y011566D03*
X029577Y011310D03*
X029577Y011054D03*
D37*
X003188Y007673D03*
X002852Y007673D03*
X002852Y006947D03*
X003188Y006947D03*
D38*
X005240Y008570D02*
X006940Y008570D01*
X007040Y008470D01*
X007040Y010370D02*
X006940Y010470D01*
X005240Y010470D01*
D39*
X008040Y010370D02*
X008100Y010430D01*
X008930Y010430D01*
X009400Y009960D01*
X009440Y009960D01*
X005450Y008390D02*
X005240Y008570D01*
X005450Y008390D02*
X005450Y006050D01*
X005570Y005930D01*
X005570Y002150D01*
X010756Y004404D02*
X011900Y003260D01*
X012774Y003260D01*
X010756Y004404D02*
X010756Y004460D01*
X004160Y008570D02*
X004160Y008780D01*
X004160Y012470D01*
X006050Y012470D02*
X006050Y013340D01*
X006050Y013350D01*
D40*
X006050Y012470D03*
X004160Y012470D03*
X003230Y013190D03*
X003200Y014330D03*
X004160Y008570D03*
X022130Y009440D03*
X024920Y008960D03*
X027830Y008630D03*
X028310Y008960D03*
X029060Y009290D03*
X030350Y008630D03*
X027830Y010700D03*
X038870Y012320D03*
D41*
X004700Y005960D02*
X004700Y003680D01*
X003560Y005090D02*
X002852Y005090D01*
X002852Y006947D01*
X003188Y006947D02*
X003200Y006935D01*
X003200Y006560D01*
X003590Y006170D01*
X004490Y006170D01*
X004700Y005960D01*
X003188Y007673D02*
X003188Y013148D01*
X003230Y013190D01*
X002852Y013982D02*
X003200Y014330D01*
X002852Y013982D02*
X002852Y007673D01*
D42*
X008700Y005960D02*
X008700Y005660D01*
X008900Y005260D01*
X008800Y005260D01*
X009690Y005370D02*
X009690Y005014D01*
X010244Y004460D01*
X010492Y004419D02*
X012495Y004419D01*
X012495Y004435D02*
X012495Y003833D01*
X012559Y003768D01*
X013241Y003768D01*
X013305Y003833D01*
X013305Y004435D01*
X013241Y004500D01*
X013060Y004500D01*
X013060Y004674D01*
X013134Y004600D01*
X013734Y004600D01*
X013995Y004339D01*
X013995Y003833D01*
X014059Y003768D01*
X014741Y003768D01*
X014805Y003833D01*
X014805Y004435D01*
X014741Y004500D01*
X014286Y004500D01*
X014036Y004750D01*
X014060Y004808D01*
X014060Y004912D01*
X014020Y005007D01*
X013947Y005080D01*
X013852Y005120D01*
X013748Y005120D01*
X013653Y005080D01*
X013580Y005007D01*
X013543Y004920D01*
X013266Y004920D01*
X013086Y005100D01*
X013152Y005100D01*
X013247Y005140D01*
X013320Y005213D01*
X013360Y005308D01*
X013360Y005412D01*
X013320Y005507D01*
X013247Y005580D01*
X013240Y005583D01*
X013240Y005718D01*
X013158Y005800D01*
X013158Y005800D01*
X012968Y005990D01*
X013608Y005990D01*
X014222Y005547D01*
X014240Y004858D01*
X014240Y004794D01*
X014242Y004792D01*
X014242Y004790D01*
X014288Y004745D01*
X014334Y004700D01*
X014336Y004700D01*
X014338Y004698D01*
X014402Y004700D01*
X015534Y004700D01*
X015834Y004400D01*
X015659Y004400D01*
X015595Y004335D01*
X015595Y003733D01*
X015659Y003668D01*
X016341Y003668D01*
X016405Y003733D01*
X016405Y004335D01*
X016341Y004400D01*
X016160Y004400D01*
X016160Y004526D01*
X016066Y004620D01*
X015666Y005020D01*
X014556Y005020D01*
X014541Y005580D01*
X014549Y005590D01*
X014540Y005645D01*
X014538Y005700D01*
X014529Y005709D01*
X014527Y005721D01*
X014482Y005753D01*
X014442Y005792D01*
X014430Y005791D01*
X013764Y006272D01*
X013726Y006310D01*
X013712Y006310D01*
X013700Y006319D01*
X013647Y006310D01*
X011661Y006310D01*
X011651Y006320D01*
X010969Y006320D01*
X010905Y006256D01*
X010905Y005454D01*
X010969Y005390D01*
X011651Y005390D01*
X011661Y005400D01*
X011934Y005400D01*
X012240Y005094D01*
X012240Y005008D01*
X012280Y004913D01*
X012353Y004840D01*
X012448Y004800D01*
X012534Y004800D01*
X012740Y004594D01*
X012740Y004500D01*
X012559Y004500D01*
X012495Y004435D01*
X012495Y004321D02*
X010492Y004321D01*
X010492Y004237D02*
X010492Y004683D01*
X010427Y004747D01*
X010183Y004747D01*
X009850Y005080D01*
X009850Y005200D01*
X010031Y005200D01*
X010095Y005264D01*
X010095Y006256D01*
X010031Y006320D01*
X009609Y006320D01*
X009552Y006326D01*
X009544Y006320D01*
X009166Y006320D01*
X009160Y006326D01*
X009160Y006412D01*
X009120Y006507D01*
X009087Y006540D01*
X009081Y007030D01*
X010498Y007030D01*
X010580Y007112D01*
X010580Y009212D01*
X010580Y009328D01*
X010498Y009410D01*
X009048Y009410D01*
X009020Y011500D01*
X004430Y011714D01*
X004430Y012317D01*
X004468Y012409D01*
X004468Y012531D01*
X004421Y012645D01*
X004335Y012731D01*
X004221Y012778D01*
X004099Y012778D01*
X003985Y012731D01*
X003899Y012645D01*
X003852Y012531D01*
X003852Y012409D01*
X003890Y012317D01*
X003890Y011739D01*
X003440Y011760D01*
X003457Y012981D01*
X003491Y013015D01*
X003538Y013129D01*
X003538Y013251D01*
X003491Y013365D01*
X003463Y013393D01*
X003474Y014186D01*
X003508Y014269D01*
X007970Y014269D01*
X007970Y014171D02*
X003474Y014171D01*
X003472Y014072D02*
X007970Y014072D01*
X007970Y014060D02*
X007968Y014060D01*
X007818Y013998D01*
X007702Y013882D01*
X007640Y013732D01*
X007640Y012968D01*
X007702Y012818D01*
X007818Y012702D01*
X007879Y012677D01*
X007810Y012608D01*
X007810Y012555D01*
X007623Y012555D01*
X007558Y012491D01*
X007558Y011809D01*
X007623Y011745D01*
X008225Y011745D01*
X008290Y011809D01*
X008290Y012491D01*
X008225Y012555D01*
X008153Y012555D01*
X008190Y012592D01*
X008190Y012664D01*
X008282Y012702D01*
X008398Y012818D01*
X008460Y012968D01*
X008460Y013732D01*
X008398Y013882D01*
X008282Y013998D01*
X008250Y014011D01*
X008250Y018030D01*
X015210Y018030D01*
X015210Y014692D01*
X015292Y014610D01*
X016710Y014610D01*
X016710Y014092D01*
X016792Y014010D01*
X017325Y014010D01*
X017325Y013814D01*
X017389Y013750D01*
X018181Y013750D01*
X018245Y013814D01*
X018245Y014010D01*
X018305Y014010D01*
X018305Y013814D01*
X018369Y013750D01*
X019350Y013750D01*
X019350Y011592D01*
X021313Y009629D01*
X021310Y009622D01*
X021310Y009518D01*
X021350Y009423D01*
X021423Y009350D01*
X021518Y009310D01*
X021622Y009310D01*
X021717Y009350D01*
X021790Y009423D01*
X021822Y009499D01*
X021822Y009379D01*
X021837Y009343D01*
X021674Y009180D01*
X021386Y009180D01*
X020760Y009806D01*
X020760Y009866D01*
X018390Y012236D01*
X018296Y012330D01*
X017474Y012330D01*
X017250Y012106D01*
X017250Y012982D01*
X017303Y012930D01*
X017398Y012890D01*
X017250Y012890D01*
X017250Y012792D02*
X019350Y012792D01*
X019350Y012890D02*
X017502Y012890D01*
X017597Y012930D01*
X017670Y013003D01*
X017710Y013098D01*
X017710Y013202D01*
X017670Y013297D01*
X017597Y013370D01*
X017502Y013410D01*
X017398Y013410D01*
X017303Y013370D01*
X017250Y013318D01*
X017250Y013611D01*
X017186Y013675D01*
X016883Y013675D01*
X016868Y013690D01*
X014508Y013690D01*
X014208Y013990D01*
X014158Y013990D01*
X014170Y014003D01*
X014210Y014098D01*
X014210Y014202D01*
X014170Y014297D01*
X014097Y014370D01*
X014002Y014410D01*
X013898Y014410D01*
X013803Y014370D01*
X013790Y014358D01*
X013790Y014911D01*
X013726Y014975D01*
X013174Y014975D01*
X013110Y014911D01*
X013110Y014189D01*
X013174Y014125D01*
X013310Y014125D01*
X013310Y013992D01*
X013312Y013990D01*
X013092Y013990D01*
X013010Y013908D01*
X012924Y013822D01*
X012832Y013860D01*
X012668Y013860D01*
X012518Y013798D01*
X012402Y013682D01*
X012340Y013532D01*
X012340Y013368D01*
X012402Y013218D01*
X012518Y013102D01*
X012668Y013040D01*
X012832Y013040D01*
X012982Y013102D01*
X013098Y013218D01*
X013160Y013368D01*
X013160Y013532D01*
X013122Y013624D01*
X013208Y013710D01*
X013430Y013710D01*
X013340Y013620D01*
X013340Y013280D01*
X013473Y013148D01*
X013250Y013148D01*
X012941Y012839D01*
X012920Y012860D01*
X012580Y012860D01*
X012340Y012620D01*
X012340Y012280D01*
X012580Y012040D01*
X012920Y012040D01*
X013160Y012280D01*
X013160Y012620D01*
X013139Y012641D01*
X013366Y012868D01*
X013950Y012868D01*
X013968Y012850D01*
X014147Y012670D01*
X014110Y012670D01*
X013920Y012860D01*
X013580Y012860D01*
X013340Y012620D01*
X013340Y012280D01*
X013580Y012040D01*
X013920Y012040D01*
X014160Y012280D01*
X014160Y012390D01*
X016450Y012390D01*
X016450Y011870D01*
X015292Y011870D01*
X015210Y011788D01*
X015210Y008232D01*
X019133Y004309D01*
X019130Y004302D01*
X019130Y004198D01*
X019170Y004103D01*
X019243Y004030D01*
X019338Y003990D01*
X019442Y003990D01*
X019537Y004030D01*
X019610Y004103D01*
X019650Y004198D01*
X019650Y004302D01*
X019610Y004397D01*
X019537Y004470D01*
X019442Y004510D01*
X019338Y004510D01*
X019331Y004507D01*
X015679Y008158D01*
X015748Y008130D01*
X015852Y008130D01*
X015947Y008170D01*
X015994Y008217D01*
X016515Y008182D01*
X016540Y008123D01*
X016613Y008050D01*
X016708Y008010D01*
X016812Y008010D01*
X016907Y008050D01*
X016980Y008123D01*
X017020Y008218D01*
X017020Y008322D01*
X016980Y008417D01*
X016907Y008490D01*
X016812Y008530D01*
X016736Y008530D01*
X016730Y008538D01*
X016730Y008625D01*
X017186Y008625D01*
X017250Y008689D01*
X017250Y008891D01*
X017186Y008955D01*
X016514Y008955D01*
X016450Y008891D01*
X016450Y008507D01*
X016021Y008536D01*
X016020Y008537D01*
X015947Y008610D01*
X015852Y008650D01*
X015748Y008650D01*
X015653Y008610D01*
X015580Y008537D01*
X015540Y008442D01*
X015540Y008338D01*
X015568Y008269D01*
X015490Y008348D01*
X015490Y011590D01*
X016450Y011590D01*
X016450Y011439D01*
X016514Y011375D01*
X017186Y011375D01*
X017221Y011410D01*
X017508Y011410D01*
X017520Y011422D01*
X017598Y011390D01*
X017702Y011390D01*
X017797Y011430D01*
X017870Y011503D01*
X017910Y011598D01*
X017910Y011702D01*
X017870Y011797D01*
X017797Y011870D01*
X017702Y011910D01*
X017598Y011910D01*
X017503Y011870D01*
X017430Y011797D01*
X017390Y011702D01*
X017390Y011690D01*
X017250Y011690D01*
X017250Y011770D01*
X017366Y011770D01*
X017460Y011864D01*
X017606Y012010D01*
X018164Y012010D01*
X020440Y009734D01*
X020440Y009674D01*
X020534Y009580D01*
X021254Y008860D01*
X021806Y008860D01*
X021900Y008954D01*
X022078Y009132D01*
X022191Y009132D01*
X022305Y009179D01*
X022391Y009265D01*
X022438Y009379D01*
X022438Y009501D01*
X022391Y009615D01*
X022305Y009701D01*
X022191Y009748D01*
X022069Y009748D01*
X021955Y009701D01*
X021869Y009615D01*
X021830Y009521D01*
X021830Y009622D01*
X021790Y009717D01*
X021717Y009790D01*
X021622Y009830D01*
X021518Y009830D01*
X021511Y009827D01*
X019630Y011708D01*
X019630Y013750D01*
X019710Y013750D01*
X019710Y012874D01*
X019707Y012821D01*
X019710Y012817D01*
X019710Y012812D01*
X019748Y012774D01*
X020339Y012103D01*
X020330Y012082D01*
X020330Y011978D01*
X020370Y011883D01*
X020443Y011810D01*
X020538Y011770D01*
X020642Y011770D01*
X020737Y011810D01*
X020810Y011883D01*
X020850Y011978D01*
X020850Y012082D01*
X020810Y012177D01*
X020737Y012250D01*
X020642Y012290D01*
X020548Y012290D01*
X019990Y012923D01*
X019990Y013789D01*
X020015Y013814D01*
X020015Y014486D01*
X019951Y014550D01*
X019450Y014550D01*
X019450Y016192D01*
X020509Y017251D01*
X020530Y017203D01*
X020603Y017130D01*
X020698Y017090D01*
X020802Y017090D01*
X020897Y017130D01*
X020970Y017203D01*
X020973Y017210D01*
X021010Y017210D01*
X021010Y016789D01*
X021074Y016725D01*
X021626Y016725D01*
X021650Y016749D01*
X021674Y016725D01*
X021810Y016725D01*
X021810Y015448D01*
X021550Y015188D01*
X021550Y015249D01*
X021592Y015249D01*
X021657Y015314D01*
X021657Y015799D01*
X021592Y015863D01*
X021108Y015863D01*
X021043Y015799D01*
X021043Y015314D01*
X021108Y015249D01*
X021270Y015249D01*
X021270Y014550D01*
X020139Y014550D01*
X020075Y014486D01*
X020075Y013814D01*
X020110Y013779D01*
X020110Y013773D01*
X020103Y013770D01*
X020030Y013697D01*
X019990Y013602D01*
X019990Y013498D01*
X020030Y013403D01*
X020103Y013330D01*
X020198Y013290D01*
X020302Y013290D01*
X020397Y013330D01*
X020470Y013403D01*
X020510Y013498D01*
X020510Y013602D01*
X020470Y013697D01*
X020418Y013750D01*
X020510Y013750D01*
X020510Y013373D01*
X020503Y013370D01*
X020430Y013297D01*
X020390Y013202D01*
X020390Y013098D01*
X020430Y013003D01*
X020503Y012930D01*
X020598Y012890D01*
X020019Y012890D01*
X019990Y012989D02*
X020444Y012989D01*
X020395Y013087D02*
X019990Y013087D01*
X019990Y013186D02*
X020390Y013186D01*
X020424Y013284D02*
X019990Y013284D01*
X019990Y013383D02*
X020050Y013383D01*
X019997Y013481D02*
X019990Y013481D01*
X019990Y013580D02*
X019990Y013580D01*
X019990Y013678D02*
X020022Y013678D01*
X019990Y013777D02*
X020110Y013777D01*
X020075Y013875D02*
X020015Y013875D01*
X020015Y013974D02*
X020075Y013974D01*
X020075Y014072D02*
X020015Y014072D01*
X020015Y014171D02*
X020075Y014171D01*
X020075Y014269D02*
X020015Y014269D01*
X020015Y014368D02*
X020075Y014368D01*
X020075Y014466D02*
X020015Y014466D01*
X019450Y014565D02*
X021270Y014565D01*
X021270Y014663D02*
X019450Y014663D01*
X019450Y014762D02*
X021270Y014762D01*
X021270Y014860D02*
X019450Y014860D01*
X019450Y014959D02*
X021270Y014959D01*
X021270Y015057D02*
X019450Y015057D01*
X019450Y015156D02*
X021270Y015156D01*
X021103Y015254D02*
X019450Y015254D01*
X019450Y015353D02*
X021043Y015353D01*
X021043Y015451D02*
X019450Y015451D01*
X019450Y015550D02*
X021043Y015550D01*
X021043Y015648D02*
X019450Y015648D01*
X019450Y015747D02*
X021043Y015747D01*
X021089Y015845D02*
X019450Y015845D01*
X019450Y015944D02*
X021810Y015944D01*
X021810Y016042D02*
X019450Y016042D01*
X019450Y016141D02*
X021810Y016141D01*
X021810Y016239D02*
X019497Y016239D01*
X019596Y016338D02*
X021810Y016338D01*
X021810Y016436D02*
X019694Y016436D01*
X019793Y016535D02*
X021810Y016535D01*
X021810Y016633D02*
X019891Y016633D01*
X019990Y016732D02*
X021068Y016732D01*
X021010Y016830D02*
X020088Y016830D01*
X020187Y016929D02*
X021010Y016929D01*
X021010Y017027D02*
X020285Y017027D01*
X020384Y017126D02*
X020612Y017126D01*
X020521Y017224D02*
X020482Y017224D01*
X020331Y017469D02*
X020310Y017517D01*
X020237Y017590D01*
X020142Y017630D01*
X020038Y017630D01*
X020031Y017627D01*
X019430Y018228D01*
X019348Y018310D01*
X008052Y018310D01*
X007970Y018228D01*
X007970Y014060D01*
X007794Y013974D02*
X007306Y013974D01*
X007282Y013998D02*
X007132Y014060D01*
X006968Y014060D01*
X006818Y013998D01*
X006702Y013882D01*
X006640Y013732D01*
X006640Y012968D01*
X006702Y012818D01*
X006818Y012702D01*
X006968Y012640D01*
X007132Y012640D01*
X007282Y012702D01*
X007398Y012818D01*
X007460Y012968D01*
X007460Y013732D01*
X007398Y013882D01*
X007282Y013998D01*
X007401Y013875D02*
X007699Y013875D01*
X007659Y013777D02*
X007441Y013777D01*
X007460Y013678D02*
X007640Y013678D01*
X007640Y013580D02*
X007460Y013580D01*
X007460Y013481D02*
X007640Y013481D01*
X007640Y013383D02*
X007460Y013383D01*
X007460Y013284D02*
X007640Y013284D01*
X007640Y013186D02*
X007460Y013186D01*
X007460Y013087D02*
X007640Y013087D01*
X007640Y012989D02*
X007460Y012989D01*
X007428Y012890D02*
X007672Y012890D01*
X007729Y012792D02*
X007371Y012792D01*
X007260Y012693D02*
X007840Y012693D01*
X007810Y012595D02*
X006332Y012595D01*
X006320Y012623D02*
X006320Y012740D01*
X006398Y012818D01*
X006460Y012968D01*
X006460Y013732D01*
X006398Y013882D01*
X006282Y013998D01*
X006132Y014060D01*
X005968Y014060D01*
X005818Y013998D01*
X005702Y013882D01*
X005640Y013732D01*
X005640Y012968D01*
X005702Y012818D01*
X005780Y012740D01*
X005780Y012623D01*
X005742Y012531D01*
X005742Y012409D01*
X005789Y012295D01*
X005875Y012209D01*
X005989Y012162D01*
X006111Y012162D01*
X006225Y012209D01*
X006311Y012295D01*
X006358Y012409D01*
X006358Y012531D01*
X006320Y012623D01*
X006320Y012693D02*
X006840Y012693D01*
X006729Y012792D02*
X006371Y012792D01*
X006428Y012890D02*
X006672Y012890D01*
X006640Y012989D02*
X006460Y012989D01*
X006460Y013087D02*
X006640Y013087D01*
X006640Y013186D02*
X006460Y013186D01*
X006460Y013284D02*
X006640Y013284D01*
X006640Y013383D02*
X006460Y013383D01*
X006460Y013481D02*
X006640Y013481D01*
X006640Y013580D02*
X006460Y013580D01*
X006460Y013678D02*
X006640Y013678D01*
X006659Y013777D02*
X006441Y013777D01*
X006401Y013875D02*
X006699Y013875D01*
X006794Y013974D02*
X006306Y013974D01*
X005794Y013974D02*
X005306Y013974D01*
X005282Y013998D02*
X005132Y014060D01*
X004968Y014060D01*
X004818Y013998D01*
X004702Y013882D01*
X004640Y013732D01*
X004640Y012968D01*
X004702Y012818D01*
X004818Y012702D01*
X004968Y012640D01*
X005132Y012640D01*
X005282Y012702D01*
X005398Y012818D01*
X005460Y012968D01*
X005460Y013732D01*
X005398Y013882D01*
X005282Y013998D01*
X005401Y013875D02*
X005699Y013875D01*
X005659Y013777D02*
X005441Y013777D01*
X005460Y013678D02*
X005640Y013678D01*
X005640Y013580D02*
X005460Y013580D01*
X005460Y013481D02*
X005640Y013481D01*
X005640Y013383D02*
X005460Y013383D01*
X005460Y013284D02*
X005640Y013284D01*
X005640Y013186D02*
X005460Y013186D01*
X005460Y013087D02*
X005640Y013087D01*
X005640Y012989D02*
X005460Y012989D01*
X005428Y012890D02*
X005672Y012890D01*
X005729Y012792D02*
X005371Y012792D01*
X005260Y012693D02*
X005780Y012693D01*
X005768Y012595D02*
X004442Y012595D01*
X004468Y012496D02*
X005742Y012496D01*
X005747Y012398D02*
X004463Y012398D01*
X004430Y012299D02*
X005787Y012299D01*
X005895Y012201D02*
X004430Y012201D01*
X004430Y012102D02*
X007558Y012102D01*
X007558Y012004D02*
X004430Y012004D01*
X004430Y011905D02*
X007558Y011905D01*
X007561Y011807D02*
X004430Y011807D01*
X004555Y011708D02*
X012428Y011708D01*
X012340Y011620D02*
X012340Y011280D01*
X012580Y011040D01*
X012920Y011040D01*
X013160Y011280D01*
X013160Y011620D01*
X012920Y011860D01*
X012580Y011860D01*
X012340Y011620D01*
X012340Y011610D02*
X006669Y011610D01*
X006205Y012201D02*
X007558Y012201D01*
X007558Y012299D02*
X006313Y012299D01*
X006353Y012398D02*
X007558Y012398D01*
X007563Y012496D02*
X006358Y012496D01*
X004840Y012693D02*
X004373Y012693D01*
X004672Y012890D02*
X003456Y012890D01*
X003454Y012792D02*
X004729Y012792D01*
X004640Y012989D02*
X003464Y012989D01*
X003521Y013087D02*
X004640Y013087D01*
X004640Y013186D02*
X003538Y013186D01*
X003525Y013284D02*
X004640Y013284D01*
X004640Y013383D02*
X003473Y013383D01*
X003464Y013481D02*
X004640Y013481D01*
X004640Y013580D02*
X003465Y013580D01*
X003467Y013678D02*
X004640Y013678D01*
X004659Y013777D02*
X003468Y013777D01*
X003470Y013875D02*
X004699Y013875D01*
X004794Y013974D02*
X003471Y013974D01*
X003508Y014269D02*
X003508Y014391D01*
X003478Y014465D01*
X003490Y015340D01*
X004575Y018320D01*
X041030Y018320D01*
X041030Y001626D01*
X040858Y001320D01*
X009158Y001320D01*
X009116Y004396D01*
X011740Y001772D01*
X011822Y001690D01*
X017717Y001690D01*
X017720Y001683D01*
X017793Y001610D01*
X017888Y001570D01*
X017992Y001570D01*
X018087Y001610D01*
X018160Y001683D01*
X018200Y001778D01*
X018200Y001882D01*
X018180Y001930D01*
X024438Y001930D01*
X024520Y002012D01*
X024520Y005080D01*
X024550Y005080D01*
X024790Y005320D01*
X024790Y005660D01*
X024550Y005900D01*
X024210Y005900D01*
X023970Y005660D01*
X023970Y005320D01*
X024210Y005080D01*
X024240Y005080D01*
X024240Y002210D01*
X012176Y002210D01*
X012247Y002240D01*
X012320Y002313D01*
X012360Y002408D01*
X012360Y002512D01*
X012320Y002607D01*
X012247Y002680D01*
X012152Y002720D01*
X012048Y002720D01*
X012048Y002720D01*
X010714Y003787D01*
X010470Y004030D01*
X010470Y004215D01*
X010492Y004237D01*
X010477Y004222D02*
X012495Y004222D01*
X012495Y004124D02*
X010470Y004124D01*
X010475Y004025D02*
X012495Y004025D01*
X012495Y003927D02*
X010574Y003927D01*
X010672Y003828D02*
X012499Y003828D01*
X012900Y004134D02*
X012900Y004660D01*
X012500Y005060D01*
X012000Y005560D01*
X011310Y005560D01*
X011310Y005760D02*
X012200Y005760D01*
X012285Y005675D01*
X013200Y004760D01*
X013800Y004760D01*
X014400Y004160D01*
X014400Y004134D01*
X014805Y004124D02*
X015595Y004124D01*
X015595Y004222D02*
X014805Y004222D01*
X014805Y004321D02*
X015595Y004321D01*
X015716Y004518D02*
X014269Y004518D01*
X014170Y004616D02*
X015618Y004616D01*
X015600Y004860D02*
X016000Y004460D01*
X016000Y004034D01*
X016405Y004025D02*
X019254Y004025D01*
X019161Y004124D02*
X016405Y004124D01*
X016405Y004222D02*
X019130Y004222D01*
X019122Y004321D02*
X016405Y004321D01*
X016160Y004419D02*
X019023Y004419D01*
X018925Y004518D02*
X016160Y004518D01*
X016070Y004616D02*
X018826Y004616D01*
X018728Y004715D02*
X015972Y004715D01*
X016066Y004620D02*
X016066Y004620D01*
X015873Y004813D02*
X018629Y004813D01*
X018530Y004912D02*
X015775Y004912D01*
X015676Y005010D02*
X018432Y005010D01*
X018333Y005109D02*
X014554Y005109D01*
X014551Y005207D02*
X018235Y005207D01*
X018136Y005306D02*
X014548Y005306D01*
X014546Y005404D02*
X018038Y005404D01*
X017939Y005503D02*
X014543Y005503D01*
X014547Y005601D02*
X017841Y005601D01*
X017742Y005700D02*
X014538Y005700D01*
X014421Y005798D02*
X017644Y005798D01*
X017545Y005897D02*
X014284Y005897D01*
X014148Y005995D02*
X017447Y005995D01*
X017348Y006094D02*
X014011Y006094D01*
X013875Y006192D02*
X017250Y006192D01*
X017151Y006291D02*
X013746Y006291D01*
X013660Y006150D02*
X014380Y005630D01*
X014400Y004860D01*
X015600Y004860D01*
X015815Y004419D02*
X014805Y004419D01*
X014805Y004025D02*
X015595Y004025D01*
X015595Y003927D02*
X014805Y003927D01*
X014801Y003828D02*
X015595Y003828D01*
X015598Y003730D02*
X010785Y003730D01*
X010908Y003631D02*
X022243Y003631D01*
X022145Y003533D02*
X011031Y003533D01*
X011155Y003434D02*
X022046Y003434D01*
X021948Y003336D02*
X011278Y003336D01*
X011401Y003237D02*
X021849Y003237D01*
X021751Y003139D02*
X011524Y003139D01*
X011647Y003040D02*
X021652Y003040D01*
X021554Y002942D02*
X011770Y002942D01*
X011893Y002843D02*
X021285Y002843D01*
X021260Y002817D02*
X021220Y002722D01*
X021220Y002618D01*
X021260Y002523D01*
X021333Y002450D01*
X021428Y002410D01*
X021532Y002410D01*
X021627Y002450D01*
X021700Y002523D01*
X021740Y002618D01*
X021740Y002722D01*
X021737Y002729D01*
X023878Y004870D01*
X023960Y004952D01*
X023960Y005832D01*
X024209Y006081D01*
X024210Y006080D01*
X024550Y006080D01*
X024790Y006320D01*
X024790Y006660D01*
X024550Y006900D01*
X024210Y006900D01*
X023970Y006660D01*
X023970Y006320D01*
X024011Y006279D01*
X023680Y005948D01*
X023680Y005068D01*
X021539Y002927D01*
X021532Y002930D01*
X021428Y002930D01*
X021333Y002890D01*
X021260Y002817D01*
X021229Y002745D02*
X012016Y002745D01*
X012282Y002646D02*
X021220Y002646D01*
X021249Y002548D02*
X012345Y002548D01*
X012360Y002449D02*
X021334Y002449D01*
X021626Y002449D02*
X024240Y002449D01*
X024240Y002351D02*
X012336Y002351D01*
X012260Y002252D02*
X024240Y002252D01*
X024520Y002252D02*
X029404Y002252D01*
X029363Y002351D02*
X024520Y002351D01*
X024520Y002449D02*
X029323Y002449D01*
X029320Y002455D02*
X029454Y002132D01*
X029702Y001884D01*
X030025Y001750D01*
X030375Y001750D01*
X030698Y001884D01*
X030946Y002132D01*
X031080Y002455D01*
X031080Y002805D01*
X030946Y003128D01*
X030698Y003376D01*
X030375Y003510D01*
X030025Y003510D01*
X029702Y003376D01*
X029454Y003128D01*
X029320Y002805D01*
X029320Y002455D01*
X029320Y002548D02*
X024520Y002548D01*
X024520Y002646D02*
X029320Y002646D01*
X029320Y002745D02*
X027992Y002745D01*
X028020Y002773D02*
X028060Y002868D01*
X028060Y002972D01*
X028020Y003067D01*
X028000Y003088D01*
X028480Y004604D01*
X028530Y004654D01*
X028530Y005080D01*
X028550Y005080D01*
X028790Y005320D01*
X028790Y005660D01*
X028550Y005900D01*
X028210Y005900D01*
X027970Y005660D01*
X027970Y005320D01*
X028210Y005080D01*
X028210Y004678D01*
X027734Y003174D01*
X027653Y003140D01*
X027580Y003067D01*
X027540Y002972D01*
X027540Y002868D01*
X027580Y002773D01*
X027653Y002700D01*
X027748Y002660D01*
X027852Y002660D01*
X027947Y002700D01*
X028020Y002773D01*
X028050Y002843D02*
X029336Y002843D01*
X029377Y002942D02*
X028060Y002942D01*
X028032Y003040D02*
X029417Y003040D01*
X029464Y003139D02*
X028016Y003139D01*
X028047Y003237D02*
X029563Y003237D01*
X029661Y003336D02*
X028078Y003336D01*
X028110Y003434D02*
X029842Y003434D01*
X030558Y003434D02*
X039000Y003434D01*
X038954Y003388D02*
X038820Y003065D01*
X038820Y002715D01*
X038954Y002392D01*
X039202Y002144D01*
X039525Y002010D01*
X039875Y002010D01*
X040198Y002144D01*
X040446Y002392D01*
X040580Y002715D01*
X040580Y003065D01*
X040446Y003388D01*
X040198Y003636D01*
X039875Y003770D01*
X039525Y003770D01*
X039202Y003636D01*
X038954Y003388D01*
X038932Y003336D02*
X030739Y003336D01*
X030837Y003237D02*
X038891Y003237D01*
X038851Y003139D02*
X030936Y003139D01*
X030983Y003040D02*
X038820Y003040D01*
X038820Y002942D02*
X031023Y002942D01*
X031064Y002843D02*
X038820Y002843D01*
X038820Y002745D02*
X031080Y002745D01*
X031080Y002646D02*
X038849Y002646D01*
X038889Y002548D02*
X031080Y002548D01*
X031077Y002449D02*
X038930Y002449D01*
X038995Y002351D02*
X031037Y002351D01*
X030996Y002252D02*
X039094Y002252D01*
X039192Y002154D02*
X030955Y002154D01*
X030869Y002055D02*
X039417Y002055D01*
X039983Y002055D02*
X041030Y002055D01*
X041030Y001957D02*
X030771Y001957D01*
X030636Y001858D02*
X041030Y001858D01*
X041030Y001760D02*
X030398Y001760D01*
X030002Y001760D02*
X018192Y001760D01*
X018200Y001858D02*
X029764Y001858D01*
X029629Y001957D02*
X024464Y001957D01*
X024520Y002055D02*
X029531Y002055D01*
X029445Y002154D02*
X024520Y002154D01*
X024240Y002548D02*
X021711Y002548D01*
X021740Y002646D02*
X024240Y002646D01*
X024240Y002745D02*
X021752Y002745D01*
X021851Y002843D02*
X024240Y002843D01*
X024240Y002942D02*
X021949Y002942D01*
X022048Y003040D02*
X024240Y003040D01*
X024240Y003139D02*
X022146Y003139D01*
X022245Y003237D02*
X024240Y003237D01*
X024240Y003336D02*
X022343Y003336D01*
X022442Y003434D02*
X024240Y003434D01*
X024240Y003533D02*
X022540Y003533D01*
X022639Y003631D02*
X024240Y003631D01*
X024240Y003730D02*
X022737Y003730D01*
X022836Y003828D02*
X024240Y003828D01*
X024240Y003927D02*
X022934Y003927D01*
X023033Y004025D02*
X024240Y004025D01*
X024240Y004124D02*
X023131Y004124D01*
X023230Y004222D02*
X024240Y004222D01*
X024240Y004321D02*
X023328Y004321D01*
X023427Y004419D02*
X024240Y004419D01*
X024240Y004518D02*
X023525Y004518D01*
X023624Y004616D02*
X024240Y004616D01*
X024240Y004715D02*
X023722Y004715D01*
X023821Y004813D02*
X024240Y004813D01*
X024240Y004912D02*
X023919Y004912D01*
X023960Y005010D02*
X024240Y005010D01*
X024182Y005109D02*
X023960Y005109D01*
X023960Y005207D02*
X024083Y005207D01*
X023985Y005306D02*
X023960Y005306D01*
X023960Y005404D02*
X023970Y005404D01*
X023960Y005503D02*
X023970Y005503D01*
X023960Y005601D02*
X023970Y005601D01*
X023960Y005700D02*
X024010Y005700D01*
X023960Y005798D02*
X024108Y005798D01*
X024025Y005897D02*
X024207Y005897D01*
X024123Y005995D02*
X024840Y005995D01*
X024840Y005897D02*
X024553Y005897D01*
X024652Y005798D02*
X024914Y005798D01*
X024840Y005872D02*
X025011Y005701D01*
X024970Y005660D01*
X024970Y005320D01*
X025210Y005080D01*
X025550Y005080D01*
X025790Y005320D01*
X025790Y005660D01*
X025550Y005900D01*
X025210Y005900D01*
X025209Y005899D01*
X025120Y005988D01*
X025120Y006170D01*
X025210Y006080D01*
X025550Y006080D01*
X025790Y006320D01*
X025790Y006660D01*
X025550Y006900D01*
X025210Y006900D01*
X025209Y006899D01*
X024300Y007808D01*
X024300Y009947D01*
X024307Y009950D01*
X024380Y010023D01*
X024420Y010118D01*
X024420Y010222D01*
X024380Y010317D01*
X024307Y010390D01*
X024212Y010430D01*
X024108Y010430D01*
X024060Y010410D01*
X024060Y010462D01*
X024020Y010557D01*
X023988Y010590D01*
X024462Y010590D01*
X024450Y010577D01*
X024410Y010482D01*
X024410Y010378D01*
X024450Y010283D01*
X024523Y010210D01*
X024618Y010170D01*
X024678Y010170D01*
X024760Y010072D01*
X024760Y009227D01*
X024745Y009221D01*
X024659Y009135D01*
X024612Y009021D01*
X024612Y008899D01*
X024659Y008785D01*
X024745Y008699D01*
X024859Y008652D01*
X024981Y008652D01*
X025095Y008699D01*
X025181Y008785D01*
X025228Y008899D01*
X025228Y009021D01*
X025181Y009135D01*
X025095Y009221D01*
X025080Y009227D01*
X025080Y010123D01*
X025085Y010182D01*
X025080Y010188D01*
X025080Y010196D01*
X025038Y010238D01*
X024927Y010371D01*
X024930Y010378D01*
X024930Y010482D01*
X024890Y010577D01*
X024817Y010650D01*
X024740Y010682D01*
X024740Y010730D01*
X024788Y010710D01*
X024892Y010710D01*
X024899Y010713D01*
X026240Y009372D01*
X026240Y006900D01*
X026210Y006900D01*
X025970Y006660D01*
X025970Y006320D01*
X026210Y006080D01*
X026550Y006080D01*
X026790Y006320D01*
X026790Y006660D01*
X026550Y006900D01*
X026520Y006900D01*
X026520Y009272D01*
X027240Y008552D01*
X027240Y006900D01*
X027210Y006900D01*
X026970Y006660D01*
X026970Y006320D01*
X027210Y006080D01*
X027550Y006080D01*
X027790Y006320D01*
X027790Y006660D01*
X027550Y006900D01*
X027520Y006900D01*
X027520Y008668D01*
X027438Y008750D01*
X026460Y009728D01*
X026460Y011268D01*
X026378Y011350D01*
X024682Y011350D01*
X024600Y011268D01*
X024460Y011128D01*
X024460Y010870D01*
X023478Y010870D01*
X023429Y010918D01*
X023498Y010890D01*
X023602Y010890D01*
X023697Y010930D01*
X023770Y011003D01*
X023810Y011098D01*
X023810Y011202D01*
X023770Y011297D01*
X023697Y011370D01*
X023602Y011410D01*
X023498Y011410D01*
X023403Y011370D01*
X023330Y011297D01*
X023327Y011290D01*
X023211Y011290D01*
X023186Y011315D01*
X022514Y011315D01*
X022450Y011251D01*
X022450Y011146D01*
X022392Y011170D01*
X022288Y011170D01*
X022281Y011167D01*
X022140Y011308D01*
X022140Y011392D01*
X022160Y011412D01*
X022160Y012092D01*
X022450Y012382D01*
X022450Y011439D01*
X022514Y011375D01*
X023186Y011375D01*
X023221Y011410D01*
X024368Y011410D01*
X024450Y011492D01*
X024450Y013732D01*
X024461Y013743D01*
X024468Y013740D01*
X024632Y013740D01*
X024782Y013802D01*
X024898Y013918D01*
X024960Y014068D01*
X024960Y014832D01*
X024898Y014982D01*
X024782Y015098D01*
X024632Y015160D01*
X024630Y015160D01*
X024630Y015668D01*
X024575Y015723D01*
X024575Y016226D01*
X024551Y016250D01*
X024575Y016274D01*
X024575Y016410D01*
X025029Y016410D01*
X025010Y016391D01*
X025010Y015709D01*
X025075Y015645D01*
X025677Y015645D01*
X025742Y015709D01*
X025742Y016391D01*
X025677Y016455D01*
X025530Y016455D01*
X025530Y016563D01*
X025639Y016563D01*
X025770Y016432D01*
X025852Y016350D01*
X027350Y016350D01*
X027350Y015111D01*
X027318Y015098D01*
X027202Y014982D01*
X027140Y014832D01*
X027140Y014068D01*
X027202Y013918D01*
X027318Y013802D01*
X027468Y013740D01*
X027632Y013740D01*
X027782Y013802D01*
X027898Y013918D01*
X027960Y014068D01*
X027960Y014832D01*
X027898Y014982D01*
X027782Y015098D01*
X027632Y015160D01*
X027630Y015160D01*
X027630Y016548D01*
X027548Y016630D01*
X026254Y016630D01*
X026254Y016710D01*
X026750Y016710D01*
X026798Y016690D01*
X026902Y016690D01*
X026997Y016730D01*
X027070Y016803D01*
X027110Y016898D01*
X027110Y017002D01*
X027070Y017097D01*
X026997Y017170D01*
X026902Y017210D01*
X026798Y017210D01*
X026703Y017170D01*
X026630Y017097D01*
X026590Y017002D01*
X026590Y016990D01*
X026254Y016990D01*
X026254Y017073D01*
X026189Y017137D01*
X025910Y017137D01*
X025910Y017188D01*
X025828Y017270D01*
X023992Y017270D01*
X023910Y017188D01*
X022090Y015368D01*
X022090Y016725D01*
X022226Y016725D01*
X022290Y016789D01*
X022290Y017450D01*
X030685Y017450D01*
X030685Y017270D01*
X030770Y017185D01*
X031171Y016784D01*
X031170Y016782D01*
X031170Y016678D01*
X031210Y016583D01*
X031283Y016510D01*
X031378Y016470D01*
X031482Y016470D01*
X031577Y016510D01*
X031650Y016583D01*
X031690Y016678D01*
X031690Y016782D01*
X031650Y016877D01*
X031577Y016950D01*
X031482Y016990D01*
X031378Y016990D01*
X031376Y016989D01*
X030975Y017390D01*
X030975Y017650D01*
X030890Y017735D01*
X030770Y017735D01*
X030765Y017730D01*
X020592Y017730D01*
X020510Y017648D01*
X020510Y017648D01*
X020331Y017469D01*
X020308Y017520D02*
X020382Y017520D01*
X020480Y017618D02*
X020171Y017618D01*
X019941Y017717D02*
X020579Y017717D01*
X019843Y017815D02*
X041030Y017815D01*
X041030Y017717D02*
X030909Y017717D01*
X030975Y017618D02*
X041030Y017618D01*
X041030Y017520D02*
X030975Y017520D01*
X030975Y017421D02*
X041030Y017421D01*
X041030Y017323D02*
X031043Y017323D01*
X031141Y017224D02*
X041030Y017224D01*
X041030Y017126D02*
X031240Y017126D01*
X031338Y017027D02*
X041030Y017027D01*
X041030Y016929D02*
X031599Y016929D01*
X031670Y016830D02*
X041030Y016830D01*
X041030Y016732D02*
X031690Y016732D01*
X031671Y016633D02*
X041030Y016633D01*
X041030Y016535D02*
X031602Y016535D01*
X031258Y016535D02*
X027630Y016535D01*
X027630Y016436D02*
X034345Y016436D01*
X034378Y016450D02*
X034283Y016410D01*
X034210Y016337D01*
X034170Y016242D01*
X034170Y016138D01*
X034210Y016043D01*
X034283Y015970D01*
X034285Y015969D01*
X034285Y011660D01*
X034105Y011480D01*
X034105Y011385D01*
X033980Y011385D01*
X033260Y010665D01*
X033175Y010580D01*
X033175Y007190D01*
X033140Y007155D01*
X033111Y007127D01*
X032650Y007588D01*
X032568Y007670D01*
X032082Y007670D01*
X032082Y007825D01*
X032048Y007858D01*
X032082Y007891D01*
X032082Y008258D01*
X032017Y008322D01*
X031237Y008322D01*
X031173Y008258D01*
X031173Y008249D01*
X031122Y008270D01*
X031018Y008270D01*
X030923Y008230D01*
X030850Y008157D01*
X030810Y008062D01*
X030810Y008050D01*
X030772Y008050D01*
X030690Y007968D01*
X030690Y007852D01*
X030930Y007612D01*
X031012Y007530D01*
X031173Y007530D01*
X031173Y007458D01*
X031206Y007425D01*
X031173Y007392D01*
X031173Y007025D01*
X031237Y006960D01*
X031513Y006960D01*
X031450Y006897D01*
X031410Y006802D01*
X031410Y006698D01*
X031430Y006649D01*
X031326Y006649D01*
X031261Y006585D01*
X031261Y005942D01*
X031326Y005878D01*
X032007Y005878D01*
X032072Y005942D01*
X032072Y006570D01*
X033323Y005319D01*
X033323Y004942D01*
X033388Y004878D01*
X033912Y004878D01*
X033977Y004942D01*
X033977Y005427D01*
X033912Y005491D01*
X033546Y005491D01*
X032047Y006991D01*
X032082Y007025D01*
X032082Y007390D01*
X032452Y007390D01*
X033045Y006797D01*
X033045Y006790D01*
X033130Y006705D01*
X033137Y006705D01*
X034623Y005219D01*
X034623Y004842D01*
X034688Y004778D01*
X035212Y004778D01*
X035277Y004842D01*
X035277Y005327D01*
X035212Y005391D01*
X034846Y005391D01*
X033345Y006893D01*
X033345Y006950D01*
X033465Y007070D01*
X033465Y010460D01*
X034100Y011095D01*
X034310Y011095D01*
X034395Y011180D01*
X034395Y011360D01*
X034490Y011455D01*
X034575Y011540D01*
X034575Y015969D01*
X034577Y015970D01*
X034650Y016043D01*
X034690Y016138D01*
X034690Y016242D01*
X034650Y016337D01*
X034577Y016410D01*
X034482Y016450D01*
X034378Y016450D01*
X034515Y016436D02*
X039571Y016436D01*
X039605Y016450D02*
X039282Y016316D01*
X039034Y016068D01*
X038900Y015745D01*
X038900Y015395D01*
X039034Y015072D01*
X039282Y014824D01*
X039605Y014690D01*
X039955Y014690D01*
X040278Y014824D01*
X040526Y015072D01*
X040660Y015395D01*
X040660Y015745D01*
X040526Y016068D01*
X040278Y016316D01*
X039955Y016450D01*
X039605Y016450D01*
X039334Y016338D02*
X034650Y016338D01*
X034690Y016239D02*
X039205Y016239D01*
X039106Y016141D02*
X034690Y016141D01*
X034650Y016042D02*
X039023Y016042D01*
X038982Y015944D02*
X034575Y015944D01*
X034575Y015845D02*
X038942Y015845D01*
X038901Y015747D02*
X034575Y015747D01*
X034575Y015648D02*
X038900Y015648D01*
X038900Y015550D02*
X034575Y015550D01*
X034575Y015451D02*
X038900Y015451D01*
X038918Y015353D02*
X034575Y015353D01*
X034575Y015254D02*
X038958Y015254D01*
X038999Y015156D02*
X034575Y015156D01*
X034575Y015057D02*
X039049Y015057D01*
X039147Y014959D02*
X034575Y014959D01*
X034575Y014860D02*
X039246Y014860D01*
X039432Y014762D02*
X034575Y014762D01*
X034575Y014663D02*
X041030Y014663D01*
X041030Y014565D02*
X034575Y014565D01*
X034575Y014466D02*
X041030Y014466D01*
X041030Y014368D02*
X034575Y014368D01*
X034575Y014269D02*
X041030Y014269D01*
X041030Y014171D02*
X034575Y014171D01*
X034575Y014072D02*
X041030Y014072D01*
X041030Y013974D02*
X034575Y013974D01*
X034575Y013875D02*
X041030Y013875D01*
X041030Y013777D02*
X034575Y013777D01*
X034575Y013678D02*
X041030Y013678D01*
X041030Y013580D02*
X034575Y013580D01*
X034575Y013481D02*
X041030Y013481D01*
X041030Y013383D02*
X034575Y013383D01*
X034575Y013284D02*
X035136Y013284D01*
X035103Y013270D02*
X035030Y013197D01*
X034990Y013102D01*
X034990Y012998D01*
X035030Y012903D01*
X035103Y012830D01*
X035110Y012827D01*
X035110Y011098D01*
X035007Y011098D01*
X035003Y011094D01*
X035000Y011098D01*
X034905Y011098D01*
X034930Y011158D01*
X034930Y011262D01*
X034890Y011357D01*
X034817Y011430D01*
X034722Y011470D01*
X034618Y011470D01*
X034523Y011430D01*
X034450Y011357D01*
X034410Y011262D01*
X034410Y011158D01*
X034435Y011098D01*
X034318Y011098D01*
X034253Y011033D01*
X034253Y010627D01*
X034318Y010563D01*
X034942Y010563D01*
X034942Y010391D01*
X035007Y010327D01*
X035492Y010327D01*
X035556Y010391D01*
X035556Y011033D01*
X035492Y011098D01*
X035390Y011098D01*
X035390Y012827D01*
X035397Y012830D01*
X035470Y012903D01*
X035510Y012998D01*
X035510Y013102D01*
X035470Y013197D01*
X035397Y013270D01*
X035302Y013310D01*
X035198Y013310D01*
X035103Y013270D01*
X035025Y013186D02*
X034575Y013186D01*
X034575Y013087D02*
X034990Y013087D01*
X034994Y012989D02*
X034575Y012989D01*
X034575Y012890D02*
X035042Y012890D01*
X035110Y012792D02*
X034575Y012792D01*
X034575Y012693D02*
X035110Y012693D01*
X035110Y012595D02*
X034575Y012595D01*
X034575Y012496D02*
X035110Y012496D01*
X035110Y012398D02*
X034575Y012398D01*
X034575Y012299D02*
X035110Y012299D01*
X035110Y012201D02*
X034575Y012201D01*
X034575Y012102D02*
X035110Y012102D01*
X035110Y012004D02*
X034575Y012004D01*
X034575Y011905D02*
X035110Y011905D01*
X035110Y011807D02*
X034575Y011807D01*
X034575Y011708D02*
X035110Y011708D01*
X035110Y011610D02*
X034575Y011610D01*
X034546Y011511D02*
X035110Y011511D01*
X035110Y011413D02*
X034835Y011413D01*
X034908Y011314D02*
X035110Y011314D01*
X035110Y011216D02*
X034930Y011216D01*
X034913Y011117D02*
X035110Y011117D01*
X035390Y011117D02*
X037640Y011117D01*
X037640Y011068D02*
X037702Y010918D01*
X037818Y010802D01*
X037968Y010740D01*
X038132Y010740D01*
X038282Y010802D01*
X038398Y010918D01*
X038460Y011068D01*
X038460Y011832D01*
X038398Y011982D01*
X038282Y012098D01*
X038132Y012160D01*
X037968Y012160D01*
X037818Y012098D01*
X037702Y011982D01*
X037640Y011832D01*
X037640Y011068D01*
X037661Y011019D02*
X035556Y011019D01*
X035556Y010920D02*
X037701Y010920D01*
X037799Y010822D02*
X035556Y010822D01*
X035556Y010723D02*
X041030Y010723D01*
X041030Y010625D02*
X035556Y010625D01*
X035556Y010526D02*
X041030Y010526D01*
X041030Y010428D02*
X035556Y010428D01*
X035494Y010329D02*
X041030Y010329D01*
X041030Y010231D02*
X034374Y010231D01*
X034374Y010329D02*
X035004Y010329D01*
X034942Y010428D02*
X034374Y010428D01*
X034374Y010457D02*
X034345Y010487D01*
X033516Y010487D01*
X033487Y010457D01*
X033487Y007227D01*
X033516Y007198D01*
X034345Y007198D01*
X034374Y007227D01*
X034374Y010457D01*
X034256Y010625D02*
X033630Y010625D01*
X033728Y010723D02*
X034253Y010723D01*
X034253Y010822D02*
X033827Y010822D01*
X033925Y010920D02*
X034253Y010920D01*
X034253Y011019D02*
X034024Y011019D01*
X033810Y011216D02*
X033454Y011216D01*
X033552Y011314D02*
X033909Y011314D01*
X034105Y011413D02*
X033651Y011413D01*
X033749Y011511D02*
X034136Y011511D01*
X034212Y011609D02*
X034277Y011673D01*
X034277Y012158D01*
X034212Y012222D01*
X033688Y012222D01*
X033623Y012158D01*
X033623Y011781D01*
X032082Y010240D01*
X032082Y010244D01*
X032370Y010532D01*
X032370Y011332D01*
X032646Y011609D01*
X033012Y011609D01*
X033077Y011673D01*
X033077Y012158D01*
X033012Y012222D01*
X032488Y012222D01*
X032423Y012158D01*
X032423Y011781D01*
X032172Y011530D01*
X032090Y011448D01*
X032090Y010648D01*
X032072Y010630D01*
X032072Y011014D01*
X032007Y011078D01*
X031905Y011078D01*
X031930Y011138D01*
X031930Y011242D01*
X031890Y011337D01*
X031817Y011410D01*
X031722Y011450D01*
X031618Y011450D01*
X031523Y011410D01*
X031450Y011337D01*
X031410Y011242D01*
X031410Y011138D01*
X031435Y011078D01*
X031326Y011078D01*
X031261Y011014D01*
X031261Y010468D01*
X031237Y010468D01*
X031173Y010403D01*
X031173Y010129D01*
X031122Y010150D01*
X031018Y010150D01*
X030923Y010110D01*
X030850Y010037D01*
X030810Y009942D01*
X030810Y009838D01*
X030850Y009743D01*
X030923Y009670D01*
X031018Y009630D01*
X031122Y009630D01*
X031173Y009651D01*
X031173Y009623D01*
X031178Y009618D01*
X031117Y009557D01*
X031117Y009190D01*
X031178Y009129D01*
X031173Y009124D01*
X031173Y008757D01*
X031237Y008693D01*
X031909Y008693D01*
X032128Y008474D01*
X032670Y007870D01*
X032650Y007822D01*
X032650Y007718D01*
X032690Y007623D01*
X032763Y007550D01*
X032858Y007510D01*
X032962Y007510D01*
X033057Y007550D01*
X033130Y007623D01*
X033170Y007718D01*
X033170Y007822D01*
X033130Y007917D01*
X033057Y007990D01*
X032962Y008030D01*
X032903Y008030D01*
X032370Y008624D01*
X032370Y008628D01*
X032332Y008666D01*
X032295Y008707D01*
X032291Y008707D01*
X032082Y008916D01*
X032082Y009124D01*
X032076Y009129D01*
X032100Y009153D01*
X032103Y009150D01*
X032198Y009110D01*
X032302Y009110D01*
X032397Y009150D01*
X032470Y009223D01*
X032510Y009318D01*
X032510Y009422D01*
X032470Y009517D01*
X032397Y009590D01*
X032302Y009630D01*
X032198Y009630D01*
X032103Y009591D01*
X032076Y009618D01*
X032082Y009623D01*
X032082Y009844D01*
X033846Y011609D01*
X034212Y011609D01*
X034213Y011610D02*
X034234Y011610D01*
X034277Y011708D02*
X034285Y011708D01*
X034277Y011807D02*
X034285Y011807D01*
X034277Y011905D02*
X034285Y011905D01*
X034277Y012004D02*
X034285Y012004D01*
X034277Y012102D02*
X034285Y012102D01*
X034285Y012201D02*
X034234Y012201D01*
X034285Y012299D02*
X031837Y012299D01*
X031837Y012377D02*
X031773Y012442D01*
X031327Y012442D01*
X031263Y012377D01*
X031263Y012339D01*
X030375Y012339D01*
X030934Y012561D01*
X031263Y012561D01*
X031263Y012523D01*
X031327Y012458D01*
X031773Y012458D01*
X031837Y012523D01*
X031837Y012889D01*
X031773Y012954D01*
X031327Y012954D01*
X031263Y012889D01*
X031263Y012851D01*
X030936Y012851D01*
X030908Y012863D01*
X030878Y012851D01*
X030846Y012851D01*
X030825Y012830D01*
X029982Y012495D01*
X029982Y012714D01*
X029979Y012718D01*
X029982Y012721D01*
X029982Y012970D01*
X029918Y013034D01*
X029895Y013034D01*
X029895Y013040D01*
X030050Y013195D01*
X030050Y013195D01*
X030056Y013201D01*
X030058Y013200D01*
X030162Y013200D01*
X030257Y013240D01*
X030330Y013313D01*
X030370Y013408D01*
X030370Y013512D01*
X030330Y013607D01*
X030257Y013680D01*
X030162Y013720D01*
X030058Y013720D01*
X029963Y013680D01*
X029890Y013607D01*
X029850Y013512D01*
X029850Y013408D01*
X029851Y013406D01*
X029845Y013400D01*
X029690Y013245D01*
X029605Y013160D01*
X029605Y013034D01*
X029236Y013034D01*
X029172Y012970D01*
X029172Y012721D01*
X029176Y012718D01*
X029172Y012714D01*
X029172Y012713D01*
X029090Y012795D01*
X028828Y012795D01*
X028782Y012800D01*
X028770Y012827D01*
X028697Y012900D01*
X028602Y012940D01*
X028498Y012940D01*
X028403Y012900D01*
X028330Y012827D01*
X028290Y012732D01*
X028290Y012628D01*
X028330Y012533D01*
X028403Y012460D01*
X028498Y012420D01*
X028602Y012420D01*
X028697Y012460D01*
X028750Y012512D01*
X028753Y012512D01*
X028760Y012505D01*
X028812Y012505D01*
X028864Y012499D01*
X028871Y012505D01*
X028970Y012505D01*
X028975Y012500D01*
X029060Y012415D01*
X029172Y012415D01*
X029172Y012210D01*
X029176Y012206D01*
X029172Y012202D01*
X029172Y011954D01*
X029176Y011950D01*
X029172Y011946D01*
X029172Y011711D01*
X028923Y011711D01*
X028920Y011717D01*
X028847Y011790D01*
X028752Y011830D01*
X028648Y011830D01*
X028553Y011790D01*
X028480Y011717D01*
X028440Y011622D01*
X028440Y011518D01*
X028480Y011423D01*
X028553Y011350D01*
X028648Y011310D01*
X028752Y011310D01*
X028847Y011350D01*
X028919Y011421D01*
X029172Y011421D01*
X029172Y011186D01*
X029176Y011182D01*
X029172Y011179D01*
X029172Y010930D01*
X029236Y010866D01*
X029918Y010866D01*
X029919Y010866D01*
X029965Y010820D01*
X029965Y010812D01*
X029940Y010752D01*
X029940Y010648D01*
X029980Y010553D01*
X030053Y010480D01*
X030148Y010440D01*
X030252Y010440D01*
X030347Y010480D01*
X030420Y010553D01*
X030460Y010648D01*
X030460Y010752D01*
X030420Y010847D01*
X030347Y010920D01*
X030252Y010960D01*
X030235Y010960D01*
X030075Y011120D01*
X030046Y011149D01*
X030163Y011149D01*
X030163Y011111D01*
X030227Y011046D01*
X030673Y011046D01*
X030737Y011111D01*
X030737Y011477D01*
X030673Y011542D01*
X030227Y011542D01*
X030163Y011477D01*
X030163Y011439D01*
X029980Y011439D01*
X029982Y011442D01*
X029982Y011677D01*
X030163Y011677D01*
X030163Y011623D01*
X030227Y011558D01*
X030673Y011558D01*
X030737Y011623D01*
X030737Y011989D01*
X030677Y012049D01*
X031263Y012049D01*
X031263Y012011D01*
X031327Y011946D01*
X031773Y011946D01*
X031837Y012011D01*
X031837Y012377D01*
X031817Y012398D02*
X034285Y012398D01*
X034285Y012496D02*
X031811Y012496D01*
X031837Y012595D02*
X034285Y012595D01*
X034285Y012693D02*
X031837Y012693D01*
X031837Y012792D02*
X034285Y012792D01*
X034285Y012890D02*
X031836Y012890D01*
X031264Y012890D02*
X029982Y012890D01*
X029982Y012792D02*
X030729Y012792D01*
X030481Y012693D02*
X029982Y012693D01*
X029982Y012595D02*
X030233Y012595D01*
X029985Y012496D02*
X029982Y012496D01*
X029172Y012398D02*
X027128Y012398D01*
X027128Y012458D02*
X027128Y012210D01*
X027064Y012145D01*
X026382Y012145D01*
X026352Y012175D01*
X026300Y012175D01*
X026215Y012260D01*
X026000Y012475D01*
X025621Y012475D01*
X025620Y012473D01*
X025547Y012400D01*
X025452Y012360D01*
X025348Y012360D01*
X025253Y012400D01*
X025180Y012473D01*
X025140Y012568D01*
X025140Y012672D01*
X025146Y012685D01*
X025141Y012685D01*
X025140Y012683D01*
X025067Y012610D01*
X024972Y012570D01*
X024868Y012570D01*
X024773Y012610D01*
X024700Y012683D01*
X024660Y012778D01*
X024660Y012882D01*
X024700Y012977D01*
X024773Y013050D01*
X024868Y013090D01*
X024972Y013090D01*
X025067Y013050D01*
X025121Y012996D01*
X025160Y013035D01*
X026739Y013035D01*
X026739Y013034D01*
X027064Y013034D01*
X027128Y012970D01*
X027128Y012721D01*
X027124Y012718D01*
X027128Y012714D01*
X027128Y012465D01*
X027124Y012462D01*
X027128Y012458D01*
X027128Y012496D02*
X028366Y012496D01*
X028304Y012595D02*
X027128Y012595D01*
X027128Y012693D02*
X028290Y012693D01*
X028315Y012792D02*
X027128Y012792D01*
X027128Y012890D02*
X028392Y012890D01*
X028708Y012890D02*
X029172Y012890D01*
X029172Y012792D02*
X029094Y012792D01*
X029190Y012989D02*
X027110Y012989D01*
X027128Y012299D02*
X029172Y012299D01*
X029172Y012201D02*
X027119Y012201D01*
X027064Y012011D02*
X027119Y011955D01*
X027369Y011955D01*
X027370Y011957D01*
X027443Y012030D01*
X027538Y012070D01*
X027642Y012070D01*
X027737Y012030D01*
X027810Y011957D01*
X027850Y011862D01*
X027850Y011758D01*
X027810Y011663D01*
X027737Y011590D01*
X027642Y011550D01*
X027538Y011550D01*
X027443Y011590D01*
X027370Y011663D01*
X027369Y011665D01*
X027128Y011665D01*
X027128Y011442D01*
X027064Y011377D01*
X026382Y011377D01*
X026335Y011424D01*
X026281Y011425D01*
X026265Y011415D01*
X026223Y011425D01*
X026179Y011425D01*
X026166Y011438D01*
X026148Y011443D01*
X026125Y011480D01*
X026095Y011511D01*
X024450Y011511D01*
X024450Y011610D02*
X025913Y011610D01*
X025890Y011633D02*
X025963Y011560D01*
X026058Y011520D01*
X026095Y011520D01*
X026095Y011511D01*
X025890Y011633D02*
X025850Y011728D01*
X025850Y011832D01*
X025890Y011927D01*
X025963Y012000D01*
X026058Y012040D01*
X026162Y012040D01*
X026222Y012015D01*
X026270Y012015D01*
X026328Y011957D01*
X026382Y012011D01*
X027064Y012011D01*
X027071Y012004D02*
X027416Y012004D01*
X027764Y012004D02*
X029172Y012004D01*
X029172Y012102D02*
X024450Y012102D01*
X024450Y012004D02*
X025970Y012004D01*
X025880Y011905D02*
X024450Y011905D01*
X024450Y011807D02*
X025850Y011807D01*
X025858Y011708D02*
X024450Y011708D01*
X024371Y011413D02*
X026347Y011413D01*
X026414Y011314D02*
X028639Y011314D01*
X028761Y011314D02*
X029172Y011314D01*
X029172Y011216D02*
X026460Y011216D01*
X026460Y011117D02*
X029172Y011117D01*
X029172Y011019D02*
X026460Y011019D01*
X026460Y010920D02*
X027614Y010920D01*
X027655Y010961D02*
X027569Y010875D01*
X027522Y010761D01*
X027522Y010639D01*
X027569Y010525D01*
X027655Y010439D01*
X027670Y010433D01*
X027670Y008897D01*
X027655Y008891D01*
X027569Y008805D01*
X027522Y008691D01*
X027522Y008569D01*
X027569Y008455D01*
X027655Y008369D01*
X027769Y008322D01*
X027891Y008322D01*
X028005Y008369D01*
X028091Y008455D01*
X028138Y008569D01*
X028138Y008691D01*
X028135Y008700D01*
X028135Y008699D01*
X028210Y008668D01*
X028210Y006900D01*
X027970Y006660D01*
X027970Y006320D01*
X028210Y006080D01*
X028550Y006080D01*
X028790Y006320D01*
X028790Y006660D01*
X028550Y006900D01*
X028530Y006900D01*
X028530Y008744D01*
X028571Y008785D01*
X028618Y008899D01*
X028618Y009021D01*
X028571Y009135D01*
X028485Y009221D01*
X028371Y009268D01*
X028249Y009268D01*
X028135Y009221D01*
X028049Y009135D01*
X028002Y009021D01*
X028002Y008899D01*
X028005Y008890D01*
X028005Y008891D01*
X027990Y008897D01*
X027990Y009944D01*
X027990Y010433D01*
X028005Y010439D01*
X028091Y010525D01*
X028138Y010639D01*
X028138Y010761D01*
X028091Y010875D01*
X028005Y010961D01*
X027891Y011008D01*
X027769Y011008D01*
X027655Y010961D01*
X027547Y010822D02*
X026460Y010822D01*
X026460Y010723D02*
X027522Y010723D01*
X027528Y010625D02*
X026460Y010625D01*
X026460Y010526D02*
X027569Y010526D01*
X027670Y010428D02*
X026460Y010428D01*
X026460Y010329D02*
X027670Y010329D01*
X027670Y010231D02*
X026460Y010231D01*
X026460Y010132D02*
X027670Y010132D01*
X027670Y010034D02*
X026460Y010034D01*
X026460Y009935D02*
X027670Y009935D01*
X027670Y009837D02*
X026460Y009837D01*
X026460Y009738D02*
X027670Y009738D01*
X027670Y009640D02*
X026548Y009640D01*
X026647Y009541D02*
X027670Y009541D01*
X027670Y009443D02*
X026745Y009443D01*
X026844Y009344D02*
X027670Y009344D01*
X027670Y009246D02*
X026942Y009246D01*
X027041Y009147D02*
X027670Y009147D01*
X027670Y009049D02*
X027139Y009049D01*
X027238Y008950D02*
X027670Y008950D01*
X027616Y008852D02*
X027336Y008852D01*
X027435Y008753D02*
X027547Y008753D01*
X027520Y008655D02*
X027522Y008655D01*
X027520Y008556D02*
X027527Y008556D01*
X027520Y008458D02*
X027568Y008458D01*
X027520Y008359D02*
X027679Y008359D01*
X027520Y008261D02*
X028210Y008261D01*
X028210Y008359D02*
X027981Y008359D01*
X028092Y008458D02*
X028210Y008458D01*
X028210Y008556D02*
X028133Y008556D01*
X028138Y008655D02*
X028210Y008655D01*
X028370Y008930D02*
X028370Y006500D01*
X028380Y006490D01*
X028790Y006488D02*
X028970Y006488D01*
X028970Y006586D02*
X028790Y006586D01*
X028765Y006685D02*
X028995Y006685D01*
X028970Y006660D02*
X028970Y006320D01*
X029210Y006080D01*
X029550Y006080D01*
X029790Y006320D01*
X029790Y006660D01*
X029550Y006900D01*
X029540Y006900D01*
X029540Y009036D01*
X029362Y009214D01*
X029368Y009229D01*
X029368Y009351D01*
X029321Y009465D01*
X029235Y009551D01*
X029121Y009598D01*
X028999Y009598D01*
X028885Y009551D01*
X028799Y009465D01*
X028752Y009351D01*
X028752Y009229D01*
X028799Y009115D01*
X028885Y009029D01*
X028999Y008982D01*
X029121Y008982D01*
X029136Y008988D01*
X029220Y008904D01*
X029220Y006900D01*
X029210Y006900D01*
X028970Y006660D01*
X029093Y006783D02*
X028667Y006783D01*
X028568Y006882D02*
X029192Y006882D01*
X029220Y006980D02*
X028530Y006980D01*
X028530Y007079D02*
X029220Y007079D01*
X029220Y007177D02*
X028530Y007177D01*
X028530Y007276D02*
X029220Y007276D01*
X029220Y007374D02*
X028530Y007374D01*
X028530Y007473D02*
X029220Y007473D01*
X029220Y007571D02*
X028530Y007571D01*
X028530Y007670D02*
X029220Y007670D01*
X029220Y007768D02*
X028530Y007768D01*
X028530Y007867D02*
X029220Y007867D01*
X029220Y007965D02*
X028530Y007965D01*
X028530Y008064D02*
X029220Y008064D01*
X029220Y008162D02*
X028530Y008162D01*
X028530Y008261D02*
X029220Y008261D01*
X029220Y008359D02*
X028530Y008359D01*
X028530Y008458D02*
X029220Y008458D01*
X029220Y008556D02*
X028530Y008556D01*
X028530Y008655D02*
X029220Y008655D01*
X029220Y008753D02*
X028539Y008753D01*
X028599Y008852D02*
X029220Y008852D01*
X029174Y008950D02*
X028618Y008950D01*
X028607Y009049D02*
X028866Y009049D01*
X028786Y009147D02*
X028559Y009147D01*
X028426Y009246D02*
X028752Y009246D01*
X028752Y009344D02*
X027990Y009344D01*
X027990Y009246D02*
X028194Y009246D01*
X028061Y009147D02*
X027990Y009147D01*
X027990Y009049D02*
X028013Y009049D01*
X028002Y008950D02*
X027990Y008950D01*
X028310Y008960D02*
X028340Y008960D01*
X028370Y008930D01*
X027830Y008630D02*
X027830Y010010D01*
X027830Y010700D01*
X028046Y010920D02*
X029182Y010920D01*
X029940Y010723D02*
X028138Y010723D01*
X028132Y010625D02*
X029950Y010625D01*
X030006Y010526D02*
X028091Y010526D01*
X027990Y010428D02*
X031197Y010428D01*
X031173Y010329D02*
X027990Y010329D01*
X027990Y010231D02*
X031173Y010231D01*
X031165Y010132D02*
X031173Y010132D01*
X030975Y010132D02*
X027990Y010132D01*
X027990Y010034D02*
X030848Y010034D01*
X030810Y009935D02*
X027990Y009935D01*
X027990Y009837D02*
X030811Y009837D01*
X030854Y009738D02*
X027990Y009738D01*
X027990Y009640D02*
X030995Y009640D01*
X031145Y009640D02*
X031173Y009640D01*
X031117Y009541D02*
X029245Y009541D01*
X029330Y009443D02*
X031117Y009443D01*
X031117Y009344D02*
X029368Y009344D01*
X029368Y009246D02*
X031117Y009246D01*
X031160Y009147D02*
X029429Y009147D01*
X029528Y009049D02*
X031173Y009049D01*
X031173Y008950D02*
X029540Y008950D01*
X029540Y008852D02*
X030136Y008852D01*
X030175Y008891D02*
X030089Y008805D01*
X030042Y008691D01*
X030042Y008569D01*
X030089Y008455D01*
X030175Y008369D01*
X030220Y008350D01*
X030220Y006900D01*
X030210Y006900D01*
X029970Y006660D01*
X029970Y006320D01*
X030210Y006080D01*
X030550Y006080D01*
X030790Y006320D01*
X030790Y006660D01*
X030550Y006900D01*
X030540Y006900D01*
X030540Y008384D01*
X030611Y008455D01*
X030658Y008569D01*
X030658Y008691D01*
X030611Y008805D01*
X030525Y008891D01*
X030411Y008938D01*
X030289Y008938D01*
X030175Y008891D01*
X030067Y008753D02*
X029540Y008753D01*
X029540Y008655D02*
X030042Y008655D01*
X030047Y008556D02*
X029540Y008556D01*
X029540Y008458D02*
X030088Y008458D01*
X030199Y008359D02*
X029540Y008359D01*
X029540Y008261D02*
X030220Y008261D01*
X030220Y008162D02*
X029540Y008162D01*
X029540Y008064D02*
X030220Y008064D01*
X030220Y007965D02*
X029540Y007965D01*
X029540Y007867D02*
X030220Y007867D01*
X030220Y007768D02*
X029540Y007768D01*
X029540Y007670D02*
X030220Y007670D01*
X030220Y007571D02*
X029540Y007571D01*
X029540Y007473D02*
X030220Y007473D01*
X030220Y007374D02*
X029540Y007374D01*
X029540Y007276D02*
X030220Y007276D01*
X030220Y007177D02*
X029540Y007177D01*
X029540Y007079D02*
X030220Y007079D01*
X030220Y006980D02*
X029540Y006980D01*
X029568Y006882D02*
X030192Y006882D01*
X030093Y006783D02*
X029667Y006783D01*
X029765Y006685D02*
X029995Y006685D01*
X029970Y006586D02*
X029790Y006586D01*
X029790Y006488D02*
X029970Y006488D01*
X029970Y006389D02*
X029790Y006389D01*
X029760Y006291D02*
X030000Y006291D01*
X030098Y006192D02*
X029662Y006192D01*
X029563Y006094D02*
X030197Y006094D01*
X030210Y005900D02*
X029970Y005660D01*
X029970Y005320D01*
X030210Y005080D01*
X030550Y005080D01*
X030790Y005320D01*
X030790Y005660D01*
X030550Y005900D01*
X030210Y005900D01*
X030207Y005897D02*
X029553Y005897D01*
X029550Y005900D02*
X029210Y005900D01*
X028970Y005660D01*
X028970Y005320D01*
X029210Y005080D01*
X029550Y005080D01*
X029790Y005320D01*
X029790Y005660D01*
X029550Y005900D01*
X029652Y005798D02*
X030108Y005798D01*
X030010Y005700D02*
X029750Y005700D01*
X029790Y005601D02*
X029970Y005601D01*
X029970Y005503D02*
X029790Y005503D01*
X029790Y005404D02*
X029970Y005404D01*
X029985Y005306D02*
X029775Y005306D01*
X029677Y005207D02*
X030083Y005207D01*
X030182Y005109D02*
X029578Y005109D01*
X029182Y005109D02*
X028578Y005109D01*
X028530Y005010D02*
X033323Y005010D01*
X033323Y005109D02*
X030578Y005109D01*
X030677Y005207D02*
X033323Y005207D01*
X033323Y005306D02*
X030775Y005306D01*
X030790Y005404D02*
X033238Y005404D01*
X033139Y005503D02*
X030790Y005503D01*
X030790Y005601D02*
X033041Y005601D01*
X032942Y005700D02*
X030750Y005700D01*
X030652Y005798D02*
X032844Y005798D01*
X032745Y005897D02*
X032026Y005897D01*
X032072Y005995D02*
X032647Y005995D01*
X032548Y006094D02*
X032072Y006094D01*
X032072Y006192D02*
X032450Y006192D01*
X032351Y006291D02*
X032072Y006291D01*
X032072Y006389D02*
X032253Y006389D01*
X032154Y006488D02*
X032072Y006488D01*
X032353Y006685D02*
X033157Y006685D01*
X033256Y006586D02*
X032452Y006586D01*
X032550Y006488D02*
X033354Y006488D01*
X033453Y006389D02*
X032649Y006389D01*
X032747Y006291D02*
X033551Y006291D01*
X033650Y006192D02*
X032846Y006192D01*
X032944Y006094D02*
X033748Y006094D01*
X033847Y005995D02*
X033043Y005995D01*
X033141Y005897D02*
X033945Y005897D01*
X034044Y005798D02*
X033240Y005798D01*
X033338Y005700D02*
X034142Y005700D01*
X034241Y005601D02*
X033437Y005601D01*
X033535Y005503D02*
X034339Y005503D01*
X034438Y005404D02*
X033977Y005404D01*
X033977Y005306D02*
X034536Y005306D01*
X034623Y005207D02*
X033977Y005207D01*
X033977Y005109D02*
X034623Y005109D01*
X034623Y005010D02*
X033977Y005010D01*
X033946Y004912D02*
X034623Y004912D01*
X034653Y004813D02*
X028530Y004813D01*
X028530Y004715D02*
X041030Y004715D01*
X041030Y004813D02*
X035247Y004813D01*
X035277Y004912D02*
X041030Y004912D01*
X041030Y005010D02*
X035277Y005010D01*
X035277Y005109D02*
X041030Y005109D01*
X041030Y005207D02*
X037122Y005207D01*
X037122Y005188D02*
X037058Y005123D01*
X036573Y005123D01*
X036509Y005188D01*
X036509Y005712D01*
X036573Y005777D01*
X036744Y005777D01*
X037036Y007110D01*
X037013Y007110D01*
X037010Y007103D01*
X036937Y007030D01*
X036842Y006990D01*
X036738Y006990D01*
X036643Y007030D01*
X036570Y007103D01*
X036530Y007198D01*
X036530Y007302D01*
X036570Y007397D01*
X036643Y007470D01*
X036738Y007510D01*
X036842Y007510D01*
X036937Y007470D01*
X037010Y007397D01*
X037013Y007390D01*
X037169Y007390D01*
X037183Y007399D01*
X037225Y007390D01*
X037268Y007390D01*
X037280Y007378D01*
X037297Y007374D01*
X041030Y007374D01*
X041030Y007276D02*
X037359Y007276D01*
X037359Y007277D02*
X037350Y007291D01*
X037350Y007308D01*
X037320Y007338D01*
X037297Y007374D01*
X037359Y007277D02*
X037350Y007235D01*
X037350Y007192D01*
X037338Y007180D01*
X037030Y005777D01*
X037058Y005777D01*
X037122Y005712D01*
X037122Y005188D01*
X037122Y005306D02*
X041030Y005306D01*
X041030Y005404D02*
X037122Y005404D01*
X037122Y005503D02*
X041030Y005503D01*
X041030Y005601D02*
X037122Y005601D01*
X037122Y005700D02*
X041030Y005700D01*
X041030Y005798D02*
X037035Y005798D01*
X037057Y005897D02*
X041030Y005897D01*
X041030Y005995D02*
X037078Y005995D01*
X037100Y006094D02*
X041030Y006094D01*
X041030Y006192D02*
X037121Y006192D01*
X037143Y006291D02*
X041030Y006291D01*
X041030Y006389D02*
X037165Y006389D01*
X037186Y006488D02*
X041030Y006488D01*
X041030Y006586D02*
X037208Y006586D01*
X037229Y006685D02*
X041030Y006685D01*
X041030Y006783D02*
X037251Y006783D01*
X037273Y006882D02*
X041030Y006882D01*
X041030Y006980D02*
X037294Y006980D01*
X037316Y007079D02*
X041030Y007079D01*
X041030Y007177D02*
X037337Y007177D01*
X037029Y007079D02*
X036986Y007079D01*
X037007Y006980D02*
X033375Y006980D01*
X033356Y006882D02*
X036986Y006882D01*
X036964Y006783D02*
X033455Y006783D01*
X033553Y006685D02*
X036943Y006685D01*
X036921Y006586D02*
X036234Y006586D01*
X036230Y006590D02*
X035528Y006590D01*
X035464Y006525D01*
X035464Y006290D01*
X035300Y006290D01*
X035300Y006348D01*
X035236Y006413D01*
X034593Y006413D01*
X034529Y006348D01*
X034529Y005942D01*
X034593Y005878D01*
X035236Y005878D01*
X035300Y005942D01*
X035300Y006010D01*
X035447Y006010D01*
X035410Y005922D01*
X035410Y005818D01*
X035450Y005723D01*
X035523Y005650D01*
X035618Y005610D01*
X035722Y005610D01*
X035817Y005650D01*
X035890Y005723D01*
X035930Y005818D01*
X035930Y005922D01*
X035907Y005976D01*
X036230Y005976D01*
X036294Y006041D01*
X036294Y006525D01*
X036230Y006590D01*
X036294Y006488D02*
X036900Y006488D01*
X036878Y006389D02*
X036294Y006389D01*
X036294Y006291D02*
X036856Y006291D01*
X036835Y006192D02*
X036294Y006192D01*
X036294Y006094D02*
X036813Y006094D01*
X036792Y005995D02*
X036249Y005995D01*
X035930Y005897D02*
X036770Y005897D01*
X036748Y005798D02*
X035922Y005798D01*
X035867Y005700D02*
X036509Y005700D01*
X036509Y005601D02*
X034637Y005601D01*
X034735Y005503D02*
X036509Y005503D01*
X036509Y005404D02*
X034834Y005404D01*
X034538Y005700D02*
X035473Y005700D01*
X035418Y005798D02*
X034440Y005798D01*
X034341Y005897D02*
X034575Y005897D01*
X034529Y005995D02*
X034243Y005995D01*
X034144Y006094D02*
X034529Y006094D01*
X034529Y006192D02*
X034046Y006192D01*
X033947Y006291D02*
X034529Y006291D01*
X034570Y006389D02*
X033849Y006389D01*
X033750Y006488D02*
X035464Y006488D01*
X035464Y006389D02*
X035259Y006389D01*
X035300Y006291D02*
X035464Y006291D01*
X035440Y005995D02*
X035300Y005995D01*
X035254Y005897D02*
X035410Y005897D01*
X035277Y005306D02*
X036509Y005306D01*
X036509Y005207D02*
X035277Y005207D01*
X033354Y004912D02*
X028530Y004912D01*
X028370Y004730D02*
X028370Y004720D01*
X028370Y004730D02*
X028370Y005480D01*
X028380Y005490D01*
X028677Y005207D02*
X029083Y005207D01*
X028985Y005306D02*
X028775Y005306D01*
X028790Y005404D02*
X028970Y005404D01*
X028970Y005503D02*
X028790Y005503D01*
X028790Y005601D02*
X028970Y005601D01*
X029010Y005700D02*
X028750Y005700D01*
X028652Y005798D02*
X029108Y005798D01*
X029207Y005897D02*
X028553Y005897D01*
X028563Y006094D02*
X029197Y006094D01*
X029098Y006192D02*
X028662Y006192D01*
X028760Y006291D02*
X029000Y006291D01*
X028970Y006389D02*
X028790Y006389D01*
X029380Y006490D02*
X029380Y008970D01*
X029060Y009290D01*
X028790Y009443D02*
X027990Y009443D01*
X027990Y009541D02*
X028875Y009541D01*
X030350Y008630D02*
X030380Y008630D01*
X030380Y008660D01*
X030380Y008630D02*
X030380Y006490D01*
X030790Y006488D02*
X031261Y006488D01*
X031263Y006586D02*
X030790Y006586D01*
X030765Y006685D02*
X031416Y006685D01*
X031410Y006783D02*
X030667Y006783D01*
X030568Y006882D02*
X031443Y006882D01*
X031218Y006980D02*
X030540Y006980D01*
X030540Y007079D02*
X031173Y007079D01*
X031173Y007177D02*
X030540Y007177D01*
X030540Y007276D02*
X031173Y007276D01*
X031173Y007374D02*
X030540Y007374D01*
X030540Y007473D02*
X031173Y007473D01*
X030971Y007571D02*
X030540Y007571D01*
X030540Y007670D02*
X030872Y007670D01*
X030774Y007768D02*
X030540Y007768D01*
X030540Y007867D02*
X030690Y007867D01*
X030690Y007965D02*
X030540Y007965D01*
X030540Y008064D02*
X030811Y008064D01*
X030854Y008162D02*
X030540Y008162D01*
X030540Y008261D02*
X030995Y008261D01*
X031145Y008261D02*
X031175Y008261D01*
X030612Y008458D02*
X032143Y008458D01*
X032231Y008359D02*
X030540Y008359D01*
X030653Y008556D02*
X032046Y008556D01*
X031947Y008655D02*
X030658Y008655D01*
X030633Y008753D02*
X031177Y008753D01*
X031173Y008852D02*
X030564Y008852D01*
X032082Y008950D02*
X033175Y008950D01*
X033175Y008852D02*
X032146Y008852D01*
X032245Y008753D02*
X033175Y008753D01*
X033175Y008655D02*
X032343Y008655D01*
X032431Y008556D02*
X033175Y008556D01*
X033175Y008458D02*
X032519Y008458D01*
X032607Y008359D02*
X033175Y008359D01*
X033175Y008261D02*
X032696Y008261D01*
X032784Y008162D02*
X033175Y008162D01*
X033175Y008064D02*
X032873Y008064D01*
X033083Y007965D02*
X033175Y007965D01*
X033175Y007867D02*
X033151Y007867D01*
X033170Y007768D02*
X033175Y007768D01*
X033175Y007670D02*
X033150Y007670D01*
X033175Y007571D02*
X033079Y007571D01*
X033175Y007473D02*
X032765Y007473D01*
X032741Y007571D02*
X032667Y007571D01*
X032670Y007670D02*
X032568Y007670D01*
X032650Y007768D02*
X032082Y007768D01*
X032057Y007867D02*
X032669Y007867D01*
X032585Y007965D02*
X032082Y007965D01*
X032082Y008064D02*
X032496Y008064D01*
X032408Y008162D02*
X032082Y008162D01*
X032079Y008261D02*
X032320Y008261D01*
X033465Y008261D02*
X033487Y008261D01*
X033487Y008359D02*
X033465Y008359D01*
X033465Y008458D02*
X033487Y008458D01*
X033487Y008556D02*
X033465Y008556D01*
X033465Y008655D02*
X033487Y008655D01*
X033487Y008753D02*
X033465Y008753D01*
X033465Y008852D02*
X033487Y008852D01*
X033487Y008950D02*
X033465Y008950D01*
X033465Y009049D02*
X033487Y009049D01*
X033487Y009147D02*
X033465Y009147D01*
X033465Y009246D02*
X033487Y009246D01*
X033487Y009344D02*
X033465Y009344D01*
X033465Y009443D02*
X033487Y009443D01*
X033487Y009541D02*
X033465Y009541D01*
X033465Y009640D02*
X033487Y009640D01*
X033487Y009738D02*
X033465Y009738D01*
X033465Y009837D02*
X033487Y009837D01*
X033487Y009935D02*
X033465Y009935D01*
X033465Y010034D02*
X033487Y010034D01*
X033487Y010132D02*
X033465Y010132D01*
X033465Y010231D02*
X033487Y010231D01*
X033487Y010329D02*
X033465Y010329D01*
X033465Y010428D02*
X033487Y010428D01*
X033531Y010526D02*
X034942Y010526D01*
X034374Y010132D02*
X041030Y010132D01*
X041030Y010034D02*
X034374Y010034D01*
X034374Y009935D02*
X041030Y009935D01*
X041030Y009837D02*
X034374Y009837D01*
X034374Y009738D02*
X041030Y009738D01*
X041030Y009640D02*
X034374Y009640D01*
X034374Y009541D02*
X041030Y009541D01*
X041030Y009443D02*
X034374Y009443D01*
X034374Y009344D02*
X041030Y009344D01*
X041030Y009246D02*
X036028Y009246D01*
X036028Y009257D02*
X035998Y009286D01*
X035169Y009286D01*
X035140Y009257D01*
X035140Y008231D01*
X035169Y008202D01*
X035998Y008202D01*
X036028Y008231D01*
X036028Y009257D01*
X036028Y009147D02*
X041030Y009147D01*
X041030Y009049D02*
X036028Y009049D01*
X036028Y008950D02*
X041030Y008950D01*
X041030Y008852D02*
X036028Y008852D01*
X036028Y008753D02*
X041030Y008753D01*
X041030Y008655D02*
X036028Y008655D01*
X036028Y008556D02*
X041030Y008556D01*
X041030Y008458D02*
X036028Y008458D01*
X036028Y008359D02*
X041030Y008359D01*
X041030Y008261D02*
X036028Y008261D01*
X035140Y008261D02*
X034374Y008261D01*
X034374Y008359D02*
X035140Y008359D01*
X035140Y008458D02*
X034374Y008458D01*
X034374Y008556D02*
X035140Y008556D01*
X035140Y008655D02*
X034374Y008655D01*
X034374Y008753D02*
X035140Y008753D01*
X035140Y008852D02*
X034374Y008852D01*
X034374Y008950D02*
X035140Y008950D01*
X035140Y009049D02*
X034374Y009049D01*
X034374Y009147D02*
X035140Y009147D01*
X035140Y009246D02*
X034374Y009246D01*
X033175Y009246D02*
X032480Y009246D01*
X032510Y009344D02*
X033175Y009344D01*
X033175Y009443D02*
X032501Y009443D01*
X032447Y009541D02*
X033175Y009541D01*
X033175Y009640D02*
X032082Y009640D01*
X032082Y009738D02*
X033175Y009738D01*
X033175Y009837D02*
X032082Y009837D01*
X032173Y009935D02*
X033175Y009935D01*
X033175Y010034D02*
X032272Y010034D01*
X032370Y010132D02*
X033175Y010132D01*
X033175Y010231D02*
X032469Y010231D01*
X032567Y010329D02*
X033175Y010329D01*
X033175Y010428D02*
X032666Y010428D01*
X032764Y010526D02*
X033175Y010526D01*
X033219Y010625D02*
X032863Y010625D01*
X032961Y010723D02*
X033318Y010723D01*
X033416Y010822D02*
X033060Y010822D01*
X033158Y010920D02*
X033515Y010920D01*
X033613Y011019D02*
X033257Y011019D01*
X033355Y011117D02*
X033712Y011117D01*
X033255Y011413D02*
X032451Y011413D01*
X032370Y011314D02*
X033156Y011314D01*
X033058Y011216D02*
X032370Y011216D01*
X032370Y011117D02*
X032959Y011117D01*
X032861Y011019D02*
X032370Y011019D01*
X032370Y010920D02*
X032762Y010920D01*
X032664Y010822D02*
X032370Y010822D01*
X032370Y010723D02*
X032565Y010723D01*
X032467Y010625D02*
X032370Y010625D01*
X032364Y010526D02*
X032368Y010526D01*
X032270Y010428D02*
X032266Y010428D01*
X032171Y010329D02*
X032167Y010329D01*
X032090Y010723D02*
X032072Y010723D01*
X032072Y010822D02*
X032090Y010822D01*
X032090Y010920D02*
X032072Y010920D01*
X032067Y011019D02*
X032090Y011019D01*
X032090Y011117D02*
X031921Y011117D01*
X031930Y011216D02*
X032090Y011216D01*
X032090Y011314D02*
X031900Y011314D01*
X031812Y011413D02*
X032090Y011413D01*
X032153Y011511D02*
X030704Y011511D01*
X030724Y011610D02*
X032252Y011610D01*
X032350Y011708D02*
X030737Y011708D01*
X030737Y011807D02*
X032423Y011807D01*
X032423Y011905D02*
X030737Y011905D01*
X030723Y012004D02*
X031270Y012004D01*
X031830Y012004D02*
X032423Y012004D01*
X032423Y012102D02*
X031837Y012102D01*
X031837Y012201D02*
X032466Y012201D01*
X033034Y012201D02*
X033666Y012201D01*
X033623Y012102D02*
X033077Y012102D01*
X033077Y012004D02*
X033623Y012004D01*
X033623Y011905D02*
X033077Y011905D01*
X033077Y011807D02*
X033623Y011807D01*
X033550Y011708D02*
X033077Y011708D01*
X033013Y011610D02*
X033452Y011610D01*
X033353Y011511D02*
X032549Y011511D01*
X031528Y011413D02*
X030737Y011413D01*
X030737Y011314D02*
X031440Y011314D01*
X031410Y011216D02*
X030737Y011216D01*
X030737Y011117D02*
X031419Y011117D01*
X031266Y011019D02*
X030177Y011019D01*
X030163Y011117D02*
X030078Y011117D01*
X029963Y010822D02*
X028113Y010822D01*
X028490Y011413D02*
X027099Y011413D01*
X027128Y011511D02*
X028443Y011511D01*
X028440Y011610D02*
X027757Y011610D01*
X027829Y011708D02*
X028476Y011708D01*
X028592Y011807D02*
X027850Y011807D01*
X027832Y011905D02*
X029172Y011905D01*
X029172Y011807D02*
X028808Y011807D01*
X028910Y011413D02*
X029172Y011413D01*
X029982Y011511D02*
X030196Y011511D01*
X030176Y011610D02*
X029982Y011610D01*
X030348Y010920D02*
X031261Y010920D01*
X031261Y010822D02*
X030431Y010822D01*
X030460Y010723D02*
X031261Y010723D01*
X031261Y010625D02*
X030450Y010625D01*
X030394Y010526D02*
X031261Y010526D01*
X032094Y009147D02*
X032109Y009147D01*
X032082Y009049D02*
X033175Y009049D01*
X033175Y009147D02*
X032391Y009147D01*
X033465Y008162D02*
X033487Y008162D01*
X033487Y008064D02*
X033465Y008064D01*
X033465Y007965D02*
X033487Y007965D01*
X033487Y007867D02*
X033465Y007867D01*
X033465Y007768D02*
X033487Y007768D01*
X033487Y007670D02*
X033465Y007670D01*
X033465Y007571D02*
X033487Y007571D01*
X033487Y007473D02*
X033465Y007473D01*
X033465Y007374D02*
X033487Y007374D01*
X033487Y007276D02*
X033465Y007276D01*
X033465Y007177D02*
X036539Y007177D01*
X036530Y007276D02*
X034374Y007276D01*
X034374Y007374D02*
X036560Y007374D01*
X036648Y007473D02*
X034374Y007473D01*
X034374Y007571D02*
X041030Y007571D01*
X041030Y007473D02*
X036932Y007473D01*
X036594Y007079D02*
X033465Y007079D01*
X033162Y007177D02*
X033061Y007177D01*
X032962Y007276D02*
X033175Y007276D01*
X033175Y007374D02*
X032864Y007374D01*
X032665Y007177D02*
X032082Y007177D01*
X032082Y007079D02*
X032763Y007079D01*
X032862Y006980D02*
X032058Y006980D01*
X032156Y006882D02*
X032960Y006882D01*
X033052Y006783D02*
X032255Y006783D01*
X032082Y007276D02*
X032566Y007276D01*
X032468Y007374D02*
X032082Y007374D01*
X033652Y006586D02*
X035525Y006586D01*
X034374Y007670D02*
X041030Y007670D01*
X041030Y007768D02*
X034374Y007768D01*
X034374Y007867D02*
X041030Y007867D01*
X041030Y007965D02*
X034374Y007965D01*
X034374Y008064D02*
X041030Y008064D01*
X041030Y008162D02*
X034374Y008162D01*
X031261Y006389D02*
X030790Y006389D01*
X030760Y006291D02*
X031261Y006291D01*
X031261Y006192D02*
X030662Y006192D01*
X030563Y006094D02*
X031261Y006094D01*
X031261Y005995D02*
X025120Y005995D01*
X025120Y006094D02*
X025197Y006094D01*
X024840Y006094D02*
X024563Y006094D01*
X024662Y006192D02*
X024840Y006192D01*
X024840Y006291D02*
X024760Y006291D01*
X024790Y006389D02*
X024840Y006389D01*
X024840Y006488D02*
X024790Y006488D01*
X024790Y006586D02*
X024840Y006586D01*
X024840Y006612D02*
X024840Y005872D01*
X024750Y005700D02*
X025010Y005700D01*
X024970Y005601D02*
X024790Y005601D01*
X024790Y005503D02*
X024970Y005503D01*
X024970Y005404D02*
X024790Y005404D01*
X024775Y005306D02*
X024985Y005306D01*
X025083Y005207D02*
X024677Y005207D01*
X024578Y005109D02*
X025182Y005109D01*
X025578Y005109D02*
X026182Y005109D01*
X026210Y005080D02*
X025970Y005320D01*
X025970Y005660D01*
X026210Y005900D01*
X026550Y005900D01*
X026790Y005660D01*
X026790Y005320D01*
X026550Y005080D01*
X026550Y003836D01*
X026576Y003810D01*
X026652Y003810D01*
X026747Y003770D01*
X026820Y003697D01*
X026860Y003602D01*
X026860Y003498D01*
X026820Y003403D01*
X026747Y003330D01*
X026652Y003290D01*
X026548Y003290D01*
X026453Y003330D01*
X026380Y003403D01*
X026340Y003498D01*
X026340Y003594D01*
X026230Y003704D01*
X026230Y005080D01*
X026210Y005080D01*
X026230Y005010D02*
X024520Y005010D01*
X024520Y004912D02*
X026230Y004912D01*
X026230Y004813D02*
X024520Y004813D01*
X024520Y004715D02*
X026230Y004715D01*
X026230Y004616D02*
X024520Y004616D01*
X024520Y004518D02*
X026230Y004518D01*
X026230Y004419D02*
X024520Y004419D01*
X024520Y004321D02*
X026230Y004321D01*
X026230Y004222D02*
X024520Y004222D01*
X024520Y004124D02*
X026230Y004124D01*
X026230Y004025D02*
X024520Y004025D01*
X024520Y003927D02*
X026230Y003927D01*
X026230Y003828D02*
X024520Y003828D01*
X024520Y003730D02*
X026230Y003730D01*
X026303Y003631D02*
X024520Y003631D01*
X024520Y003533D02*
X026340Y003533D01*
X026367Y003434D02*
X024520Y003434D01*
X024520Y003336D02*
X026447Y003336D01*
X026600Y003550D02*
X026600Y003560D01*
X026390Y003770D01*
X026390Y005480D01*
X026380Y005490D01*
X026677Y005207D02*
X027083Y005207D01*
X026985Y005306D02*
X026775Y005306D01*
X026790Y005404D02*
X026970Y005404D01*
X026970Y005320D02*
X027210Y005080D01*
X027550Y005080D01*
X027790Y005320D01*
X027790Y005660D01*
X027550Y005900D01*
X027210Y005900D01*
X026970Y005660D01*
X026970Y005320D01*
X026970Y005503D02*
X026790Y005503D01*
X026790Y005601D02*
X026970Y005601D01*
X027010Y005700D02*
X026750Y005700D01*
X026652Y005798D02*
X027108Y005798D01*
X027207Y005897D02*
X026553Y005897D01*
X026563Y006094D02*
X027197Y006094D01*
X027098Y006192D02*
X026662Y006192D01*
X026760Y006291D02*
X027000Y006291D01*
X026970Y006389D02*
X026790Y006389D01*
X026790Y006488D02*
X026970Y006488D01*
X026970Y006586D02*
X026790Y006586D01*
X026765Y006685D02*
X026995Y006685D01*
X027093Y006783D02*
X026667Y006783D01*
X026568Y006882D02*
X027192Y006882D01*
X027240Y006980D02*
X026520Y006980D01*
X026520Y007079D02*
X027240Y007079D01*
X027240Y007177D02*
X026520Y007177D01*
X026520Y007276D02*
X027240Y007276D01*
X027240Y007374D02*
X026520Y007374D01*
X026520Y007473D02*
X027240Y007473D01*
X027240Y007571D02*
X026520Y007571D01*
X026520Y007670D02*
X027240Y007670D01*
X027240Y007768D02*
X026520Y007768D01*
X026520Y007867D02*
X027240Y007867D01*
X027240Y007965D02*
X026520Y007965D01*
X026520Y008064D02*
X027240Y008064D01*
X027240Y008162D02*
X026520Y008162D01*
X026520Y008261D02*
X027240Y008261D01*
X027240Y008359D02*
X026520Y008359D01*
X026520Y008458D02*
X027240Y008458D01*
X027236Y008556D02*
X026520Y008556D01*
X026520Y008655D02*
X027137Y008655D01*
X027039Y008753D02*
X026520Y008753D01*
X026520Y008852D02*
X026940Y008852D01*
X026842Y008950D02*
X026520Y008950D01*
X026520Y009049D02*
X026743Y009049D01*
X026645Y009147D02*
X026520Y009147D01*
X026520Y009246D02*
X026546Y009246D01*
X026240Y009246D02*
X025080Y009246D01*
X025080Y009344D02*
X026240Y009344D01*
X026169Y009443D02*
X025080Y009443D01*
X025080Y009541D02*
X026071Y009541D01*
X025972Y009640D02*
X025080Y009640D01*
X025080Y009738D02*
X025874Y009738D01*
X025775Y009837D02*
X025080Y009837D01*
X025080Y009935D02*
X025677Y009935D01*
X025578Y010034D02*
X025080Y010034D01*
X025081Y010132D02*
X025480Y010132D01*
X025381Y010231D02*
X025046Y010231D01*
X024962Y010329D02*
X025283Y010329D01*
X025184Y010428D02*
X024930Y010428D01*
X024912Y010526D02*
X025086Y010526D01*
X024987Y010625D02*
X024843Y010625D01*
X024757Y010723D02*
X024740Y010723D01*
X024670Y010430D02*
X024920Y010130D01*
X024920Y008960D01*
X025228Y008950D02*
X026240Y008950D01*
X026240Y008852D02*
X025209Y008852D01*
X025149Y008753D02*
X026240Y008753D01*
X026240Y008655D02*
X024988Y008655D01*
X024852Y008655D02*
X024300Y008655D01*
X024300Y008753D02*
X024691Y008753D01*
X024631Y008852D02*
X024300Y008852D01*
X024300Y008950D02*
X024612Y008950D01*
X024623Y009049D02*
X024300Y009049D01*
X024300Y009147D02*
X024671Y009147D01*
X024760Y009246D02*
X024300Y009246D01*
X024300Y009344D02*
X024760Y009344D01*
X024760Y009443D02*
X024300Y009443D01*
X024300Y009541D02*
X024760Y009541D01*
X024760Y009640D02*
X024300Y009640D01*
X024300Y009738D02*
X024760Y009738D01*
X024760Y009837D02*
X024300Y009837D01*
X024300Y009935D02*
X024760Y009935D01*
X024760Y010034D02*
X024385Y010034D01*
X024420Y010132D02*
X024710Y010132D01*
X024502Y010231D02*
X024416Y010231D01*
X024430Y010329D02*
X024369Y010329D01*
X024410Y010428D02*
X024218Y010428D01*
X024102Y010428D02*
X024060Y010428D01*
X024033Y010526D02*
X024428Y010526D01*
X024460Y010920D02*
X023674Y010920D01*
X023777Y011019D02*
X024460Y011019D01*
X024460Y011117D02*
X023810Y011117D01*
X023804Y011216D02*
X024548Y011216D01*
X024646Y011314D02*
X023754Y011314D01*
X023346Y011314D02*
X023187Y011314D01*
X022513Y011314D02*
X022140Y011314D01*
X022160Y011413D02*
X022477Y011413D01*
X022450Y011511D02*
X022160Y011511D01*
X022160Y011610D02*
X022450Y011610D01*
X022450Y011708D02*
X022160Y011708D01*
X022160Y011807D02*
X022450Y011807D01*
X022450Y011905D02*
X022160Y011905D01*
X022160Y012004D02*
X022450Y012004D01*
X022450Y012102D02*
X022170Y012102D01*
X022269Y012201D02*
X022450Y012201D01*
X022450Y012299D02*
X022367Y012299D01*
X021640Y012299D02*
X020540Y012299D01*
X020453Y012398D02*
X021640Y012398D01*
X021640Y012496D02*
X020366Y012496D01*
X020279Y012595D02*
X021640Y012595D01*
X021640Y012693D02*
X020192Y012693D01*
X020106Y012792D02*
X021640Y012792D01*
X021640Y012890D02*
X020702Y012890D01*
X020797Y012930D01*
X020870Y013003D01*
X020910Y013098D01*
X020910Y013202D01*
X020870Y013297D01*
X020797Y013370D01*
X020790Y013373D01*
X020790Y013750D01*
X021082Y013750D01*
X021030Y013697D01*
X020990Y013602D01*
X020990Y013498D01*
X021030Y013403D01*
X021103Y013330D01*
X021198Y013290D01*
X021302Y013290D01*
X021397Y013330D01*
X021470Y013403D01*
X021510Y013498D01*
X021510Y013602D01*
X021470Y013697D01*
X021418Y013750D01*
X022311Y013750D01*
X022375Y013814D01*
X022375Y014010D01*
X023527Y014010D01*
X023530Y014003D01*
X023603Y013930D01*
X023698Y013890D01*
X023802Y013890D01*
X023897Y013930D01*
X023970Y014003D01*
X024010Y014098D01*
X024010Y014202D01*
X023970Y014297D01*
X023897Y014370D01*
X023802Y014410D01*
X023698Y014410D01*
X023603Y014370D01*
X023530Y014297D01*
X023527Y014290D01*
X022375Y014290D01*
X022375Y014486D01*
X022311Y014550D01*
X022190Y014550D01*
X022190Y015072D01*
X023725Y016607D01*
X023725Y016274D01*
X023749Y016250D01*
X023725Y016226D01*
X023725Y015674D01*
X023789Y015610D01*
X024292Y015610D01*
X024350Y015552D01*
X024350Y015111D01*
X024318Y015098D01*
X024202Y014982D01*
X024140Y014832D01*
X024140Y014068D01*
X024202Y013918D01*
X024221Y013899D01*
X024170Y013848D01*
X024170Y013018D01*
X024137Y013050D01*
X024042Y013090D01*
X023938Y013090D01*
X023878Y013065D01*
X023570Y013065D01*
X023250Y012745D01*
X023250Y013611D01*
X023186Y013675D01*
X022514Y013675D01*
X022464Y013624D01*
X022457Y013630D01*
X022362Y013670D01*
X022258Y013670D01*
X022163Y013630D01*
X022090Y013557D01*
X022050Y013462D01*
X022050Y013358D01*
X022090Y013263D01*
X022163Y013190D01*
X022258Y013150D01*
X022310Y013150D01*
X022310Y013072D01*
X022332Y013050D01*
X021722Y013050D01*
X021640Y012968D01*
X021640Y012133D01*
X021633Y012130D01*
X021560Y012057D01*
X021520Y011962D01*
X021520Y011858D01*
X021560Y011763D01*
X021633Y011690D01*
X021728Y011650D01*
X021832Y011650D01*
X021880Y011670D01*
X021880Y011528D01*
X021860Y011508D01*
X021860Y011192D01*
X022083Y010969D01*
X022080Y010962D01*
X022080Y010858D01*
X022120Y010763D01*
X022193Y010690D01*
X022288Y010650D01*
X022392Y010650D01*
X022450Y010674D01*
X022450Y009110D01*
X022412Y009110D01*
X022330Y009028D01*
X022330Y008612D01*
X022390Y008552D01*
X022390Y006348D01*
X022310Y006268D01*
X022310Y006173D01*
X022303Y006170D01*
X022230Y006097D01*
X022190Y006002D01*
X022190Y005898D01*
X022230Y005803D01*
X022303Y005730D01*
X022398Y005690D01*
X022502Y005690D01*
X022597Y005730D01*
X022670Y005803D01*
X022710Y005898D01*
X022710Y006002D01*
X022670Y006097D01*
X022603Y006165D01*
X022670Y006232D01*
X022670Y006562D01*
X022703Y006530D01*
X022798Y006490D01*
X022902Y006490D01*
X022997Y006530D01*
X023070Y006603D01*
X023110Y006698D01*
X023110Y006802D01*
X023070Y006897D01*
X022997Y006970D01*
X022990Y006973D01*
X022990Y008192D01*
X023010Y008212D01*
X023010Y008270D01*
X023030Y008318D01*
X023030Y008422D01*
X022990Y008517D01*
X022917Y008590D01*
X022834Y008625D01*
X023186Y008625D01*
X023250Y008689D01*
X023250Y010012D01*
X023250Y006488D01*
X023210Y006448D01*
X023210Y006373D01*
X023203Y006370D01*
X023130Y006297D01*
X023090Y006202D01*
X023090Y006098D01*
X023130Y006003D01*
X023203Y005930D01*
X023298Y005890D01*
X023402Y005890D01*
X023497Y005930D01*
X023570Y006003D01*
X023610Y006098D01*
X023610Y006202D01*
X023570Y006297D01*
X023513Y006355D01*
X023530Y006372D01*
X023530Y010128D01*
X023448Y010210D01*
X023370Y010288D01*
X023370Y010408D01*
X023288Y010490D01*
X023250Y010490D01*
X023250Y010702D01*
X023280Y010672D01*
X023362Y010590D01*
X023612Y010590D01*
X023580Y010557D01*
X023540Y010462D01*
X023540Y010358D01*
X023580Y010263D01*
X023653Y010190D01*
X023748Y010150D01*
X023780Y010150D01*
X023780Y007672D01*
X024840Y006612D01*
X024767Y006685D02*
X024765Y006685D01*
X024669Y006783D02*
X024667Y006783D01*
X024570Y006882D02*
X024568Y006882D01*
X024472Y006980D02*
X023530Y006980D01*
X023530Y006882D02*
X024192Y006882D01*
X024093Y006783D02*
X023530Y006783D01*
X023530Y006685D02*
X023995Y006685D01*
X023970Y006586D02*
X023530Y006586D01*
X023530Y006488D02*
X023970Y006488D01*
X023970Y006389D02*
X023530Y006389D01*
X023573Y006291D02*
X024000Y006291D01*
X023924Y006192D02*
X023610Y006192D01*
X023608Y006094D02*
X023826Y006094D01*
X023727Y005995D02*
X023563Y005995D01*
X023680Y005897D02*
X023417Y005897D01*
X023283Y005897D02*
X022709Y005897D01*
X022710Y005995D02*
X023137Y005995D01*
X023092Y006094D02*
X022672Y006094D01*
X022630Y006192D02*
X023090Y006192D01*
X023127Y006291D02*
X022670Y006291D01*
X022670Y006389D02*
X023210Y006389D01*
X023250Y006488D02*
X022670Y006488D01*
X022390Y006488D02*
X018990Y006488D01*
X018892Y006586D02*
X022390Y006586D01*
X022390Y006685D02*
X018793Y006685D01*
X018695Y006783D02*
X022390Y006783D01*
X022390Y006882D02*
X018596Y006882D01*
X018498Y006980D02*
X022390Y006980D01*
X022390Y007079D02*
X018399Y007079D01*
X018301Y007177D02*
X022390Y007177D01*
X022390Y007276D02*
X018202Y007276D01*
X018104Y007374D02*
X022390Y007374D01*
X022390Y007473D02*
X018005Y007473D01*
X017907Y007571D02*
X022390Y007571D01*
X022390Y007670D02*
X017808Y007670D01*
X017728Y007750D02*
X018771Y007750D01*
X018835Y007814D01*
X018835Y008486D01*
X018771Y008550D01*
X017579Y008550D01*
X017389Y008550D01*
X017325Y008486D01*
X017325Y007814D01*
X017389Y007750D01*
X017390Y007750D01*
X017390Y007692D01*
X020693Y004389D01*
X020690Y004382D01*
X020690Y004278D01*
X020730Y004183D01*
X020803Y004110D01*
X020898Y004070D01*
X021002Y004070D01*
X021097Y004110D01*
X021170Y004183D01*
X021210Y004278D01*
X021210Y004382D01*
X021170Y004477D01*
X021097Y004550D01*
X021002Y004590D01*
X020898Y004590D01*
X020891Y004587D01*
X017728Y007750D01*
X017511Y007571D02*
X016267Y007571D01*
X016365Y007473D02*
X017609Y007473D01*
X017708Y007374D02*
X016464Y007374D01*
X016562Y007276D02*
X017806Y007276D01*
X017905Y007177D02*
X016661Y007177D01*
X016759Y007079D02*
X018003Y007079D01*
X018102Y006980D02*
X016858Y006980D01*
X016956Y006882D02*
X018200Y006882D01*
X018299Y006783D02*
X017055Y006783D01*
X017153Y006685D02*
X018397Y006685D01*
X018496Y006586D02*
X017252Y006586D01*
X017350Y006488D02*
X018594Y006488D01*
X018693Y006389D02*
X017449Y006389D01*
X017547Y006291D02*
X018791Y006291D01*
X018890Y006192D02*
X017646Y006192D01*
X017744Y006094D02*
X018988Y006094D01*
X019087Y005995D02*
X017843Y005995D01*
X017941Y005897D02*
X019185Y005897D01*
X019284Y005798D02*
X018040Y005798D01*
X018138Y005700D02*
X019382Y005700D01*
X019481Y005601D02*
X018237Y005601D01*
X018335Y005503D02*
X019579Y005503D01*
X019678Y005404D02*
X018434Y005404D01*
X018532Y005306D02*
X019776Y005306D01*
X019875Y005207D02*
X018631Y005207D01*
X018729Y005109D02*
X019973Y005109D01*
X020072Y005010D02*
X018828Y005010D01*
X018926Y004912D02*
X020170Y004912D01*
X020269Y004813D02*
X019025Y004813D01*
X019123Y004715D02*
X020368Y004715D01*
X020466Y004616D02*
X019222Y004616D01*
X019320Y004518D02*
X020565Y004518D01*
X020663Y004419D02*
X019589Y004419D01*
X019642Y004321D02*
X020690Y004321D01*
X020713Y004222D02*
X019650Y004222D01*
X019619Y004124D02*
X020789Y004124D01*
X021111Y004124D02*
X022736Y004124D01*
X022834Y004222D02*
X021187Y004222D01*
X021210Y004321D02*
X022933Y004321D01*
X023031Y004419D02*
X021195Y004419D01*
X021130Y004518D02*
X023130Y004518D01*
X023228Y004616D02*
X020862Y004616D01*
X020763Y004715D02*
X023327Y004715D01*
X023425Y004813D02*
X020665Y004813D01*
X020566Y004912D02*
X023524Y004912D01*
X023622Y005010D02*
X020468Y005010D01*
X020369Y005109D02*
X023680Y005109D01*
X023680Y005207D02*
X020271Y005207D01*
X020172Y005306D02*
X023680Y005306D01*
X023680Y005404D02*
X020074Y005404D01*
X019975Y005503D02*
X023680Y005503D01*
X023680Y005601D02*
X019877Y005601D01*
X019778Y005700D02*
X022375Y005700D01*
X022525Y005700D02*
X023680Y005700D01*
X023680Y005798D02*
X022666Y005798D01*
X022234Y005798D02*
X019680Y005798D01*
X019581Y005897D02*
X022191Y005897D01*
X022190Y005995D02*
X019483Y005995D01*
X019384Y006094D02*
X022228Y006094D01*
X022310Y006192D02*
X019286Y006192D01*
X019187Y006291D02*
X022333Y006291D01*
X022390Y006389D02*
X019089Y006389D01*
X017053Y006389D02*
X009160Y006389D01*
X009129Y006488D02*
X016954Y006488D01*
X016856Y006586D02*
X009087Y006586D01*
X009085Y006685D02*
X016757Y006685D01*
X016659Y006783D02*
X009084Y006783D01*
X009083Y006882D02*
X016560Y006882D01*
X016462Y006980D02*
X009081Y006980D01*
X008900Y006360D02*
X009100Y006160D01*
X009600Y006160D01*
X009690Y006150D01*
X009690Y005960D02*
X009600Y005960D01*
X008700Y005960D01*
X010095Y005995D02*
X010905Y005995D01*
X010905Y005897D02*
X010095Y005897D01*
X010095Y005798D02*
X010905Y005798D01*
X010905Y005700D02*
X010095Y005700D01*
X010095Y005601D02*
X010905Y005601D01*
X010905Y005503D02*
X010095Y005503D01*
X010095Y005404D02*
X010955Y005404D01*
X010095Y005306D02*
X012028Y005306D01*
X012127Y005207D02*
X010038Y005207D01*
X009850Y005109D02*
X012225Y005109D01*
X012240Y005010D02*
X009920Y005010D01*
X010019Y004912D02*
X012281Y004912D01*
X012417Y004813D02*
X010117Y004813D01*
X010460Y004715D02*
X012619Y004715D01*
X012718Y004616D02*
X010492Y004616D01*
X010492Y004518D02*
X012740Y004518D01*
X013060Y004518D02*
X013816Y004518D01*
X013915Y004419D02*
X013305Y004419D01*
X013305Y004321D02*
X013995Y004321D01*
X013995Y004222D02*
X013305Y004222D01*
X013305Y004124D02*
X013995Y004124D01*
X013995Y004025D02*
X013305Y004025D01*
X013305Y003927D02*
X013995Y003927D01*
X013999Y003828D02*
X013301Y003828D01*
X013118Y004616D02*
X013060Y004616D01*
X013176Y005010D02*
X013582Y005010D01*
X013721Y005109D02*
X013172Y005109D01*
X013315Y005207D02*
X014231Y005207D01*
X014233Y005109D02*
X013879Y005109D01*
X014018Y005010D02*
X014236Y005010D01*
X014239Y004912D02*
X014060Y004912D01*
X014060Y004813D02*
X014240Y004813D01*
X014319Y004715D02*
X014072Y004715D01*
X014228Y005306D02*
X013359Y005306D01*
X013360Y005404D02*
X014226Y005404D01*
X014223Y005503D02*
X013322Y005503D01*
X013240Y005601D02*
X014147Y005601D01*
X014010Y005700D02*
X013240Y005700D01*
X013160Y005798D02*
X013874Y005798D01*
X013738Y005897D02*
X013061Y005897D01*
X013660Y006150D02*
X011310Y006150D01*
X010940Y006291D02*
X010060Y006291D01*
X010095Y006192D02*
X010905Y006192D01*
X010905Y006094D02*
X010095Y006094D01*
X010547Y007079D02*
X016363Y007079D01*
X016265Y007177D02*
X010580Y007177D01*
X010580Y007276D02*
X016166Y007276D01*
X016068Y007374D02*
X010580Y007374D01*
X010580Y007473D02*
X015969Y007473D01*
X015871Y007571D02*
X010580Y007571D01*
X010580Y007670D02*
X015772Y007670D01*
X015674Y007768D02*
X010580Y007768D01*
X010580Y007867D02*
X015575Y007867D01*
X015477Y007965D02*
X010580Y007965D01*
X010580Y008064D02*
X015378Y008064D01*
X015280Y008162D02*
X010580Y008162D01*
X010580Y008261D02*
X015210Y008261D01*
X015210Y008359D02*
X010580Y008359D01*
X010580Y008458D02*
X015210Y008458D01*
X015210Y008556D02*
X010580Y008556D01*
X010580Y008655D02*
X015210Y008655D01*
X015210Y008753D02*
X010580Y008753D01*
X010580Y008852D02*
X015210Y008852D01*
X015210Y008950D02*
X010580Y008950D01*
X010580Y009049D02*
X015210Y009049D01*
X015210Y009147D02*
X010580Y009147D01*
X010580Y009246D02*
X015210Y009246D01*
X015210Y009344D02*
X010564Y009344D01*
X009048Y009443D02*
X015210Y009443D01*
X015210Y009541D02*
X009047Y009541D01*
X009045Y009640D02*
X015210Y009640D01*
X015210Y009738D02*
X009044Y009738D01*
X009043Y009837D02*
X015210Y009837D01*
X015210Y009935D02*
X009041Y009935D01*
X009040Y010034D02*
X015210Y010034D01*
X015210Y010132D02*
X009039Y010132D01*
X009037Y010231D02*
X015210Y010231D01*
X015210Y010329D02*
X009036Y010329D01*
X009035Y010428D02*
X015210Y010428D01*
X015210Y010526D02*
X009033Y010526D01*
X009032Y010625D02*
X015210Y010625D01*
X015210Y010723D02*
X009031Y010723D01*
X009029Y010822D02*
X015210Y010822D01*
X015210Y010920D02*
X009028Y010920D01*
X009027Y011019D02*
X015210Y011019D01*
X015210Y011117D02*
X013997Y011117D01*
X013920Y011040D02*
X014160Y011280D01*
X014160Y011620D01*
X013920Y011860D01*
X013580Y011860D01*
X013340Y011620D01*
X013340Y011280D01*
X013580Y011040D01*
X013920Y011040D01*
X014095Y011216D02*
X015210Y011216D01*
X015210Y011314D02*
X014160Y011314D01*
X014160Y011413D02*
X015210Y011413D01*
X015210Y011511D02*
X014160Y011511D01*
X014160Y011610D02*
X015210Y011610D01*
X015210Y011708D02*
X014072Y011708D01*
X013973Y011807D02*
X015229Y011807D01*
X015490Y011511D02*
X016450Y011511D01*
X016477Y011413D02*
X015490Y011413D01*
X015490Y011314D02*
X016513Y011314D01*
X016514Y011315D02*
X016450Y011251D01*
X016450Y010890D01*
X016310Y010890D01*
X016310Y010902D01*
X016270Y010997D01*
X016197Y011070D01*
X016102Y011110D01*
X015998Y011110D01*
X015903Y011070D01*
X015830Y010997D01*
X015790Y010902D01*
X015790Y010810D01*
X015698Y010810D01*
X015603Y010770D01*
X015530Y010697D01*
X015490Y010602D01*
X015490Y010498D01*
X015530Y010403D01*
X015603Y010330D01*
X015698Y010290D01*
X015802Y010290D01*
X015897Y010330D01*
X015970Y010403D01*
X015973Y010410D01*
X016042Y010410D01*
X016030Y010397D01*
X015990Y010302D01*
X015990Y010198D01*
X016030Y010103D01*
X016103Y010030D01*
X016198Y009990D01*
X016302Y009990D01*
X016397Y010030D01*
X016450Y010082D01*
X016450Y009079D01*
X016514Y009015D01*
X017186Y009015D01*
X017250Y009079D01*
X017250Y009532D01*
X017373Y009409D01*
X017370Y009402D01*
X017370Y009298D01*
X017410Y009203D01*
X017483Y009130D01*
X017578Y009090D01*
X017682Y009090D01*
X017777Y009130D01*
X017850Y009203D01*
X017890Y009298D01*
X017890Y009402D01*
X017850Y009497D01*
X017777Y009570D01*
X017682Y009610D01*
X017578Y009610D01*
X017571Y009607D01*
X017468Y009710D01*
X017502Y009710D01*
X017597Y009750D01*
X017670Y009823D01*
X017710Y009918D01*
X017710Y010022D01*
X017670Y010117D01*
X017597Y010190D01*
X017502Y010230D01*
X017398Y010230D01*
X017303Y010190D01*
X017250Y010138D01*
X017250Y010982D01*
X017303Y010930D01*
X017398Y010890D01*
X017502Y010890D01*
X017597Y010930D01*
X017670Y011003D01*
X017710Y011098D01*
X017710Y011202D01*
X017670Y011297D01*
X017597Y011370D01*
X017502Y011410D01*
X017398Y011410D01*
X017303Y011370D01*
X017230Y011297D01*
X017227Y011290D01*
X017211Y011290D01*
X017186Y011315D01*
X016514Y011315D01*
X016450Y011216D02*
X015490Y011216D01*
X015490Y011117D02*
X016450Y011117D01*
X016450Y011019D02*
X016249Y011019D01*
X016302Y010920D02*
X016450Y010920D01*
X015851Y011019D02*
X015490Y011019D01*
X015490Y010920D02*
X015798Y010920D01*
X015790Y010822D02*
X015490Y010822D01*
X015490Y010723D02*
X015555Y010723D01*
X015499Y010625D02*
X015490Y010625D01*
X015490Y010526D02*
X015490Y010526D01*
X015490Y010428D02*
X015519Y010428D01*
X015490Y010329D02*
X015604Y010329D01*
X015490Y010231D02*
X015990Y010231D01*
X016001Y010329D02*
X015896Y010329D01*
X016017Y010132D02*
X015490Y010132D01*
X015490Y010034D02*
X016099Y010034D01*
X016401Y010034D02*
X016450Y010034D01*
X016450Y009935D02*
X015490Y009935D01*
X015490Y009837D02*
X016450Y009837D01*
X016450Y009738D02*
X015490Y009738D01*
X015490Y009640D02*
X016450Y009640D01*
X016450Y009541D02*
X015490Y009541D01*
X015490Y009443D02*
X016450Y009443D01*
X016450Y009344D02*
X015490Y009344D01*
X015490Y009246D02*
X016450Y009246D01*
X016450Y009147D02*
X015490Y009147D01*
X015490Y009049D02*
X016481Y009049D01*
X016509Y008950D02*
X015490Y008950D01*
X015490Y008852D02*
X016450Y008852D01*
X016450Y008753D02*
X015490Y008753D01*
X015490Y008655D02*
X016450Y008655D01*
X016450Y008556D02*
X016002Y008556D01*
X015800Y008390D02*
X016700Y008330D01*
X016760Y008270D01*
X016940Y008458D02*
X017325Y008458D01*
X017325Y008359D02*
X017005Y008359D01*
X017020Y008261D02*
X017325Y008261D01*
X017325Y008162D02*
X016997Y008162D01*
X016921Y008064D02*
X017325Y008064D01*
X017325Y007965D02*
X015873Y007965D01*
X015971Y007867D02*
X017325Y007867D01*
X017371Y007768D02*
X016070Y007768D01*
X016168Y007670D02*
X017412Y007670D01*
X016599Y008064D02*
X015774Y008064D01*
X015929Y008162D02*
X016523Y008162D01*
X016730Y008556D02*
X018930Y008556D01*
X018930Y008521D02*
X018895Y008486D01*
X018895Y007814D01*
X018959Y007750D01*
X020741Y007750D01*
X020805Y007814D01*
X020805Y008486D01*
X020770Y008521D01*
X020770Y008718D01*
X020797Y008730D01*
X020870Y008803D01*
X020910Y008898D01*
X020910Y009002D01*
X020870Y009097D01*
X020797Y009170D01*
X020702Y009210D01*
X020598Y009210D01*
X020503Y009170D01*
X020430Y009097D01*
X020390Y009002D01*
X020390Y008898D01*
X020430Y008803D01*
X020490Y008742D01*
X020490Y008736D01*
X020485Y008685D01*
X020490Y008679D01*
X020490Y008550D01*
X019210Y008550D01*
X019210Y008679D01*
X019215Y008685D01*
X019210Y008736D01*
X019210Y008742D01*
X019270Y008803D01*
X019310Y008898D01*
X019310Y009002D01*
X019270Y009097D01*
X019197Y009170D01*
X019102Y009210D01*
X018998Y009210D01*
X018903Y009170D01*
X018830Y009097D01*
X018790Y009002D01*
X018790Y008898D01*
X018830Y008803D01*
X018903Y008730D01*
X018930Y008718D01*
X018930Y008521D01*
X018895Y008458D02*
X018835Y008458D01*
X018835Y008359D02*
X018895Y008359D01*
X018895Y008261D02*
X018835Y008261D01*
X018835Y008162D02*
X018895Y008162D01*
X018895Y008064D02*
X018835Y008064D01*
X018835Y007965D02*
X018895Y007965D01*
X018895Y007867D02*
X018835Y007867D01*
X018789Y007768D02*
X018941Y007768D01*
X019210Y008556D02*
X020490Y008556D01*
X020490Y008655D02*
X019210Y008655D01*
X019221Y008753D02*
X020479Y008753D01*
X020409Y008852D02*
X019291Y008852D01*
X019310Y008950D02*
X020390Y008950D01*
X020409Y009049D02*
X019291Y009049D01*
X019221Y009147D02*
X020479Y009147D01*
X020821Y009147D02*
X020967Y009147D01*
X020891Y009049D02*
X021065Y009049D01*
X021164Y008950D02*
X020910Y008950D01*
X020891Y008852D02*
X022330Y008852D01*
X022330Y008950D02*
X021896Y008950D01*
X021995Y009049D02*
X022351Y009049D01*
X022450Y009147D02*
X022228Y009147D01*
X022371Y009246D02*
X022450Y009246D01*
X022450Y009344D02*
X022424Y009344D01*
X022438Y009443D02*
X022450Y009443D01*
X022450Y009541D02*
X022422Y009541D01*
X022450Y009640D02*
X022366Y009640D01*
X022450Y009738D02*
X022216Y009738D01*
X022044Y009738D02*
X021770Y009738D01*
X021823Y009640D02*
X021894Y009640D01*
X021838Y009541D02*
X021830Y009541D01*
X021822Y009443D02*
X021799Y009443D01*
X021836Y009344D02*
X021704Y009344D01*
X021739Y009246D02*
X021321Y009246D01*
X021222Y009344D02*
X021436Y009344D01*
X021341Y009443D02*
X021124Y009443D01*
X021025Y009541D02*
X021310Y009541D01*
X021302Y009640D02*
X020927Y009640D01*
X020828Y009738D02*
X021204Y009738D01*
X021105Y009837D02*
X020760Y009837D01*
X020691Y009935D02*
X021007Y009935D01*
X020908Y010034D02*
X020593Y010034D01*
X020494Y010132D02*
X020810Y010132D01*
X020711Y010231D02*
X020396Y010231D01*
X020297Y010329D02*
X020613Y010329D01*
X020514Y010428D02*
X020199Y010428D01*
X020100Y010526D02*
X020416Y010526D01*
X020317Y010625D02*
X020002Y010625D01*
X019903Y010723D02*
X020219Y010723D01*
X020120Y010822D02*
X019805Y010822D01*
X019706Y010920D02*
X020022Y010920D01*
X019923Y011019D02*
X019608Y011019D01*
X019509Y011117D02*
X019825Y011117D01*
X019726Y011216D02*
X019411Y011216D01*
X019312Y011314D02*
X019628Y011314D01*
X019529Y011413D02*
X019214Y011413D01*
X019115Y011511D02*
X019431Y011511D01*
X019350Y011610D02*
X019017Y011610D01*
X018918Y011708D02*
X019350Y011708D01*
X019350Y011807D02*
X018820Y011807D01*
X018721Y011905D02*
X019350Y011905D01*
X019350Y012004D02*
X018623Y012004D01*
X018524Y012102D02*
X019350Y012102D01*
X019350Y012201D02*
X018426Y012201D01*
X018327Y012299D02*
X019350Y012299D01*
X019350Y012398D02*
X017250Y012398D01*
X017250Y012496D02*
X019350Y012496D01*
X019350Y012595D02*
X017250Y012595D01*
X017250Y012693D02*
X019350Y012693D01*
X019630Y012693D02*
X019819Y012693D01*
X019906Y012595D02*
X019630Y012595D01*
X019630Y012496D02*
X019993Y012496D01*
X020080Y012398D02*
X019630Y012398D01*
X019630Y012299D02*
X020166Y012299D01*
X020253Y012201D02*
X019630Y012201D01*
X019630Y012102D02*
X020338Y012102D01*
X020330Y012004D02*
X019630Y012004D01*
X019630Y011905D02*
X020360Y011905D01*
X020450Y011807D02*
X019630Y011807D01*
X019630Y011708D02*
X021614Y011708D01*
X021541Y011807D02*
X020730Y011807D01*
X020820Y011905D02*
X021520Y011905D01*
X021537Y012004D02*
X020850Y012004D01*
X020842Y012102D02*
X021604Y012102D01*
X021640Y012201D02*
X020787Y012201D01*
X019827Y011511D02*
X021863Y011511D01*
X021860Y011413D02*
X019925Y011413D01*
X020024Y011314D02*
X021860Y011314D01*
X021860Y011216D02*
X020122Y011216D01*
X020221Y011117D02*
X021935Y011117D01*
X022033Y011019D02*
X020319Y011019D01*
X020418Y010920D02*
X022080Y010920D01*
X022095Y010822D02*
X020516Y010822D01*
X020615Y010723D02*
X022159Y010723D01*
X022450Y010625D02*
X020713Y010625D01*
X020812Y010526D02*
X022450Y010526D01*
X022450Y010428D02*
X020910Y010428D01*
X021009Y010329D02*
X022450Y010329D01*
X022450Y010231D02*
X021107Y010231D01*
X021206Y010132D02*
X022450Y010132D01*
X022450Y010034D02*
X021304Y010034D01*
X021403Y009935D02*
X022450Y009935D01*
X022450Y009837D02*
X021501Y009837D01*
X022130Y009440D02*
X022130Y009410D01*
X021740Y009020D01*
X021320Y009020D01*
X020600Y009740D01*
X020600Y009800D01*
X018230Y012170D01*
X017540Y012170D01*
X017300Y011930D01*
X016860Y011930D01*
X016850Y011940D01*
X016450Y011905D02*
X008290Y011905D01*
X008287Y011807D02*
X012527Y011807D01*
X012340Y011511D02*
X008783Y011511D01*
X009021Y011413D02*
X012340Y011413D01*
X012340Y011314D02*
X009023Y011314D01*
X009024Y011216D02*
X012405Y011216D01*
X012503Y011117D02*
X009025Y011117D01*
X008290Y012004D02*
X016450Y012004D01*
X016450Y012102D02*
X013982Y012102D01*
X014080Y012201D02*
X016450Y012201D01*
X016450Y012299D02*
X014160Y012299D01*
X014124Y012693D02*
X014087Y012693D01*
X014026Y012792D02*
X013988Y012792D01*
X013968Y012850D02*
X013968Y012850D01*
X013512Y012792D02*
X013290Y012792D01*
X013191Y012693D02*
X013413Y012693D01*
X013340Y012595D02*
X013160Y012595D01*
X013160Y012496D02*
X013340Y012496D01*
X013340Y012398D02*
X013160Y012398D01*
X013160Y012299D02*
X013340Y012299D01*
X013420Y012201D02*
X013080Y012201D01*
X012982Y012102D02*
X013518Y012102D01*
X013527Y011807D02*
X012973Y011807D01*
X013072Y011708D02*
X013428Y011708D01*
X013340Y011610D02*
X013160Y011610D01*
X013160Y011511D02*
X013340Y011511D01*
X013340Y011413D02*
X013160Y011413D01*
X013160Y011314D02*
X013340Y011314D01*
X013405Y011216D02*
X013095Y011216D01*
X012997Y011117D02*
X013503Y011117D01*
X012518Y012102D02*
X008290Y012102D01*
X008290Y012201D02*
X012420Y012201D01*
X012340Y012299D02*
X008290Y012299D01*
X008290Y012398D02*
X012340Y012398D01*
X012340Y012496D02*
X008285Y012496D01*
X008190Y012595D02*
X012340Y012595D01*
X012413Y012693D02*
X010260Y012693D01*
X010282Y012702D02*
X010398Y012818D01*
X010460Y012968D01*
X010460Y013732D01*
X010398Y013882D01*
X010282Y013998D01*
X010132Y014060D01*
X009968Y014060D01*
X009818Y013998D01*
X009702Y013882D01*
X009640Y013732D01*
X009640Y012968D01*
X009702Y012818D01*
X009818Y012702D01*
X009968Y012640D01*
X010132Y012640D01*
X010282Y012702D01*
X010371Y012792D02*
X012512Y012792D01*
X012992Y012890D02*
X010428Y012890D01*
X010460Y012989D02*
X013091Y012989D01*
X013189Y013087D02*
X012945Y013087D01*
X013065Y013186D02*
X013435Y013186D01*
X013340Y013284D02*
X013125Y013284D01*
X013160Y013383D02*
X013340Y013383D01*
X013340Y013481D02*
X013160Y013481D01*
X013140Y013580D02*
X013340Y013580D01*
X013398Y013678D02*
X013176Y013678D01*
X012977Y013875D02*
X010401Y013875D01*
X010441Y013777D02*
X012497Y013777D01*
X012401Y013678D02*
X010460Y013678D01*
X010460Y013580D02*
X012360Y013580D01*
X012340Y013481D02*
X010460Y013481D01*
X010460Y013383D02*
X012340Y013383D01*
X012375Y013284D02*
X010460Y013284D01*
X010460Y013186D02*
X012435Y013186D01*
X012555Y013087D02*
X010460Y013087D01*
X009840Y012693D02*
X009260Y012693D01*
X009282Y012702D02*
X009398Y012818D01*
X009460Y012968D01*
X009460Y013732D01*
X009398Y013882D01*
X009282Y013998D01*
X009132Y014060D01*
X008968Y014060D01*
X008818Y013998D01*
X008702Y013882D01*
X008640Y013732D01*
X008640Y012968D01*
X008702Y012818D01*
X008818Y012702D01*
X008968Y012640D01*
X009132Y012640D01*
X009282Y012702D01*
X009371Y012792D02*
X009729Y012792D01*
X009672Y012890D02*
X009428Y012890D01*
X009460Y012989D02*
X009640Y012989D01*
X009640Y013087D02*
X009460Y013087D01*
X009460Y013186D02*
X009640Y013186D01*
X009640Y013284D02*
X009460Y013284D01*
X009460Y013383D02*
X009640Y013383D01*
X009640Y013481D02*
X009460Y013481D01*
X009460Y013580D02*
X009640Y013580D01*
X009640Y013678D02*
X009460Y013678D01*
X009441Y013777D02*
X009659Y013777D01*
X009699Y013875D02*
X009401Y013875D01*
X009306Y013974D02*
X009794Y013974D01*
X010306Y013974D02*
X013076Y013974D01*
X013129Y014171D02*
X008250Y014171D01*
X008250Y014269D02*
X013110Y014269D01*
X013110Y014368D02*
X008250Y014368D01*
X008250Y014466D02*
X013110Y014466D01*
X013110Y014565D02*
X008250Y014565D01*
X008250Y014663D02*
X013110Y014663D01*
X013110Y014762D02*
X008250Y014762D01*
X008250Y014860D02*
X013110Y014860D01*
X013158Y014959D02*
X008250Y014959D01*
X008250Y015057D02*
X015210Y015057D01*
X015210Y014959D02*
X013742Y014959D01*
X013790Y014860D02*
X015210Y014860D01*
X015210Y014762D02*
X013790Y014762D01*
X013790Y014663D02*
X015239Y014663D01*
X015210Y015156D02*
X008250Y015156D01*
X008250Y015254D02*
X015210Y015254D01*
X015210Y015353D02*
X008250Y015353D01*
X008250Y015451D02*
X015210Y015451D01*
X015210Y015550D02*
X008250Y015550D01*
X008250Y015648D02*
X015210Y015648D01*
X015210Y015747D02*
X008250Y015747D01*
X008250Y015845D02*
X015210Y015845D01*
X015210Y015944D02*
X008250Y015944D01*
X008250Y016042D02*
X015210Y016042D01*
X015210Y016141D02*
X008250Y016141D01*
X008250Y016239D02*
X015210Y016239D01*
X015210Y016338D02*
X008250Y016338D01*
X008250Y016436D02*
X015210Y016436D01*
X015210Y016535D02*
X008250Y016535D01*
X008250Y016633D02*
X015210Y016633D01*
X015210Y016732D02*
X008250Y016732D01*
X008250Y016830D02*
X015210Y016830D01*
X015210Y016929D02*
X008250Y016929D01*
X008250Y017027D02*
X015210Y017027D01*
X015210Y017126D02*
X008250Y017126D01*
X008250Y017224D02*
X015210Y017224D01*
X015210Y017323D02*
X008250Y017323D01*
X008250Y017421D02*
X015210Y017421D01*
X015210Y017520D02*
X008250Y017520D01*
X008250Y017618D02*
X015210Y017618D01*
X015210Y017717D02*
X008250Y017717D01*
X008250Y017815D02*
X015210Y017815D01*
X015210Y017914D02*
X008250Y017914D01*
X008250Y018012D02*
X015210Y018012D01*
X019350Y018308D02*
X041030Y018308D01*
X041030Y018209D02*
X019449Y018209D01*
X019547Y018111D02*
X041030Y018111D01*
X041030Y018012D02*
X019646Y018012D01*
X019744Y017914D02*
X041030Y017914D01*
X041030Y016436D02*
X039989Y016436D01*
X040226Y016338D02*
X041030Y016338D01*
X041030Y016239D02*
X040355Y016239D01*
X040454Y016141D02*
X041030Y016141D01*
X041030Y016042D02*
X040537Y016042D01*
X040578Y015944D02*
X041030Y015944D01*
X041030Y015845D02*
X040618Y015845D01*
X040659Y015747D02*
X041030Y015747D01*
X041030Y015648D02*
X040660Y015648D01*
X040660Y015550D02*
X041030Y015550D01*
X041030Y015451D02*
X040660Y015451D01*
X040642Y015353D02*
X041030Y015353D01*
X041030Y015254D02*
X040602Y015254D01*
X040561Y015156D02*
X041030Y015156D01*
X041030Y015057D02*
X040511Y015057D01*
X040413Y014959D02*
X041030Y014959D01*
X041030Y014860D02*
X040314Y014860D01*
X040128Y014762D02*
X041030Y014762D01*
X041030Y013284D02*
X035364Y013284D01*
X035475Y013186D02*
X041030Y013186D01*
X041030Y013087D02*
X035510Y013087D01*
X035506Y012989D02*
X041030Y012989D01*
X041030Y012890D02*
X035458Y012890D01*
X035390Y012792D02*
X041030Y012792D01*
X041030Y012693D02*
X035390Y012693D01*
X035390Y012595D02*
X038728Y012595D01*
X038695Y012581D02*
X038609Y012495D01*
X038562Y012381D01*
X038562Y012259D01*
X038609Y012145D01*
X038695Y012059D01*
X038755Y012034D01*
X038702Y011982D01*
X038640Y011832D01*
X038640Y011068D01*
X038702Y010918D01*
X038818Y010802D01*
X038968Y010740D01*
X039132Y010740D01*
X039282Y010802D01*
X039398Y010918D01*
X039460Y011068D01*
X039460Y011832D01*
X039398Y011982D01*
X039282Y012098D01*
X039136Y012158D01*
X039178Y012259D01*
X039178Y012381D01*
X039131Y012495D01*
X039045Y012581D01*
X038931Y012628D01*
X038809Y012628D01*
X038695Y012581D01*
X038610Y012496D02*
X035390Y012496D01*
X035390Y012398D02*
X038569Y012398D01*
X038562Y012299D02*
X035390Y012299D01*
X035390Y012201D02*
X038586Y012201D01*
X038652Y012102D02*
X038272Y012102D01*
X038376Y012004D02*
X038724Y012004D01*
X038670Y011905D02*
X038430Y011905D01*
X038460Y011807D02*
X038640Y011807D01*
X038640Y011708D02*
X038460Y011708D01*
X038460Y011610D02*
X038640Y011610D01*
X038640Y011511D02*
X038460Y011511D01*
X038460Y011413D02*
X038640Y011413D01*
X038640Y011314D02*
X038460Y011314D01*
X038460Y011216D02*
X038640Y011216D01*
X038640Y011117D02*
X038460Y011117D01*
X038439Y011019D02*
X038661Y011019D01*
X038701Y010920D02*
X038399Y010920D01*
X038301Y010822D02*
X038799Y010822D01*
X039301Y010822D02*
X039799Y010822D01*
X039818Y010802D02*
X039968Y010740D01*
X040132Y010740D01*
X040282Y010802D01*
X040398Y010918D01*
X040460Y011068D01*
X040460Y011832D01*
X040398Y011982D01*
X040282Y012098D01*
X040132Y012160D01*
X039968Y012160D01*
X039818Y012098D01*
X039702Y011982D01*
X039640Y011832D01*
X039640Y011068D01*
X039702Y010918D01*
X039818Y010802D01*
X039701Y010920D02*
X039399Y010920D01*
X039439Y011019D02*
X039661Y011019D01*
X039640Y011117D02*
X039460Y011117D01*
X039460Y011216D02*
X039640Y011216D01*
X039640Y011314D02*
X039460Y011314D01*
X039460Y011413D02*
X039640Y011413D01*
X039640Y011511D02*
X039460Y011511D01*
X039460Y011610D02*
X039640Y011610D01*
X039640Y011708D02*
X039460Y011708D01*
X039460Y011807D02*
X039640Y011807D01*
X039670Y011905D02*
X039430Y011905D01*
X039376Y012004D02*
X039724Y012004D01*
X039828Y012102D02*
X039272Y012102D01*
X039154Y012201D02*
X041030Y012201D01*
X041030Y012299D02*
X039178Y012299D01*
X039171Y012398D02*
X041030Y012398D01*
X041030Y012496D02*
X039130Y012496D01*
X039012Y012595D02*
X041030Y012595D01*
X041030Y012102D02*
X040272Y012102D01*
X040376Y012004D02*
X041030Y012004D01*
X041030Y011905D02*
X040430Y011905D01*
X040460Y011807D02*
X041030Y011807D01*
X041030Y011708D02*
X040460Y011708D01*
X040460Y011610D02*
X041030Y011610D01*
X041030Y011511D02*
X040460Y011511D01*
X040460Y011413D02*
X041030Y011413D01*
X041030Y011314D02*
X040460Y011314D01*
X040460Y011216D02*
X041030Y011216D01*
X041030Y011117D02*
X040460Y011117D01*
X040439Y011019D02*
X041030Y011019D01*
X041030Y010920D02*
X040399Y010920D01*
X040301Y010822D02*
X041030Y010822D01*
X037640Y011216D02*
X035390Y011216D01*
X035390Y011314D02*
X037640Y011314D01*
X037640Y011413D02*
X035390Y011413D01*
X035390Y011511D02*
X037640Y011511D01*
X037640Y011610D02*
X035390Y011610D01*
X035390Y011708D02*
X037640Y011708D01*
X037640Y011807D02*
X035390Y011807D01*
X035390Y011905D02*
X037670Y011905D01*
X037724Y012004D02*
X035390Y012004D01*
X035390Y012102D02*
X037828Y012102D01*
X034505Y011413D02*
X034448Y011413D01*
X034432Y011314D02*
X034395Y011314D01*
X034395Y011216D02*
X034410Y011216D01*
X034427Y011117D02*
X034332Y011117D01*
X031283Y012398D02*
X030522Y012398D01*
X030770Y012496D02*
X031289Y012496D01*
X030041Y013186D02*
X034285Y013186D01*
X034285Y013284D02*
X030302Y013284D01*
X030359Y013383D02*
X034285Y013383D01*
X034285Y013481D02*
X030370Y013481D01*
X030342Y013580D02*
X034285Y013580D01*
X034285Y013678D02*
X030260Y013678D01*
X029960Y013678D02*
X024450Y013678D01*
X024450Y013580D02*
X029878Y013580D01*
X029850Y013481D02*
X024450Y013481D01*
X024450Y013383D02*
X029827Y013383D01*
X029845Y013400D02*
X029845Y013400D01*
X029729Y013284D02*
X024450Y013284D01*
X024450Y013186D02*
X029630Y013186D01*
X029605Y013087D02*
X024979Y013087D01*
X024861Y013087D02*
X024450Y013087D01*
X024450Y012989D02*
X024711Y012989D01*
X024663Y012890D02*
X024450Y012890D01*
X024450Y012792D02*
X024660Y012792D01*
X024695Y012693D02*
X024450Y012693D01*
X024450Y012595D02*
X024809Y012595D01*
X025031Y012595D02*
X025140Y012595D01*
X025170Y012496D02*
X024450Y012496D01*
X024450Y012398D02*
X025258Y012398D01*
X025542Y012398D02*
X026077Y012398D01*
X026176Y012299D02*
X024450Y012299D01*
X024450Y012201D02*
X026274Y012201D01*
X026282Y012004D02*
X026375Y012004D01*
X027128Y011610D02*
X027423Y011610D01*
X028734Y012496D02*
X028979Y012496D01*
X029964Y012989D02*
X034285Y012989D01*
X034285Y013087D02*
X029942Y013087D01*
X029632Y013740D02*
X029468Y013740D01*
X029318Y013802D01*
X029202Y013918D01*
X029140Y014068D01*
X029140Y014832D01*
X029202Y014982D01*
X029318Y015098D01*
X029468Y015160D01*
X029632Y015160D01*
X029782Y015098D01*
X029898Y014982D01*
X029960Y014832D01*
X029960Y014068D01*
X029898Y013918D01*
X029782Y013802D01*
X029632Y013740D01*
X029720Y013777D02*
X034285Y013777D01*
X034285Y013875D02*
X029855Y013875D01*
X029921Y013974D02*
X034285Y013974D01*
X034285Y014072D02*
X029960Y014072D01*
X029960Y014171D02*
X034285Y014171D01*
X034285Y014269D02*
X029960Y014269D01*
X029960Y014368D02*
X034285Y014368D01*
X034285Y014466D02*
X029960Y014466D01*
X029960Y014565D02*
X034285Y014565D01*
X034285Y014663D02*
X029960Y014663D01*
X029960Y014762D02*
X034285Y014762D01*
X034285Y014860D02*
X029948Y014860D01*
X029907Y014959D02*
X034285Y014959D01*
X034285Y015057D02*
X029823Y015057D01*
X029642Y015156D02*
X034285Y015156D01*
X034285Y015254D02*
X027630Y015254D01*
X027630Y015353D02*
X034285Y015353D01*
X034285Y015451D02*
X027630Y015451D01*
X027630Y015550D02*
X034285Y015550D01*
X034285Y015648D02*
X027630Y015648D01*
X027630Y015747D02*
X034285Y015747D01*
X034285Y015845D02*
X027630Y015845D01*
X027630Y015944D02*
X034285Y015944D01*
X034210Y016042D02*
X027630Y016042D01*
X027630Y016141D02*
X034170Y016141D01*
X034170Y016239D02*
X027630Y016239D01*
X027630Y016338D02*
X034210Y016338D01*
X031189Y016633D02*
X026254Y016633D01*
X026999Y016732D02*
X031170Y016732D01*
X031125Y016830D02*
X027082Y016830D01*
X027110Y016929D02*
X031026Y016929D01*
X030928Y017027D02*
X027100Y017027D01*
X027042Y017126D02*
X030829Y017126D01*
X030731Y017224D02*
X025874Y017224D01*
X026201Y017126D02*
X026658Y017126D01*
X026600Y017027D02*
X026254Y017027D01*
X025667Y016535D02*
X025530Y016535D01*
X025697Y016436D02*
X025766Y016436D01*
X025742Y016338D02*
X027350Y016338D01*
X027350Y016239D02*
X025742Y016239D01*
X025742Y016141D02*
X027350Y016141D01*
X027350Y016042D02*
X025742Y016042D01*
X025742Y015944D02*
X027350Y015944D01*
X027350Y015845D02*
X025742Y015845D01*
X025742Y015747D02*
X027350Y015747D01*
X027350Y015648D02*
X025681Y015648D01*
X025071Y015648D02*
X024630Y015648D01*
X024630Y015550D02*
X027350Y015550D01*
X027350Y015451D02*
X024630Y015451D01*
X024630Y015353D02*
X027350Y015353D01*
X027350Y015254D02*
X024630Y015254D01*
X024642Y015156D02*
X026458Y015156D01*
X026468Y015160D02*
X026318Y015098D01*
X026202Y014982D01*
X026140Y014832D01*
X026140Y014068D01*
X026202Y013918D01*
X026318Y013802D01*
X026468Y013740D01*
X026632Y013740D01*
X026782Y013802D01*
X026898Y013918D01*
X026960Y014068D01*
X026960Y014832D01*
X026898Y014982D01*
X026782Y015098D01*
X026632Y015160D01*
X026468Y015160D01*
X026642Y015156D02*
X027350Y015156D01*
X027277Y015057D02*
X026823Y015057D01*
X026907Y014959D02*
X027193Y014959D01*
X027152Y014860D02*
X026948Y014860D01*
X026960Y014762D02*
X027140Y014762D01*
X027140Y014663D02*
X026960Y014663D01*
X026960Y014565D02*
X027140Y014565D01*
X027140Y014466D02*
X026960Y014466D01*
X026960Y014368D02*
X027140Y014368D01*
X027140Y014269D02*
X026960Y014269D01*
X026960Y014171D02*
X027140Y014171D01*
X027140Y014072D02*
X026960Y014072D01*
X026921Y013974D02*
X027179Y013974D01*
X027245Y013875D02*
X026855Y013875D01*
X026720Y013777D02*
X027380Y013777D01*
X027720Y013777D02*
X028380Y013777D01*
X028318Y013802D02*
X028468Y013740D01*
X028632Y013740D01*
X028782Y013802D01*
X028898Y013918D01*
X028960Y014068D01*
X028960Y014832D01*
X028898Y014982D01*
X028782Y015098D01*
X028632Y015160D01*
X028468Y015160D01*
X028318Y015098D01*
X028202Y014982D01*
X028140Y014832D01*
X028140Y014068D01*
X028202Y013918D01*
X028318Y013802D01*
X028245Y013875D02*
X027855Y013875D01*
X027921Y013974D02*
X028179Y013974D01*
X028140Y014072D02*
X027960Y014072D01*
X027960Y014171D02*
X028140Y014171D01*
X028140Y014269D02*
X027960Y014269D01*
X027960Y014368D02*
X028140Y014368D01*
X028140Y014466D02*
X027960Y014466D01*
X027960Y014565D02*
X028140Y014565D01*
X028140Y014663D02*
X027960Y014663D01*
X027960Y014762D02*
X028140Y014762D01*
X028152Y014860D02*
X027948Y014860D01*
X027907Y014959D02*
X028193Y014959D01*
X028277Y015057D02*
X027823Y015057D01*
X027642Y015156D02*
X028458Y015156D01*
X028642Y015156D02*
X029458Y015156D01*
X029277Y015057D02*
X028823Y015057D01*
X028907Y014959D02*
X029193Y014959D01*
X029152Y014860D02*
X028948Y014860D01*
X028960Y014762D02*
X029140Y014762D01*
X029140Y014663D02*
X028960Y014663D01*
X028960Y014565D02*
X029140Y014565D01*
X029140Y014466D02*
X028960Y014466D01*
X028960Y014368D02*
X029140Y014368D01*
X029140Y014269D02*
X028960Y014269D01*
X028960Y014171D02*
X029140Y014171D01*
X029140Y014072D02*
X028960Y014072D01*
X028921Y013974D02*
X029179Y013974D01*
X029245Y013875D02*
X028855Y013875D01*
X028720Y013777D02*
X029380Y013777D01*
X026380Y013777D02*
X024720Y013777D01*
X024855Y013875D02*
X026245Y013875D01*
X026179Y013974D02*
X024921Y013974D01*
X024960Y014072D02*
X026140Y014072D01*
X026140Y014171D02*
X024960Y014171D01*
X024960Y014269D02*
X026140Y014269D01*
X026140Y014368D02*
X024960Y014368D01*
X024960Y014466D02*
X026140Y014466D01*
X026140Y014565D02*
X024960Y014565D01*
X024960Y014663D02*
X026140Y014663D01*
X026140Y014762D02*
X024960Y014762D01*
X024948Y014860D02*
X026152Y014860D01*
X026193Y014959D02*
X024907Y014959D01*
X024823Y015057D02*
X026277Y015057D01*
X025010Y015747D02*
X024575Y015747D01*
X024575Y015845D02*
X025010Y015845D01*
X025010Y015944D02*
X024575Y015944D01*
X024575Y016042D02*
X025010Y016042D01*
X025010Y016141D02*
X024575Y016141D01*
X024562Y016239D02*
X025010Y016239D01*
X025010Y016338D02*
X024575Y016338D01*
X023738Y016239D02*
X023357Y016239D01*
X023259Y016141D02*
X023725Y016141D01*
X023725Y016042D02*
X023160Y016042D01*
X023062Y015944D02*
X023725Y015944D01*
X023725Y015845D02*
X022963Y015845D01*
X022865Y015747D02*
X023725Y015747D01*
X023751Y015648D02*
X022766Y015648D01*
X022668Y015550D02*
X024350Y015550D01*
X024350Y015451D02*
X022569Y015451D01*
X022471Y015353D02*
X024350Y015353D01*
X024350Y015254D02*
X022372Y015254D01*
X022274Y015156D02*
X024350Y015156D01*
X024277Y015057D02*
X022190Y015057D01*
X022190Y014959D02*
X024193Y014959D01*
X024152Y014860D02*
X022190Y014860D01*
X022190Y014762D02*
X024140Y014762D01*
X024140Y014663D02*
X022190Y014663D01*
X022190Y014565D02*
X024140Y014565D01*
X024140Y014466D02*
X022375Y014466D01*
X022375Y014368D02*
X023600Y014368D01*
X023900Y014368D02*
X024140Y014368D01*
X024140Y014269D02*
X023982Y014269D01*
X024010Y014171D02*
X024140Y014171D01*
X024140Y014072D02*
X023999Y014072D01*
X023941Y013974D02*
X024179Y013974D01*
X024197Y013875D02*
X022375Y013875D01*
X022375Y013974D02*
X023559Y013974D01*
X023250Y013580D02*
X024170Y013580D01*
X024170Y013678D02*
X021478Y013678D01*
X021510Y013580D02*
X022112Y013580D01*
X022058Y013481D02*
X021503Y013481D01*
X021450Y013383D02*
X022050Y013383D01*
X022081Y013284D02*
X020876Y013284D01*
X020910Y013186D02*
X022173Y013186D01*
X022310Y013087D02*
X020905Y013087D01*
X020856Y012989D02*
X021661Y012989D01*
X021050Y013383D02*
X020790Y013383D01*
X020790Y013481D02*
X020997Y013481D01*
X020990Y013580D02*
X020790Y013580D01*
X020790Y013678D02*
X021022Y013678D01*
X020510Y013678D02*
X020478Y013678D01*
X020510Y013580D02*
X020510Y013580D01*
X020503Y013481D02*
X020510Y013481D01*
X020510Y013383D02*
X020450Y013383D01*
X020598Y012890D02*
X020702Y012890D01*
X019730Y012792D02*
X019630Y012792D01*
X019630Y012890D02*
X019710Y012890D01*
X019710Y012989D02*
X019630Y012989D01*
X019630Y013087D02*
X019710Y013087D01*
X019710Y013186D02*
X019630Y013186D01*
X019630Y013284D02*
X019710Y013284D01*
X019710Y013383D02*
X019630Y013383D01*
X019630Y013481D02*
X019710Y013481D01*
X019710Y013580D02*
X019630Y013580D01*
X019630Y013678D02*
X019710Y013678D01*
X019350Y013678D02*
X016880Y013678D01*
X017250Y013580D02*
X019350Y013580D01*
X019350Y013481D02*
X017250Y013481D01*
X017250Y013383D02*
X017332Y013383D01*
X017568Y013383D02*
X019350Y013383D01*
X019350Y013284D02*
X017676Y013284D01*
X017710Y013186D02*
X019350Y013186D01*
X019350Y013087D02*
X017705Y013087D01*
X017656Y012989D02*
X019350Y012989D01*
X018343Y013777D02*
X018207Y013777D01*
X018245Y013875D02*
X018305Y013875D01*
X018305Y013974D02*
X018245Y013974D01*
X017363Y013777D02*
X014421Y013777D01*
X014323Y013875D02*
X017325Y013875D01*
X017325Y013974D02*
X014224Y013974D01*
X014199Y014072D02*
X016730Y014072D01*
X016710Y014171D02*
X014210Y014171D01*
X014182Y014269D02*
X016710Y014269D01*
X016710Y014368D02*
X014100Y014368D01*
X013800Y014368D02*
X013790Y014368D01*
X013790Y014466D02*
X016710Y014466D01*
X016710Y014565D02*
X013790Y014565D01*
X013310Y014072D02*
X008250Y014072D01*
X008306Y013974D02*
X008794Y013974D01*
X008699Y013875D02*
X008401Y013875D01*
X008441Y013777D02*
X008659Y013777D01*
X008640Y013678D02*
X008460Y013678D01*
X008460Y013580D02*
X008640Y013580D01*
X008640Y013481D02*
X008460Y013481D01*
X008460Y013383D02*
X008640Y013383D01*
X008640Y013284D02*
X008460Y013284D01*
X008460Y013186D02*
X008640Y013186D01*
X008640Y013087D02*
X008460Y013087D01*
X008460Y012989D02*
X008640Y012989D01*
X008672Y012890D02*
X008428Y012890D01*
X008371Y012792D02*
X008729Y012792D01*
X008840Y012693D02*
X008260Y012693D01*
X007970Y014368D02*
X003508Y014368D01*
X003478Y014466D02*
X007970Y014466D01*
X007970Y014565D02*
X003479Y014565D01*
X003481Y014663D02*
X007970Y014663D01*
X007970Y014762D02*
X003482Y014762D01*
X003483Y014860D02*
X007970Y014860D01*
X007970Y014959D02*
X003485Y014959D01*
X003486Y015057D02*
X007970Y015057D01*
X007970Y015156D02*
X003487Y015156D01*
X003489Y015254D02*
X007970Y015254D01*
X007970Y015353D02*
X003495Y015353D01*
X003530Y015451D02*
X007970Y015451D01*
X007970Y015550D02*
X003566Y015550D01*
X003602Y015648D02*
X007970Y015648D01*
X007970Y015747D02*
X003638Y015747D01*
X003674Y015845D02*
X007970Y015845D01*
X007970Y015944D02*
X003710Y015944D01*
X003746Y016042D02*
X007970Y016042D01*
X007970Y016141D02*
X003781Y016141D01*
X003817Y016239D02*
X007970Y016239D01*
X007970Y016338D02*
X003853Y016338D01*
X003889Y016436D02*
X007970Y016436D01*
X007970Y016535D02*
X003925Y016535D01*
X003961Y016633D02*
X007970Y016633D01*
X007970Y016732D02*
X003997Y016732D01*
X004033Y016830D02*
X007970Y016830D01*
X007970Y016929D02*
X004068Y016929D01*
X004104Y017027D02*
X007970Y017027D01*
X007970Y017126D02*
X004140Y017126D01*
X004176Y017224D02*
X007970Y017224D01*
X007970Y017323D02*
X004212Y017323D01*
X004248Y017421D02*
X007970Y017421D01*
X007970Y017520D02*
X004284Y017520D01*
X004319Y017618D02*
X007970Y017618D01*
X007970Y017717D02*
X004355Y017717D01*
X004391Y017815D02*
X007970Y017815D01*
X007970Y017914D02*
X004427Y017914D01*
X004463Y018012D02*
X007970Y018012D01*
X007970Y018111D02*
X004499Y018111D01*
X004535Y018209D02*
X007970Y018209D01*
X008050Y018308D02*
X004570Y018308D01*
X003947Y012693D02*
X003453Y012693D01*
X003452Y012595D02*
X003878Y012595D01*
X003852Y012496D02*
X003450Y012496D01*
X003449Y012398D02*
X003857Y012398D01*
X003890Y012299D02*
X003448Y012299D01*
X003446Y012201D02*
X003890Y012201D01*
X003890Y012102D02*
X003445Y012102D01*
X003443Y012004D02*
X003890Y012004D01*
X003890Y011905D02*
X003442Y011905D01*
X003441Y011807D02*
X003890Y011807D01*
X015490Y008556D02*
X015598Y008556D01*
X015547Y008458D02*
X015490Y008458D01*
X015490Y008359D02*
X015540Y008359D01*
X017215Y008655D02*
X018930Y008655D01*
X018879Y008753D02*
X017250Y008753D01*
X017250Y008852D02*
X018809Y008852D01*
X018790Y008950D02*
X017191Y008950D01*
X017219Y009049D02*
X018809Y009049D01*
X018879Y009147D02*
X017795Y009147D01*
X017868Y009246D02*
X020868Y009246D01*
X020770Y009344D02*
X017890Y009344D01*
X017873Y009443D02*
X020671Y009443D01*
X020573Y009541D02*
X017807Y009541D01*
X017538Y009640D02*
X020474Y009640D01*
X020436Y009738D02*
X017569Y009738D01*
X017676Y009837D02*
X020337Y009837D01*
X020239Y009935D02*
X017710Y009935D01*
X017705Y010034D02*
X020140Y010034D01*
X020042Y010132D02*
X017656Y010132D01*
X017250Y010231D02*
X019943Y010231D01*
X019845Y010329D02*
X017250Y010329D01*
X017250Y010428D02*
X019746Y010428D01*
X019648Y010526D02*
X017250Y010526D01*
X017250Y010625D02*
X019549Y010625D01*
X019451Y010723D02*
X017250Y010723D01*
X017250Y010822D02*
X019352Y010822D01*
X019254Y010920D02*
X017574Y010920D01*
X017677Y011019D02*
X019155Y011019D01*
X019057Y011117D02*
X017710Y011117D01*
X017704Y011216D02*
X018958Y011216D01*
X018860Y011314D02*
X017654Y011314D01*
X017756Y011413D02*
X018761Y011413D01*
X018663Y011511D02*
X017874Y011511D01*
X017910Y011610D02*
X018564Y011610D01*
X018466Y011708D02*
X017907Y011708D01*
X017861Y011807D02*
X018367Y011807D01*
X018269Y011905D02*
X017714Y011905D01*
X017586Y011905D02*
X017501Y011905D01*
X017439Y011807D02*
X017403Y011807D01*
X017393Y011708D02*
X017250Y011708D01*
X017600Y012004D02*
X018170Y012004D01*
X017443Y012299D02*
X017250Y012299D01*
X017250Y012201D02*
X017344Y012201D01*
X017398Y012890D02*
X017502Y012890D01*
X019728Y011610D02*
X021880Y011610D01*
X022232Y011216D02*
X022450Y011216D01*
X023250Y010625D02*
X023327Y010625D01*
X023250Y010526D02*
X023567Y010526D01*
X023540Y010428D02*
X023350Y010428D01*
X023370Y010329D02*
X023552Y010329D01*
X023612Y010231D02*
X023427Y010231D01*
X023526Y010132D02*
X023780Y010132D01*
X023780Y010034D02*
X023530Y010034D01*
X023530Y009935D02*
X023780Y009935D01*
X023780Y009837D02*
X023530Y009837D01*
X023530Y009738D02*
X023780Y009738D01*
X023780Y009640D02*
X023530Y009640D01*
X023530Y009541D02*
X023780Y009541D01*
X023780Y009443D02*
X023530Y009443D01*
X023530Y009344D02*
X023780Y009344D01*
X023780Y009246D02*
X023530Y009246D01*
X023530Y009147D02*
X023780Y009147D01*
X023780Y009049D02*
X023530Y009049D01*
X023530Y008950D02*
X023780Y008950D01*
X023780Y008852D02*
X023530Y008852D01*
X023530Y008753D02*
X023780Y008753D01*
X023780Y008655D02*
X023530Y008655D01*
X023530Y008556D02*
X023780Y008556D01*
X023780Y008458D02*
X023530Y008458D01*
X023530Y008359D02*
X023780Y008359D01*
X023780Y008261D02*
X023530Y008261D01*
X023530Y008162D02*
X023780Y008162D01*
X023780Y008064D02*
X023530Y008064D01*
X023530Y007965D02*
X023780Y007965D01*
X023780Y007867D02*
X023530Y007867D01*
X023530Y007768D02*
X023780Y007768D01*
X023782Y007670D02*
X023530Y007670D01*
X023530Y007571D02*
X023881Y007571D01*
X023979Y007473D02*
X023530Y007473D01*
X023530Y007374D02*
X024078Y007374D01*
X024176Y007276D02*
X023530Y007276D01*
X023530Y007177D02*
X024275Y007177D01*
X024373Y007079D02*
X023530Y007079D01*
X023250Y007079D02*
X022990Y007079D01*
X022990Y007177D02*
X023250Y007177D01*
X023250Y007276D02*
X022990Y007276D01*
X022990Y007374D02*
X023250Y007374D01*
X023250Y007473D02*
X022990Y007473D01*
X022990Y007571D02*
X023250Y007571D01*
X023250Y007670D02*
X022990Y007670D01*
X022990Y007768D02*
X023250Y007768D01*
X023250Y007867D02*
X022990Y007867D01*
X022990Y007965D02*
X023250Y007965D01*
X023250Y008064D02*
X022990Y008064D01*
X022990Y008162D02*
X023250Y008162D01*
X023250Y008261D02*
X023010Y008261D01*
X023030Y008359D02*
X023250Y008359D01*
X023250Y008458D02*
X023015Y008458D01*
X022952Y008556D02*
X023250Y008556D01*
X023250Y008655D02*
X023215Y008655D01*
X023250Y008753D02*
X023250Y008753D01*
X023250Y008852D02*
X023250Y008852D01*
X023250Y008950D02*
X023250Y008950D01*
X023250Y009049D02*
X023250Y009049D01*
X023250Y009147D02*
X023250Y009147D01*
X023250Y009246D02*
X023250Y009246D01*
X023250Y009344D02*
X023250Y009344D01*
X023250Y009443D02*
X023250Y009443D01*
X023250Y009541D02*
X023250Y009541D01*
X023250Y009640D02*
X023250Y009640D01*
X023250Y009738D02*
X023250Y009738D01*
X023250Y009837D02*
X023250Y009837D01*
X023250Y009935D02*
X023250Y009935D01*
X023250Y010012D02*
X023250Y010012D01*
X025169Y009147D02*
X026240Y009147D01*
X026240Y009049D02*
X025217Y009049D01*
X025523Y008350D02*
X025618Y008390D01*
X025722Y008390D01*
X025817Y008350D01*
X025890Y008277D01*
X025930Y008182D01*
X025930Y008078D01*
X025890Y007983D01*
X025817Y007910D01*
X025722Y007870D01*
X025618Y007870D01*
X025523Y007910D01*
X025450Y007983D01*
X025447Y007990D01*
X024793Y007990D01*
X024790Y007983D01*
X024717Y007910D01*
X024622Y007870D01*
X024518Y007870D01*
X024423Y007910D01*
X024350Y007983D01*
X024310Y008078D01*
X024310Y008182D01*
X024350Y008277D01*
X024423Y008350D01*
X024518Y008390D01*
X024622Y008390D01*
X024717Y008350D01*
X024790Y008277D01*
X024793Y008270D01*
X025447Y008270D01*
X025450Y008277D01*
X025523Y008350D01*
X025543Y008359D02*
X024697Y008359D01*
X024443Y008359D02*
X024300Y008359D01*
X024300Y008261D02*
X024343Y008261D01*
X024310Y008162D02*
X024300Y008162D01*
X024300Y008064D02*
X024316Y008064D01*
X024300Y007965D02*
X024367Y007965D01*
X024300Y007867D02*
X026240Y007867D01*
X026240Y007965D02*
X025873Y007965D01*
X025924Y008064D02*
X026240Y008064D01*
X026240Y008162D02*
X025930Y008162D01*
X025897Y008261D02*
X026240Y008261D01*
X026240Y008359D02*
X025797Y008359D01*
X026240Y008458D02*
X024300Y008458D01*
X024300Y008556D02*
X026240Y008556D01*
X025467Y007965D02*
X024773Y007965D01*
X024340Y007768D02*
X026240Y007768D01*
X026240Y007670D02*
X024438Y007670D01*
X024537Y007571D02*
X026240Y007571D01*
X026240Y007473D02*
X024635Y007473D01*
X024734Y007374D02*
X026240Y007374D01*
X026240Y007276D02*
X024832Y007276D01*
X024931Y007177D02*
X026240Y007177D01*
X026240Y007079D02*
X025029Y007079D01*
X025128Y006980D02*
X026240Y006980D01*
X026192Y006882D02*
X025568Y006882D01*
X025667Y006783D02*
X026093Y006783D01*
X025995Y006685D02*
X025765Y006685D01*
X025790Y006586D02*
X025970Y006586D01*
X025970Y006488D02*
X025790Y006488D01*
X025790Y006389D02*
X025970Y006389D01*
X026000Y006291D02*
X025760Y006291D01*
X025662Y006192D02*
X026098Y006192D01*
X026197Y006094D02*
X025563Y006094D01*
X025553Y005897D02*
X026207Y005897D01*
X026108Y005798D02*
X025652Y005798D01*
X025750Y005700D02*
X026010Y005700D01*
X025970Y005601D02*
X025790Y005601D01*
X025790Y005503D02*
X025970Y005503D01*
X025970Y005404D02*
X025790Y005404D01*
X025775Y005306D02*
X025985Y005306D01*
X026083Y005207D02*
X025677Y005207D01*
X026550Y005010D02*
X028210Y005010D01*
X028210Y004912D02*
X026550Y004912D01*
X026550Y004813D02*
X028210Y004813D01*
X028210Y004715D02*
X026550Y004715D01*
X026550Y004616D02*
X028190Y004616D01*
X028159Y004518D02*
X026550Y004518D01*
X026550Y004419D02*
X028128Y004419D01*
X028097Y004321D02*
X026550Y004321D01*
X026550Y004222D02*
X028065Y004222D01*
X028034Y004124D02*
X026550Y004124D01*
X026550Y004025D02*
X028003Y004025D01*
X027972Y003927D02*
X026550Y003927D01*
X026558Y003828D02*
X027941Y003828D01*
X027909Y003730D02*
X026788Y003730D01*
X026848Y003631D02*
X027878Y003631D01*
X027847Y003533D02*
X026860Y003533D01*
X026833Y003434D02*
X027816Y003434D01*
X027785Y003336D02*
X026753Y003336D01*
X027568Y003040D02*
X024520Y003040D01*
X024520Y002942D02*
X027540Y002942D01*
X027550Y002843D02*
X024520Y002843D01*
X024520Y002745D02*
X027608Y002745D01*
X027651Y003139D02*
X024520Y003139D01*
X024520Y003237D02*
X027754Y003237D01*
X028141Y003533D02*
X039098Y003533D01*
X039197Y003631D02*
X028172Y003631D01*
X028203Y003730D02*
X039427Y003730D01*
X039973Y003730D02*
X041030Y003730D01*
X041030Y003828D02*
X028234Y003828D01*
X028266Y003927D02*
X041030Y003927D01*
X041030Y004025D02*
X028297Y004025D01*
X028328Y004124D02*
X041030Y004124D01*
X041030Y004222D02*
X028359Y004222D01*
X028390Y004321D02*
X041030Y004321D01*
X041030Y004419D02*
X028422Y004419D01*
X028453Y004518D02*
X041030Y004518D01*
X041030Y004616D02*
X028492Y004616D01*
X028182Y005109D02*
X027578Y005109D01*
X027677Y005207D02*
X028083Y005207D01*
X027985Y005306D02*
X027775Y005306D01*
X027790Y005404D02*
X027970Y005404D01*
X027970Y005503D02*
X027790Y005503D01*
X027790Y005601D02*
X027970Y005601D01*
X028010Y005700D02*
X027750Y005700D01*
X027652Y005798D02*
X028108Y005798D01*
X028207Y005897D02*
X027553Y005897D01*
X027563Y006094D02*
X028197Y006094D01*
X028098Y006192D02*
X027662Y006192D01*
X027760Y006291D02*
X028000Y006291D01*
X027970Y006389D02*
X027790Y006389D01*
X027790Y006488D02*
X027970Y006488D01*
X027970Y006586D02*
X027790Y006586D01*
X027765Y006685D02*
X027995Y006685D01*
X028093Y006783D02*
X027667Y006783D01*
X027568Y006882D02*
X028192Y006882D01*
X028210Y006980D02*
X027520Y006980D01*
X027520Y007079D02*
X028210Y007079D01*
X028210Y007177D02*
X027520Y007177D01*
X027520Y007276D02*
X028210Y007276D01*
X028210Y007374D02*
X027520Y007374D01*
X027520Y007473D02*
X028210Y007473D01*
X028210Y007571D02*
X027520Y007571D01*
X027520Y007670D02*
X028210Y007670D01*
X028210Y007768D02*
X027520Y007768D01*
X027520Y007867D02*
X028210Y007867D01*
X028210Y007965D02*
X027520Y007965D01*
X027520Y008064D02*
X028210Y008064D01*
X028210Y008162D02*
X027520Y008162D01*
X023250Y006980D02*
X022990Y006980D01*
X023077Y006882D02*
X023250Y006882D01*
X023250Y006783D02*
X023110Y006783D01*
X023104Y006685D02*
X023250Y006685D01*
X023250Y006586D02*
X023054Y006586D01*
X022311Y007750D02*
X020929Y007750D01*
X020865Y007814D01*
X020865Y008486D01*
X020929Y008550D01*
X021129Y008550D01*
X022311Y008550D01*
X022375Y008486D01*
X022375Y007814D01*
X022311Y007750D01*
X022329Y007768D02*
X022390Y007768D01*
X022390Y007867D02*
X022375Y007867D01*
X022375Y007965D02*
X022390Y007965D01*
X022390Y008064D02*
X022375Y008064D01*
X022375Y008162D02*
X022390Y008162D01*
X022390Y008261D02*
X022375Y008261D01*
X022375Y008359D02*
X022390Y008359D01*
X022390Y008458D02*
X022375Y008458D01*
X022386Y008556D02*
X020770Y008556D01*
X020770Y008655D02*
X022330Y008655D01*
X022330Y008753D02*
X020821Y008753D01*
X020805Y008458D02*
X020865Y008458D01*
X020865Y008359D02*
X020805Y008359D01*
X020805Y008261D02*
X020865Y008261D01*
X020865Y008162D02*
X020805Y008162D01*
X020805Y008064D02*
X020865Y008064D01*
X020865Y007965D02*
X020805Y007965D01*
X020805Y007867D02*
X020865Y007867D01*
X020911Y007768D02*
X020759Y007768D01*
X017465Y009147D02*
X017250Y009147D01*
X017250Y009246D02*
X017392Y009246D01*
X017370Y009344D02*
X017250Y009344D01*
X017250Y009443D02*
X017339Y009443D01*
X017326Y010920D02*
X017250Y010920D01*
X017246Y011314D02*
X017187Y011314D01*
X017511Y011413D02*
X017544Y011413D01*
X022337Y013777D02*
X024170Y013777D01*
X024170Y013481D02*
X023250Y013481D01*
X023250Y013383D02*
X024170Y013383D01*
X024170Y013284D02*
X023250Y013284D01*
X023250Y013186D02*
X024170Y013186D01*
X024170Y013087D02*
X024049Y013087D01*
X023931Y013087D02*
X023250Y013087D01*
X023250Y012989D02*
X023493Y012989D01*
X023395Y012890D02*
X023250Y012890D01*
X023250Y012792D02*
X023296Y012792D01*
X021616Y015254D02*
X021597Y015254D01*
X021657Y015353D02*
X021715Y015353D01*
X021657Y015451D02*
X021810Y015451D01*
X021810Y015550D02*
X021657Y015550D01*
X021657Y015648D02*
X021810Y015648D01*
X021810Y015747D02*
X021657Y015747D01*
X021611Y015845D02*
X021810Y015845D01*
X022090Y015845D02*
X022567Y015845D01*
X022469Y015747D02*
X022090Y015747D01*
X022090Y015648D02*
X022370Y015648D01*
X022272Y015550D02*
X022090Y015550D01*
X022090Y015451D02*
X022173Y015451D01*
X022090Y015944D02*
X022666Y015944D01*
X022764Y016042D02*
X022090Y016042D01*
X022090Y016141D02*
X022863Y016141D01*
X022961Y016239D02*
X022090Y016239D01*
X022090Y016338D02*
X023060Y016338D01*
X023158Y016436D02*
X022090Y016436D01*
X022090Y016535D02*
X023257Y016535D01*
X023355Y016633D02*
X022090Y016633D01*
X022232Y016732D02*
X023454Y016732D01*
X023552Y016830D02*
X022290Y016830D01*
X022290Y016929D02*
X023651Y016929D01*
X023749Y017027D02*
X022290Y017027D01*
X022290Y017126D02*
X023848Y017126D01*
X023946Y017224D02*
X022290Y017224D01*
X022290Y017323D02*
X030685Y017323D01*
X030685Y017421D02*
X022290Y017421D01*
X021668Y016732D02*
X021632Y016732D01*
X021010Y017126D02*
X020888Y017126D01*
X023456Y016338D02*
X023725Y016338D01*
X023725Y016436D02*
X023554Y016436D01*
X023653Y016535D02*
X023725Y016535D01*
X030553Y005897D02*
X031307Y005897D01*
X027182Y005109D02*
X026578Y005109D01*
X022637Y004025D02*
X019526Y004025D01*
X022342Y003730D02*
X016402Y003730D01*
X016405Y003828D02*
X022440Y003828D01*
X022539Y003927D02*
X016405Y003927D01*
X017741Y001661D02*
X009153Y001661D01*
X009152Y001760D02*
X011753Y001760D01*
X011654Y001858D02*
X009151Y001858D01*
X009149Y001957D02*
X011556Y001957D01*
X011457Y002055D02*
X009148Y002055D01*
X009147Y002154D02*
X011359Y002154D01*
X011260Y002252D02*
X009145Y002252D01*
X009144Y002351D02*
X011162Y002351D01*
X011063Y002449D02*
X009143Y002449D01*
X009141Y002548D02*
X010965Y002548D01*
X010866Y002646D02*
X009140Y002646D01*
X009139Y002745D02*
X010768Y002745D01*
X010669Y002843D02*
X009137Y002843D01*
X009136Y002942D02*
X010571Y002942D01*
X010472Y003040D02*
X009135Y003040D01*
X009133Y003139D02*
X010374Y003139D01*
X010275Y003237D02*
X009132Y003237D01*
X009131Y003336D02*
X010177Y003336D01*
X010078Y003434D02*
X009129Y003434D01*
X009128Y003533D02*
X009980Y003533D01*
X009881Y003631D02*
X009127Y003631D01*
X009125Y003730D02*
X009783Y003730D01*
X009684Y003828D02*
X009124Y003828D01*
X009123Y003927D02*
X009586Y003927D01*
X009487Y004025D02*
X009121Y004025D01*
X009120Y004124D02*
X009389Y004124D01*
X009290Y004222D02*
X009119Y004222D01*
X009117Y004321D02*
X009192Y004321D01*
X010756Y004460D02*
X010756Y004816D01*
X010758Y004862D01*
X010764Y004907D01*
X010773Y004952D01*
X010786Y004996D01*
X010803Y005039D01*
X010823Y005080D01*
X010846Y005119D01*
X010873Y005156D01*
X010902Y005191D01*
X010935Y005224D01*
X010970Y005253D01*
X011007Y005280D01*
X011046Y005303D01*
X011087Y005323D01*
X011130Y005340D01*
X011174Y005353D01*
X011219Y005362D01*
X011264Y005368D01*
X011310Y005370D01*
X018139Y001661D02*
X041030Y001661D01*
X040995Y001563D02*
X009155Y001563D01*
X009156Y001464D02*
X040939Y001464D01*
X040884Y001366D02*
X009157Y001366D01*
X040208Y002154D02*
X041030Y002154D01*
X041030Y002252D02*
X040306Y002252D01*
X040405Y002351D02*
X041030Y002351D01*
X041030Y002449D02*
X040470Y002449D01*
X040511Y002548D02*
X041030Y002548D01*
X041030Y002646D02*
X040551Y002646D01*
X040580Y002745D02*
X041030Y002745D01*
X041030Y002843D02*
X040580Y002843D01*
X040580Y002942D02*
X041030Y002942D01*
X041030Y003040D02*
X040580Y003040D01*
X040549Y003139D02*
X041030Y003139D01*
X041030Y003237D02*
X040509Y003237D01*
X040468Y003336D02*
X041030Y003336D01*
X041030Y003434D02*
X040400Y003434D01*
X040302Y003533D02*
X041030Y003533D01*
X041030Y003631D02*
X040203Y003631D01*
D43*
X035670Y005870D03*
X036790Y007250D03*
X032910Y007770D03*
X031070Y008010D03*
X031670Y006750D03*
X032250Y009370D03*
X031070Y009890D03*
X030200Y010700D03*
X031670Y011190D03*
X028700Y011570D03*
X027590Y011810D03*
X026110Y011780D03*
X025630Y010970D03*
X024840Y010970D03*
X024670Y010430D03*
X024160Y010170D03*
X023800Y010410D03*
X023550Y011150D03*
X024020Y011790D03*
X023470Y011930D03*
X023690Y012560D03*
X023990Y012830D03*
X024920Y012830D03*
X025400Y012620D03*
X028550Y012680D03*
X030110Y013460D03*
X034670Y011210D03*
X035250Y013050D03*
X034430Y016190D03*
X031430Y016730D03*
X026850Y016950D03*
X023750Y014150D03*
X022310Y013410D03*
X021250Y013550D03*
X020650Y013150D03*
X020250Y013550D03*
X018250Y013650D03*
X017450Y013150D03*
X016350Y013250D03*
X013950Y014150D03*
X018350Y014750D03*
X020050Y014650D03*
X020590Y012030D03*
X021780Y011910D03*
X022250Y011350D03*
X022340Y010910D03*
X021700Y010760D03*
X021570Y009570D03*
X020650Y008950D03*
X019050Y008950D03*
X017630Y009350D03*
X017450Y009970D03*
X016250Y010250D03*
X015750Y010550D03*
X016050Y010850D03*
X016350Y011350D03*
X017450Y011150D03*
X017650Y011650D03*
X016090Y009470D03*
X015800Y008390D03*
X016760Y008270D03*
X018850Y007650D03*
X020850Y007650D03*
X022770Y008370D03*
X024570Y008130D03*
X025670Y008130D03*
X022850Y006750D03*
X023350Y006150D03*
X022450Y005950D03*
X020950Y004330D03*
X019390Y004250D03*
X021480Y002670D03*
X017940Y001830D03*
X012100Y002460D03*
X013800Y004860D03*
X013100Y005360D03*
X012500Y005060D03*
X012320Y005710D03*
X008900Y006360D03*
X008800Y005260D03*
X008640Y007670D03*
X009040Y007670D03*
X009440Y007670D03*
X009840Y007670D03*
X010240Y007670D03*
X010240Y008070D03*
X009840Y008070D03*
X009440Y008070D03*
X009040Y008070D03*
X008640Y008070D03*
X025970Y010350D03*
X026720Y010430D03*
X026600Y003550D03*
X027800Y002920D03*
X020750Y017350D03*
X020090Y017370D03*
X018350Y017850D03*
X016250Y017850D03*
D44*
X016250Y017206D01*
X016036Y016922D02*
X015983Y016869D01*
X015983Y016633D01*
X015732Y016417D01*
X015431Y016417D01*
X015378Y016364D01*
X015378Y015936D01*
X015431Y015883D01*
X015781Y015883D01*
X015834Y015936D01*
X015834Y016188D01*
X016157Y016466D01*
X016308Y016466D01*
X016504Y016270D01*
X016844Y016270D01*
X016587Y016012D01*
X016132Y016012D01*
X016079Y015960D01*
X016079Y014940D01*
X016132Y014888D01*
X016936Y014888D01*
X017345Y014478D01*
X017345Y014477D01*
X017345Y014150D01*
X016850Y014150D01*
X016850Y014750D01*
X015350Y014750D01*
X015350Y018050D01*
X018850Y018050D01*
X018850Y014650D01*
X018450Y014650D01*
X018450Y014150D01*
X018470Y014150D01*
X018450Y014150D02*
X018425Y014150D01*
X018425Y014477D01*
X018372Y014530D01*
X018188Y014530D01*
X018180Y014522D01*
X018172Y014530D01*
X017988Y014530D01*
X017980Y014522D01*
X017972Y014530D01*
X017800Y014530D01*
X017800Y014530D01*
X017870Y014600D01*
X017870Y014700D01*
X018057Y014888D01*
X018568Y014888D01*
X018621Y014940D01*
X018621Y015960D01*
X018568Y016012D01*
X017770Y016012D01*
X017770Y016123D01*
X017821Y016123D01*
X017874Y016176D01*
X017874Y016270D01*
X018096Y016270D01*
X018292Y016466D01*
X018564Y016466D01*
X018617Y016519D01*
X018617Y016869D01*
X018564Y016922D01*
X018136Y016922D01*
X018083Y016869D01*
X018083Y016597D01*
X017996Y016510D01*
X017874Y016510D01*
X017874Y016604D01*
X017821Y016657D01*
X017471Y016657D01*
X017418Y016604D01*
X017418Y016176D01*
X017471Y016123D01*
X017530Y016123D01*
X017530Y015900D01*
X017600Y015830D01*
X017693Y015737D01*
X017693Y014940D01*
X017732Y014902D01*
X017630Y014800D01*
X017630Y014700D01*
X017560Y014630D01*
X017560Y014603D01*
X017007Y015156D01*
X017007Y015960D01*
X016954Y016012D01*
X016926Y016012D01*
X017037Y016123D01*
X017309Y016123D01*
X017362Y016176D01*
X017362Y016604D01*
X017309Y016657D01*
X016959Y016657D01*
X016906Y016604D01*
X016906Y016510D01*
X016604Y016510D01*
X016517Y016597D01*
X016517Y016869D01*
X016464Y016922D01*
X016036Y016922D01*
X015983Y016865D02*
X015350Y016865D01*
X015350Y016807D02*
X015983Y016807D01*
X015983Y016748D02*
X015350Y016748D01*
X015350Y016690D02*
X015983Y016690D01*
X015981Y016631D02*
X015350Y016631D01*
X015350Y016573D02*
X015913Y016573D01*
X015845Y016514D02*
X015350Y016514D01*
X015350Y016456D02*
X015777Y016456D01*
X015941Y016280D02*
X016494Y016280D01*
X016436Y016339D02*
X016009Y016339D01*
X016077Y016397D02*
X016377Y016397D01*
X016319Y016456D02*
X016145Y016456D01*
X016238Y016694D02*
X015606Y016150D01*
X015834Y016163D02*
X016737Y016163D01*
X016679Y016105D02*
X015834Y016105D01*
X015834Y016046D02*
X016620Y016046D01*
X016796Y016222D02*
X015873Y016222D01*
X015834Y015988D02*
X016107Y015988D01*
X016079Y015929D02*
X015827Y015929D01*
X016079Y015871D02*
X015350Y015871D01*
X015350Y015929D02*
X015385Y015929D01*
X015378Y015988D02*
X015350Y015988D01*
X015350Y016046D02*
X015378Y016046D01*
X015378Y016105D02*
X015350Y016105D01*
X015350Y016163D02*
X015378Y016163D01*
X015378Y016222D02*
X015350Y016222D01*
X015350Y016280D02*
X015378Y016280D01*
X015378Y016339D02*
X015350Y016339D01*
X015350Y016397D02*
X015411Y016397D01*
X015350Y016924D02*
X018850Y016924D01*
X018850Y016982D02*
X015350Y016982D01*
X015350Y017041D02*
X018850Y017041D01*
X018850Y017099D02*
X015350Y017099D01*
X015350Y017158D02*
X018850Y017158D01*
X018850Y017216D02*
X015350Y017216D01*
X015350Y017275D02*
X018850Y017275D01*
X018850Y017333D02*
X015350Y017333D01*
X015350Y017392D02*
X018850Y017392D01*
X018850Y017450D02*
X015350Y017450D01*
X015350Y017509D02*
X018850Y017509D01*
X018850Y017567D02*
X015350Y017567D01*
X015350Y017626D02*
X018850Y017626D01*
X018850Y017684D02*
X015350Y017684D01*
X015350Y017743D02*
X018850Y017743D01*
X018850Y017801D02*
X015350Y017801D01*
X015350Y017860D02*
X018850Y017860D01*
X018850Y017918D02*
X015350Y017918D01*
X015350Y017977D02*
X018850Y017977D01*
X018850Y018035D02*
X015350Y018035D01*
X016517Y016865D02*
X018083Y016865D01*
X018083Y016807D02*
X016517Y016807D01*
X016517Y016748D02*
X018083Y016748D01*
X018083Y016690D02*
X016517Y016690D01*
X016517Y016631D02*
X016933Y016631D01*
X016906Y016573D02*
X016541Y016573D01*
X016600Y016514D02*
X016906Y016514D01*
X017134Y016390D02*
X016554Y016390D01*
X016250Y016694D01*
X016238Y016694D01*
X016543Y015799D02*
X017134Y016390D01*
X017362Y016397D02*
X017418Y016397D01*
X017418Y016339D02*
X017362Y016339D01*
X017362Y016280D02*
X017418Y016280D01*
X017418Y016222D02*
X017362Y016222D01*
X017349Y016163D02*
X017431Y016163D01*
X017530Y016105D02*
X017018Y016105D01*
X016960Y016046D02*
X017530Y016046D01*
X017530Y015988D02*
X016979Y015988D01*
X017007Y015929D02*
X017530Y015929D01*
X017560Y015871D02*
X017007Y015871D01*
X017007Y015812D02*
X017618Y015812D01*
X017677Y015754D02*
X017007Y015754D01*
X017007Y015695D02*
X017693Y015695D01*
X017693Y015637D02*
X017007Y015637D01*
X017007Y015578D02*
X017693Y015578D01*
X017693Y015520D02*
X017007Y015520D01*
X017007Y015461D02*
X017693Y015461D01*
X017693Y015403D02*
X017007Y015403D01*
X017007Y015344D02*
X017693Y015344D01*
X017693Y015286D02*
X017007Y015286D01*
X017007Y015227D02*
X017693Y015227D01*
X017693Y015169D02*
X017007Y015169D01*
X017053Y015110D02*
X017693Y015110D01*
X017693Y015052D02*
X017111Y015052D01*
X017170Y014993D02*
X017693Y014993D01*
X017699Y014935D02*
X017228Y014935D01*
X017287Y014876D02*
X017706Y014876D01*
X017648Y014818D02*
X017345Y014818D01*
X017404Y014759D02*
X017630Y014759D01*
X017630Y014701D02*
X017462Y014701D01*
X017521Y014642D02*
X017572Y014642D01*
X017680Y014580D02*
X017750Y014650D01*
X017750Y014750D01*
X018150Y015150D01*
X018150Y015443D01*
X018157Y015450D01*
X018150Y015450D01*
X017650Y015950D01*
X017650Y016386D01*
X017646Y016390D01*
X018046Y016390D01*
X018350Y016694D01*
X018281Y016456D02*
X018850Y016456D01*
X018850Y016514D02*
X018612Y016514D01*
X018617Y016573D02*
X018850Y016573D01*
X018850Y016631D02*
X018617Y016631D01*
X018617Y016690D02*
X018850Y016690D01*
X018850Y016748D02*
X018617Y016748D01*
X018617Y016807D02*
X018850Y016807D01*
X018850Y016865D02*
X018617Y016865D01*
X018350Y017206D02*
X018350Y017850D01*
X019290Y018170D02*
X008110Y018170D01*
X008110Y013410D01*
X008070Y013370D01*
X008050Y013350D01*
X008050Y012650D01*
X007950Y012550D01*
X007950Y012150D01*
X007924Y012150D01*
X012750Y012450D02*
X013308Y013008D01*
X014008Y013008D01*
X014108Y012908D01*
X014295Y012720D01*
X016850Y012720D01*
X016850Y012530D02*
X013830Y012530D01*
X013750Y012450D01*
X014265Y012920D02*
X014192Y012992D01*
X014092Y013092D01*
X014092Y013108D01*
X013750Y013450D01*
X014150Y013850D02*
X013150Y013850D01*
X012750Y013450D01*
X013450Y014050D02*
X013450Y014550D01*
X013850Y014050D02*
X013950Y014150D01*
X013850Y014050D02*
X013450Y014050D01*
X014150Y013850D02*
X014450Y013550D01*
X016810Y013550D01*
X016850Y013510D01*
X016850Y013350D02*
X016350Y013350D01*
X016350Y013250D01*
X016850Y013320D02*
X016850Y013350D01*
X016850Y013130D02*
X016850Y013120D01*
X016850Y013130D02*
X017350Y013130D01*
X017450Y013150D01*
X016850Y012920D02*
X014265Y012920D01*
X015350Y011730D02*
X015350Y008290D01*
X019390Y004250D01*
X020950Y004330D02*
X017530Y007750D01*
X017530Y008110D01*
X017490Y008150D01*
X016760Y008270D02*
X016590Y008490D01*
X016590Y008790D01*
X016850Y008790D01*
X017630Y009350D02*
X017210Y009770D01*
X016850Y009770D01*
X016850Y009970D02*
X017450Y009970D01*
X016850Y010350D02*
X016850Y010360D01*
X016850Y010350D02*
X016250Y010350D01*
X016250Y010250D01*
X015750Y010550D02*
X016850Y010550D01*
X016850Y010560D01*
X016850Y010750D02*
X016850Y010760D01*
X016850Y010750D02*
X016050Y010750D01*
X016050Y010850D01*
X016050Y010750D01*
X016850Y011150D02*
X017450Y011150D01*
X017450Y011550D02*
X016850Y011550D01*
X016850Y011540D01*
X016850Y011350D02*
X016350Y011350D01*
X016850Y011730D02*
X015350Y011730D01*
X016850Y011730D02*
X016850Y011740D01*
X017450Y011550D02*
X017550Y011650D01*
X017650Y011650D01*
X019490Y011650D02*
X021570Y009570D01*
X022470Y008970D02*
X022470Y008670D01*
X022530Y008610D01*
X022530Y006290D01*
X022450Y006210D01*
X022450Y005950D01*
X023350Y006150D02*
X023350Y006390D01*
X023390Y006430D01*
X023390Y010070D01*
X023230Y010230D01*
X023230Y010350D01*
X022850Y010350D01*
X022850Y010360D01*
X023240Y010910D02*
X023420Y010730D01*
X024600Y010730D01*
X024600Y011070D01*
X024740Y011210D01*
X026320Y011210D01*
X026320Y009670D01*
X027380Y008610D01*
X027380Y006490D01*
X026380Y006490D02*
X026380Y009430D01*
X024840Y010970D01*
X023920Y010290D02*
X023800Y010410D01*
X023920Y010290D02*
X023920Y007730D01*
X024980Y006670D01*
X024980Y005930D01*
X025380Y005530D01*
X025380Y005490D01*
X024380Y005490D02*
X024380Y002070D01*
X011960Y002070D01*
X010140Y003890D01*
X010140Y003970D01*
X008900Y005210D01*
X008800Y005260D01*
X008540Y005170D02*
X011880Y001830D01*
X017940Y001830D01*
X021480Y002670D02*
X023820Y005010D01*
X023820Y005890D01*
X024380Y006450D01*
X024380Y006490D01*
X025380Y006490D02*
X025380Y006530D01*
X024160Y007750D01*
X024160Y010170D01*
X023240Y010910D02*
X023240Y010950D01*
X022860Y010950D01*
X022850Y010950D01*
X022850Y011150D02*
X023550Y011150D01*
X022850Y011350D02*
X022250Y011350D01*
X022020Y011470D02*
X022000Y011450D01*
X022000Y011250D01*
X022340Y010910D01*
X022020Y011470D02*
X022020Y012150D01*
X022460Y012590D01*
X022460Y012710D01*
X022840Y012710D01*
X022850Y012720D01*
X022840Y012910D02*
X022850Y012920D01*
X022840Y012910D02*
X021780Y012910D01*
X021780Y011910D01*
X022850Y011930D02*
X022850Y011940D01*
X022850Y011930D02*
X023470Y011930D01*
X023320Y011730D02*
X022860Y011730D01*
X022850Y011740D01*
X022850Y011550D02*
X022850Y011540D01*
X022850Y011550D02*
X024310Y011550D01*
X024310Y013790D01*
X024550Y014030D01*
X024550Y014450D01*
X024530Y014470D01*
X024490Y014510D01*
X024490Y015610D01*
X024150Y015950D01*
X024150Y016550D02*
X025370Y016550D01*
X025390Y016550D01*
X025390Y016750D01*
X025490Y016850D01*
X025494Y016850D01*
X025390Y016550D02*
X025390Y016050D01*
X025376Y016050D01*
X025910Y016490D02*
X027490Y016490D01*
X027490Y014510D01*
X027550Y014450D01*
X023750Y014150D02*
X022210Y014150D01*
X022050Y014170D02*
X022050Y015130D01*
X024050Y017130D01*
X025770Y017130D01*
X025770Y016630D01*
X025910Y016490D01*
X026006Y016850D02*
X026850Y016850D01*
X026850Y016950D01*
X030830Y017590D02*
X020650Y017590D01*
X019310Y016250D01*
X019310Y014190D01*
X019270Y014150D01*
X019260Y014150D01*
X019460Y014150D02*
X019470Y014150D01*
X019490Y014130D01*
X019490Y011650D01*
X020590Y012030D02*
X019850Y012870D01*
X019850Y014150D01*
X020050Y014150D02*
X020050Y014650D01*
X020240Y014150D02*
X020250Y014150D01*
X020250Y013550D01*
X020650Y013150D02*
X020650Y014150D01*
X020640Y014150D01*
X021230Y014150D02*
X021250Y014150D01*
X021250Y013550D01*
X022310Y013410D02*
X022310Y013390D01*
X022450Y013250D01*
X022450Y013130D01*
X022850Y013130D01*
X022850Y013120D01*
X022030Y014150D02*
X022020Y014150D01*
X022030Y014150D02*
X022050Y014170D01*
X021670Y014190D02*
X021670Y015110D01*
X021950Y015390D01*
X021950Y017150D01*
X021350Y017150D02*
X021350Y017350D01*
X020750Y017350D01*
X020090Y017370D02*
X019290Y018170D01*
X018083Y016631D02*
X017847Y016631D01*
X017874Y016573D02*
X018059Y016573D01*
X018000Y016514D02*
X017874Y016514D01*
X017874Y016222D02*
X018850Y016222D01*
X018850Y016280D02*
X018106Y016280D01*
X018164Y016339D02*
X018850Y016339D01*
X018850Y016397D02*
X018223Y016397D01*
X017861Y016163D02*
X018850Y016163D01*
X018850Y016105D02*
X017770Y016105D01*
X017770Y016046D02*
X018850Y016046D01*
X018850Y015988D02*
X018593Y015988D01*
X018621Y015929D02*
X018850Y015929D01*
X018850Y015871D02*
X018621Y015871D01*
X018621Y015812D02*
X018850Y015812D01*
X018850Y015754D02*
X018621Y015754D01*
X018621Y015695D02*
X018850Y015695D01*
X018850Y015637D02*
X018621Y015637D01*
X018621Y015578D02*
X018850Y015578D01*
X018850Y015520D02*
X018621Y015520D01*
X018621Y015461D02*
X018850Y015461D01*
X018850Y015403D02*
X018621Y015403D01*
X018621Y015344D02*
X018850Y015344D01*
X018850Y015286D02*
X018621Y015286D01*
X018621Y015227D02*
X018850Y015227D01*
X018850Y015169D02*
X018621Y015169D01*
X018621Y015110D02*
X018850Y015110D01*
X018850Y015052D02*
X018621Y015052D01*
X018621Y014993D02*
X018850Y014993D01*
X018850Y014935D02*
X018615Y014935D01*
X018850Y014876D02*
X018046Y014876D01*
X017987Y014818D02*
X018850Y014818D01*
X018850Y014759D02*
X017929Y014759D01*
X017870Y014701D02*
X018850Y014701D01*
X018450Y014642D02*
X017870Y014642D01*
X017853Y014584D02*
X018450Y014584D01*
X018450Y014525D02*
X018377Y014525D01*
X018425Y014467D02*
X018450Y014467D01*
X018450Y014408D02*
X018425Y014408D01*
X018425Y014350D02*
X018450Y014350D01*
X018450Y014291D02*
X018425Y014291D01*
X018425Y014233D02*
X018450Y014233D01*
X018450Y014174D02*
X018425Y014174D01*
X018280Y014150D02*
X018250Y014150D01*
X018250Y013650D01*
X017680Y014150D02*
X017680Y014580D01*
X017490Y014503D02*
X016543Y015450D01*
X016543Y015799D01*
X016079Y015812D02*
X015350Y015812D01*
X015350Y015754D02*
X016079Y015754D01*
X016079Y015695D02*
X015350Y015695D01*
X015350Y015637D02*
X016079Y015637D01*
X016079Y015578D02*
X015350Y015578D01*
X015350Y015520D02*
X016079Y015520D01*
X016079Y015461D02*
X015350Y015461D01*
X015350Y015403D02*
X016079Y015403D01*
X016079Y015344D02*
X015350Y015344D01*
X015350Y015286D02*
X016079Y015286D01*
X016079Y015227D02*
X015350Y015227D01*
X015350Y015169D02*
X016079Y015169D01*
X016079Y015110D02*
X015350Y015110D01*
X015350Y015052D02*
X016079Y015052D01*
X016079Y014993D02*
X015350Y014993D01*
X015350Y014935D02*
X016085Y014935D01*
X016850Y014701D02*
X017123Y014701D01*
X017064Y014759D02*
X015350Y014759D01*
X015350Y014818D02*
X017006Y014818D01*
X016947Y014876D02*
X015350Y014876D01*
X016850Y014642D02*
X017181Y014642D01*
X017240Y014584D02*
X016850Y014584D01*
X016850Y014525D02*
X017298Y014525D01*
X017345Y014467D02*
X016850Y014467D01*
X016850Y014408D02*
X017345Y014408D01*
X017345Y014350D02*
X016850Y014350D01*
X016850Y014291D02*
X017345Y014291D01*
X017345Y014233D02*
X016850Y014233D01*
X016850Y014174D02*
X017345Y014174D01*
X017490Y014150D02*
X017490Y014503D01*
X017977Y014525D02*
X017983Y014525D01*
X018177Y014525D02*
X018183Y014525D01*
X021410Y014150D02*
X021420Y014150D01*
X021410Y014150D02*
X021410Y015490D01*
X021350Y015550D01*
X021350Y015556D01*
X021670Y014190D02*
X021630Y014150D01*
X021620Y014150D01*
X017418Y016456D02*
X017362Y016456D01*
X017362Y016514D02*
X017418Y016514D01*
X017418Y016573D02*
X017362Y016573D01*
X017335Y016631D02*
X017445Y016631D01*
X023320Y011730D02*
X023360Y011690D01*
X024020Y011690D01*
X024020Y011790D01*
X022850Y008980D02*
X022850Y008970D01*
X022470Y008970D01*
X022770Y008370D02*
X022850Y008290D01*
X022850Y006750D01*
X020850Y007650D02*
X020850Y008150D01*
X020830Y008150D01*
X020650Y008150D02*
X020640Y008150D01*
X020630Y008170D01*
X020630Y008730D01*
X020650Y008950D01*
X019070Y008730D02*
X019050Y008950D01*
X019070Y008730D02*
X019070Y008150D01*
X019060Y008150D01*
X018870Y008150D02*
X018850Y008150D01*
X018850Y007650D01*
X022770Y008370D02*
X022870Y008270D01*
X024570Y008130D02*
X025670Y008130D01*
X030830Y007910D02*
X031070Y007670D01*
X031630Y007670D01*
X031627Y007641D01*
X031630Y007630D01*
X031630Y007530D01*
X032510Y007530D01*
X033190Y006850D01*
X034950Y005090D01*
X034950Y005085D01*
X033650Y005185D02*
X033650Y005190D01*
X031630Y007210D01*
X031627Y007208D01*
X031670Y006750D02*
X031670Y006270D01*
X031667Y006263D01*
X028370Y004720D02*
X027800Y002920D01*
X034915Y006145D02*
X034930Y006150D01*
X035870Y006150D01*
X035870Y006270D01*
X035879Y006283D01*
X035670Y006130D01*
X035670Y005870D01*
X036815Y005450D02*
X037210Y007250D01*
X036790Y007250D01*
X032930Y007790D02*
X032230Y008570D01*
X031870Y008930D01*
X031630Y008930D01*
X031627Y008941D01*
X031630Y009370D02*
X031627Y009374D01*
X031630Y009370D02*
X032250Y009370D01*
X031850Y009810D02*
X031630Y009810D01*
X031627Y009807D01*
X031610Y009830D01*
X031610Y009850D01*
X031110Y009850D01*
X031070Y009890D01*
X031627Y010220D02*
X031630Y010230D01*
X031870Y010230D01*
X032230Y010590D01*
X032230Y011390D01*
X032750Y011910D01*
X032750Y011915D01*
X033950Y011910D02*
X033950Y011915D01*
X033950Y011910D02*
X031850Y009810D01*
X031667Y010712D02*
X031670Y010730D01*
X031670Y011190D01*
X034670Y011210D02*
X034670Y010850D01*
X034659Y010830D01*
X035250Y010750D02*
X035249Y010712D01*
X035250Y010750D02*
X035250Y013050D01*
X031627Y008074D02*
X031610Y008070D01*
X031610Y008010D01*
X031070Y008010D01*
X032910Y007770D02*
X032930Y007790D01*
X013800Y004860D02*
X013800Y004760D01*
X013100Y005360D02*
X013100Y005660D01*
X012800Y005960D01*
X011400Y005960D01*
X011310Y005960D01*
X012285Y005675D02*
X012320Y005710D01*
X010440Y007170D02*
X007440Y007170D01*
X007440Y009270D01*
X010440Y009270D01*
X010440Y007170D01*
X010440Y007213D02*
X007440Y007213D01*
X007440Y007271D02*
X010440Y007271D01*
X010440Y007330D02*
X007440Y007330D01*
X007440Y007388D02*
X010440Y007388D01*
X010440Y007447D02*
X007440Y007447D01*
X007440Y007505D02*
X010440Y007505D01*
X010440Y007564D02*
X007440Y007564D01*
X007440Y007622D02*
X010440Y007622D01*
X010440Y007681D02*
X007440Y007681D01*
X007440Y007739D02*
X010440Y007739D01*
X010440Y007798D02*
X007440Y007798D01*
X007440Y007856D02*
X010440Y007856D01*
X010440Y007915D02*
X007440Y007915D01*
X007440Y007973D02*
X010440Y007973D01*
X010440Y008032D02*
X007440Y008032D01*
X007440Y008090D02*
X010440Y008090D01*
X010440Y008149D02*
X007440Y008149D01*
X007440Y008207D02*
X010440Y008207D01*
X010440Y008266D02*
X007440Y008266D01*
X007440Y008324D02*
X010440Y008324D01*
X010440Y008383D02*
X007440Y008383D01*
X007440Y008441D02*
X010440Y008441D01*
X010440Y008500D02*
X007440Y008500D01*
X007440Y008558D02*
X010440Y008558D01*
X010440Y008617D02*
X007440Y008617D01*
X007440Y008675D02*
X010440Y008675D01*
X010440Y008734D02*
X007440Y008734D01*
X007440Y008792D02*
X010440Y008792D01*
X010440Y008851D02*
X007440Y008851D01*
X007440Y008909D02*
X010440Y008909D01*
X010440Y008968D02*
X007440Y008968D01*
X007440Y009026D02*
X010440Y009026D01*
X010440Y009085D02*
X007440Y009085D01*
X007440Y009143D02*
X010440Y009143D01*
X010440Y009202D02*
X007440Y009202D01*
X007440Y009260D02*
X010440Y009260D01*
X008900Y006360D02*
X008860Y006330D01*
X008540Y006010D01*
X008540Y005170D01*
D45*
X010244Y004460D02*
X010300Y004404D01*
X010300Y003960D01*
X010600Y003660D01*
X012100Y002460D01*
D46*
X026720Y010430D02*
X026723Y010433D01*
X026723Y011054D01*
X026723Y011566D02*
X026240Y011570D01*
X026110Y011780D01*
X026120Y011780D01*
X026120Y011810D01*
X026180Y011870D01*
X026210Y011870D01*
X026723Y011822D02*
X026735Y011810D01*
X027590Y011810D01*
X028700Y011570D02*
X028704Y011566D01*
X029577Y011566D01*
X029577Y011310D02*
X029593Y011294D01*
X030450Y011294D01*
X030450Y011806D02*
X030434Y011822D01*
X029577Y011822D01*
X029577Y012078D02*
X029609Y012110D01*
X030170Y012110D01*
X030254Y012194D01*
X031550Y012194D01*
X031550Y012706D02*
X030906Y012706D01*
X030010Y012350D01*
X029593Y012350D01*
X029577Y012334D01*
X029570Y012590D02*
X029577Y012590D01*
X029570Y012590D02*
X029270Y012590D01*
X029240Y012560D01*
X029120Y012560D01*
X029030Y012650D01*
X028850Y012650D01*
X028820Y012650D01*
X028550Y012680D01*
X029577Y012846D02*
X029600Y012860D01*
X029750Y012860D01*
X029750Y013100D01*
X029990Y013340D01*
X030110Y013460D01*
X026723Y012846D02*
X026679Y012890D01*
X025220Y012890D01*
X025160Y012830D01*
X024920Y012830D01*
X025400Y012620D02*
X026060Y012620D01*
X026360Y012320D01*
X026709Y012320D01*
X026723Y012334D01*
X023990Y012830D02*
X023900Y012920D01*
X023630Y012920D01*
X023330Y012620D01*
X023330Y012470D01*
X023190Y012330D01*
X022850Y012330D01*
X022850Y012130D02*
X023260Y012130D01*
X023690Y012560D01*
X029577Y011054D02*
X029600Y011060D01*
X029930Y011060D01*
X030110Y010880D01*
X030110Y010760D01*
X030200Y010670D01*
X030200Y010700D01*
X033320Y010520D02*
X033320Y007130D01*
X033200Y007010D01*
X033200Y006860D01*
X033190Y006850D01*
X033320Y010520D02*
X034040Y011240D01*
X034250Y011240D01*
X034250Y011420D01*
X034430Y011600D01*
X034430Y016190D01*
X031430Y016730D02*
X030830Y017330D01*
X030830Y017570D01*
X030830Y017590D01*
X038870Y012320D02*
X038870Y012260D01*
X038990Y012140D01*
X038990Y012050D01*
X039050Y011990D01*
X039050Y011450D01*
D47*
X025970Y010800D02*
X025970Y010350D01*
X025970Y010800D02*
X025630Y010970D01*
M02*
