G75*
%MOIN*%
%OFA0B0*%
%FSLAX24Y24*%
%IPPOS*%
%LPD*%
%AMOC8*
5,1,8,0,0,1.08239X$1,22.5*
%
%ADD10C,0.0000*%
D10*
X001280Y001070D02*
X001280Y018570D01*
X041280Y018570D01*
X041280Y001070D01*
X001280Y001070D01*
X002150Y002570D02*
X002152Y002620D01*
X002158Y002670D01*
X002168Y002719D01*
X002182Y002767D01*
X002199Y002814D01*
X002220Y002859D01*
X002245Y002903D01*
X002273Y002944D01*
X002305Y002983D01*
X002339Y003020D01*
X002376Y003054D01*
X002416Y003084D01*
X002458Y003111D01*
X002502Y003135D01*
X002548Y003156D01*
X002595Y003172D01*
X002643Y003185D01*
X002693Y003194D01*
X002742Y003199D01*
X002793Y003200D01*
X002843Y003197D01*
X002892Y003190D01*
X002941Y003179D01*
X002989Y003164D01*
X003035Y003146D01*
X003080Y003124D01*
X003123Y003098D01*
X003164Y003069D01*
X003203Y003037D01*
X003239Y003002D01*
X003271Y002964D01*
X003301Y002924D01*
X003328Y002881D01*
X003351Y002837D01*
X003370Y002791D01*
X003386Y002743D01*
X003398Y002694D01*
X003406Y002645D01*
X003410Y002595D01*
X003410Y002545D01*
X003406Y002495D01*
X003398Y002446D01*
X003386Y002397D01*
X003370Y002349D01*
X003351Y002303D01*
X003328Y002259D01*
X003301Y002216D01*
X003271Y002176D01*
X003239Y002138D01*
X003203Y002103D01*
X003164Y002071D01*
X003123Y002042D01*
X003080Y002016D01*
X003035Y001994D01*
X002989Y001976D01*
X002941Y001961D01*
X002892Y001950D01*
X002843Y001943D01*
X002793Y001940D01*
X002742Y001941D01*
X002693Y001946D01*
X002643Y001955D01*
X002595Y001968D01*
X002548Y001984D01*
X002502Y002005D01*
X002458Y002029D01*
X002416Y002056D01*
X002376Y002086D01*
X002339Y002120D01*
X002305Y002157D01*
X002273Y002196D01*
X002245Y002237D01*
X002220Y002281D01*
X002199Y002326D01*
X002182Y002373D01*
X002168Y002421D01*
X002158Y002470D01*
X002152Y002520D01*
X002150Y002570D01*
X029570Y002630D02*
X029572Y002680D01*
X029578Y002730D01*
X029588Y002779D01*
X029602Y002827D01*
X029619Y002874D01*
X029640Y002919D01*
X029665Y002963D01*
X029693Y003004D01*
X029725Y003043D01*
X029759Y003080D01*
X029796Y003114D01*
X029836Y003144D01*
X029878Y003171D01*
X029922Y003195D01*
X029968Y003216D01*
X030015Y003232D01*
X030063Y003245D01*
X030113Y003254D01*
X030162Y003259D01*
X030213Y003260D01*
X030263Y003257D01*
X030312Y003250D01*
X030361Y003239D01*
X030409Y003224D01*
X030455Y003206D01*
X030500Y003184D01*
X030543Y003158D01*
X030584Y003129D01*
X030623Y003097D01*
X030659Y003062D01*
X030691Y003024D01*
X030721Y002984D01*
X030748Y002941D01*
X030771Y002897D01*
X030790Y002851D01*
X030806Y002803D01*
X030818Y002754D01*
X030826Y002705D01*
X030830Y002655D01*
X030830Y002605D01*
X030826Y002555D01*
X030818Y002506D01*
X030806Y002457D01*
X030790Y002409D01*
X030771Y002363D01*
X030748Y002319D01*
X030721Y002276D01*
X030691Y002236D01*
X030659Y002198D01*
X030623Y002163D01*
X030584Y002131D01*
X030543Y002102D01*
X030500Y002076D01*
X030455Y002054D01*
X030409Y002036D01*
X030361Y002021D01*
X030312Y002010D01*
X030263Y002003D01*
X030213Y002000D01*
X030162Y002001D01*
X030113Y002006D01*
X030063Y002015D01*
X030015Y002028D01*
X029968Y002044D01*
X029922Y002065D01*
X029878Y002089D01*
X029836Y002116D01*
X029796Y002146D01*
X029759Y002180D01*
X029725Y002217D01*
X029693Y002256D01*
X029665Y002297D01*
X029640Y002341D01*
X029619Y002386D01*
X029602Y002433D01*
X029588Y002481D01*
X029578Y002530D01*
X029572Y002580D01*
X029570Y002630D01*
X039070Y002890D02*
X039072Y002940D01*
X039078Y002990D01*
X039088Y003039D01*
X039102Y003087D01*
X039119Y003134D01*
X039140Y003179D01*
X039165Y003223D01*
X039193Y003264D01*
X039225Y003303D01*
X039259Y003340D01*
X039296Y003374D01*
X039336Y003404D01*
X039378Y003431D01*
X039422Y003455D01*
X039468Y003476D01*
X039515Y003492D01*
X039563Y003505D01*
X039613Y003514D01*
X039662Y003519D01*
X039713Y003520D01*
X039763Y003517D01*
X039812Y003510D01*
X039861Y003499D01*
X039909Y003484D01*
X039955Y003466D01*
X040000Y003444D01*
X040043Y003418D01*
X040084Y003389D01*
X040123Y003357D01*
X040159Y003322D01*
X040191Y003284D01*
X040221Y003244D01*
X040248Y003201D01*
X040271Y003157D01*
X040290Y003111D01*
X040306Y003063D01*
X040318Y003014D01*
X040326Y002965D01*
X040330Y002915D01*
X040330Y002865D01*
X040326Y002815D01*
X040318Y002766D01*
X040306Y002717D01*
X040290Y002669D01*
X040271Y002623D01*
X040248Y002579D01*
X040221Y002536D01*
X040191Y002496D01*
X040159Y002458D01*
X040123Y002423D01*
X040084Y002391D01*
X040043Y002362D01*
X040000Y002336D01*
X039955Y002314D01*
X039909Y002296D01*
X039861Y002281D01*
X039812Y002270D01*
X039763Y002263D01*
X039713Y002260D01*
X039662Y002261D01*
X039613Y002266D01*
X039563Y002275D01*
X039515Y002288D01*
X039468Y002304D01*
X039422Y002325D01*
X039378Y002349D01*
X039336Y002376D01*
X039296Y002406D01*
X039259Y002440D01*
X039225Y002477D01*
X039193Y002516D01*
X039165Y002557D01*
X039140Y002601D01*
X039119Y002646D01*
X039102Y002693D01*
X039088Y002741D01*
X039078Y002790D01*
X039072Y002840D01*
X039070Y002890D01*
X039150Y015570D02*
X039152Y015620D01*
X039158Y015670D01*
X039168Y015719D01*
X039182Y015767D01*
X039199Y015814D01*
X039220Y015859D01*
X039245Y015903D01*
X039273Y015944D01*
X039305Y015983D01*
X039339Y016020D01*
X039376Y016054D01*
X039416Y016084D01*
X039458Y016111D01*
X039502Y016135D01*
X039548Y016156D01*
X039595Y016172D01*
X039643Y016185D01*
X039693Y016194D01*
X039742Y016199D01*
X039793Y016200D01*
X039843Y016197D01*
X039892Y016190D01*
X039941Y016179D01*
X039989Y016164D01*
X040035Y016146D01*
X040080Y016124D01*
X040123Y016098D01*
X040164Y016069D01*
X040203Y016037D01*
X040239Y016002D01*
X040271Y015964D01*
X040301Y015924D01*
X040328Y015881D01*
X040351Y015837D01*
X040370Y015791D01*
X040386Y015743D01*
X040398Y015694D01*
X040406Y015645D01*
X040410Y015595D01*
X040410Y015545D01*
X040406Y015495D01*
X040398Y015446D01*
X040386Y015397D01*
X040370Y015349D01*
X040351Y015303D01*
X040328Y015259D01*
X040301Y015216D01*
X040271Y015176D01*
X040239Y015138D01*
X040203Y015103D01*
X040164Y015071D01*
X040123Y015042D01*
X040080Y015016D01*
X040035Y014994D01*
X039989Y014976D01*
X039941Y014961D01*
X039892Y014950D01*
X039843Y014943D01*
X039793Y014940D01*
X039742Y014941D01*
X039693Y014946D01*
X039643Y014955D01*
X039595Y014968D01*
X039548Y014984D01*
X039502Y015005D01*
X039458Y015029D01*
X039416Y015056D01*
X039376Y015086D01*
X039339Y015120D01*
X039305Y015157D01*
X039273Y015196D01*
X039245Y015237D01*
X039220Y015281D01*
X039199Y015326D01*
X039182Y015373D01*
X039168Y015421D01*
X039158Y015470D01*
X039152Y015520D01*
X039150Y015570D01*
X002150Y017070D02*
X002152Y017120D01*
X002158Y017170D01*
X002168Y017219D01*
X002182Y017267D01*
X002199Y017314D01*
X002220Y017359D01*
X002245Y017403D01*
X002273Y017444D01*
X002305Y017483D01*
X002339Y017520D01*
X002376Y017554D01*
X002416Y017584D01*
X002458Y017611D01*
X002502Y017635D01*
X002548Y017656D01*
X002595Y017672D01*
X002643Y017685D01*
X002693Y017694D01*
X002742Y017699D01*
X002793Y017700D01*
X002843Y017697D01*
X002892Y017690D01*
X002941Y017679D01*
X002989Y017664D01*
X003035Y017646D01*
X003080Y017624D01*
X003123Y017598D01*
X003164Y017569D01*
X003203Y017537D01*
X003239Y017502D01*
X003271Y017464D01*
X003301Y017424D01*
X003328Y017381D01*
X003351Y017337D01*
X003370Y017291D01*
X003386Y017243D01*
X003398Y017194D01*
X003406Y017145D01*
X003410Y017095D01*
X003410Y017045D01*
X003406Y016995D01*
X003398Y016946D01*
X003386Y016897D01*
X003370Y016849D01*
X003351Y016803D01*
X003328Y016759D01*
X003301Y016716D01*
X003271Y016676D01*
X003239Y016638D01*
X003203Y016603D01*
X003164Y016571D01*
X003123Y016542D01*
X003080Y016516D01*
X003035Y016494D01*
X002989Y016476D01*
X002941Y016461D01*
X002892Y016450D01*
X002843Y016443D01*
X002793Y016440D01*
X002742Y016441D01*
X002693Y016446D01*
X002643Y016455D01*
X002595Y016468D01*
X002548Y016484D01*
X002502Y016505D01*
X002458Y016529D01*
X002416Y016556D01*
X002376Y016586D01*
X002339Y016620D01*
X002305Y016657D01*
X002273Y016696D01*
X002245Y016737D01*
X002220Y016781D01*
X002199Y016826D01*
X002182Y016873D01*
X002168Y016921D01*
X002158Y016970D01*
X002152Y017020D01*
X002150Y017070D01*
M02*
