G75*
%MOIN*%
%OFA0B0*%
%FSLAX24Y24*%
%IPPOS*%
%LPD*%
%AMOC8*
5,1,8,0,0,1.08239X$1,22.5*
%
%ADD10C,0.0600*%
%ADD11OC8,0.0600*%
%ADD12C,0.0600*%
%ADD13OC8,0.1000*%
%ADD14R,0.0433X0.0394*%
%ADD15R,0.0394X0.0433*%
%ADD16R,0.0276X0.0354*%
%ADD17C,0.0320*%
%ADD18C,0.0396*%
%ADD19C,0.0160*%
%ADD20C,0.0300*%
%ADD21C,0.0060*%
%ADD22C,0.0100*%
%ADD23C,0.0070*%
D10*
X012750Y013450D03*
D11*
X013750Y013450D03*
X013750Y012450D03*
X012750Y012450D03*
X012750Y011450D03*
X013750Y011450D03*
X024380Y006490D03*
X025380Y006490D03*
X026380Y006490D03*
X027380Y006490D03*
X028380Y006490D03*
X029380Y006490D03*
X030380Y006490D03*
X030380Y005490D03*
X029380Y005490D03*
X028380Y005490D03*
X027380Y005490D03*
X026380Y005490D03*
X025380Y005490D03*
X024380Y005490D03*
D12*
X037050Y011150D02*
X037050Y011750D01*
X038050Y011750D02*
X038050Y011150D01*
X039050Y011150D02*
X039050Y011750D01*
X040050Y011750D02*
X040050Y011150D01*
X029550Y014150D02*
X029550Y014750D01*
X028550Y014750D02*
X028550Y014150D01*
X027550Y014150D02*
X027550Y014750D01*
X026550Y014750D02*
X026550Y014150D01*
X025550Y014150D02*
X025550Y014750D01*
X024550Y014750D02*
X024550Y014150D01*
X010050Y013650D02*
X010050Y013050D01*
X009050Y013050D02*
X009050Y013650D01*
X008050Y013650D02*
X008050Y013050D01*
X007050Y013050D02*
X007050Y013650D01*
X006050Y013650D02*
X006050Y013050D01*
X005050Y013050D02*
X005050Y013650D01*
D13*
X005240Y010470D03*
X005240Y008570D03*
X003560Y005090D03*
X004700Y003680D03*
X005570Y002150D03*
D14*
X015415Y009050D03*
X016085Y009050D03*
X021015Y011350D03*
X021685Y011350D03*
X015185Y011450D03*
X014515Y011450D03*
D15*
X018250Y012215D03*
X018250Y012885D03*
X020050Y015515D03*
X020050Y016185D03*
X020850Y006885D03*
X020850Y006215D03*
X018850Y006215D03*
X018850Y006885D03*
D16*
X027594Y010250D03*
X028106Y010250D03*
X029864Y010210D03*
X030376Y010210D03*
X027806Y012750D03*
X027294Y012750D03*
D17*
X006050Y012470D02*
X004160Y012470D01*
X004160Y008570D02*
X005240Y008570D01*
D18*
X004160Y008570D03*
X004160Y012470D03*
X003230Y013190D03*
X003200Y014330D03*
X006050Y012470D03*
X022130Y009440D03*
X024920Y008960D03*
X027830Y008630D03*
X028310Y008960D03*
X029060Y009290D03*
X030350Y008630D03*
X027830Y010700D03*
X038870Y012320D03*
D19*
X010100Y013400D02*
X010050Y013350D01*
X010100Y013400D02*
X010100Y013880D01*
X009650Y014330D01*
X003200Y014330D01*
X004890Y013190D02*
X005050Y013350D01*
X004890Y013190D02*
X003230Y013190D01*
D20*
X008640Y008070D03*
X009040Y008070D03*
X009440Y008070D03*
X009840Y008070D03*
X010240Y008070D03*
X010240Y007670D03*
X009840Y007670D03*
X009440Y007670D03*
X009040Y007670D03*
X008640Y007670D03*
X008900Y006360D03*
X008800Y005260D03*
X012320Y005710D03*
X013100Y005360D03*
X012500Y005060D03*
X013800Y004860D03*
X012100Y002460D03*
X017940Y001830D03*
X021480Y002670D03*
X019390Y004250D03*
X020950Y004330D03*
X022450Y005950D03*
X023350Y006150D03*
X022850Y006750D03*
X020850Y007650D03*
X022770Y008370D03*
X021570Y009570D03*
X020650Y008950D03*
X019050Y008950D03*
X017630Y009350D03*
X017450Y009970D03*
X016250Y010250D03*
X015750Y010550D03*
X016050Y010850D03*
X016350Y011350D03*
X017450Y011150D03*
X017650Y011650D03*
X017450Y013150D03*
X018250Y013650D03*
X020250Y013550D03*
X020650Y013150D03*
X021250Y013550D03*
X022310Y013410D03*
X023750Y014150D03*
X023990Y012830D03*
X023690Y012560D03*
X024920Y012830D03*
X025400Y012620D03*
X026110Y011780D03*
X025630Y010970D03*
X024840Y010970D03*
X024670Y010430D03*
X024160Y010170D03*
X023800Y010410D03*
X023550Y011150D03*
X024020Y011790D03*
X023470Y011930D03*
X022250Y011350D03*
X022340Y010910D03*
X021700Y010760D03*
X021780Y011910D03*
X020590Y012030D03*
X016350Y013250D03*
X013950Y014150D03*
X018350Y014750D03*
X020050Y014650D03*
X020090Y017370D03*
X020750Y017350D03*
X018350Y017850D03*
X016250Y017850D03*
X026850Y016950D03*
X031430Y016730D03*
X034430Y016190D03*
X030110Y013460D03*
X028550Y012680D03*
X027590Y011810D03*
X028700Y011570D03*
X030200Y010700D03*
X031670Y011190D03*
X031070Y009890D03*
X032250Y009370D03*
X031070Y008010D03*
X032910Y007770D03*
X031670Y006750D03*
X035670Y005870D03*
X036790Y007250D03*
X034670Y011210D03*
X035250Y013050D03*
X026720Y010430D03*
X025970Y010350D03*
X025670Y008130D03*
X024570Y008130D03*
X018850Y007650D03*
X016760Y008270D03*
X015800Y008390D03*
X016090Y009470D03*
X026600Y003550D03*
X027800Y002920D03*
D21*
X023800Y002910D01*
X021280Y002910D01*
X020730Y002110D01*
X017110Y002110D01*
X017110Y011150D01*
X017350Y011390D01*
X017650Y011650D01*
X016550Y011350D02*
X016350Y011350D01*
X016450Y011450D02*
X015185Y011450D01*
X016050Y010850D02*
X016060Y010850D01*
X016660Y010250D01*
X016660Y008690D01*
X016440Y008690D01*
X013120Y005370D01*
X013100Y005370D01*
X013100Y005360D01*
X013300Y005160D02*
X013200Y005060D01*
X012500Y005060D01*
X012480Y005070D01*
X012440Y005070D01*
X012380Y005130D01*
X012080Y005130D01*
X012080Y006890D01*
X015740Y010550D01*
X015750Y010550D01*
X016240Y010250D02*
X016250Y010250D01*
X016240Y010250D02*
X015540Y009550D01*
X015080Y009550D01*
X012320Y006790D01*
X012320Y005710D01*
X013800Y004860D02*
X013900Y004960D01*
X018850Y006885D02*
X018850Y007650D01*
X018850Y007850D01*
X018850Y008130D02*
X024570Y008130D01*
X025650Y008150D02*
X025670Y008130D01*
X025650Y008150D02*
X030950Y008130D01*
X031050Y008030D01*
X031070Y008010D01*
X036030Y008010D01*
X036790Y007250D01*
X032910Y007770D02*
X032260Y004020D01*
X027430Y004050D01*
X021230Y004050D01*
X020950Y004330D01*
X020900Y003460D02*
X019390Y004250D01*
X020900Y003460D02*
X026600Y003550D01*
X026820Y004930D02*
X023460Y004930D01*
X022540Y005850D01*
X022450Y005950D01*
X022530Y005870D01*
X023350Y006150D02*
X023400Y006090D01*
X023420Y006090D01*
X023620Y005890D01*
X028980Y005890D01*
X029380Y005490D01*
X029780Y006090D02*
X030380Y005490D01*
X029780Y006090D02*
X029780Y006730D01*
X029700Y006730D01*
X029380Y007050D01*
X023160Y007050D01*
X022880Y006770D01*
X022860Y006770D01*
X022850Y006750D01*
X023350Y006150D02*
X023390Y006110D01*
X020850Y006885D02*
X020850Y007550D01*
X020750Y007650D01*
X020850Y007650D01*
X022770Y008370D02*
X021570Y009570D01*
X022340Y010910D02*
X023080Y010170D01*
X024160Y010170D01*
X023800Y010410D02*
X022400Y011810D01*
X021880Y011810D01*
X021780Y011910D01*
X021530Y012030D02*
X021670Y012170D01*
X022870Y012170D01*
X022970Y012070D01*
X023010Y012030D01*
X024670Y010430D01*
X024660Y010740D02*
X023470Y011930D01*
X024020Y011790D02*
X024840Y010970D01*
X022350Y011450D02*
X022250Y011350D01*
X021685Y011350D01*
X021700Y010760D01*
X021530Y012030D02*
X020590Y012030D01*
X018250Y012885D02*
X018250Y013650D01*
X016350Y013250D02*
X015050Y013250D01*
X014150Y014150D01*
X013950Y014150D01*
X016450Y011450D02*
X016550Y011350D01*
X017450Y009970D02*
X017430Y009890D01*
X031070Y009890D01*
X027850Y013050D02*
X027750Y013150D01*
X020650Y013150D01*
X022310Y013410D02*
X022310Y014090D01*
X020550Y015850D01*
X020550Y017030D01*
X020430Y017030D01*
X020090Y017370D01*
X020050Y015515D02*
X020050Y014650D01*
X020050Y014550D01*
X023750Y014150D02*
X024350Y013550D01*
X027750Y013550D01*
X028550Y014350D01*
X028550Y014450D01*
X027850Y013050D02*
X035250Y013050D01*
X027380Y005490D02*
X026820Y004930D01*
X021480Y002670D02*
X020780Y001970D01*
X020700Y001970D01*
X020680Y001990D01*
X018100Y001990D01*
X017940Y001830D01*
X018850Y008130D02*
X017630Y009350D01*
X016090Y009470D02*
X016090Y009050D01*
X016085Y009050D01*
D22*
X001530Y001320D02*
X001530Y016992D01*
X001953Y017373D01*
X001900Y017245D01*
X001900Y016895D01*
X002034Y016572D01*
X002282Y016324D01*
X002605Y016190D01*
X002955Y016190D01*
X003278Y016324D01*
X003526Y016572D01*
X003660Y016895D01*
X003660Y017245D01*
X003526Y017568D01*
X003278Y017816D01*
X002955Y017950D01*
X002605Y017950D01*
X002585Y017942D01*
X003006Y018320D01*
X041030Y018320D01*
X041030Y001320D01*
X001530Y001320D01*
X001530Y001366D02*
X041030Y001366D01*
X041030Y001464D02*
X001530Y001464D01*
X001530Y001563D02*
X005295Y001563D01*
X005317Y001540D02*
X005823Y001540D01*
X006180Y001897D01*
X006180Y002403D01*
X005823Y002760D01*
X005317Y002760D01*
X004960Y002403D01*
X004960Y001897D01*
X005317Y001540D01*
X005196Y001661D02*
X001530Y001661D01*
X001530Y001760D02*
X002437Y001760D01*
X002282Y001824D02*
X002605Y001690D01*
X002955Y001690D01*
X003278Y001824D01*
X003526Y002072D01*
X003660Y002395D01*
X003660Y002745D01*
X003526Y003068D01*
X003278Y003316D01*
X002955Y003450D01*
X002605Y003450D01*
X002282Y003316D01*
X002034Y003068D01*
X001900Y002745D01*
X001900Y002395D01*
X002034Y002072D01*
X002282Y001824D01*
X002248Y001858D02*
X001530Y001858D01*
X001530Y001957D02*
X002149Y001957D01*
X002051Y002055D02*
X001530Y002055D01*
X001530Y002154D02*
X002000Y002154D01*
X001959Y002252D02*
X001530Y002252D01*
X001530Y002351D02*
X001918Y002351D01*
X001900Y002449D02*
X001530Y002449D01*
X001530Y002548D02*
X001900Y002548D01*
X001900Y002646D02*
X001530Y002646D01*
X001530Y002745D02*
X001900Y002745D01*
X001941Y002843D02*
X001530Y002843D01*
X001530Y002942D02*
X001981Y002942D01*
X002022Y003040D02*
X001530Y003040D01*
X001530Y003139D02*
X002104Y003139D01*
X002203Y003237D02*
X001530Y003237D01*
X001530Y003336D02*
X002329Y003336D01*
X002567Y003434D02*
X001530Y003434D01*
X001530Y003533D02*
X004090Y003533D01*
X004090Y003631D02*
X001530Y003631D01*
X001530Y003730D02*
X004090Y003730D01*
X004090Y003828D02*
X001530Y003828D01*
X001530Y003927D02*
X004090Y003927D01*
X004090Y003933D02*
X004090Y003427D01*
X004447Y003070D01*
X004953Y003070D01*
X005310Y003427D01*
X005310Y003933D01*
X004953Y004290D01*
X004447Y004290D01*
X004090Y003933D01*
X004182Y004025D02*
X001530Y004025D01*
X001530Y004124D02*
X004281Y004124D01*
X004379Y004222D02*
X001530Y004222D01*
X001530Y004321D02*
X016970Y004321D01*
X016970Y004419D02*
X001530Y004419D01*
X001530Y004518D02*
X003270Y004518D01*
X003307Y004480D02*
X002950Y004837D01*
X002950Y005343D01*
X003307Y005700D01*
X003813Y005700D01*
X004170Y005343D01*
X004170Y004837D01*
X003813Y004480D01*
X003307Y004480D01*
X003171Y004616D02*
X001530Y004616D01*
X001530Y004715D02*
X003073Y004715D01*
X002974Y004813D02*
X001530Y004813D01*
X001530Y004912D02*
X002950Y004912D01*
X002950Y005010D02*
X001530Y005010D01*
X001530Y005109D02*
X002950Y005109D01*
X002950Y005207D02*
X001530Y005207D01*
X001530Y005306D02*
X002950Y005306D01*
X003011Y005404D02*
X001530Y005404D01*
X001530Y005503D02*
X003110Y005503D01*
X003208Y005601D02*
X001530Y005601D01*
X001530Y005700D02*
X003307Y005700D01*
X003813Y005700D02*
X011940Y005700D01*
X011940Y005798D02*
X001530Y005798D01*
X001530Y005897D02*
X011940Y005897D01*
X011940Y005995D02*
X001530Y005995D01*
X001530Y006094D02*
X011940Y006094D01*
X011940Y006192D02*
X009100Y006192D01*
X009120Y006213D02*
X009160Y006308D01*
X009160Y006412D01*
X009120Y006507D01*
X009047Y006580D01*
X008952Y006620D01*
X008848Y006620D01*
X008753Y006580D01*
X008680Y006507D01*
X008640Y006412D01*
X008640Y006308D01*
X008680Y006213D01*
X008753Y006140D01*
X008848Y006100D01*
X008952Y006100D01*
X009047Y006140D01*
X009120Y006213D01*
X009153Y006291D02*
X011940Y006291D01*
X011940Y006389D02*
X009160Y006389D01*
X009129Y006488D02*
X011940Y006488D01*
X011940Y006586D02*
X009034Y006586D01*
X008766Y006586D02*
X001530Y006586D01*
X001530Y006488D02*
X008671Y006488D01*
X008640Y006389D02*
X001530Y006389D01*
X001530Y006291D02*
X008647Y006291D01*
X008700Y006192D02*
X001530Y006192D01*
X001530Y006685D02*
X011940Y006685D01*
X011940Y006783D02*
X001530Y006783D01*
X001530Y006882D02*
X011940Y006882D01*
X011940Y006948D02*
X011940Y005072D01*
X012022Y004990D01*
X012248Y004990D01*
X012280Y004913D01*
X012353Y004840D01*
X012448Y004800D01*
X012552Y004800D01*
X012647Y004840D01*
X012720Y004913D01*
X012723Y004920D01*
X013258Y004920D01*
X013340Y005002D01*
X013440Y005102D01*
X013440Y005218D01*
X013358Y005300D01*
X013357Y005300D01*
X013360Y005308D01*
X013360Y005412D01*
X016498Y008550D01*
X016718Y008550D01*
X016800Y008632D01*
X016800Y010308D01*
X016718Y010390D01*
X016310Y010798D01*
X016310Y010798D01*
X016310Y010902D01*
X016270Y010997D01*
X016197Y011070D01*
X016102Y011110D01*
X015998Y011110D01*
X015903Y011070D01*
X015830Y010997D01*
X015790Y010902D01*
X015790Y010810D01*
X015698Y010810D01*
X015603Y010770D01*
X015530Y010697D01*
X015490Y010602D01*
X015490Y010498D01*
X012022Y007030D01*
X011940Y006948D01*
X011972Y006980D02*
X001530Y006980D01*
X001530Y007079D02*
X012071Y007079D01*
X012169Y007177D02*
X001530Y007177D01*
X001530Y007276D02*
X012268Y007276D01*
X012366Y007374D02*
X001530Y007374D01*
X001530Y007473D02*
X012465Y007473D01*
X012563Y007571D02*
X001530Y007571D01*
X001530Y007670D02*
X012662Y007670D01*
X012760Y007768D02*
X001530Y007768D01*
X001530Y007867D02*
X012859Y007867D01*
X012957Y007965D02*
X005498Y007965D01*
X005493Y007960D02*
X005850Y008317D01*
X005850Y008823D01*
X005493Y009180D01*
X004987Y009180D01*
X004647Y008840D01*
X004313Y008840D01*
X004221Y008878D01*
X004099Y008878D01*
X003985Y008831D01*
X003899Y008745D01*
X003852Y008631D01*
X003852Y008509D01*
X003899Y008395D01*
X003985Y008309D01*
X004099Y008262D01*
X004221Y008262D01*
X004313Y008300D01*
X004647Y008300D01*
X004987Y007960D01*
X005493Y007960D01*
X005596Y008064D02*
X013056Y008064D01*
X013154Y008162D02*
X005695Y008162D01*
X005793Y008261D02*
X013253Y008261D01*
X013351Y008359D02*
X005850Y008359D01*
X005850Y008458D02*
X013450Y008458D01*
X013548Y008556D02*
X005850Y008556D01*
X005850Y008655D02*
X013647Y008655D01*
X013745Y008753D02*
X005850Y008753D01*
X005821Y008852D02*
X013844Y008852D01*
X013942Y008950D02*
X005723Y008950D01*
X005624Y009049D02*
X014041Y009049D01*
X014139Y009147D02*
X005526Y009147D01*
X004954Y009147D02*
X001530Y009147D01*
X001530Y009049D02*
X004856Y009049D01*
X004757Y008950D02*
X001530Y008950D01*
X001530Y008852D02*
X004035Y008852D01*
X003907Y008753D02*
X001530Y008753D01*
X001530Y008655D02*
X003862Y008655D01*
X003852Y008556D02*
X001530Y008556D01*
X001530Y008458D02*
X003873Y008458D01*
X003935Y008359D02*
X001530Y008359D01*
X001530Y008261D02*
X004687Y008261D01*
X004785Y008162D02*
X001530Y008162D01*
X001530Y008064D02*
X004884Y008064D01*
X004982Y007965D02*
X001530Y007965D01*
X001530Y009246D02*
X014238Y009246D01*
X014336Y009344D02*
X001530Y009344D01*
X001530Y009443D02*
X014435Y009443D01*
X014533Y009541D02*
X001530Y009541D01*
X001530Y009640D02*
X014632Y009640D01*
X014730Y009738D02*
X001530Y009738D01*
X001530Y009837D02*
X014829Y009837D01*
X014927Y009935D02*
X005568Y009935D01*
X005493Y009860D02*
X005850Y010217D01*
X005850Y010723D01*
X005493Y011080D01*
X004987Y011080D01*
X004630Y010723D01*
X004630Y010217D01*
X004987Y009860D01*
X005493Y009860D01*
X005666Y010034D02*
X015026Y010034D01*
X015124Y010132D02*
X005765Y010132D01*
X005850Y010231D02*
X015223Y010231D01*
X015321Y010329D02*
X005850Y010329D01*
X005850Y010428D02*
X015420Y010428D01*
X015490Y010498D02*
X015490Y010498D01*
X015490Y010526D02*
X005850Y010526D01*
X005850Y010625D02*
X015499Y010625D01*
X015555Y010723D02*
X005850Y010723D01*
X005751Y010822D02*
X015790Y010822D01*
X015798Y010920D02*
X005653Y010920D01*
X005554Y011019D02*
X012545Y011019D01*
X012564Y011000D02*
X012300Y011264D01*
X012300Y011400D01*
X012700Y011400D01*
X012700Y011500D01*
X012700Y011900D01*
X012564Y011900D01*
X012300Y011636D01*
X012300Y011500D01*
X012700Y011500D01*
X012800Y011500D01*
X012800Y011900D01*
X012936Y011900D01*
X013200Y011636D01*
X013200Y011500D01*
X012800Y011500D01*
X012800Y011400D01*
X013200Y011400D01*
X013200Y011264D01*
X012936Y011000D01*
X012800Y011000D01*
X012800Y011400D01*
X012700Y011400D01*
X012700Y011000D01*
X012564Y011000D01*
X012700Y011019D02*
X012800Y011019D01*
X012800Y011117D02*
X012700Y011117D01*
X012700Y011216D02*
X012800Y011216D01*
X012800Y011314D02*
X012700Y011314D01*
X012700Y011413D02*
X001530Y011413D01*
X001530Y011511D02*
X012300Y011511D01*
X012300Y011610D02*
X001530Y011610D01*
X001530Y011708D02*
X012372Y011708D01*
X012470Y011807D02*
X001530Y011807D01*
X001530Y011905D02*
X017586Y011905D01*
X017598Y011910D02*
X017503Y011870D01*
X017430Y011797D01*
X017390Y011702D01*
X017390Y011610D01*
X017298Y011530D01*
X017292Y011530D01*
X017255Y011493D01*
X017214Y011458D01*
X017214Y011452D01*
X017052Y011290D01*
X016970Y011208D01*
X016970Y002052D01*
X017052Y001970D01*
X017717Y001970D01*
X017680Y001882D01*
X017680Y001778D01*
X017720Y001683D01*
X017793Y001610D01*
X017888Y001570D01*
X017992Y001570D01*
X018087Y001610D01*
X018160Y001683D01*
X018200Y001778D01*
X018200Y001850D01*
X020622Y001850D01*
X020642Y001830D01*
X020838Y001830D01*
X021421Y002413D01*
X021428Y002410D01*
X021532Y002410D01*
X021627Y002450D01*
X021700Y002523D01*
X021740Y002618D01*
X021740Y002722D01*
X021720Y002770D01*
X023742Y002770D01*
X023742Y002770D01*
X023800Y002770D01*
X023858Y002770D01*
X023858Y002770D01*
X027577Y002779D01*
X027580Y002773D01*
X027653Y002700D01*
X027748Y002660D01*
X027852Y002660D01*
X027947Y002700D01*
X028020Y002773D01*
X028060Y002868D01*
X028060Y002972D01*
X028020Y003067D01*
X027947Y003140D01*
X027852Y003180D01*
X027748Y003180D01*
X027653Y003140D01*
X027580Y003067D01*
X027576Y003059D01*
X023800Y003050D01*
X021323Y003050D01*
X021312Y003058D01*
X021267Y003050D01*
X021222Y003050D01*
X021212Y003040D01*
X017250Y003040D01*
X017250Y002942D02*
X021132Y002942D01*
X021140Y002953D02*
X020656Y002250D01*
X017250Y002250D01*
X017250Y009802D01*
X017303Y009750D01*
X017398Y009710D01*
X017502Y009710D01*
X017597Y009750D01*
X017598Y009750D01*
X021382Y009750D01*
X021350Y009717D01*
X021310Y009622D01*
X021310Y009518D01*
X021350Y009423D01*
X021423Y009350D01*
X021518Y009310D01*
X021622Y009310D01*
X021629Y009313D01*
X022513Y008429D01*
X022510Y008422D01*
X022510Y008318D01*
X022530Y008270D01*
X018908Y008270D01*
X017887Y009291D01*
X017890Y009298D01*
X017890Y009402D01*
X017850Y009497D01*
X017777Y009570D01*
X017682Y009610D01*
X017578Y009610D01*
X017483Y009570D01*
X017410Y009497D01*
X017370Y009402D01*
X017370Y009298D01*
X017410Y009203D01*
X017483Y009130D01*
X017578Y009090D01*
X017682Y009090D01*
X017689Y009093D01*
X018710Y008072D01*
X018792Y007990D01*
X018710Y007908D01*
X018710Y007873D01*
X018703Y007870D01*
X018630Y007797D01*
X018590Y007702D01*
X018590Y007598D01*
X018630Y007503D01*
X018703Y007430D01*
X018710Y007427D01*
X018710Y007211D01*
X018608Y007211D01*
X018543Y007147D01*
X018543Y006623D01*
X018594Y006571D01*
X018561Y006552D01*
X018533Y006524D01*
X018513Y006490D01*
X018503Y006452D01*
X018503Y006264D01*
X018802Y006264D01*
X018802Y006167D01*
X018898Y006167D01*
X018898Y005849D01*
X019067Y005849D01*
X019105Y005859D01*
X019139Y005879D01*
X019167Y005907D01*
X019187Y005941D01*
X019197Y005979D01*
X019197Y006167D01*
X018898Y006167D01*
X018898Y006264D01*
X019197Y006264D01*
X019197Y006452D01*
X019187Y006490D01*
X019167Y006524D01*
X019139Y006552D01*
X019106Y006571D01*
X019157Y006623D01*
X019157Y007147D01*
X019092Y007211D01*
X018990Y007211D01*
X018990Y007427D01*
X018997Y007430D01*
X019070Y007503D01*
X019110Y007598D01*
X019110Y007702D01*
X019070Y007797D01*
X018997Y007870D01*
X018990Y007873D01*
X018990Y007908D01*
X018908Y007990D01*
X018792Y007990D01*
X024347Y007990D01*
X024350Y007983D01*
X024423Y007910D01*
X024518Y007870D01*
X024622Y007870D01*
X024717Y007910D01*
X024790Y007983D01*
X024830Y008078D01*
X024830Y008182D01*
X024790Y008277D01*
X024717Y008350D01*
X024622Y008390D01*
X024518Y008390D01*
X024423Y008350D01*
X024350Y008277D01*
X024347Y008270D01*
X023010Y008270D01*
X023030Y008318D01*
X023030Y008422D01*
X022990Y008517D01*
X022917Y008590D01*
X022822Y008630D01*
X022718Y008630D01*
X022711Y008627D01*
X022202Y009136D01*
X022206Y009138D01*
X022214Y009130D01*
X024657Y009130D01*
X024612Y009021D01*
X024612Y008899D01*
X024659Y008785D01*
X024745Y008699D01*
X024859Y008652D01*
X024981Y008652D01*
X025095Y008699D01*
X025181Y008785D01*
X025228Y008899D01*
X025228Y008950D01*
X028002Y008950D01*
X028002Y008899D01*
X028005Y008890D01*
X028005Y008891D01*
X027891Y008938D01*
X027769Y008938D01*
X027655Y008891D01*
X027569Y008805D01*
X027522Y008691D01*
X027522Y008569D01*
X027569Y008455D01*
X027655Y008369D01*
X027769Y008322D01*
X027891Y008322D01*
X028005Y008369D01*
X028091Y008455D01*
X028097Y008470D01*
X030083Y008470D01*
X030089Y008455D01*
X030175Y008369D01*
X030289Y008322D01*
X030411Y008322D01*
X030525Y008369D01*
X030611Y008455D01*
X030658Y008569D01*
X030658Y008691D01*
X030611Y008805D01*
X030525Y008891D01*
X030411Y008938D01*
X030289Y008938D01*
X030175Y008891D01*
X030089Y008805D01*
X030083Y008790D01*
X028573Y008790D01*
X028618Y008899D01*
X028618Y009021D01*
X028573Y009130D01*
X028793Y009130D01*
X028799Y009115D01*
X028885Y009029D01*
X028999Y008982D01*
X029121Y008982D01*
X029235Y009029D01*
X029321Y009115D01*
X029368Y009229D01*
X029368Y009351D01*
X029321Y009465D01*
X029235Y009551D01*
X029121Y009598D01*
X028999Y009598D01*
X028885Y009551D01*
X028799Y009465D01*
X028793Y009450D01*
X022438Y009450D01*
X022438Y009501D01*
X022391Y009615D01*
X022305Y009701D01*
X022191Y009748D01*
X022069Y009748D01*
X021955Y009701D01*
X021869Y009615D01*
X021830Y009521D01*
X021830Y009622D01*
X021790Y009717D01*
X021758Y009750D01*
X030847Y009750D01*
X030850Y009743D01*
X030923Y009670D01*
X031018Y009630D01*
X031122Y009630D01*
X031217Y009670D01*
X031290Y009743D01*
X031330Y009838D01*
X031330Y009942D01*
X031290Y010037D01*
X031217Y010110D01*
X031122Y010150D01*
X031018Y010150D01*
X030923Y010110D01*
X030850Y010037D01*
X030847Y010030D01*
X030664Y010030D01*
X030664Y010191D01*
X030395Y010191D01*
X030395Y010229D01*
X030664Y010229D01*
X030664Y010407D01*
X030653Y010445D01*
X030634Y010479D01*
X030606Y010507D01*
X030572Y010527D01*
X030533Y010537D01*
X030395Y010537D01*
X030395Y010229D01*
X030357Y010229D01*
X030357Y010537D01*
X030218Y010537D01*
X030180Y010527D01*
X030146Y010507D01*
X030118Y010479D01*
X030099Y010446D01*
X030047Y010497D01*
X029777Y010497D01*
X028874Y011377D01*
X028920Y011423D01*
X028960Y011518D01*
X028960Y011622D01*
X028920Y011717D01*
X028847Y011790D01*
X028752Y011830D01*
X028648Y011830D01*
X028553Y011790D01*
X028480Y011717D01*
X028440Y011622D01*
X028440Y011518D01*
X028480Y011423D01*
X028553Y011350D01*
X028555Y011349D01*
X028555Y011343D01*
X028555Y011284D01*
X028556Y011283D01*
X028556Y011282D01*
X028598Y011241D01*
X028640Y011199D01*
X028641Y011199D01*
X029616Y010249D01*
X029616Y010030D01*
X028388Y010030D01*
X028394Y010053D01*
X028394Y010231D01*
X028125Y010231D01*
X028125Y010269D01*
X028394Y010269D01*
X028394Y010447D01*
X028383Y010485D01*
X028364Y010519D01*
X028336Y010547D01*
X028302Y010567D01*
X028263Y010577D01*
X028125Y010577D01*
X028125Y010269D01*
X028087Y010269D01*
X028087Y010521D01*
X028091Y010525D01*
X028138Y010639D01*
X028138Y010761D01*
X028091Y010875D01*
X028005Y010961D01*
X027891Y011008D01*
X027769Y011008D01*
X027655Y010961D01*
X027569Y010875D01*
X027563Y010860D01*
X025076Y010860D01*
X025100Y010918D01*
X025100Y011022D01*
X025060Y011117D01*
X024987Y011190D01*
X024892Y011230D01*
X024788Y011230D01*
X024781Y011227D01*
X024277Y011731D01*
X024280Y011738D01*
X024280Y011842D01*
X024240Y011937D01*
X024167Y012010D01*
X024072Y012050D01*
X023968Y012050D01*
X023873Y012010D01*
X023800Y011937D01*
X023760Y011842D01*
X023760Y011838D01*
X023727Y011871D01*
X023730Y011878D01*
X023730Y011982D01*
X023690Y012077D01*
X023617Y012150D01*
X023522Y012190D01*
X023418Y012190D01*
X023323Y012150D01*
X023250Y012077D01*
X023225Y012017D01*
X023108Y012130D01*
X023010Y012228D01*
X022928Y012310D01*
X021612Y012310D01*
X021472Y012170D01*
X020813Y012170D01*
X020810Y012177D01*
X020737Y012250D01*
X020642Y012290D01*
X020538Y012290D01*
X020443Y012250D01*
X020370Y012177D01*
X020330Y012082D01*
X020330Y011978D01*
X020370Y011883D01*
X020443Y011810D01*
X020538Y011770D01*
X020642Y011770D01*
X020737Y011810D01*
X020810Y011883D01*
X020813Y011890D01*
X021520Y011890D01*
X021520Y011858D01*
X021560Y011763D01*
X021633Y011690D01*
X021712Y011657D01*
X021423Y011657D01*
X021371Y011606D01*
X021352Y011639D01*
X021324Y011667D01*
X021290Y011687D01*
X021252Y011697D01*
X021064Y011697D01*
X021064Y011398D01*
X020967Y011398D01*
X020967Y011302D01*
X020649Y011302D01*
X020649Y011133D01*
X020659Y011095D01*
X020679Y011061D01*
X020707Y011033D01*
X020741Y011013D01*
X020779Y011003D01*
X020967Y011003D01*
X020967Y011302D01*
X021064Y011302D01*
X021064Y011003D01*
X021252Y011003D01*
X021290Y011013D01*
X021324Y011033D01*
X021352Y011061D01*
X021371Y011094D01*
X021423Y011043D01*
X021553Y011043D01*
X021554Y010981D01*
X021553Y010980D01*
X021480Y010907D01*
X021440Y010812D01*
X021440Y010708D01*
X021480Y010613D01*
X021553Y010540D01*
X021648Y010500D01*
X021752Y010500D01*
X021847Y010540D01*
X021920Y010613D01*
X021960Y010708D01*
X021960Y010812D01*
X021920Y010907D01*
X021847Y010980D01*
X021834Y010986D01*
X021833Y011043D01*
X021947Y011043D01*
X022011Y011108D01*
X022011Y011210D01*
X022027Y011210D01*
X022030Y011203D01*
X022103Y011130D01*
X022166Y011103D01*
X022120Y011057D01*
X022080Y010962D01*
X022080Y010858D01*
X022120Y010763D01*
X022193Y010690D01*
X022288Y010650D01*
X022392Y010650D01*
X022399Y010653D01*
X022940Y010112D01*
X023022Y010030D01*
X023937Y010030D01*
X017707Y010030D01*
X017670Y010117D01*
X017597Y010190D01*
X017502Y010230D01*
X017398Y010230D01*
X017303Y010190D01*
X017250Y010138D01*
X017250Y011092D01*
X017445Y011287D01*
X017575Y011400D01*
X017598Y011390D01*
X017702Y011390D01*
X017797Y011430D01*
X017870Y011503D01*
X017910Y011598D01*
X017910Y011702D01*
X017870Y011797D01*
X017797Y011870D01*
X017702Y011910D01*
X017598Y011910D01*
X017714Y011905D02*
X017935Y011905D01*
X017933Y011907D02*
X017961Y011879D01*
X017995Y011859D01*
X018033Y011849D01*
X018202Y011849D01*
X018202Y012167D01*
X018298Y012167D01*
X018298Y011849D01*
X018467Y011849D01*
X018505Y011859D01*
X018539Y011879D01*
X018567Y011907D01*
X018587Y011941D01*
X018597Y011979D01*
X018597Y012167D01*
X018298Y012167D01*
X018298Y012264D01*
X018597Y012264D01*
X018597Y012452D01*
X018587Y012490D01*
X018567Y012524D01*
X018539Y012552D01*
X018506Y012571D01*
X018557Y012623D01*
X018557Y013147D01*
X018492Y013211D01*
X018390Y013211D01*
X018390Y013427D01*
X018397Y013430D01*
X018470Y013503D01*
X018510Y013598D01*
X018510Y013702D01*
X018470Y013797D01*
X018397Y013870D01*
X018302Y013910D01*
X018198Y013910D01*
X018103Y013870D01*
X018030Y013797D01*
X017990Y013702D01*
X017990Y013598D01*
X018030Y013503D01*
X018103Y013430D01*
X018110Y013427D01*
X018110Y013211D01*
X018008Y013211D01*
X017943Y013147D01*
X017943Y012623D01*
X017994Y012571D01*
X017961Y012552D01*
X017933Y012524D01*
X017913Y012490D01*
X017903Y012452D01*
X017903Y012264D01*
X018202Y012264D01*
X018202Y012167D01*
X017903Y012167D01*
X017903Y011979D01*
X017913Y011941D01*
X017933Y011907D01*
X017903Y012004D02*
X001530Y012004D01*
X001530Y012102D02*
X012518Y012102D01*
X012580Y012040D02*
X012920Y012040D01*
X013160Y012280D01*
X013160Y012620D01*
X012920Y012860D01*
X012580Y012860D01*
X012340Y012620D01*
X012340Y012280D01*
X012580Y012040D01*
X012420Y012201D02*
X006205Y012201D01*
X006225Y012209D02*
X006311Y012295D01*
X006358Y012409D01*
X006358Y012531D01*
X006311Y012645D01*
X006262Y012694D01*
X006282Y012702D01*
X006398Y012818D01*
X006460Y012968D01*
X006460Y013732D01*
X006398Y013882D01*
X006282Y013998D01*
X006132Y014060D01*
X005968Y014060D01*
X005818Y013998D01*
X005702Y013882D01*
X005640Y013732D01*
X005640Y012968D01*
X005702Y012818D01*
X005780Y012740D01*
X005320Y012740D01*
X005398Y012818D01*
X005460Y012968D01*
X005460Y013732D01*
X005398Y013882D01*
X005282Y013998D01*
X005132Y014060D01*
X004968Y014060D01*
X004818Y013998D01*
X004702Y013882D01*
X004640Y013732D01*
X004640Y013380D01*
X003476Y013380D01*
X003405Y013451D01*
X003291Y013498D01*
X003169Y013498D01*
X003055Y013451D01*
X002969Y013365D01*
X002922Y013251D01*
X002922Y013129D01*
X002969Y013015D01*
X003055Y012929D01*
X003169Y012882D01*
X003291Y012882D01*
X003405Y012929D01*
X003476Y013000D01*
X004640Y013000D01*
X004640Y012968D01*
X004702Y012818D01*
X004780Y012740D01*
X004313Y012740D01*
X004221Y012778D01*
X004099Y012778D01*
X003985Y012731D01*
X003899Y012645D01*
X003852Y012531D01*
X003852Y012409D01*
X003899Y012295D01*
X003985Y012209D01*
X004099Y012162D01*
X004221Y012162D01*
X004313Y012200D01*
X005897Y012200D01*
X005989Y012162D01*
X006111Y012162D01*
X006225Y012209D01*
X006313Y012299D02*
X012340Y012299D01*
X012340Y012398D02*
X006353Y012398D01*
X006358Y012496D02*
X012340Y012496D01*
X012340Y012595D02*
X006332Y012595D01*
X006263Y012693D02*
X006840Y012693D01*
X006818Y012702D02*
X006968Y012640D01*
X007132Y012640D01*
X007282Y012702D01*
X007398Y012818D01*
X007460Y012968D01*
X007460Y013732D01*
X007398Y013882D01*
X007282Y013998D01*
X007132Y014060D01*
X006968Y014060D01*
X006818Y013998D01*
X006702Y013882D01*
X006640Y013732D01*
X006640Y012968D01*
X006702Y012818D01*
X006818Y012702D01*
X006729Y012792D02*
X006371Y012792D01*
X006428Y012890D02*
X006672Y012890D01*
X006640Y012989D02*
X006460Y012989D01*
X006460Y013087D02*
X006640Y013087D01*
X006640Y013186D02*
X006460Y013186D01*
X006460Y013284D02*
X006640Y013284D01*
X006640Y013383D02*
X006460Y013383D01*
X006460Y013481D02*
X006640Y013481D01*
X006640Y013580D02*
X006460Y013580D01*
X006460Y013678D02*
X006640Y013678D01*
X006659Y013777D02*
X006441Y013777D01*
X006401Y013875D02*
X006699Y013875D01*
X006794Y013974D02*
X006306Y013974D01*
X005794Y013974D02*
X005306Y013974D01*
X005401Y013875D02*
X005699Y013875D01*
X005659Y013777D02*
X005441Y013777D01*
X005460Y013678D02*
X005640Y013678D01*
X005640Y013580D02*
X005460Y013580D01*
X005460Y013481D02*
X005640Y013481D01*
X005640Y013383D02*
X005460Y013383D01*
X005460Y013284D02*
X005640Y013284D01*
X005640Y013186D02*
X005460Y013186D01*
X005460Y013087D02*
X005640Y013087D01*
X005640Y012989D02*
X005460Y012989D01*
X005428Y012890D02*
X005672Y012890D01*
X005729Y012792D02*
X005371Y012792D01*
X004729Y012792D02*
X001530Y012792D01*
X001530Y012890D02*
X003149Y012890D01*
X003311Y012890D02*
X004672Y012890D01*
X004640Y012989D02*
X003464Y012989D01*
X002996Y012989D02*
X001530Y012989D01*
X001530Y013087D02*
X002939Y013087D01*
X002922Y013186D02*
X001530Y013186D01*
X001530Y013284D02*
X002935Y013284D01*
X002987Y013383D02*
X001530Y013383D01*
X001530Y013481D02*
X003127Y013481D01*
X003333Y013481D02*
X004640Y013481D01*
X004640Y013383D02*
X003473Y013383D01*
X004640Y013580D02*
X001530Y013580D01*
X001530Y013678D02*
X004640Y013678D01*
X004659Y013777D02*
X001530Y013777D01*
X001530Y013875D02*
X004699Y013875D01*
X004794Y013974D02*
X001530Y013974D01*
X001530Y014072D02*
X003022Y014072D01*
X003025Y014069D02*
X003139Y014022D01*
X003261Y014022D01*
X003375Y014069D01*
X003446Y014140D01*
X009571Y014140D01*
X009766Y013946D01*
X009702Y013882D01*
X009640Y013732D01*
X009640Y012968D01*
X009702Y012818D01*
X009818Y012702D01*
X009968Y012640D01*
X010132Y012640D01*
X010282Y012702D01*
X010398Y012818D01*
X010460Y012968D01*
X010460Y013732D01*
X010398Y013882D01*
X010282Y013998D01*
X010229Y014020D01*
X010179Y014070D01*
X009729Y014520D01*
X003446Y014520D01*
X003375Y014591D01*
X003261Y014638D01*
X003139Y014638D01*
X003025Y014591D01*
X002939Y014505D01*
X002892Y014391D01*
X002892Y014269D01*
X001530Y014269D01*
X001530Y014171D02*
X002933Y014171D01*
X002939Y014155D02*
X003025Y014069D01*
X002939Y014155D02*
X002892Y014269D01*
X002892Y014368D02*
X001530Y014368D01*
X001530Y014466D02*
X002923Y014466D01*
X002999Y014565D02*
X001530Y014565D01*
X001530Y014663D02*
X019790Y014663D01*
X019790Y014702D02*
X019790Y014598D01*
X019830Y014503D01*
X019903Y014430D01*
X019998Y014390D01*
X020102Y014390D01*
X020197Y014430D01*
X020270Y014503D01*
X020310Y014598D01*
X020310Y014702D01*
X020270Y014797D01*
X020197Y014870D01*
X020190Y014873D01*
X020190Y015189D01*
X020292Y015189D01*
X020357Y015253D01*
X020357Y015777D01*
X020306Y015829D01*
X020339Y015848D01*
X020367Y015876D01*
X020387Y015910D01*
X020397Y015948D01*
X020397Y016136D01*
X020098Y016136D01*
X020098Y016233D01*
X020002Y016233D01*
X020002Y016551D01*
X019833Y016551D01*
X019795Y016541D01*
X019761Y016521D01*
X019733Y016493D01*
X019713Y016459D01*
X019703Y016421D01*
X019703Y016233D01*
X020002Y016233D01*
X020002Y016136D01*
X019703Y016136D01*
X019703Y015948D01*
X019713Y015910D01*
X019733Y015876D01*
X019761Y015848D01*
X019794Y015829D01*
X019743Y015777D01*
X019743Y015253D01*
X019808Y015189D01*
X019910Y015189D01*
X019910Y014873D01*
X019903Y014870D01*
X019830Y014797D01*
X019790Y014702D01*
X019815Y014762D02*
X001530Y014762D01*
X001530Y014860D02*
X019892Y014860D01*
X019910Y014959D02*
X001530Y014959D01*
X001530Y015057D02*
X019910Y015057D01*
X019910Y015156D02*
X001530Y015156D01*
X001530Y015254D02*
X019743Y015254D01*
X019743Y015353D02*
X001530Y015353D01*
X001530Y015451D02*
X019743Y015451D01*
X019743Y015550D02*
X001530Y015550D01*
X001530Y015648D02*
X019743Y015648D01*
X019743Y015747D02*
X001530Y015747D01*
X001530Y015845D02*
X019766Y015845D01*
X019704Y015944D02*
X001530Y015944D01*
X001530Y016042D02*
X019703Y016042D01*
X019703Y016239D02*
X003073Y016239D01*
X003292Y016338D02*
X019703Y016338D01*
X019707Y016436D02*
X003390Y016436D01*
X003489Y016535D02*
X019784Y016535D01*
X020002Y016535D02*
X020098Y016535D01*
X020098Y016551D02*
X020098Y016233D01*
X020397Y016233D01*
X020397Y016421D01*
X020387Y016459D01*
X020367Y016493D01*
X020339Y016521D01*
X020305Y016541D01*
X020267Y016551D01*
X020098Y016551D01*
X020098Y016436D02*
X020002Y016436D01*
X020002Y016338D02*
X020098Y016338D01*
X020098Y016239D02*
X020002Y016239D01*
X020002Y016141D02*
X001530Y016141D01*
X001530Y016239D02*
X002487Y016239D01*
X002268Y016338D02*
X001530Y016338D01*
X001530Y016436D02*
X002170Y016436D01*
X002071Y016535D02*
X001530Y016535D01*
X001530Y016633D02*
X002009Y016633D01*
X001968Y016732D02*
X001530Y016732D01*
X001530Y016830D02*
X001927Y016830D01*
X001900Y016929D02*
X001530Y016929D01*
X001569Y017027D02*
X001900Y017027D01*
X001900Y017126D02*
X001678Y017126D01*
X001788Y017224D02*
X001900Y017224D01*
X001897Y017323D02*
X001932Y017323D01*
X003043Y017914D02*
X041030Y017914D01*
X041030Y018012D02*
X002663Y018012D01*
X002773Y018111D02*
X041030Y018111D01*
X041030Y018209D02*
X002882Y018209D01*
X002992Y018308D02*
X041030Y018308D01*
X041030Y017815D02*
X003279Y017815D01*
X003378Y017717D02*
X041030Y017717D01*
X041030Y017618D02*
X020171Y017618D01*
X020142Y017630D02*
X020038Y017630D01*
X019943Y017590D01*
X019870Y017517D01*
X019830Y017422D01*
X019830Y017318D01*
X019870Y017223D01*
X019943Y017150D01*
X020038Y017110D01*
X020142Y017110D01*
X020149Y017113D01*
X020372Y016890D01*
X020410Y016890D01*
X020410Y015792D01*
X020492Y015710D01*
X022170Y014032D01*
X022170Y013633D01*
X022163Y013630D01*
X022090Y013557D01*
X022050Y013462D01*
X022050Y013358D01*
X022078Y013290D01*
X020873Y013290D01*
X020870Y013297D01*
X020797Y013370D01*
X020702Y013410D01*
X020598Y013410D01*
X020503Y013370D01*
X020430Y013297D01*
X020390Y013202D01*
X020390Y013098D01*
X020430Y013003D01*
X020503Y012930D01*
X020598Y012890D01*
X018557Y012890D01*
X018557Y012792D02*
X023570Y012792D01*
X023543Y012780D02*
X023470Y012707D01*
X023430Y012612D01*
X023430Y012508D01*
X023470Y012413D01*
X023543Y012340D01*
X023638Y012300D01*
X023742Y012300D01*
X023837Y012340D01*
X023910Y012413D01*
X023911Y012415D01*
X025237Y012415D01*
X025253Y012400D01*
X025348Y012360D01*
X025452Y012360D01*
X025547Y012400D01*
X025620Y012473D01*
X025660Y012568D01*
X025660Y012672D01*
X025620Y012767D01*
X025547Y012840D01*
X025452Y012880D01*
X025348Y012880D01*
X025253Y012840D01*
X025180Y012767D01*
X025154Y012705D01*
X025150Y012705D01*
X025180Y012778D01*
X025180Y012882D01*
X025140Y012977D01*
X025108Y013010D01*
X027031Y013010D01*
X027017Y012985D01*
X027006Y012947D01*
X027006Y012769D01*
X027275Y012769D01*
X027275Y012731D01*
X027006Y012731D01*
X027006Y012553D01*
X027017Y012515D01*
X027036Y012481D01*
X027064Y012453D01*
X027098Y012433D01*
X027137Y012423D01*
X027275Y012423D01*
X027275Y012731D01*
X027313Y012731D01*
X027313Y012423D01*
X027452Y012423D01*
X027490Y012433D01*
X027524Y012453D01*
X027552Y012481D01*
X027571Y012514D01*
X027623Y012463D01*
X027989Y012463D01*
X028054Y012527D01*
X028054Y012535D01*
X028329Y012535D01*
X028330Y012533D01*
X028403Y012460D01*
X028498Y012420D01*
X028602Y012420D01*
X028697Y012460D01*
X028770Y012533D01*
X028810Y012628D01*
X028810Y012732D01*
X028770Y012827D01*
X028697Y012900D01*
X028674Y012910D01*
X035027Y012910D01*
X035030Y012903D01*
X035103Y012830D01*
X035198Y012790D01*
X035302Y012790D01*
X035397Y012830D01*
X035470Y012903D01*
X035510Y012998D01*
X035510Y013102D01*
X035470Y013197D01*
X035397Y013270D01*
X035302Y013310D01*
X035198Y013310D01*
X035103Y013270D01*
X035030Y013197D01*
X035027Y013190D01*
X027908Y013190D01*
X027890Y013208D01*
X027808Y013290D01*
X022542Y013290D01*
X022570Y013358D01*
X022570Y013462D01*
X022530Y013557D01*
X022457Y013630D01*
X022450Y013633D01*
X022450Y014148D01*
X020690Y015908D01*
X020690Y017088D01*
X020608Y017170D01*
X020488Y017170D01*
X020347Y017311D01*
X020350Y017318D01*
X020350Y017422D01*
X020310Y017517D01*
X020237Y017590D01*
X020142Y017630D01*
X020009Y017618D02*
X003476Y017618D01*
X003546Y017520D02*
X019872Y017520D01*
X019830Y017421D02*
X003587Y017421D01*
X003628Y017323D02*
X019830Y017323D01*
X019869Y017224D02*
X003660Y017224D01*
X003660Y017126D02*
X020001Y017126D01*
X020235Y017027D02*
X003660Y017027D01*
X003660Y016929D02*
X020333Y016929D01*
X020410Y016830D02*
X003633Y016830D01*
X003592Y016732D02*
X020410Y016732D01*
X020410Y016633D02*
X003551Y016633D01*
X003401Y014565D02*
X019804Y014565D01*
X019866Y014466D02*
X009783Y014466D01*
X009881Y014368D02*
X013800Y014368D01*
X013803Y014370D02*
X013730Y014297D01*
X013690Y014202D01*
X013690Y014098D01*
X013730Y014003D01*
X013803Y013930D01*
X013898Y013890D01*
X014002Y013890D01*
X014097Y013930D01*
X014135Y013967D01*
X014992Y013110D01*
X016127Y013110D01*
X016130Y013103D01*
X016203Y013030D01*
X016298Y012990D01*
X016402Y012990D01*
X016497Y013030D01*
X016570Y013103D01*
X016610Y013198D01*
X016610Y013302D01*
X016570Y013397D01*
X016497Y013470D01*
X016402Y013510D01*
X016298Y013510D01*
X016203Y013470D01*
X016130Y013397D01*
X016127Y013390D01*
X015108Y013390D01*
X014290Y014208D01*
X014208Y014290D01*
X014173Y014290D01*
X014170Y014297D01*
X014097Y014370D01*
X014002Y014410D01*
X013898Y014410D01*
X013803Y014370D01*
X013718Y014269D02*
X009980Y014269D01*
X010078Y014171D02*
X013690Y014171D01*
X013701Y014072D02*
X010177Y014072D01*
X010306Y013974D02*
X013759Y013974D01*
X013920Y013860D02*
X013580Y013860D01*
X013340Y013620D01*
X013340Y013280D01*
X013580Y013040D01*
X013920Y013040D01*
X014160Y013280D01*
X014160Y013620D01*
X013920Y013860D01*
X014003Y013777D02*
X014325Y013777D01*
X014227Y013875D02*
X010401Y013875D01*
X010441Y013777D02*
X012497Y013777D01*
X012518Y013798D02*
X012402Y013682D01*
X012340Y013532D01*
X012340Y013368D01*
X012402Y013218D01*
X012518Y013102D01*
X012668Y013040D01*
X012832Y013040D01*
X012982Y013102D01*
X013098Y013218D01*
X013160Y013368D01*
X013160Y013532D01*
X013098Y013682D01*
X012982Y013798D01*
X012832Y013860D01*
X012668Y013860D01*
X012518Y013798D01*
X012401Y013678D02*
X010460Y013678D01*
X010460Y013580D02*
X012360Y013580D01*
X012340Y013481D02*
X010460Y013481D01*
X010460Y013383D02*
X012340Y013383D01*
X012375Y013284D02*
X010460Y013284D01*
X010460Y013186D02*
X012435Y013186D01*
X012555Y013087D02*
X010460Y013087D01*
X010460Y012989D02*
X017943Y012989D01*
X017943Y013087D02*
X016555Y013087D01*
X016605Y013186D02*
X017982Y013186D01*
X018110Y013284D02*
X016610Y013284D01*
X016577Y013383D02*
X018110Y013383D01*
X018051Y013481D02*
X016472Y013481D01*
X016228Y013481D02*
X015017Y013481D01*
X014918Y013580D02*
X017998Y013580D01*
X017990Y013678D02*
X014820Y013678D01*
X014721Y013777D02*
X018021Y013777D01*
X018114Y013875D02*
X014623Y013875D01*
X014524Y013974D02*
X022170Y013974D01*
X022170Y013875D02*
X018386Y013875D01*
X018479Y013777D02*
X022170Y013777D01*
X022170Y013678D02*
X018510Y013678D01*
X018502Y013580D02*
X022112Y013580D01*
X022058Y013481D02*
X018449Y013481D01*
X018390Y013383D02*
X020532Y013383D01*
X020424Y013284D02*
X018390Y013284D01*
X018518Y013186D02*
X020390Y013186D01*
X020395Y013087D02*
X018557Y013087D01*
X018557Y012989D02*
X020444Y012989D01*
X020598Y012890D02*
X020702Y012890D01*
X023733Y012890D01*
X023730Y012882D02*
X023730Y012820D01*
X023638Y012820D01*
X023543Y012780D01*
X023464Y012693D02*
X018557Y012693D01*
X018529Y012595D02*
X023430Y012595D01*
X023435Y012496D02*
X018583Y012496D01*
X018597Y012398D02*
X023485Y012398D01*
X023666Y012102D02*
X027986Y012102D01*
X027749Y012019D02*
X027737Y012030D01*
X027642Y012070D01*
X027538Y012070D01*
X027443Y012030D01*
X027370Y011957D01*
X027330Y011862D01*
X027330Y011758D01*
X027370Y011663D01*
X027443Y011590D01*
X027538Y011550D01*
X027642Y011550D01*
X027737Y011590D01*
X027810Y011663D01*
X027845Y011745D01*
X029504Y012325D01*
X037820Y012265D01*
X037905Y012180D01*
X037905Y012134D01*
X037818Y012098D01*
X037702Y011982D01*
X037640Y011832D01*
X037640Y011068D01*
X037702Y010918D01*
X037818Y010802D01*
X037968Y010740D01*
X038132Y010740D01*
X038282Y010802D01*
X038398Y010918D01*
X038460Y011068D01*
X038460Y011832D01*
X038398Y011982D01*
X038282Y012098D01*
X038195Y012134D01*
X038195Y012300D01*
X038110Y012385D01*
X037983Y012512D01*
X037941Y012555D01*
X037940Y012555D01*
X037880Y012555D01*
X029514Y012615D01*
X029489Y012627D01*
X029456Y012615D01*
X029421Y012615D01*
X029401Y012596D01*
X027749Y012019D01*
X027829Y011708D02*
X028476Y011708D01*
X028440Y011610D02*
X027757Y011610D01*
X028020Y011807D02*
X028592Y011807D01*
X028584Y012004D02*
X036724Y012004D01*
X036702Y011982D02*
X036640Y011832D01*
X036640Y011068D01*
X036702Y010918D01*
X036818Y010802D01*
X036968Y010740D01*
X037132Y010740D01*
X037282Y010802D01*
X037398Y010918D01*
X037460Y011068D01*
X037460Y011832D01*
X037398Y011982D01*
X037282Y012098D01*
X037132Y012160D01*
X036968Y012160D01*
X036818Y012098D01*
X036702Y011982D01*
X036670Y011905D02*
X028302Y011905D01*
X028269Y012201D02*
X023037Y012201D01*
X022939Y012299D02*
X028551Y012299D01*
X028734Y012496D02*
X029115Y012496D01*
X029397Y012595D02*
X028796Y012595D01*
X028810Y012693D02*
X038292Y012693D01*
X038390Y012595D02*
X032346Y012595D01*
X033116Y012299D02*
X029430Y012299D01*
X029148Y012201D02*
X037884Y012201D01*
X037828Y012102D02*
X037272Y012102D01*
X037376Y012004D02*
X037724Y012004D01*
X037670Y011905D02*
X037430Y011905D01*
X037460Y011807D02*
X037640Y011807D01*
X037640Y011708D02*
X037460Y011708D01*
X037460Y011610D02*
X037640Y011610D01*
X037640Y011511D02*
X037460Y011511D01*
X037460Y011413D02*
X037640Y011413D01*
X037640Y011314D02*
X037460Y011314D01*
X037460Y011216D02*
X037640Y011216D01*
X037640Y011117D02*
X037460Y011117D01*
X037439Y011019D02*
X037661Y011019D01*
X037701Y010920D02*
X037399Y010920D01*
X037301Y010822D02*
X037799Y010822D01*
X038301Y010822D02*
X038799Y010822D01*
X038818Y010802D02*
X038702Y010918D01*
X038640Y011068D01*
X038640Y011832D01*
X038702Y011982D01*
X038755Y012034D01*
X038695Y012059D01*
X038609Y012145D01*
X038562Y012259D01*
X038562Y012381D01*
X038574Y012411D01*
X037670Y013315D01*
X030331Y013315D01*
X030330Y013313D01*
X030257Y013240D01*
X030162Y013200D01*
X030058Y013200D01*
X029963Y013240D01*
X029890Y013313D01*
X029850Y013408D01*
X029850Y013512D01*
X029890Y013607D01*
X029963Y013680D01*
X030058Y013720D01*
X030162Y013720D01*
X030257Y013680D01*
X030330Y013607D01*
X030331Y013605D01*
X037790Y013605D01*
X038779Y012616D01*
X038809Y012628D01*
X038931Y012628D01*
X039045Y012581D01*
X039131Y012495D01*
X039178Y012381D01*
X039178Y012259D01*
X039136Y012158D01*
X039282Y012098D01*
X039398Y011982D01*
X039460Y011832D01*
X039460Y011068D01*
X039398Y010918D01*
X039282Y010802D01*
X039132Y010740D01*
X038968Y010740D01*
X038818Y010802D01*
X038701Y010920D02*
X038399Y010920D01*
X038439Y011019D02*
X038661Y011019D01*
X038640Y011117D02*
X038460Y011117D01*
X038460Y011216D02*
X038640Y011216D01*
X038640Y011314D02*
X038460Y011314D01*
X038460Y011413D02*
X038640Y011413D01*
X038640Y011511D02*
X038460Y011511D01*
X038460Y011610D02*
X038640Y011610D01*
X038640Y011708D02*
X038460Y011708D01*
X038460Y011807D02*
X038640Y011807D01*
X038670Y011905D02*
X038430Y011905D01*
X038376Y012004D02*
X038724Y012004D01*
X038652Y012102D02*
X038272Y012102D01*
X038195Y012201D02*
X038586Y012201D01*
X038562Y012299D02*
X038195Y012299D01*
X038098Y012398D02*
X038569Y012398D01*
X038489Y012496D02*
X037999Y012496D01*
X037940Y012555D02*
X037940Y012555D01*
X038193Y012792D02*
X035305Y012792D01*
X035195Y012792D02*
X028785Y012792D01*
X028708Y012890D02*
X035042Y012890D01*
X035458Y012890D02*
X038095Y012890D01*
X037996Y012989D02*
X035506Y012989D01*
X035510Y013087D02*
X037898Y013087D01*
X037799Y013186D02*
X035475Y013186D01*
X035364Y013284D02*
X037701Y013284D01*
X037914Y013481D02*
X041030Y013481D01*
X041030Y013383D02*
X038013Y013383D01*
X038111Y013284D02*
X041030Y013284D01*
X041030Y013186D02*
X038210Y013186D01*
X038308Y013087D02*
X041030Y013087D01*
X041030Y012989D02*
X038407Y012989D01*
X038505Y012890D02*
X041030Y012890D01*
X041030Y012792D02*
X038604Y012792D01*
X038702Y012693D02*
X041030Y012693D01*
X041030Y012595D02*
X039012Y012595D01*
X039130Y012496D02*
X041030Y012496D01*
X041030Y012398D02*
X039171Y012398D01*
X039178Y012299D02*
X041030Y012299D01*
X041030Y012201D02*
X039154Y012201D01*
X039272Y012102D02*
X039769Y012102D01*
X039757Y012093D02*
X039707Y012043D01*
X039665Y011986D01*
X039633Y011923D01*
X039611Y011855D01*
X039600Y011785D01*
X039600Y011500D01*
X040000Y011500D01*
X040000Y012198D01*
X039945Y012189D01*
X039877Y012167D01*
X039814Y012135D01*
X039757Y012093D01*
X039678Y012004D02*
X039376Y012004D01*
X039430Y011905D02*
X039627Y011905D01*
X039603Y011807D02*
X039460Y011807D01*
X039460Y011708D02*
X039600Y011708D01*
X039600Y011610D02*
X039460Y011610D01*
X039460Y011511D02*
X039600Y011511D01*
X039600Y011400D02*
X039600Y011115D01*
X039611Y011045D01*
X039633Y010977D01*
X039665Y010914D01*
X039707Y010857D01*
X039757Y010807D01*
X039814Y010765D01*
X039877Y010733D01*
X039945Y010711D01*
X040000Y010702D01*
X040000Y011400D01*
X040100Y011400D01*
X040100Y011500D01*
X040500Y011500D01*
X040500Y011785D01*
X040489Y011855D01*
X040467Y011923D01*
X040435Y011986D01*
X040393Y012043D01*
X040343Y012093D01*
X040286Y012135D01*
X040223Y012167D01*
X040155Y012189D01*
X040100Y012198D01*
X040100Y011500D01*
X040000Y011500D01*
X040000Y011400D01*
X039600Y011400D01*
X039600Y011314D02*
X039460Y011314D01*
X039460Y011216D02*
X039600Y011216D01*
X039600Y011117D02*
X039460Y011117D01*
X039439Y011019D02*
X039620Y011019D01*
X039662Y010920D02*
X039399Y010920D01*
X039301Y010822D02*
X039742Y010822D01*
X039908Y010723D02*
X029545Y010723D01*
X029444Y010822D02*
X036799Y010822D01*
X036701Y010920D02*
X029343Y010920D01*
X029242Y011019D02*
X036661Y011019D01*
X036640Y011117D02*
X029141Y011117D01*
X029040Y011216D02*
X036640Y011216D01*
X036640Y011314D02*
X028939Y011314D01*
X028910Y011413D02*
X036640Y011413D01*
X036640Y011511D02*
X028957Y011511D01*
X028960Y011610D02*
X036640Y011610D01*
X036640Y011708D02*
X028924Y011708D01*
X028808Y011807D02*
X036640Y011807D01*
X036828Y012102D02*
X028866Y012102D01*
X028833Y012398D02*
X025542Y012398D01*
X025630Y012496D02*
X027027Y012496D01*
X027006Y012595D02*
X025660Y012595D01*
X025651Y012693D02*
X027006Y012693D01*
X027006Y012792D02*
X025596Y012792D01*
X025204Y012792D02*
X025180Y012792D01*
X025177Y012890D02*
X027006Y012890D01*
X027019Y012989D02*
X025129Y012989D01*
X024292Y013410D02*
X027808Y013410D01*
X028259Y013861D01*
X028318Y013802D01*
X028468Y013740D01*
X028632Y013740D01*
X028782Y013802D01*
X028898Y013918D01*
X028960Y014068D01*
X028960Y014832D01*
X028898Y014982D01*
X028782Y015098D01*
X028632Y015160D01*
X028468Y015160D01*
X028318Y015098D01*
X028202Y014982D01*
X028140Y014832D01*
X028140Y014138D01*
X027692Y013690D01*
X024408Y013690D01*
X024007Y014091D01*
X024010Y014098D01*
X024010Y014202D01*
X023970Y014297D01*
X023897Y014370D01*
X023802Y014410D01*
X023698Y014410D01*
X023603Y014370D01*
X023530Y014297D01*
X023490Y014202D01*
X023490Y014098D01*
X023530Y014003D01*
X023603Y013930D01*
X023698Y013890D01*
X023802Y013890D01*
X023809Y013893D01*
X024210Y013492D01*
X024292Y013410D01*
X024221Y013481D02*
X022562Y013481D01*
X022570Y013383D02*
X029861Y013383D01*
X029850Y013481D02*
X027879Y013481D01*
X027978Y013580D02*
X029878Y013580D01*
X029960Y013678D02*
X028076Y013678D01*
X028175Y013777D02*
X028380Y013777D01*
X028720Y013777D02*
X029380Y013777D01*
X029318Y013802D02*
X029468Y013740D01*
X029632Y013740D01*
X029782Y013802D01*
X029898Y013918D01*
X029960Y014068D01*
X029960Y014832D01*
X029898Y014982D01*
X029782Y015098D01*
X029632Y015160D01*
X029468Y015160D01*
X029318Y015098D01*
X029202Y014982D01*
X029140Y014832D01*
X029140Y014068D01*
X029202Y013918D01*
X029318Y013802D01*
X029245Y013875D02*
X028855Y013875D01*
X028921Y013974D02*
X029179Y013974D01*
X029140Y014072D02*
X028960Y014072D01*
X028960Y014171D02*
X029140Y014171D01*
X029140Y014269D02*
X028960Y014269D01*
X028960Y014368D02*
X029140Y014368D01*
X029140Y014466D02*
X028960Y014466D01*
X028960Y014565D02*
X029140Y014565D01*
X029140Y014663D02*
X028960Y014663D01*
X028960Y014762D02*
X029140Y014762D01*
X029152Y014860D02*
X028948Y014860D01*
X028907Y014959D02*
X029193Y014959D01*
X029277Y015057D02*
X028823Y015057D01*
X028642Y015156D02*
X029458Y015156D01*
X029642Y015156D02*
X038999Y015156D01*
X039034Y015072D02*
X039282Y014824D01*
X039605Y014690D01*
X039955Y014690D01*
X040278Y014824D01*
X040526Y015072D01*
X040660Y015395D01*
X040660Y015745D01*
X040526Y016068D01*
X040278Y016316D01*
X039955Y016450D01*
X039605Y016450D01*
X039282Y016316D01*
X039034Y016068D01*
X038900Y015745D01*
X038900Y015395D01*
X039034Y015072D01*
X039049Y015057D02*
X029823Y015057D01*
X029907Y014959D02*
X039147Y014959D01*
X039246Y014860D02*
X029948Y014860D01*
X029960Y014762D02*
X039432Y014762D01*
X040128Y014762D02*
X041030Y014762D01*
X041030Y014860D02*
X040314Y014860D01*
X040413Y014959D02*
X041030Y014959D01*
X041030Y015057D02*
X040511Y015057D01*
X040561Y015156D02*
X041030Y015156D01*
X041030Y015254D02*
X040602Y015254D01*
X040642Y015353D02*
X041030Y015353D01*
X041030Y015451D02*
X040660Y015451D01*
X040660Y015550D02*
X041030Y015550D01*
X041030Y015648D02*
X040660Y015648D01*
X040659Y015747D02*
X041030Y015747D01*
X041030Y015845D02*
X040618Y015845D01*
X040578Y015944D02*
X041030Y015944D01*
X041030Y016042D02*
X040537Y016042D01*
X040454Y016141D02*
X041030Y016141D01*
X041030Y016239D02*
X040355Y016239D01*
X040226Y016338D02*
X041030Y016338D01*
X041030Y016436D02*
X039989Y016436D01*
X039571Y016436D02*
X034515Y016436D01*
X034482Y016450D02*
X034378Y016450D01*
X034376Y016449D01*
X034035Y016790D01*
X033950Y016875D01*
X031651Y016875D01*
X031650Y016877D01*
X031577Y016950D01*
X031482Y016990D01*
X031378Y016990D01*
X031283Y016950D01*
X031210Y016877D01*
X031170Y016782D01*
X031170Y016678D01*
X031210Y016583D01*
X031283Y016510D01*
X031378Y016470D01*
X031482Y016470D01*
X031577Y016510D01*
X031650Y016583D01*
X031651Y016585D01*
X033830Y016585D01*
X034171Y016244D01*
X034170Y016242D01*
X034170Y016138D01*
X034210Y016043D01*
X034283Y015970D01*
X034378Y015930D01*
X034482Y015930D01*
X034577Y015970D01*
X034650Y016043D01*
X034690Y016138D01*
X034690Y016242D01*
X034650Y016337D01*
X034577Y016410D01*
X034482Y016450D01*
X034650Y016338D02*
X039334Y016338D01*
X039205Y016239D02*
X034690Y016239D01*
X034690Y016141D02*
X039106Y016141D01*
X039023Y016042D02*
X034650Y016042D01*
X034514Y015944D02*
X038982Y015944D01*
X038942Y015845D02*
X020753Y015845D01*
X020690Y015944D02*
X034346Y015944D01*
X034210Y016042D02*
X020690Y016042D01*
X020690Y016141D02*
X034170Y016141D01*
X034170Y016239D02*
X020690Y016239D01*
X020690Y016338D02*
X034077Y016338D01*
X033979Y016436D02*
X020690Y016436D01*
X020690Y016535D02*
X031258Y016535D01*
X031189Y016633D02*
X020690Y016633D01*
X020690Y016732D02*
X031170Y016732D01*
X031190Y016830D02*
X020690Y016830D01*
X020690Y016929D02*
X031261Y016929D01*
X031599Y016929D02*
X041030Y016929D01*
X041030Y017027D02*
X020690Y017027D01*
X020652Y017126D02*
X041030Y017126D01*
X041030Y017224D02*
X020434Y017224D01*
X020350Y017323D02*
X041030Y017323D01*
X041030Y017421D02*
X020350Y017421D01*
X020308Y017520D02*
X041030Y017520D01*
X041030Y016830D02*
X033995Y016830D01*
X034094Y016732D02*
X041030Y016732D01*
X041030Y016633D02*
X034192Y016633D01*
X034291Y016535D02*
X041030Y016535D01*
X038901Y015747D02*
X020851Y015747D01*
X020950Y015648D02*
X038900Y015648D01*
X038900Y015550D02*
X021048Y015550D01*
X021147Y015451D02*
X038900Y015451D01*
X038918Y015353D02*
X021245Y015353D01*
X021344Y015254D02*
X038958Y015254D01*
X041030Y014663D02*
X029960Y014663D01*
X029960Y014565D02*
X041030Y014565D01*
X041030Y014466D02*
X029960Y014466D01*
X029960Y014368D02*
X041030Y014368D01*
X041030Y014269D02*
X029960Y014269D01*
X029960Y014171D02*
X041030Y014171D01*
X041030Y014072D02*
X029960Y014072D01*
X029921Y013974D02*
X041030Y013974D01*
X041030Y013875D02*
X029855Y013875D01*
X029720Y013777D02*
X041030Y013777D01*
X041030Y013678D02*
X030260Y013678D01*
X030302Y013284D02*
X035136Y013284D01*
X037816Y013580D02*
X041030Y013580D01*
X041030Y012102D02*
X040331Y012102D01*
X040422Y012004D02*
X041030Y012004D01*
X041030Y011905D02*
X040473Y011905D01*
X040497Y011807D02*
X041030Y011807D01*
X041030Y011708D02*
X040500Y011708D01*
X040500Y011610D02*
X041030Y011610D01*
X041030Y011511D02*
X040500Y011511D01*
X040500Y011400D02*
X040100Y011400D01*
X040100Y010702D01*
X040155Y010711D01*
X040223Y010733D01*
X040286Y010765D01*
X040343Y010807D01*
X040393Y010857D01*
X040435Y010914D01*
X040467Y010977D01*
X040489Y011045D01*
X040500Y011115D01*
X040500Y011400D01*
X040500Y011314D02*
X041030Y011314D01*
X041030Y011216D02*
X040500Y011216D01*
X040500Y011117D02*
X041030Y011117D01*
X041030Y011019D02*
X040480Y011019D01*
X040438Y010920D02*
X041030Y010920D01*
X041030Y010822D02*
X040358Y010822D01*
X040192Y010723D02*
X041030Y010723D01*
X041030Y010625D02*
X029646Y010625D01*
X029748Y010526D02*
X030179Y010526D01*
X030357Y010526D02*
X030395Y010526D01*
X030395Y010428D02*
X030357Y010428D01*
X030357Y010329D02*
X030395Y010329D01*
X030395Y010231D02*
X030357Y010231D01*
X030664Y010231D02*
X041030Y010231D01*
X041030Y010329D02*
X030664Y010329D01*
X030658Y010428D02*
X041030Y010428D01*
X041030Y010526D02*
X030573Y010526D01*
X030664Y010132D02*
X030975Y010132D01*
X030848Y010034D02*
X030664Y010034D01*
X031165Y010132D02*
X041030Y010132D01*
X041030Y010034D02*
X031292Y010034D01*
X031330Y009935D02*
X041030Y009935D01*
X041030Y009837D02*
X031329Y009837D01*
X031286Y009738D02*
X041030Y009738D01*
X041030Y009640D02*
X031145Y009640D01*
X030995Y009640D02*
X022366Y009640D01*
X022422Y009541D02*
X028875Y009541D01*
X029060Y009290D02*
X022280Y009290D01*
X022130Y009440D01*
X021838Y009541D02*
X021830Y009541D01*
X021823Y009640D02*
X021894Y009640D01*
X021770Y009738D02*
X022044Y009738D01*
X022216Y009738D02*
X030854Y009738D01*
X029616Y010034D02*
X028388Y010034D01*
X028394Y010132D02*
X029616Y010132D01*
X029616Y010231D02*
X028394Y010231D01*
X028394Y010329D02*
X029534Y010329D01*
X029433Y010428D02*
X028394Y010428D01*
X028357Y010526D02*
X029332Y010526D01*
X029231Y010625D02*
X028132Y010625D01*
X028138Y010723D02*
X029130Y010723D01*
X029029Y010822D02*
X028113Y010822D01*
X028046Y010920D02*
X028927Y010920D01*
X028826Y011019D02*
X025100Y011019D01*
X025100Y010920D02*
X027614Y010920D01*
X027830Y010700D02*
X024740Y010700D01*
X024660Y010740D01*
X024906Y010540D02*
X026484Y010540D01*
X026460Y010482D01*
X026460Y010378D01*
X026500Y010283D01*
X026573Y010210D01*
X026668Y010170D01*
X026772Y010170D01*
X026867Y010210D01*
X026940Y010283D01*
X026941Y010285D01*
X027346Y010285D01*
X027346Y010030D01*
X024383Y010030D01*
X024420Y010118D01*
X024420Y010222D01*
X024380Y010317D01*
X024307Y010390D01*
X024212Y010430D01*
X024108Y010430D01*
X024060Y010410D01*
X024060Y010462D01*
X024020Y010557D01*
X023947Y010630D01*
X023852Y010670D01*
X023748Y010670D01*
X023741Y010667D01*
X022458Y011950D01*
X022040Y011950D01*
X022040Y011962D01*
X022012Y012030D01*
X022812Y012030D01*
X022871Y011971D01*
X022871Y011969D01*
X022912Y011930D01*
X022952Y011890D01*
X022954Y011890D01*
X024411Y010485D01*
X024410Y010482D01*
X024410Y010378D01*
X024450Y010283D01*
X024523Y010210D01*
X024618Y010170D01*
X024722Y010170D01*
X024817Y010210D01*
X024890Y010283D01*
X024930Y010378D01*
X024930Y010482D01*
X024906Y010540D01*
X024912Y010526D02*
X026478Y010526D01*
X026460Y010428D02*
X024930Y010428D01*
X024910Y010329D02*
X026480Y010329D01*
X026552Y010231D02*
X024838Y010231D01*
X024502Y010231D02*
X024416Y010231D01*
X024420Y010132D02*
X027346Y010132D01*
X027346Y010034D02*
X024385Y010034D01*
X024369Y010329D02*
X024430Y010329D01*
X024410Y010428D02*
X024218Y010428D01*
X024102Y010428D02*
X024060Y010428D01*
X024033Y010526D02*
X024369Y010526D01*
X024266Y010625D02*
X023953Y010625D01*
X024062Y010822D02*
X023586Y010822D01*
X023488Y010920D02*
X023960Y010920D01*
X023858Y011019D02*
X023389Y011019D01*
X023291Y011117D02*
X023755Y011117D01*
X023653Y011216D02*
X023192Y011216D01*
X023094Y011314D02*
X023551Y011314D01*
X023449Y011413D02*
X022995Y011413D01*
X022897Y011511D02*
X023347Y011511D01*
X023245Y011610D02*
X022798Y011610D01*
X022700Y011708D02*
X023142Y011708D01*
X023040Y011807D02*
X022601Y011807D01*
X022503Y011905D02*
X022937Y011905D01*
X022912Y011930D02*
X022912Y011930D01*
X022838Y012004D02*
X022023Y012004D01*
X021614Y011708D02*
X017907Y011708D01*
X017910Y011610D02*
X020662Y011610D01*
X020659Y011605D02*
X020649Y011567D01*
X020649Y011398D01*
X020967Y011398D01*
X020967Y011697D01*
X020779Y011697D01*
X020741Y011687D01*
X020707Y011667D01*
X020679Y011639D01*
X020659Y011605D01*
X020649Y011511D02*
X017874Y011511D01*
X017756Y011413D02*
X020649Y011413D01*
X020649Y011216D02*
X017374Y011216D01*
X017275Y011117D02*
X020653Y011117D01*
X020732Y011019D02*
X017250Y011019D01*
X017250Y010920D02*
X021492Y010920D01*
X021444Y010822D02*
X017250Y010822D01*
X017250Y010723D02*
X021440Y010723D01*
X021475Y010625D02*
X017250Y010625D01*
X017250Y010526D02*
X021585Y010526D01*
X021815Y010526D02*
X022526Y010526D01*
X022624Y010428D02*
X017250Y010428D01*
X017250Y010329D02*
X022723Y010329D01*
X022821Y010231D02*
X017250Y010231D01*
X016970Y010231D02*
X016800Y010231D01*
X016800Y010132D02*
X016970Y010132D01*
X016970Y010034D02*
X016800Y010034D01*
X016800Y009935D02*
X016970Y009935D01*
X016970Y009837D02*
X016800Y009837D01*
X016800Y009738D02*
X016970Y009738D01*
X016970Y009640D02*
X016800Y009640D01*
X016800Y009541D02*
X016970Y009541D01*
X016970Y009443D02*
X016800Y009443D01*
X016800Y009344D02*
X016970Y009344D01*
X016970Y009246D02*
X016800Y009246D01*
X016800Y009147D02*
X016970Y009147D01*
X016970Y009049D02*
X016800Y009049D01*
X016800Y008950D02*
X016970Y008950D01*
X016970Y008852D02*
X016800Y008852D01*
X016800Y008753D02*
X016970Y008753D01*
X016970Y008655D02*
X016800Y008655D01*
X016724Y008556D02*
X016970Y008556D01*
X016970Y008458D02*
X016406Y008458D01*
X016307Y008359D02*
X016970Y008359D01*
X016970Y008261D02*
X016209Y008261D01*
X016110Y008162D02*
X016970Y008162D01*
X016970Y008064D02*
X016012Y008064D01*
X015913Y007965D02*
X016970Y007965D01*
X016970Y007867D02*
X015815Y007867D01*
X015716Y007768D02*
X016970Y007768D01*
X016970Y007670D02*
X015618Y007670D01*
X015519Y007571D02*
X016970Y007571D01*
X016970Y007473D02*
X015421Y007473D01*
X015322Y007374D02*
X016970Y007374D01*
X016970Y007276D02*
X015224Y007276D01*
X015125Y007177D02*
X016970Y007177D01*
X016970Y007079D02*
X015027Y007079D01*
X014928Y006980D02*
X016970Y006980D01*
X016970Y006882D02*
X014830Y006882D01*
X014731Y006783D02*
X016970Y006783D01*
X016970Y006685D02*
X014633Y006685D01*
X014534Y006586D02*
X016970Y006586D01*
X016970Y006488D02*
X014436Y006488D01*
X014337Y006389D02*
X016970Y006389D01*
X016970Y006291D02*
X014239Y006291D01*
X014140Y006192D02*
X016970Y006192D01*
X016970Y006094D02*
X014042Y006094D01*
X013943Y005995D02*
X016970Y005995D01*
X016970Y005897D02*
X013845Y005897D01*
X013746Y005798D02*
X016970Y005798D01*
X016970Y005700D02*
X013648Y005700D01*
X013549Y005601D02*
X016970Y005601D01*
X016970Y005503D02*
X013450Y005503D01*
X013360Y005412D02*
X013360Y005412D01*
X013360Y005404D02*
X016970Y005404D01*
X016970Y005306D02*
X013359Y005306D01*
X013440Y005207D02*
X016970Y005207D01*
X016970Y005109D02*
X013879Y005109D01*
X013900Y005100D02*
X013852Y005120D01*
X013748Y005120D01*
X013653Y005080D01*
X013580Y005007D01*
X013540Y004912D01*
X013540Y004808D01*
X013580Y004713D01*
X013653Y004640D01*
X013748Y004600D01*
X013852Y004600D01*
X013947Y004640D01*
X014020Y004713D01*
X014060Y004808D01*
X014060Y004912D01*
X014040Y004960D01*
X014040Y005018D01*
X013958Y005100D01*
X013900Y005100D01*
X014040Y005010D02*
X016970Y005010D01*
X016970Y004912D02*
X014060Y004912D01*
X014060Y004813D02*
X016970Y004813D01*
X016970Y004715D02*
X014021Y004715D01*
X013890Y004616D02*
X016970Y004616D01*
X016970Y004518D02*
X003850Y004518D01*
X003949Y004616D02*
X013710Y004616D01*
X013579Y004715D02*
X004047Y004715D01*
X004146Y004813D02*
X012417Y004813D01*
X012583Y004813D02*
X013540Y004813D01*
X013540Y004912D02*
X012719Y004912D01*
X012723Y005200D02*
X012720Y005207D01*
X012647Y005280D01*
X012552Y005320D01*
X012448Y005320D01*
X012353Y005280D01*
X012342Y005270D01*
X012220Y005270D01*
X012220Y005470D01*
X012268Y005450D01*
X012372Y005450D01*
X012467Y005490D01*
X012540Y005563D01*
X012580Y005658D01*
X012580Y005762D01*
X012540Y005857D01*
X012467Y005930D01*
X012460Y005933D01*
X012460Y006732D01*
X015138Y009410D01*
X015598Y009410D01*
X015680Y009492D01*
X016184Y009996D01*
X016198Y009990D01*
X016302Y009990D01*
X016397Y010030D01*
X016470Y010103D01*
X016510Y010198D01*
X016510Y010202D01*
X016520Y010192D01*
X016520Y008830D01*
X016411Y008830D01*
X016411Y009292D01*
X016347Y009357D01*
X016325Y009357D01*
X016350Y009418D01*
X016350Y009522D01*
X016310Y009617D01*
X016237Y009690D01*
X016142Y009730D01*
X016038Y009730D01*
X015943Y009690D01*
X015870Y009617D01*
X015830Y009522D01*
X015830Y009418D01*
X015855Y009357D01*
X015823Y009357D01*
X015771Y009306D01*
X015752Y009339D01*
X015724Y009367D01*
X015690Y009387D01*
X015652Y009397D01*
X015464Y009397D01*
X015464Y009098D01*
X015367Y009098D01*
X015367Y009002D01*
X015049Y009002D01*
X015049Y008833D01*
X015059Y008795D01*
X015079Y008761D01*
X015107Y008733D01*
X015141Y008713D01*
X015179Y008703D01*
X015367Y008703D01*
X015367Y009002D01*
X015464Y009002D01*
X015464Y008703D01*
X015652Y008703D01*
X015690Y008713D01*
X015724Y008733D01*
X015752Y008761D01*
X015771Y008794D01*
X015823Y008743D01*
X016295Y008743D01*
X013166Y005614D01*
X013152Y005620D01*
X013048Y005620D01*
X012953Y005580D01*
X012880Y005507D01*
X012840Y005412D01*
X012840Y005308D01*
X012880Y005213D01*
X012892Y005200D01*
X012723Y005200D01*
X012721Y005207D02*
X012885Y005207D01*
X012841Y005306D02*
X012587Y005306D01*
X012413Y005306D02*
X012220Y005306D01*
X012220Y005404D02*
X012840Y005404D01*
X012878Y005503D02*
X012480Y005503D01*
X012556Y005601D02*
X013002Y005601D01*
X013252Y005700D02*
X012580Y005700D01*
X012565Y005798D02*
X013350Y005798D01*
X013449Y005897D02*
X012501Y005897D01*
X012460Y005995D02*
X013547Y005995D01*
X013646Y006094D02*
X012460Y006094D01*
X012460Y006192D02*
X013744Y006192D01*
X013843Y006291D02*
X012460Y006291D01*
X012460Y006389D02*
X013941Y006389D01*
X014040Y006488D02*
X012460Y006488D01*
X012460Y006586D02*
X014138Y006586D01*
X014237Y006685D02*
X012460Y006685D01*
X012511Y006783D02*
X014335Y006783D01*
X014434Y006882D02*
X012610Y006882D01*
X012708Y006980D02*
X014532Y006980D01*
X014631Y007079D02*
X012807Y007079D01*
X012905Y007177D02*
X014729Y007177D01*
X014828Y007276D02*
X013004Y007276D01*
X013102Y007374D02*
X014926Y007374D01*
X015025Y007473D02*
X013201Y007473D01*
X013299Y007571D02*
X015123Y007571D01*
X015222Y007670D02*
X013398Y007670D01*
X013496Y007768D02*
X015320Y007768D01*
X015419Y007867D02*
X013595Y007867D01*
X013693Y007965D02*
X015517Y007965D01*
X015616Y008064D02*
X013792Y008064D01*
X013890Y008162D02*
X015714Y008162D01*
X015813Y008261D02*
X013989Y008261D01*
X014087Y008359D02*
X015911Y008359D01*
X016010Y008458D02*
X014186Y008458D01*
X014284Y008556D02*
X016108Y008556D01*
X016207Y008655D02*
X014383Y008655D01*
X014481Y008753D02*
X015087Y008753D01*
X015049Y008852D02*
X014580Y008852D01*
X014678Y008950D02*
X015049Y008950D01*
X015049Y009098D02*
X015367Y009098D01*
X015367Y009397D01*
X015179Y009397D01*
X015141Y009387D01*
X015107Y009367D01*
X015079Y009339D01*
X015059Y009305D01*
X015049Y009267D01*
X015049Y009098D01*
X015049Y009147D02*
X014875Y009147D01*
X014777Y009049D02*
X015367Y009049D01*
X015367Y009147D02*
X015464Y009147D01*
X015464Y009246D02*
X015367Y009246D01*
X015367Y009344D02*
X015464Y009344D01*
X015631Y009443D02*
X015830Y009443D01*
X015838Y009541D02*
X015729Y009541D01*
X015828Y009640D02*
X015892Y009640D01*
X015926Y009738D02*
X016520Y009738D01*
X016520Y009640D02*
X016288Y009640D01*
X016342Y009541D02*
X016520Y009541D01*
X016520Y009443D02*
X016350Y009443D01*
X016360Y009344D02*
X016520Y009344D01*
X016520Y009246D02*
X016411Y009246D01*
X016411Y009147D02*
X016520Y009147D01*
X016520Y009049D02*
X016411Y009049D01*
X016411Y008950D02*
X016520Y008950D01*
X016520Y008852D02*
X016411Y008852D01*
X015813Y008753D02*
X015744Y008753D01*
X015464Y008753D02*
X015367Y008753D01*
X015367Y008852D02*
X015464Y008852D01*
X015464Y008950D02*
X015367Y008950D01*
X015049Y009246D02*
X014974Y009246D01*
X015072Y009344D02*
X015084Y009344D01*
X015747Y009344D02*
X015810Y009344D01*
X016025Y009837D02*
X016520Y009837D01*
X016520Y009935D02*
X016123Y009935D01*
X016401Y010034D02*
X016520Y010034D01*
X016520Y010132D02*
X016483Y010132D01*
X016779Y010329D02*
X016970Y010329D01*
X016970Y010428D02*
X016680Y010428D01*
X016582Y010526D02*
X016970Y010526D01*
X016970Y010625D02*
X016483Y010625D01*
X016385Y010723D02*
X016970Y010723D01*
X016970Y010822D02*
X016310Y010822D01*
X016302Y010920D02*
X016970Y010920D01*
X016970Y011019D02*
X016249Y011019D01*
X016298Y011090D02*
X016402Y011090D01*
X016497Y011130D01*
X016570Y011203D01*
X016573Y011210D01*
X016608Y011210D01*
X016690Y011292D01*
X016690Y011408D01*
X016590Y011508D01*
X016508Y011590D01*
X016450Y011590D01*
X016402Y011610D01*
X016298Y011610D01*
X016250Y011590D01*
X015511Y011590D01*
X015511Y011692D01*
X015447Y011757D01*
X014923Y011757D01*
X014871Y011706D01*
X014852Y011739D01*
X014824Y011767D01*
X014790Y011787D01*
X014752Y011797D01*
X014564Y011797D01*
X014564Y011498D01*
X014467Y011498D01*
X014467Y011797D01*
X014279Y011797D01*
X014241Y011787D01*
X014207Y011767D01*
X014179Y011739D01*
X014159Y011705D01*
X014149Y011667D01*
X014149Y011631D01*
X013920Y011860D01*
X013580Y011860D01*
X013340Y011620D01*
X013340Y011280D01*
X013580Y011040D01*
X013920Y011040D01*
X014149Y011269D01*
X014149Y011233D01*
X014159Y011195D01*
X014179Y011161D01*
X014207Y011133D01*
X014241Y011113D01*
X014279Y011103D01*
X014467Y011103D01*
X014467Y011402D01*
X014564Y011402D01*
X014564Y011103D01*
X014752Y011103D01*
X014790Y011113D01*
X014824Y011133D01*
X014852Y011161D01*
X014871Y011194D01*
X014923Y011143D01*
X015447Y011143D01*
X015511Y011208D01*
X015511Y011310D01*
X016090Y011310D01*
X016090Y011298D01*
X016130Y011203D01*
X016203Y011130D01*
X016298Y011090D01*
X016233Y011117D02*
X014796Y011117D01*
X014564Y011117D02*
X014467Y011117D01*
X014467Y011216D02*
X014564Y011216D01*
X014564Y011314D02*
X014467Y011314D01*
X014467Y011511D02*
X014564Y011511D01*
X014564Y011610D02*
X014467Y011610D01*
X014467Y011708D02*
X014564Y011708D01*
X014870Y011708D02*
X014874Y011708D01*
X015496Y011708D02*
X017393Y011708D01*
X017390Y011610D02*
X016403Y011610D01*
X016297Y011610D02*
X015511Y011610D01*
X015511Y011216D02*
X016124Y011216D01*
X015851Y011019D02*
X012955Y011019D01*
X013053Y011117D02*
X013503Y011117D01*
X013405Y011216D02*
X013152Y011216D01*
X013200Y011314D02*
X013340Y011314D01*
X013340Y011413D02*
X012800Y011413D01*
X012800Y011511D02*
X012700Y011511D01*
X012700Y011610D02*
X012800Y011610D01*
X012800Y011708D02*
X012700Y011708D01*
X012700Y011807D02*
X012800Y011807D01*
X013030Y011807D02*
X013527Y011807D01*
X013428Y011708D02*
X013128Y011708D01*
X013200Y011610D02*
X013340Y011610D01*
X013340Y011511D02*
X013200Y011511D01*
X013973Y011807D02*
X017439Y011807D01*
X017273Y011511D02*
X016587Y011511D01*
X016685Y011413D02*
X017175Y011413D01*
X017076Y011314D02*
X016690Y011314D01*
X016614Y011216D02*
X016978Y011216D01*
X016970Y011117D02*
X016467Y011117D01*
X017476Y011314D02*
X020967Y011314D01*
X020967Y011216D02*
X021064Y011216D01*
X021064Y011117D02*
X020967Y011117D01*
X020967Y011019D02*
X021064Y011019D01*
X021299Y011019D02*
X021553Y011019D01*
X021833Y011019D02*
X022104Y011019D01*
X022080Y010920D02*
X021908Y010920D01*
X021956Y010822D02*
X022095Y010822D01*
X022159Y010723D02*
X021960Y010723D01*
X021925Y010625D02*
X022427Y010625D01*
X022133Y011117D02*
X022011Y011117D01*
X021375Y011610D02*
X021369Y011610D01*
X021541Y011807D02*
X020730Y011807D01*
X020450Y011807D02*
X017861Y011807D01*
X018202Y011905D02*
X018298Y011905D01*
X018298Y012004D02*
X018202Y012004D01*
X018202Y012102D02*
X018298Y012102D01*
X018298Y012201D02*
X020393Y012201D01*
X020338Y012102D02*
X018597Y012102D01*
X018597Y012004D02*
X020330Y012004D01*
X020360Y011905D02*
X018565Y011905D01*
X018202Y012201D02*
X014080Y012201D01*
X014160Y012280D02*
X013920Y012040D01*
X013580Y012040D01*
X013340Y012280D01*
X013340Y012620D01*
X013580Y012860D01*
X013920Y012860D01*
X014160Y012620D01*
X014160Y012280D01*
X014160Y012299D02*
X017903Y012299D01*
X017903Y012398D02*
X014160Y012398D01*
X014160Y012496D02*
X017917Y012496D01*
X017971Y012595D02*
X014160Y012595D01*
X014087Y012693D02*
X017943Y012693D01*
X017943Y012792D02*
X013988Y012792D01*
X013967Y013087D02*
X016145Y013087D01*
X014916Y013186D02*
X014065Y013186D01*
X014160Y013284D02*
X014818Y013284D01*
X014719Y013383D02*
X014160Y013383D01*
X014160Y013481D02*
X014621Y013481D01*
X014522Y013580D02*
X014160Y013580D01*
X014102Y013678D02*
X014424Y013678D01*
X014426Y014072D02*
X022130Y014072D01*
X022031Y014171D02*
X014327Y014171D01*
X014229Y014269D02*
X021933Y014269D01*
X021834Y014368D02*
X014100Y014368D01*
X013497Y013777D02*
X013003Y013777D01*
X013099Y013678D02*
X013398Y013678D01*
X013340Y013580D02*
X013140Y013580D01*
X013160Y013481D02*
X013340Y013481D01*
X013340Y013383D02*
X013160Y013383D01*
X013125Y013284D02*
X013340Y013284D01*
X013435Y013186D02*
X013065Y013186D01*
X012945Y013087D02*
X013533Y013087D01*
X013512Y012792D02*
X012988Y012792D01*
X013087Y012693D02*
X013413Y012693D01*
X013340Y012595D02*
X013160Y012595D01*
X013160Y012496D02*
X013340Y012496D01*
X013340Y012398D02*
X013160Y012398D01*
X013160Y012299D02*
X013340Y012299D01*
X013420Y012201D02*
X013080Y012201D01*
X012982Y012102D02*
X013518Y012102D01*
X013982Y012102D02*
X017903Y012102D01*
X018597Y012299D02*
X021601Y012299D01*
X021503Y012201D02*
X020787Y012201D01*
X020967Y011610D02*
X021064Y011610D01*
X021064Y011511D02*
X020967Y011511D01*
X020967Y011413D02*
X021064Y011413D01*
X023137Y012102D02*
X023274Y012102D01*
X023721Y012004D02*
X023866Y012004D01*
X023786Y011905D02*
X023730Y011905D01*
X024174Y012004D02*
X027416Y012004D01*
X027348Y011905D02*
X024254Y011905D01*
X024280Y011807D02*
X027330Y011807D01*
X027351Y011708D02*
X024300Y011708D01*
X024398Y011610D02*
X027423Y011610D01*
X028443Y011511D02*
X024497Y011511D01*
X024595Y011413D02*
X028490Y011413D01*
X028555Y011314D02*
X024694Y011314D01*
X024927Y011216D02*
X028624Y011216D01*
X028725Y011117D02*
X025061Y011117D01*
X024164Y010723D02*
X023685Y010723D01*
X023937Y010030D02*
X023937Y010030D01*
X023018Y010034D02*
X017705Y010034D01*
X017656Y010132D02*
X022920Y010132D01*
X021696Y009246D02*
X017932Y009246D01*
X017890Y009344D02*
X021436Y009344D01*
X021341Y009443D02*
X017873Y009443D01*
X017807Y009541D02*
X021310Y009541D01*
X021317Y009640D02*
X017250Y009640D01*
X017250Y009738D02*
X017331Y009738D01*
X017250Y009541D02*
X017453Y009541D01*
X017387Y009443D02*
X017250Y009443D01*
X017250Y009344D02*
X017370Y009344D01*
X017392Y009246D02*
X017250Y009246D01*
X017250Y009147D02*
X017465Y009147D01*
X017250Y009049D02*
X017733Y009049D01*
X017832Y008950D02*
X017250Y008950D01*
X017250Y008852D02*
X017930Y008852D01*
X018029Y008753D02*
X017250Y008753D01*
X017250Y008655D02*
X018127Y008655D01*
X018226Y008556D02*
X017250Y008556D01*
X017250Y008458D02*
X018324Y008458D01*
X018423Y008359D02*
X017250Y008359D01*
X017250Y008261D02*
X018521Y008261D01*
X018620Y008162D02*
X017250Y008162D01*
X017250Y008064D02*
X018718Y008064D01*
X018767Y007965D02*
X017250Y007965D01*
X017250Y007867D02*
X018699Y007867D01*
X018617Y007768D02*
X017250Y007768D01*
X017250Y007670D02*
X018590Y007670D01*
X018601Y007571D02*
X017250Y007571D01*
X017250Y007473D02*
X018660Y007473D01*
X018710Y007374D02*
X017250Y007374D01*
X017250Y007276D02*
X018710Y007276D01*
X018573Y007177D02*
X017250Y007177D01*
X017250Y007079D02*
X018543Y007079D01*
X018543Y006980D02*
X017250Y006980D01*
X017250Y006882D02*
X018543Y006882D01*
X018543Y006783D02*
X017250Y006783D01*
X017250Y006685D02*
X018543Y006685D01*
X018580Y006586D02*
X017250Y006586D01*
X017250Y006488D02*
X018513Y006488D01*
X018503Y006389D02*
X017250Y006389D01*
X017250Y006291D02*
X018503Y006291D01*
X018503Y006167D02*
X018503Y005979D01*
X018513Y005941D01*
X018533Y005907D01*
X018561Y005879D01*
X018595Y005859D01*
X018633Y005849D01*
X018802Y005849D01*
X018802Y006167D01*
X018503Y006167D01*
X018503Y006094D02*
X017250Y006094D01*
X017250Y006192D02*
X018802Y006192D01*
X018898Y006192D02*
X020802Y006192D01*
X020802Y006167D02*
X020503Y006167D01*
X020503Y005979D01*
X020513Y005941D01*
X020533Y005907D01*
X020561Y005879D01*
X020595Y005859D01*
X020633Y005849D01*
X020802Y005849D01*
X020802Y006167D01*
X020898Y006167D01*
X020898Y005849D01*
X021067Y005849D01*
X021105Y005859D01*
X021139Y005879D01*
X021167Y005907D01*
X021187Y005941D01*
X021197Y005979D01*
X021197Y006167D01*
X020898Y006167D01*
X020898Y006264D01*
X021197Y006264D01*
X021197Y006452D01*
X021187Y006490D01*
X021167Y006524D01*
X021139Y006552D01*
X021106Y006571D01*
X021157Y006623D01*
X021157Y007147D01*
X021092Y007211D01*
X020990Y007211D01*
X020990Y007427D01*
X020997Y007430D01*
X021070Y007503D01*
X021110Y007598D01*
X021110Y007702D01*
X021070Y007797D01*
X020997Y007870D01*
X020902Y007910D01*
X020798Y007910D01*
X020703Y007870D01*
X020630Y007797D01*
X020590Y007702D01*
X020590Y007598D01*
X020630Y007503D01*
X020703Y007430D01*
X020710Y007427D01*
X020710Y007211D01*
X020608Y007211D01*
X020543Y007147D01*
X020543Y006623D01*
X020594Y006571D01*
X020561Y006552D01*
X020533Y006524D01*
X020513Y006490D01*
X020503Y006452D01*
X020503Y006264D01*
X020802Y006264D01*
X020802Y006167D01*
X020802Y006094D02*
X020898Y006094D01*
X020898Y006192D02*
X022355Y006192D01*
X022398Y006210D02*
X022303Y006170D01*
X022230Y006097D01*
X022190Y006002D01*
X022190Y005898D01*
X022230Y005803D01*
X022303Y005730D01*
X022398Y005690D01*
X022502Y005690D01*
X023402Y004790D01*
X026878Y004790D01*
X026960Y004872D01*
X027189Y005101D01*
X027210Y005080D01*
X027550Y005080D01*
X027790Y005320D01*
X027790Y005660D01*
X027700Y005750D01*
X028060Y005750D01*
X027970Y005660D01*
X027970Y005320D01*
X028210Y005080D01*
X028550Y005080D01*
X028790Y005320D01*
X028790Y005660D01*
X028700Y005750D01*
X028922Y005750D01*
X028991Y005681D01*
X028970Y005660D01*
X028970Y005320D01*
X029210Y005080D01*
X029550Y005080D01*
X029790Y005320D01*
X029790Y005660D01*
X029550Y005900D01*
X029210Y005900D01*
X029189Y005879D01*
X029120Y005948D01*
X029038Y006030D01*
X023678Y006030D01*
X023610Y006098D01*
X023610Y006098D01*
X023610Y006202D01*
X023570Y006297D01*
X023497Y006370D01*
X023402Y006410D01*
X023298Y006410D01*
X023203Y006370D01*
X023130Y006297D01*
X023090Y006202D01*
X023090Y006098D01*
X023130Y006003D01*
X023203Y005930D01*
X023298Y005890D01*
X023402Y005890D01*
X023416Y005896D01*
X023562Y005750D01*
X024060Y005750D01*
X023970Y005660D01*
X023970Y005320D01*
X024210Y005080D01*
X024550Y005080D01*
X024790Y005320D01*
X024790Y005660D01*
X024700Y005750D01*
X025060Y005750D01*
X024970Y005660D01*
X024970Y005320D01*
X025210Y005080D01*
X025550Y005080D01*
X025790Y005320D01*
X025790Y005660D01*
X025700Y005750D01*
X026060Y005750D01*
X025970Y005660D01*
X025970Y005320D01*
X026210Y005080D01*
X026550Y005080D01*
X026790Y005320D01*
X026790Y005660D01*
X026700Y005750D01*
X027060Y005750D01*
X026970Y005660D01*
X026970Y005320D01*
X026991Y005299D01*
X026762Y005070D01*
X023518Y005070D01*
X022704Y005884D01*
X022710Y005898D01*
X022710Y006002D01*
X022670Y006097D01*
X022597Y006170D01*
X022502Y006210D01*
X022398Y006210D01*
X022545Y006192D02*
X023090Y006192D01*
X023092Y006094D02*
X022672Y006094D01*
X022710Y005995D02*
X023137Y005995D01*
X023283Y005897D02*
X022709Y005897D01*
X022790Y005798D02*
X023514Y005798D01*
X023614Y006094D02*
X024197Y006094D01*
X024210Y006080D02*
X024550Y006080D01*
X024790Y006320D01*
X024790Y006660D01*
X024550Y006900D01*
X024210Y006900D01*
X023970Y006660D01*
X023970Y006320D01*
X024210Y006080D01*
X024098Y006192D02*
X023610Y006192D01*
X023573Y006291D02*
X024000Y006291D01*
X023970Y006389D02*
X023452Y006389D01*
X023248Y006389D02*
X021197Y006389D01*
X021197Y006291D02*
X023127Y006291D01*
X022997Y006530D02*
X022902Y006490D01*
X022798Y006490D01*
X022703Y006530D01*
X022630Y006603D01*
X022590Y006698D01*
X022590Y006802D01*
X022630Y006897D01*
X022703Y006970D01*
X022798Y007010D01*
X022902Y007010D01*
X022916Y007004D01*
X023102Y007190D01*
X029438Y007190D01*
X029520Y007108D01*
X029758Y006870D01*
X029838Y006870D01*
X029920Y006788D01*
X029920Y006148D01*
X030189Y005879D01*
X030210Y005900D01*
X030550Y005900D01*
X030790Y005660D01*
X030790Y005320D01*
X030550Y005080D01*
X030210Y005080D01*
X029970Y005320D01*
X029970Y005660D01*
X029991Y005681D01*
X029722Y005950D01*
X029640Y006032D01*
X029640Y006170D01*
X029550Y006080D01*
X029210Y006080D01*
X028970Y006320D01*
X028970Y006660D01*
X029210Y006900D01*
X029332Y006900D01*
X029322Y006910D01*
X023218Y006910D01*
X023110Y006802D01*
X023110Y006802D01*
X023110Y006698D01*
X023070Y006603D01*
X022997Y006530D01*
X023054Y006586D02*
X023970Y006586D01*
X023970Y006488D02*
X021187Y006488D01*
X021120Y006586D02*
X022646Y006586D01*
X022596Y006685D02*
X021157Y006685D01*
X021157Y006783D02*
X022590Y006783D01*
X022623Y006882D02*
X021157Y006882D01*
X021157Y006980D02*
X022726Y006980D01*
X022991Y007079D02*
X021157Y007079D01*
X021127Y007177D02*
X023089Y007177D01*
X023190Y006882D02*
X024192Y006882D01*
X024093Y006783D02*
X023110Y006783D01*
X023104Y006685D02*
X023995Y006685D01*
X024568Y006882D02*
X025192Y006882D01*
X025210Y006900D02*
X024970Y006660D01*
X024970Y006320D01*
X025210Y006080D01*
X025550Y006080D01*
X025790Y006320D01*
X025790Y006660D01*
X025550Y006900D01*
X025210Y006900D01*
X025093Y006783D02*
X024667Y006783D01*
X024765Y006685D02*
X024995Y006685D01*
X024970Y006586D02*
X024790Y006586D01*
X024790Y006488D02*
X024970Y006488D01*
X024970Y006389D02*
X024790Y006389D01*
X024760Y006291D02*
X025000Y006291D01*
X025098Y006192D02*
X024662Y006192D01*
X024563Y006094D02*
X025197Y006094D01*
X025563Y006094D02*
X026197Y006094D01*
X026210Y006080D02*
X026550Y006080D01*
X026790Y006320D01*
X026790Y006660D01*
X026550Y006900D01*
X026210Y006900D01*
X025970Y006660D01*
X025970Y006320D01*
X026210Y006080D01*
X026098Y006192D02*
X025662Y006192D01*
X025760Y006291D02*
X026000Y006291D01*
X025970Y006389D02*
X025790Y006389D01*
X025790Y006488D02*
X025970Y006488D01*
X025970Y006586D02*
X025790Y006586D01*
X025765Y006685D02*
X025995Y006685D01*
X026093Y006783D02*
X025667Y006783D01*
X025568Y006882D02*
X026192Y006882D01*
X026568Y006882D02*
X027192Y006882D01*
X027210Y006900D02*
X026970Y006660D01*
X026970Y006320D01*
X027210Y006080D01*
X027550Y006080D01*
X027790Y006320D01*
X027790Y006660D01*
X027550Y006900D01*
X027210Y006900D01*
X027093Y006783D02*
X026667Y006783D01*
X026765Y006685D02*
X026995Y006685D01*
X026970Y006586D02*
X026790Y006586D01*
X026790Y006488D02*
X026970Y006488D01*
X026970Y006389D02*
X026790Y006389D01*
X026760Y006291D02*
X027000Y006291D01*
X027098Y006192D02*
X026662Y006192D01*
X026563Y006094D02*
X027197Y006094D01*
X027563Y006094D02*
X028197Y006094D01*
X028210Y006080D02*
X028550Y006080D01*
X028790Y006320D01*
X028790Y006660D01*
X028550Y006900D01*
X028210Y006900D01*
X027970Y006660D01*
X027970Y006320D01*
X028210Y006080D01*
X028098Y006192D02*
X027662Y006192D01*
X027760Y006291D02*
X028000Y006291D01*
X027970Y006389D02*
X027790Y006389D01*
X027790Y006488D02*
X027970Y006488D01*
X027970Y006586D02*
X027790Y006586D01*
X027765Y006685D02*
X027995Y006685D01*
X028093Y006783D02*
X027667Y006783D01*
X027568Y006882D02*
X028192Y006882D01*
X028568Y006882D02*
X029192Y006882D01*
X029093Y006783D02*
X028667Y006783D01*
X028765Y006685D02*
X028995Y006685D01*
X028970Y006586D02*
X028790Y006586D01*
X028790Y006488D02*
X028970Y006488D01*
X028970Y006389D02*
X028790Y006389D01*
X028760Y006291D02*
X029000Y006291D01*
X029098Y006192D02*
X028662Y006192D01*
X028563Y006094D02*
X029197Y006094D01*
X029073Y005995D02*
X029677Y005995D01*
X029640Y006094D02*
X029563Y006094D01*
X029553Y005897D02*
X029775Y005897D01*
X029874Y005798D02*
X029652Y005798D01*
X029750Y005700D02*
X029972Y005700D01*
X029970Y005601D02*
X029790Y005601D01*
X029790Y005503D02*
X029970Y005503D01*
X029970Y005404D02*
X029790Y005404D01*
X029775Y005306D02*
X029985Y005306D01*
X030083Y005207D02*
X029677Y005207D01*
X029578Y005109D02*
X030182Y005109D01*
X030578Y005109D02*
X032307Y005109D01*
X032324Y005207D02*
X030677Y005207D01*
X030775Y005306D02*
X032341Y005306D01*
X032358Y005404D02*
X030790Y005404D01*
X030790Y005503D02*
X032375Y005503D01*
X032392Y005601D02*
X030790Y005601D01*
X030750Y005700D02*
X032409Y005700D01*
X032426Y005798D02*
X030652Y005798D01*
X030553Y005897D02*
X032443Y005897D01*
X032460Y005995D02*
X030073Y005995D01*
X030171Y005897D02*
X030207Y005897D01*
X030210Y006080D02*
X030550Y006080D01*
X030790Y006320D01*
X030790Y006660D01*
X030550Y006900D01*
X030210Y006900D01*
X029970Y006660D01*
X029970Y006320D01*
X030210Y006080D01*
X030197Y006094D02*
X029974Y006094D01*
X029920Y006192D02*
X030098Y006192D01*
X030000Y006291D02*
X029920Y006291D01*
X029920Y006389D02*
X029970Y006389D01*
X029970Y006488D02*
X029920Y006488D01*
X029920Y006586D02*
X029970Y006586D01*
X029995Y006685D02*
X029920Y006685D01*
X029920Y006783D02*
X030093Y006783D01*
X030192Y006882D02*
X029746Y006882D01*
X029648Y006980D02*
X032631Y006980D01*
X032614Y006882D02*
X030568Y006882D01*
X030667Y006783D02*
X032597Y006783D01*
X032580Y006685D02*
X030765Y006685D01*
X030790Y006586D02*
X032563Y006586D01*
X032546Y006488D02*
X030790Y006488D01*
X030790Y006389D02*
X032529Y006389D01*
X032511Y006291D02*
X030760Y006291D01*
X030662Y006192D02*
X032494Y006192D01*
X032477Y006094D02*
X030563Y006094D01*
X029207Y005897D02*
X029171Y005897D01*
X028972Y005700D02*
X028750Y005700D01*
X028790Y005601D02*
X028970Y005601D01*
X028970Y005503D02*
X028790Y005503D01*
X028790Y005404D02*
X028970Y005404D01*
X028985Y005306D02*
X028775Y005306D01*
X028677Y005207D02*
X029083Y005207D01*
X029182Y005109D02*
X028578Y005109D01*
X028182Y005109D02*
X027578Y005109D01*
X027677Y005207D02*
X028083Y005207D01*
X027985Y005306D02*
X027775Y005306D01*
X027790Y005404D02*
X027970Y005404D01*
X027970Y005503D02*
X027790Y005503D01*
X027790Y005601D02*
X027970Y005601D01*
X028010Y005700D02*
X027750Y005700D01*
X027010Y005700D02*
X026750Y005700D01*
X026790Y005601D02*
X026970Y005601D01*
X026970Y005503D02*
X026790Y005503D01*
X026790Y005404D02*
X026970Y005404D01*
X026985Y005306D02*
X026775Y005306D01*
X026677Y005207D02*
X026899Y005207D01*
X026801Y005109D02*
X026578Y005109D01*
X026182Y005109D02*
X025578Y005109D01*
X025677Y005207D02*
X026083Y005207D01*
X025985Y005306D02*
X025775Y005306D01*
X025790Y005404D02*
X025970Y005404D01*
X025970Y005503D02*
X025790Y005503D01*
X025790Y005601D02*
X025970Y005601D01*
X026010Y005700D02*
X025750Y005700D01*
X025010Y005700D02*
X024750Y005700D01*
X024790Y005601D02*
X024970Y005601D01*
X024970Y005503D02*
X024790Y005503D01*
X024790Y005404D02*
X024970Y005404D01*
X024985Y005306D02*
X024775Y005306D01*
X024677Y005207D02*
X025083Y005207D01*
X025182Y005109D02*
X024578Y005109D01*
X024182Y005109D02*
X023479Y005109D01*
X023381Y005207D02*
X024083Y005207D01*
X023985Y005306D02*
X023282Y005306D01*
X023184Y005404D02*
X023970Y005404D01*
X023970Y005503D02*
X023085Y005503D01*
X022987Y005601D02*
X023970Y005601D01*
X024010Y005700D02*
X022888Y005700D01*
X022689Y005503D02*
X017250Y005503D01*
X017250Y005601D02*
X022591Y005601D01*
X022502Y005690D02*
X022502Y005690D01*
X022375Y005700D02*
X017250Y005700D01*
X017250Y005798D02*
X022234Y005798D01*
X022191Y005897D02*
X021157Y005897D01*
X021197Y005995D02*
X022190Y005995D01*
X022228Y006094D02*
X021197Y006094D01*
X020898Y005995D02*
X020802Y005995D01*
X020802Y005897D02*
X020898Y005897D01*
X020543Y005897D02*
X019157Y005897D01*
X019197Y005995D02*
X020503Y005995D01*
X020503Y006094D02*
X019197Y006094D01*
X019197Y006291D02*
X020503Y006291D01*
X020503Y006389D02*
X019197Y006389D01*
X019187Y006488D02*
X020513Y006488D01*
X020580Y006586D02*
X019120Y006586D01*
X019157Y006685D02*
X020543Y006685D01*
X020543Y006783D02*
X019157Y006783D01*
X019157Y006882D02*
X020543Y006882D01*
X020543Y006980D02*
X019157Y006980D01*
X019157Y007079D02*
X020543Y007079D01*
X020573Y007177D02*
X019127Y007177D01*
X018990Y007276D02*
X020710Y007276D01*
X020710Y007374D02*
X018990Y007374D01*
X019040Y007473D02*
X020660Y007473D01*
X020601Y007571D02*
X019099Y007571D01*
X019110Y007670D02*
X020590Y007670D01*
X020617Y007768D02*
X019083Y007768D01*
X019001Y007867D02*
X020699Y007867D01*
X021001Y007867D02*
X030848Y007867D01*
X030850Y007863D02*
X030923Y007790D01*
X031018Y007750D01*
X031122Y007750D01*
X031217Y007790D01*
X031290Y007863D01*
X031293Y007870D01*
X032670Y007870D01*
X032650Y007822D01*
X032650Y007718D01*
X032690Y007623D01*
X032735Y007578D01*
X032142Y004161D01*
X027488Y004190D01*
X027431Y004190D01*
X027373Y004190D01*
X027373Y004190D01*
X021288Y004190D01*
X021207Y004271D01*
X021210Y004278D01*
X021210Y004382D01*
X021170Y004477D01*
X021097Y004550D01*
X021002Y004590D01*
X020898Y004590D01*
X020803Y004550D01*
X020730Y004477D01*
X020690Y004382D01*
X020690Y004278D01*
X020730Y004183D01*
X020803Y004110D01*
X020898Y004070D01*
X021002Y004070D01*
X021009Y004073D01*
X021090Y003992D01*
X021172Y003910D01*
X027430Y003910D01*
X032248Y003880D01*
X032293Y003872D01*
X032304Y003880D01*
X032317Y003880D01*
X032350Y003912D01*
X032388Y003939D01*
X032390Y003952D01*
X032400Y003961D01*
X032400Y004008D01*
X033011Y007530D01*
X033057Y007550D01*
X033130Y007623D01*
X033170Y007718D01*
X033170Y007822D01*
X033150Y007870D01*
X035972Y007870D01*
X036533Y007309D01*
X036530Y007302D01*
X036530Y007198D01*
X036570Y007103D01*
X036643Y007030D01*
X036738Y006990D01*
X036842Y006990D01*
X036937Y007030D01*
X037010Y007103D01*
X037050Y007198D01*
X037050Y007302D01*
X037010Y007397D01*
X036937Y007470D01*
X036842Y007510D01*
X036738Y007510D01*
X036731Y007507D01*
X036170Y008068D01*
X036088Y008150D01*
X031293Y008150D01*
X031290Y008157D01*
X031217Y008230D01*
X031122Y008270D01*
X031018Y008270D01*
X031011Y008267D01*
X031009Y008270D01*
X031008Y008270D01*
X030950Y008270D01*
X025879Y008289D01*
X025817Y008350D01*
X025722Y008390D01*
X025618Y008390D01*
X025523Y008350D01*
X025450Y008277D01*
X025410Y008182D01*
X025410Y008078D01*
X025450Y007983D01*
X025523Y007910D01*
X025618Y007870D01*
X025722Y007870D01*
X025817Y007910D01*
X025890Y007983D01*
X025901Y008009D01*
X030810Y007991D01*
X030810Y007958D01*
X030850Y007863D01*
X030810Y007965D02*
X025873Y007965D01*
X025797Y008359D02*
X027679Y008359D01*
X027568Y008458D02*
X023015Y008458D01*
X023030Y008359D02*
X024443Y008359D01*
X024697Y008359D02*
X025543Y008359D01*
X025443Y008261D02*
X024797Y008261D01*
X024830Y008162D02*
X025410Y008162D01*
X025416Y008064D02*
X024824Y008064D01*
X024773Y007965D02*
X025467Y007965D01*
X024988Y008655D02*
X027522Y008655D01*
X027527Y008556D02*
X022952Y008556D01*
X022683Y008655D02*
X024852Y008655D01*
X024691Y008753D02*
X022585Y008753D01*
X022486Y008852D02*
X024631Y008852D01*
X024612Y008950D02*
X022388Y008950D01*
X022289Y009049D02*
X024623Y009049D01*
X024920Y008960D02*
X025070Y009110D01*
X028160Y009110D01*
X028310Y008960D01*
X028618Y008950D02*
X041030Y008950D01*
X041030Y008852D02*
X030564Y008852D01*
X030633Y008753D02*
X041030Y008753D01*
X041030Y008655D02*
X030658Y008655D01*
X030653Y008556D02*
X041030Y008556D01*
X041030Y008458D02*
X030612Y008458D01*
X030501Y008359D02*
X041030Y008359D01*
X041030Y008261D02*
X031145Y008261D01*
X031008Y008270D02*
X031008Y008270D01*
X031286Y008162D02*
X041030Y008162D01*
X041030Y008064D02*
X036174Y008064D01*
X036273Y007965D02*
X041030Y007965D01*
X041030Y007867D02*
X036371Y007867D01*
X036470Y007768D02*
X041030Y007768D01*
X041030Y007670D02*
X036568Y007670D01*
X036667Y007571D02*
X041030Y007571D01*
X041030Y007473D02*
X036932Y007473D01*
X037020Y007374D02*
X041030Y007374D01*
X041030Y007276D02*
X037050Y007276D01*
X037041Y007177D02*
X041030Y007177D01*
X041030Y007079D02*
X036986Y007079D01*
X036594Y007079D02*
X032932Y007079D01*
X032949Y007177D02*
X036539Y007177D01*
X036530Y007276D02*
X032966Y007276D01*
X032983Y007374D02*
X036468Y007374D01*
X036369Y007473D02*
X033001Y007473D01*
X033079Y007571D02*
X036271Y007571D01*
X036172Y007670D02*
X033150Y007670D01*
X033170Y007768D02*
X036074Y007768D01*
X035975Y007867D02*
X033151Y007867D01*
X032669Y007867D02*
X031292Y007867D01*
X031165Y007768D02*
X032650Y007768D01*
X032670Y007670D02*
X021110Y007670D01*
X021099Y007571D02*
X032733Y007571D01*
X032716Y007473D02*
X021040Y007473D01*
X020990Y007374D02*
X032699Y007374D01*
X032682Y007276D02*
X020990Y007276D01*
X021083Y007768D02*
X030975Y007768D01*
X030199Y008359D02*
X027981Y008359D01*
X028092Y008458D02*
X030088Y008458D01*
X030350Y008630D02*
X027830Y008630D01*
X027616Y008852D02*
X025209Y008852D01*
X025149Y008753D02*
X027547Y008753D01*
X028599Y008852D02*
X030136Y008852D01*
X029334Y009147D02*
X041030Y009147D01*
X041030Y009049D02*
X029254Y009049D01*
X029368Y009246D02*
X041030Y009246D01*
X041030Y009344D02*
X029368Y009344D01*
X029330Y009443D02*
X041030Y009443D01*
X041030Y009541D02*
X029245Y009541D01*
X028866Y009049D02*
X028607Y009049D01*
X028125Y010329D02*
X028087Y010329D01*
X028087Y010428D02*
X028125Y010428D01*
X028125Y010526D02*
X028091Y010526D01*
X027346Y010231D02*
X026888Y010231D01*
X025258Y012398D02*
X023895Y012398D01*
X023730Y012882D02*
X023770Y012977D01*
X023802Y013010D01*
X020873Y013010D01*
X020870Y013003D01*
X020797Y012930D01*
X020702Y012890D01*
X020856Y012989D02*
X023781Y012989D01*
X024210Y013492D02*
X024210Y013492D01*
X024122Y013580D02*
X022508Y013580D01*
X022450Y013678D02*
X024024Y013678D01*
X023925Y013777D02*
X022450Y013777D01*
X022450Y013875D02*
X023827Y013875D01*
X024026Y014072D02*
X024140Y014072D01*
X024140Y014068D02*
X024202Y013918D01*
X024318Y013802D01*
X024468Y013740D01*
X024632Y013740D01*
X024782Y013802D01*
X024898Y013918D01*
X024960Y014068D01*
X024960Y014832D01*
X024898Y014982D01*
X024782Y015098D01*
X024632Y015160D01*
X024468Y015160D01*
X024318Y015098D01*
X024202Y014982D01*
X024140Y014832D01*
X024140Y014068D01*
X024124Y013974D02*
X024179Y013974D01*
X024223Y013875D02*
X024245Y013875D01*
X024321Y013777D02*
X024380Y013777D01*
X024720Y013777D02*
X025380Y013777D01*
X025318Y013802D02*
X025468Y013740D01*
X025632Y013740D01*
X025782Y013802D01*
X025898Y013918D01*
X025960Y014068D01*
X025960Y014832D01*
X025898Y014982D01*
X025782Y015098D01*
X025632Y015160D01*
X025468Y015160D01*
X025318Y015098D01*
X025202Y014982D01*
X025140Y014832D01*
X025140Y014068D01*
X025202Y013918D01*
X025318Y013802D01*
X025245Y013875D02*
X024855Y013875D01*
X024921Y013974D02*
X025179Y013974D01*
X025140Y014072D02*
X024960Y014072D01*
X024960Y014171D02*
X025140Y014171D01*
X025140Y014269D02*
X024960Y014269D01*
X024960Y014368D02*
X025140Y014368D01*
X025140Y014466D02*
X024960Y014466D01*
X024960Y014565D02*
X025140Y014565D01*
X025140Y014663D02*
X024960Y014663D01*
X024960Y014762D02*
X025140Y014762D01*
X025152Y014860D02*
X024948Y014860D01*
X024907Y014959D02*
X025193Y014959D01*
X025277Y015057D02*
X024823Y015057D01*
X024642Y015156D02*
X025458Y015156D01*
X025642Y015156D02*
X026355Y015156D01*
X026377Y015167D02*
X026314Y015135D01*
X026257Y015093D01*
X026207Y015043D01*
X026165Y014986D01*
X026133Y014923D01*
X026111Y014855D01*
X026100Y014785D01*
X026100Y014500D01*
X026500Y014500D01*
X026500Y015198D01*
X026445Y015189D01*
X026377Y015167D01*
X026500Y015156D02*
X026600Y015156D01*
X026600Y015198D02*
X026600Y014500D01*
X027000Y014500D01*
X027000Y014785D01*
X026989Y014855D01*
X026967Y014923D01*
X026935Y014986D01*
X026893Y015043D01*
X026843Y015093D01*
X026786Y015135D01*
X026723Y015167D01*
X026655Y015189D01*
X026600Y015198D01*
X026600Y015057D02*
X026500Y015057D01*
X026500Y014959D02*
X026600Y014959D01*
X026600Y014860D02*
X026500Y014860D01*
X026500Y014762D02*
X026600Y014762D01*
X026600Y014663D02*
X026500Y014663D01*
X026500Y014565D02*
X026600Y014565D01*
X026600Y014500D02*
X026500Y014500D01*
X026500Y014400D01*
X026600Y014400D01*
X026600Y014500D01*
X026600Y014466D02*
X027140Y014466D01*
X027140Y014368D02*
X027000Y014368D01*
X027000Y014400D02*
X026600Y014400D01*
X026600Y013702D01*
X026655Y013711D01*
X026723Y013733D01*
X026786Y013765D01*
X026843Y013807D01*
X026893Y013857D01*
X026935Y013914D01*
X026967Y013977D01*
X026989Y014045D01*
X027000Y014115D01*
X027000Y014400D01*
X027000Y014269D02*
X027140Y014269D01*
X027140Y014171D02*
X027000Y014171D01*
X026993Y014072D02*
X027140Y014072D01*
X027140Y014068D02*
X027202Y013918D01*
X027318Y013802D01*
X027468Y013740D01*
X027632Y013740D01*
X027782Y013802D01*
X027898Y013918D01*
X027960Y014068D01*
X027960Y014832D01*
X027898Y014982D01*
X027782Y015098D01*
X027632Y015160D01*
X027468Y015160D01*
X027318Y015098D01*
X027202Y014982D01*
X027140Y014832D01*
X027140Y014068D01*
X027179Y013974D02*
X026965Y013974D01*
X026906Y013875D02*
X027245Y013875D01*
X027380Y013777D02*
X026802Y013777D01*
X026600Y013777D02*
X026500Y013777D01*
X026500Y013702D02*
X026500Y014400D01*
X026100Y014400D01*
X026100Y014115D01*
X026111Y014045D01*
X026133Y013977D01*
X026165Y013914D01*
X026207Y013857D01*
X026257Y013807D01*
X026314Y013765D01*
X026377Y013733D01*
X026445Y013711D01*
X026500Y013702D01*
X026500Y013875D02*
X026600Y013875D01*
X026600Y013974D02*
X026500Y013974D01*
X026500Y014072D02*
X026600Y014072D01*
X026600Y014171D02*
X026500Y014171D01*
X026500Y014269D02*
X026600Y014269D01*
X026600Y014368D02*
X026500Y014368D01*
X026500Y014466D02*
X025960Y014466D01*
X025960Y014368D02*
X026100Y014368D01*
X026100Y014269D02*
X025960Y014269D01*
X025960Y014171D02*
X026100Y014171D01*
X026107Y014072D02*
X025960Y014072D01*
X025921Y013974D02*
X026135Y013974D01*
X026194Y013875D02*
X025855Y013875D01*
X025720Y013777D02*
X026298Y013777D01*
X027720Y013777D02*
X027779Y013777D01*
X027855Y013875D02*
X027877Y013875D01*
X027921Y013974D02*
X027976Y013974D01*
X027960Y014072D02*
X028074Y014072D01*
X028140Y014171D02*
X027960Y014171D01*
X027960Y014269D02*
X028140Y014269D01*
X028140Y014368D02*
X027960Y014368D01*
X027960Y014466D02*
X028140Y014466D01*
X028140Y014565D02*
X027960Y014565D01*
X027960Y014663D02*
X028140Y014663D01*
X028140Y014762D02*
X027960Y014762D01*
X027948Y014860D02*
X028152Y014860D01*
X028193Y014959D02*
X027907Y014959D01*
X027823Y015057D02*
X028277Y015057D01*
X028458Y015156D02*
X027642Y015156D01*
X027458Y015156D02*
X026745Y015156D01*
X026879Y015057D02*
X027277Y015057D01*
X027193Y014959D02*
X026949Y014959D01*
X026987Y014860D02*
X027152Y014860D01*
X027140Y014762D02*
X027000Y014762D01*
X027000Y014663D02*
X027140Y014663D01*
X027140Y014565D02*
X027000Y014565D01*
X026100Y014565D02*
X025960Y014565D01*
X025960Y014663D02*
X026100Y014663D01*
X026100Y014762D02*
X025960Y014762D01*
X025948Y014860D02*
X026113Y014860D01*
X026151Y014959D02*
X025907Y014959D01*
X025823Y015057D02*
X026221Y015057D01*
X024458Y015156D02*
X021442Y015156D01*
X021541Y015057D02*
X024277Y015057D01*
X024193Y014959D02*
X021639Y014959D01*
X021738Y014860D02*
X024152Y014860D01*
X024140Y014762D02*
X021836Y014762D01*
X021935Y014663D02*
X024140Y014663D01*
X024140Y014565D02*
X022033Y014565D01*
X022132Y014466D02*
X024140Y014466D01*
X024140Y014368D02*
X023900Y014368D01*
X023982Y014269D02*
X024140Y014269D01*
X024140Y014171D02*
X024010Y014171D01*
X023600Y014368D02*
X022230Y014368D01*
X022329Y014269D02*
X023518Y014269D01*
X023490Y014171D02*
X022427Y014171D01*
X022450Y014072D02*
X023501Y014072D01*
X023559Y013974D02*
X022450Y013974D01*
X021736Y014466D02*
X020234Y014466D01*
X020296Y014565D02*
X021637Y014565D01*
X021539Y014663D02*
X020310Y014663D01*
X020285Y014762D02*
X021440Y014762D01*
X021342Y014860D02*
X020208Y014860D01*
X020190Y014959D02*
X021243Y014959D01*
X021145Y015057D02*
X020190Y015057D01*
X020190Y015156D02*
X021046Y015156D01*
X020948Y015254D02*
X020357Y015254D01*
X020357Y015353D02*
X020849Y015353D01*
X020751Y015451D02*
X020357Y015451D01*
X020357Y015550D02*
X020652Y015550D01*
X020554Y015648D02*
X020357Y015648D01*
X020357Y015747D02*
X020455Y015747D01*
X020410Y015845D02*
X020334Y015845D01*
X020396Y015944D02*
X020410Y015944D01*
X020397Y016042D02*
X020410Y016042D01*
X020410Y016141D02*
X020098Y016141D01*
X020397Y016239D02*
X020410Y016239D01*
X020397Y016338D02*
X020410Y016338D01*
X020410Y016436D02*
X020393Y016436D01*
X020410Y016535D02*
X020316Y016535D01*
X020768Y013383D02*
X022050Y013383D01*
X017943Y012890D02*
X010428Y012890D01*
X010371Y012792D02*
X012512Y012792D01*
X012413Y012693D02*
X010260Y012693D01*
X009840Y012693D02*
X009260Y012693D01*
X009282Y012702D02*
X009398Y012818D01*
X009460Y012968D01*
X009460Y013732D01*
X009398Y013882D01*
X009282Y013998D01*
X009132Y014060D01*
X008968Y014060D01*
X008818Y013998D01*
X008702Y013882D01*
X008640Y013732D01*
X008640Y012968D01*
X008702Y012818D01*
X008818Y012702D01*
X008968Y012640D01*
X009132Y012640D01*
X009282Y012702D01*
X009371Y012792D02*
X009729Y012792D01*
X009672Y012890D02*
X009428Y012890D01*
X009460Y012989D02*
X009640Y012989D01*
X009640Y013087D02*
X009460Y013087D01*
X009460Y013186D02*
X009640Y013186D01*
X009640Y013284D02*
X009460Y013284D01*
X009460Y013383D02*
X009640Y013383D01*
X009640Y013481D02*
X009460Y013481D01*
X009460Y013580D02*
X009640Y013580D01*
X009640Y013678D02*
X009460Y013678D01*
X009441Y013777D02*
X009659Y013777D01*
X009699Y013875D02*
X009401Y013875D01*
X009306Y013974D02*
X009738Y013974D01*
X009639Y014072D02*
X003378Y014072D01*
X003947Y012693D02*
X001530Y012693D01*
X001530Y012595D02*
X003878Y012595D01*
X003852Y012496D02*
X001530Y012496D01*
X001530Y012398D02*
X003857Y012398D01*
X003897Y012299D02*
X001530Y012299D01*
X001530Y012201D02*
X004005Y012201D01*
X004926Y011019D02*
X001530Y011019D01*
X001530Y011117D02*
X012447Y011117D01*
X012348Y011216D02*
X001530Y011216D01*
X001530Y011314D02*
X012300Y011314D01*
X013997Y011117D02*
X014235Y011117D01*
X014154Y011216D02*
X014095Y011216D01*
X014072Y011708D02*
X014161Y011708D01*
X017569Y009738D02*
X021370Y009738D01*
X021795Y009147D02*
X018031Y009147D01*
X018129Y009049D02*
X021893Y009049D01*
X021992Y008950D02*
X018228Y008950D01*
X018326Y008852D02*
X022090Y008852D01*
X022189Y008753D02*
X018425Y008753D01*
X018523Y008655D02*
X022287Y008655D01*
X022386Y008556D02*
X018622Y008556D01*
X018720Y008458D02*
X022484Y008458D01*
X022510Y008359D02*
X018819Y008359D01*
X018933Y007965D02*
X024367Y007965D01*
X029451Y007177D02*
X032665Y007177D01*
X032648Y007079D02*
X029549Y007079D01*
X032830Y006488D02*
X041030Y006488D01*
X041030Y006586D02*
X032847Y006586D01*
X032864Y006685D02*
X041030Y006685D01*
X041030Y006783D02*
X032881Y006783D01*
X032898Y006882D02*
X041030Y006882D01*
X041030Y006980D02*
X032915Y006980D01*
X032813Y006389D02*
X041030Y006389D01*
X041030Y006291D02*
X032796Y006291D01*
X032779Y006192D02*
X041030Y006192D01*
X041030Y006094D02*
X032761Y006094D01*
X032744Y005995D02*
X041030Y005995D01*
X041030Y005897D02*
X032727Y005897D01*
X032710Y005798D02*
X041030Y005798D01*
X041030Y005700D02*
X032693Y005700D01*
X032676Y005601D02*
X041030Y005601D01*
X041030Y005503D02*
X032659Y005503D01*
X032642Y005404D02*
X041030Y005404D01*
X041030Y005306D02*
X032625Y005306D01*
X032608Y005207D02*
X041030Y005207D01*
X041030Y005109D02*
X032591Y005109D01*
X032574Y005010D02*
X041030Y005010D01*
X041030Y004912D02*
X032557Y004912D01*
X032540Y004813D02*
X041030Y004813D01*
X041030Y004715D02*
X032522Y004715D01*
X032505Y004616D02*
X041030Y004616D01*
X041030Y004518D02*
X032488Y004518D01*
X032471Y004419D02*
X041030Y004419D01*
X041030Y004321D02*
X032454Y004321D01*
X032437Y004222D02*
X041030Y004222D01*
X041030Y004124D02*
X032420Y004124D01*
X032403Y004025D02*
X041030Y004025D01*
X041030Y003927D02*
X032370Y003927D01*
X032153Y004222D02*
X021256Y004222D01*
X021210Y004321D02*
X032170Y004321D01*
X032187Y004419D02*
X021195Y004419D01*
X021130Y004518D02*
X032204Y004518D01*
X032221Y004616D02*
X017250Y004616D01*
X017250Y004518D02*
X020770Y004518D01*
X020705Y004419D02*
X019589Y004419D01*
X019610Y004397D02*
X019537Y004470D01*
X019442Y004510D01*
X019338Y004510D01*
X019243Y004470D01*
X019170Y004397D01*
X019130Y004302D01*
X019130Y004198D01*
X019170Y004103D01*
X019243Y004030D01*
X019338Y003990D01*
X019442Y003990D01*
X019522Y004023D01*
X020817Y003345D01*
X020844Y003319D01*
X020867Y003319D01*
X020886Y003309D01*
X020922Y003320D01*
X026378Y003406D01*
X026380Y003403D01*
X026453Y003330D01*
X026548Y003290D01*
X026652Y003290D01*
X026747Y003330D01*
X026820Y003403D01*
X026860Y003498D01*
X026860Y003602D01*
X026820Y003697D01*
X026747Y003770D01*
X026652Y003810D01*
X026548Y003810D01*
X026453Y003770D01*
X026380Y003697D01*
X026375Y003686D01*
X020933Y003601D01*
X019650Y004272D01*
X019650Y004302D01*
X019610Y004397D01*
X019642Y004321D02*
X020690Y004321D01*
X020713Y004222D02*
X019746Y004222D01*
X019934Y004124D02*
X020789Y004124D01*
X021057Y004025D02*
X020122Y004025D01*
X020310Y003927D02*
X021156Y003927D01*
X020875Y003631D02*
X022863Y003631D01*
X021883Y003336D02*
X026447Y003336D01*
X026753Y003336D02*
X029661Y003336D01*
X029702Y003376D02*
X029454Y003128D01*
X029320Y002805D01*
X029320Y002455D01*
X029454Y002132D01*
X029702Y001884D01*
X030025Y001750D01*
X030375Y001750D01*
X030698Y001884D01*
X030946Y002132D01*
X031080Y002455D01*
X031080Y002805D01*
X030946Y003128D01*
X030698Y003376D01*
X030375Y003510D01*
X030025Y003510D01*
X029702Y003376D01*
X029842Y003434D02*
X026833Y003434D01*
X026860Y003533D02*
X039098Y003533D01*
X039197Y003631D02*
X026848Y003631D01*
X026788Y003730D02*
X039427Y003730D01*
X039525Y003770D02*
X039202Y003636D01*
X038954Y003388D01*
X038820Y003065D01*
X038820Y002715D01*
X038954Y002392D01*
X039202Y002144D01*
X039525Y002010D01*
X039875Y002010D01*
X040198Y002144D01*
X040446Y002392D01*
X040580Y002715D01*
X040580Y003065D01*
X040446Y003388D01*
X040198Y003636D01*
X039875Y003770D01*
X039525Y003770D01*
X039973Y003730D02*
X041030Y003730D01*
X041030Y003828D02*
X020499Y003828D01*
X020687Y003730D02*
X026412Y003730D01*
X027488Y004190D02*
X027488Y004190D01*
X026901Y004813D02*
X032255Y004813D01*
X032238Y004715D02*
X017250Y004715D01*
X017250Y004813D02*
X023379Y004813D01*
X023280Y004912D02*
X017250Y004912D01*
X017250Y005010D02*
X023182Y005010D01*
X023083Y005109D02*
X017250Y005109D01*
X017250Y005207D02*
X022985Y005207D01*
X022886Y005306D02*
X017250Y005306D01*
X017250Y005404D02*
X022788Y005404D01*
X019706Y003927D02*
X017250Y003927D01*
X017250Y004025D02*
X019254Y004025D01*
X019161Y004124D02*
X017250Y004124D01*
X017250Y004222D02*
X019130Y004222D01*
X019138Y004321D02*
X017250Y004321D01*
X017250Y004419D02*
X019191Y004419D01*
X019895Y003828D02*
X017250Y003828D01*
X017250Y003730D02*
X020083Y003730D01*
X020271Y003631D02*
X017250Y003631D01*
X017250Y003533D02*
X020459Y003533D01*
X020648Y003434D02*
X017250Y003434D01*
X017250Y003336D02*
X020827Y003336D01*
X021197Y003037D02*
X021172Y003000D01*
X021140Y002968D01*
X021140Y002953D01*
X021197Y003037D02*
X021212Y003040D01*
X021064Y002843D02*
X017250Y002843D01*
X017250Y002745D02*
X020996Y002745D01*
X020929Y002646D02*
X017250Y002646D01*
X017250Y002548D02*
X020861Y002548D01*
X020793Y002449D02*
X017250Y002449D01*
X017250Y002351D02*
X020725Y002351D01*
X020658Y002252D02*
X017250Y002252D01*
X016970Y002252D02*
X006180Y002252D01*
X006180Y002154D02*
X016970Y002154D01*
X016970Y002055D02*
X006180Y002055D01*
X006180Y001957D02*
X017711Y001957D01*
X017680Y001858D02*
X006141Y001858D01*
X006042Y001760D02*
X017688Y001760D01*
X017741Y001661D02*
X005944Y001661D01*
X005845Y001563D02*
X041030Y001563D01*
X041030Y001661D02*
X018139Y001661D01*
X018192Y001760D02*
X030002Y001760D01*
X029764Y001858D02*
X020866Y001858D01*
X020964Y001957D02*
X029629Y001957D01*
X029531Y002055D02*
X021063Y002055D01*
X021161Y002154D02*
X029445Y002154D01*
X029404Y002252D02*
X021260Y002252D01*
X021358Y002351D02*
X029363Y002351D01*
X029323Y002449D02*
X021626Y002449D01*
X021711Y002548D02*
X029320Y002548D01*
X029320Y002646D02*
X021740Y002646D01*
X021731Y002745D02*
X027608Y002745D01*
X027992Y002745D02*
X029320Y002745D01*
X029336Y002843D02*
X028050Y002843D01*
X028060Y002942D02*
X029377Y002942D01*
X029417Y003040D02*
X028032Y003040D01*
X027949Y003139D02*
X029464Y003139D01*
X029563Y003237D02*
X017250Y003237D01*
X017250Y003139D02*
X027651Y003139D01*
X030558Y003434D02*
X039000Y003434D01*
X038932Y003336D02*
X030739Y003336D01*
X030837Y003237D02*
X038891Y003237D01*
X038851Y003139D02*
X030936Y003139D01*
X030983Y003040D02*
X038820Y003040D01*
X038820Y002942D02*
X031023Y002942D01*
X031064Y002843D02*
X038820Y002843D01*
X038820Y002745D02*
X031080Y002745D01*
X031080Y002646D02*
X038849Y002646D01*
X038889Y002548D02*
X031080Y002548D01*
X031077Y002449D02*
X038930Y002449D01*
X038995Y002351D02*
X031037Y002351D01*
X030996Y002252D02*
X039094Y002252D01*
X039192Y002154D02*
X030955Y002154D01*
X030869Y002055D02*
X039417Y002055D01*
X039983Y002055D02*
X041030Y002055D01*
X041030Y001957D02*
X030771Y001957D01*
X030636Y001858D02*
X041030Y001858D01*
X041030Y001760D02*
X030398Y001760D01*
X032272Y004912D02*
X026999Y004912D01*
X027098Y005010D02*
X032290Y005010D01*
X040203Y003631D02*
X041030Y003631D01*
X041030Y003533D02*
X040302Y003533D01*
X040400Y003434D02*
X041030Y003434D01*
X041030Y003336D02*
X040468Y003336D01*
X040509Y003237D02*
X041030Y003237D01*
X041030Y003139D02*
X040549Y003139D01*
X040580Y003040D02*
X041030Y003040D01*
X041030Y002942D02*
X040580Y002942D01*
X040580Y002843D02*
X041030Y002843D01*
X041030Y002745D02*
X040580Y002745D01*
X040551Y002646D02*
X041030Y002646D01*
X041030Y002548D02*
X040511Y002548D01*
X040470Y002449D02*
X041030Y002449D01*
X041030Y002351D02*
X040405Y002351D01*
X040306Y002252D02*
X041030Y002252D01*
X041030Y002154D02*
X040208Y002154D01*
X040100Y010723D02*
X040000Y010723D01*
X040000Y010822D02*
X040100Y010822D01*
X040100Y010920D02*
X040000Y010920D01*
X040000Y011019D02*
X040100Y011019D01*
X040100Y011117D02*
X040000Y011117D01*
X040000Y011216D02*
X040100Y011216D01*
X040100Y011314D02*
X040000Y011314D01*
X040000Y011413D02*
X039460Y011413D01*
X040000Y011511D02*
X040100Y011511D01*
X040100Y011413D02*
X041030Y011413D01*
X040100Y011610D02*
X040000Y011610D01*
X040000Y011708D02*
X040100Y011708D01*
X040100Y011807D02*
X040000Y011807D01*
X040000Y011905D02*
X040100Y011905D01*
X040100Y012004D02*
X040000Y012004D01*
X040000Y012102D02*
X040100Y012102D01*
X033880Y016535D02*
X031602Y016535D01*
X029918Y013284D02*
X027814Y013284D01*
X027313Y012693D02*
X027275Y012693D01*
X027275Y012595D02*
X027313Y012595D01*
X027313Y012496D02*
X027275Y012496D01*
X027561Y012496D02*
X027589Y012496D01*
X028022Y012496D02*
X028366Y012496D01*
X018898Y006094D02*
X018802Y006094D01*
X018802Y005995D02*
X018898Y005995D01*
X018898Y005897D02*
X018802Y005897D01*
X018543Y005897D02*
X017250Y005897D01*
X017250Y005995D02*
X018503Y005995D01*
X016970Y004222D02*
X005021Y004222D01*
X005119Y004124D02*
X016970Y004124D01*
X016970Y004025D02*
X005218Y004025D01*
X005310Y003927D02*
X016970Y003927D01*
X016970Y003828D02*
X005310Y003828D01*
X005310Y003730D02*
X016970Y003730D01*
X016970Y003631D02*
X005310Y003631D01*
X005310Y003533D02*
X016970Y003533D01*
X016970Y003434D02*
X005310Y003434D01*
X005218Y003336D02*
X016970Y003336D01*
X016970Y003237D02*
X005120Y003237D01*
X005021Y003139D02*
X016970Y003139D01*
X016970Y003040D02*
X003538Y003040D01*
X003579Y002942D02*
X016970Y002942D01*
X016970Y002843D02*
X003619Y002843D01*
X003660Y002745D02*
X005302Y002745D01*
X005203Y002646D02*
X003660Y002646D01*
X003660Y002548D02*
X005105Y002548D01*
X005006Y002449D02*
X003660Y002449D01*
X003641Y002351D02*
X004960Y002351D01*
X004960Y002252D02*
X003601Y002252D01*
X003560Y002154D02*
X004960Y002154D01*
X004960Y002055D02*
X003509Y002055D01*
X003411Y001957D02*
X004960Y001957D01*
X004999Y001858D02*
X003312Y001858D01*
X003123Y001760D02*
X005098Y001760D01*
X006180Y002351D02*
X016970Y002351D01*
X016970Y002449D02*
X006134Y002449D01*
X006035Y002548D02*
X016970Y002548D01*
X016970Y002646D02*
X005937Y002646D01*
X005838Y002745D02*
X016970Y002745D01*
X013582Y005010D02*
X013348Y005010D01*
X013440Y005109D02*
X013721Y005109D01*
X012281Y004912D02*
X004170Y004912D01*
X004170Y005010D02*
X008724Y005010D01*
X008748Y005000D02*
X008852Y005000D01*
X008947Y005040D01*
X009020Y005113D01*
X009060Y005208D01*
X009060Y005312D01*
X009020Y005407D01*
X008947Y005480D01*
X008852Y005520D01*
X008748Y005520D01*
X008653Y005480D01*
X008580Y005407D01*
X008540Y005312D01*
X008540Y005208D01*
X008580Y005113D01*
X008653Y005040D01*
X008748Y005000D01*
X008876Y005010D02*
X012002Y005010D01*
X011940Y005109D02*
X009016Y005109D01*
X009059Y005207D02*
X011940Y005207D01*
X011940Y005306D02*
X009060Y005306D01*
X009022Y005404D02*
X011940Y005404D01*
X011940Y005503D02*
X008894Y005503D01*
X008706Y005503D02*
X004010Y005503D01*
X003912Y005601D02*
X011940Y005601D01*
X008578Y005404D02*
X004109Y005404D01*
X004170Y005306D02*
X008540Y005306D01*
X008541Y005207D02*
X004170Y005207D01*
X004170Y005109D02*
X008584Y005109D01*
X004379Y003139D02*
X003456Y003139D01*
X003357Y003237D02*
X004280Y003237D01*
X004182Y003336D02*
X003231Y003336D01*
X002993Y003434D02*
X004090Y003434D01*
X004285Y008852D02*
X004659Y008852D01*
X004912Y009935D02*
X001530Y009935D01*
X001530Y010034D02*
X004814Y010034D01*
X004715Y010132D02*
X001530Y010132D01*
X001530Y010231D02*
X004630Y010231D01*
X004630Y010329D02*
X001530Y010329D01*
X001530Y010428D02*
X004630Y010428D01*
X004630Y010526D02*
X001530Y010526D01*
X001530Y010625D02*
X004630Y010625D01*
X004630Y010723D02*
X001530Y010723D01*
X001530Y010822D02*
X004729Y010822D01*
X004827Y010920D02*
X001530Y010920D01*
X007260Y012693D02*
X007840Y012693D01*
X007818Y012702D02*
X007968Y012640D01*
X008132Y012640D01*
X008282Y012702D01*
X008398Y012818D01*
X008460Y012968D01*
X008460Y013732D01*
X008398Y013882D01*
X008282Y013998D01*
X008132Y014060D01*
X007968Y014060D01*
X007818Y013998D01*
X007702Y013882D01*
X007640Y013732D01*
X007640Y012968D01*
X007702Y012818D01*
X007818Y012702D01*
X007729Y012792D02*
X007371Y012792D01*
X007428Y012890D02*
X007672Y012890D01*
X007640Y012989D02*
X007460Y012989D01*
X007460Y013087D02*
X007640Y013087D01*
X007640Y013186D02*
X007460Y013186D01*
X007460Y013284D02*
X007640Y013284D01*
X007640Y013383D02*
X007460Y013383D01*
X007460Y013481D02*
X007640Y013481D01*
X007640Y013580D02*
X007460Y013580D01*
X007460Y013678D02*
X007640Y013678D01*
X007659Y013777D02*
X007441Y013777D01*
X007401Y013875D02*
X007699Y013875D01*
X007794Y013974D02*
X007306Y013974D01*
X008306Y013974D02*
X008794Y013974D01*
X008699Y013875D02*
X008401Y013875D01*
X008441Y013777D02*
X008659Y013777D01*
X008640Y013678D02*
X008460Y013678D01*
X008460Y013580D02*
X008640Y013580D01*
X008640Y013481D02*
X008460Y013481D01*
X008460Y013383D02*
X008640Y013383D01*
X008640Y013284D02*
X008460Y013284D01*
X008460Y013186D02*
X008640Y013186D01*
X008640Y013087D02*
X008460Y013087D01*
X008460Y012989D02*
X008640Y012989D01*
X008672Y012890D02*
X008428Y012890D01*
X008371Y012792D02*
X008729Y012792D01*
X008840Y012693D02*
X008260Y012693D01*
D23*
X023690Y012560D02*
X025310Y012560D01*
X025400Y012620D01*
X024920Y012830D02*
X023990Y012830D01*
X027590Y011810D02*
X029480Y012470D01*
X037880Y012410D01*
X038050Y012240D01*
X038050Y011450D01*
X038870Y012320D02*
X037730Y013460D01*
X030110Y013460D01*
X028550Y012680D02*
X027800Y012680D01*
X027800Y012740D01*
X027806Y012750D01*
X028700Y011570D02*
X028700Y011344D01*
X029864Y010210D01*
X027594Y010250D02*
X027414Y010430D01*
X026720Y010430D01*
X033890Y016730D02*
X034430Y016190D01*
X033890Y016730D02*
X031430Y016730D01*
M02*
