G75*
%MOIN*%
%OFA0B0*%
%FSLAX24Y24*%
%IPPOS*%
%LPD*%
%AMOC8*
5,1,8,0,0,1.08239X$1,22.5*
%
%ADD10C,0.1320*%
%ADD11C,0.0660*%
%ADD12OC8,0.0660*%
%ADD13C,0.0660*%
%ADD14OC8,0.1060*%
%ADD15R,0.0493X0.0454*%
%ADD16R,0.0454X0.0493*%
%ADD17R,0.0336X0.0414*%
%ADD18C,0.0456*%
%ADD19C,0.0360*%
D10*
X002780Y002570D03*
X030200Y002630D03*
X039700Y002890D03*
X039780Y015570D03*
X002780Y017070D03*
D11*
X012750Y013450D03*
D12*
X013750Y013450D03*
X013750Y012450D03*
X012750Y012450D03*
X012750Y011450D03*
X013750Y011450D03*
X024380Y006490D03*
X025380Y006490D03*
X026380Y006490D03*
X027380Y006490D03*
X028380Y006490D03*
X029380Y006490D03*
X030380Y006490D03*
X030380Y005490D03*
X029380Y005490D03*
X028380Y005490D03*
X027380Y005490D03*
X026380Y005490D03*
X025380Y005490D03*
X024380Y005490D03*
D13*
X037050Y011150D02*
X037050Y011750D01*
X038050Y011750D02*
X038050Y011150D01*
X039050Y011150D02*
X039050Y011750D01*
X040050Y011750D02*
X040050Y011150D01*
X029550Y014150D02*
X029550Y014750D01*
X028550Y014750D02*
X028550Y014150D01*
X027550Y014150D02*
X027550Y014750D01*
X026550Y014750D02*
X026550Y014150D01*
X025550Y014150D02*
X025550Y014750D01*
X024550Y014750D02*
X024550Y014150D01*
X010050Y013650D02*
X010050Y013050D01*
X009050Y013050D02*
X009050Y013650D01*
X008050Y013650D02*
X008050Y013050D01*
X007050Y013050D02*
X007050Y013650D01*
X006050Y013650D02*
X006050Y013050D01*
X005050Y013050D02*
X005050Y013650D01*
D14*
X005240Y010470D03*
X005240Y008570D03*
X003560Y005090D03*
X004700Y003680D03*
X005570Y002150D03*
D15*
X015415Y009050D03*
X016085Y009050D03*
X021015Y011350D03*
X021685Y011350D03*
X015185Y011450D03*
X014515Y011450D03*
D16*
X018250Y012215D03*
X018250Y012885D03*
X020050Y015515D03*
X020050Y016185D03*
X020850Y006885D03*
X020850Y006215D03*
X018850Y006215D03*
X018850Y006885D03*
D17*
X027594Y010250D03*
X028106Y010250D03*
X029864Y010210D03*
X030376Y010210D03*
X027806Y012750D03*
X027294Y012750D03*
D18*
X027830Y010700D03*
X029060Y009290D03*
X028310Y008960D03*
X027830Y008630D03*
X030350Y008630D03*
X024920Y008960D03*
X022130Y009440D03*
X006050Y012470D03*
X004160Y012470D03*
X003230Y013190D03*
X003200Y014330D03*
X004160Y008570D03*
X038870Y012320D03*
D19*
X035250Y013050D03*
X034670Y011210D03*
X031670Y011190D03*
X030200Y010700D03*
X031070Y009890D03*
X032250Y009370D03*
X031070Y008010D03*
X032910Y007770D03*
X031670Y006750D03*
X035670Y005870D03*
X036790Y007250D03*
X028700Y011570D03*
X027590Y011810D03*
X026110Y011780D03*
X025630Y010970D03*
X024840Y010970D03*
X024670Y010430D03*
X024160Y010170D03*
X023800Y010410D03*
X023550Y011150D03*
X024020Y011790D03*
X023470Y011930D03*
X023690Y012560D03*
X023990Y012830D03*
X024920Y012830D03*
X025400Y012620D03*
X028550Y012680D03*
X030110Y013460D03*
X026720Y010430D03*
X025970Y010350D03*
X022340Y010910D03*
X021700Y010760D03*
X022250Y011350D03*
X021780Y011910D03*
X020590Y012030D03*
X020650Y013150D03*
X020250Y013550D03*
X021250Y013550D03*
X022310Y013410D03*
X023750Y014150D03*
X020050Y014650D03*
X018350Y014750D03*
X018250Y013650D03*
X017450Y013150D03*
X016350Y013250D03*
X013950Y014150D03*
X017650Y011650D03*
X017450Y011150D03*
X016350Y011350D03*
X016050Y010850D03*
X015750Y010550D03*
X016250Y010250D03*
X017450Y009970D03*
X017630Y009350D03*
X016090Y009470D03*
X015800Y008390D03*
X016760Y008270D03*
X018850Y007650D03*
X020850Y007650D03*
X022770Y008370D03*
X021570Y009570D03*
X020650Y008950D03*
X019050Y008950D03*
X022850Y006750D03*
X023350Y006150D03*
X022450Y005950D03*
X020950Y004330D03*
X019390Y004250D03*
X021480Y002670D03*
X017940Y001830D03*
X012100Y002460D03*
X013800Y004860D03*
X013100Y005360D03*
X012500Y005060D03*
X012320Y005710D03*
X008900Y006360D03*
X008800Y005260D03*
X008640Y007670D03*
X009040Y007670D03*
X009440Y007670D03*
X009840Y007670D03*
X010240Y007670D03*
X010240Y008070D03*
X009840Y008070D03*
X009440Y008070D03*
X009040Y008070D03*
X008640Y008070D03*
X024570Y008130D03*
X025670Y008130D03*
X026600Y003550D03*
X027800Y002920D03*
X034430Y016190D03*
X031430Y016730D03*
X026850Y016950D03*
X020750Y017350D03*
X020090Y017370D03*
X018350Y017850D03*
X016250Y017850D03*
M02*
