G75*
%MOIN*%
%OFA0B0*%
%FSLAX24Y24*%
%IPPOS*%
%LPD*%
%AMOC8*
5,1,8,0,0,1.08239X$1,22.5*
%
%ADD10C,0.0000*%
%ADD11C,0.0020*%
%ADD12C,0.0060*%
%ADD13C,0.0030*%
%ADD14C,0.0080*%
%ADD15C,0.0040*%
%ADD16C,0.0050*%
D10*
X001280Y001070D02*
X001280Y018570D01*
X041280Y018570D01*
X041280Y001070D01*
X001280Y001070D01*
X002150Y002570D02*
X002152Y002620D01*
X002158Y002670D01*
X002168Y002719D01*
X002182Y002767D01*
X002199Y002814D01*
X002220Y002859D01*
X002245Y002903D01*
X002273Y002944D01*
X002305Y002983D01*
X002339Y003020D01*
X002376Y003054D01*
X002416Y003084D01*
X002458Y003111D01*
X002502Y003135D01*
X002548Y003156D01*
X002595Y003172D01*
X002643Y003185D01*
X002693Y003194D01*
X002742Y003199D01*
X002793Y003200D01*
X002843Y003197D01*
X002892Y003190D01*
X002941Y003179D01*
X002989Y003164D01*
X003035Y003146D01*
X003080Y003124D01*
X003123Y003098D01*
X003164Y003069D01*
X003203Y003037D01*
X003239Y003002D01*
X003271Y002964D01*
X003301Y002924D01*
X003328Y002881D01*
X003351Y002837D01*
X003370Y002791D01*
X003386Y002743D01*
X003398Y002694D01*
X003406Y002645D01*
X003410Y002595D01*
X003410Y002545D01*
X003406Y002495D01*
X003398Y002446D01*
X003386Y002397D01*
X003370Y002349D01*
X003351Y002303D01*
X003328Y002259D01*
X003301Y002216D01*
X003271Y002176D01*
X003239Y002138D01*
X003203Y002103D01*
X003164Y002071D01*
X003123Y002042D01*
X003080Y002016D01*
X003035Y001994D01*
X002989Y001976D01*
X002941Y001961D01*
X002892Y001950D01*
X002843Y001943D01*
X002793Y001940D01*
X002742Y001941D01*
X002693Y001946D01*
X002643Y001955D01*
X002595Y001968D01*
X002548Y001984D01*
X002502Y002005D01*
X002458Y002029D01*
X002416Y002056D01*
X002376Y002086D01*
X002339Y002120D01*
X002305Y002157D01*
X002273Y002196D01*
X002245Y002237D01*
X002220Y002281D01*
X002199Y002326D01*
X002182Y002373D01*
X002168Y002421D01*
X002158Y002470D01*
X002152Y002520D01*
X002150Y002570D01*
X010380Y005170D02*
X010382Y005191D01*
X010387Y005211D01*
X010396Y005230D01*
X010408Y005247D01*
X010423Y005262D01*
X010440Y005274D01*
X010459Y005283D01*
X010479Y005288D01*
X010500Y005290D01*
X010521Y005288D01*
X010541Y005283D01*
X010560Y005274D01*
X010577Y005262D01*
X010592Y005247D01*
X010604Y005230D01*
X010613Y005211D01*
X010618Y005191D01*
X010620Y005170D01*
X029570Y002630D02*
X029572Y002680D01*
X029578Y002730D01*
X029588Y002779D01*
X029602Y002827D01*
X029619Y002874D01*
X029640Y002919D01*
X029665Y002963D01*
X029693Y003004D01*
X029725Y003043D01*
X029759Y003080D01*
X029796Y003114D01*
X029836Y003144D01*
X029878Y003171D01*
X029922Y003195D01*
X029968Y003216D01*
X030015Y003232D01*
X030063Y003245D01*
X030113Y003254D01*
X030162Y003259D01*
X030213Y003260D01*
X030263Y003257D01*
X030312Y003250D01*
X030361Y003239D01*
X030409Y003224D01*
X030455Y003206D01*
X030500Y003184D01*
X030543Y003158D01*
X030584Y003129D01*
X030623Y003097D01*
X030659Y003062D01*
X030691Y003024D01*
X030721Y002984D01*
X030748Y002941D01*
X030771Y002897D01*
X030790Y002851D01*
X030806Y002803D01*
X030818Y002754D01*
X030826Y002705D01*
X030830Y002655D01*
X030830Y002605D01*
X030826Y002555D01*
X030818Y002506D01*
X030806Y002457D01*
X030790Y002409D01*
X030771Y002363D01*
X030748Y002319D01*
X030721Y002276D01*
X030691Y002236D01*
X030659Y002198D01*
X030623Y002163D01*
X030584Y002131D01*
X030543Y002102D01*
X030500Y002076D01*
X030455Y002054D01*
X030409Y002036D01*
X030361Y002021D01*
X030312Y002010D01*
X030263Y002003D01*
X030213Y002000D01*
X030162Y002001D01*
X030113Y002006D01*
X030063Y002015D01*
X030015Y002028D01*
X029968Y002044D01*
X029922Y002065D01*
X029878Y002089D01*
X029836Y002116D01*
X029796Y002146D01*
X029759Y002180D01*
X029725Y002217D01*
X029693Y002256D01*
X029665Y002297D01*
X029640Y002341D01*
X029619Y002386D01*
X029602Y002433D01*
X029588Y002481D01*
X029578Y002530D01*
X029572Y002580D01*
X029570Y002630D01*
X039070Y002890D02*
X039072Y002940D01*
X039078Y002990D01*
X039088Y003039D01*
X039102Y003087D01*
X039119Y003134D01*
X039140Y003179D01*
X039165Y003223D01*
X039193Y003264D01*
X039225Y003303D01*
X039259Y003340D01*
X039296Y003374D01*
X039336Y003404D01*
X039378Y003431D01*
X039422Y003455D01*
X039468Y003476D01*
X039515Y003492D01*
X039563Y003505D01*
X039613Y003514D01*
X039662Y003519D01*
X039713Y003520D01*
X039763Y003517D01*
X039812Y003510D01*
X039861Y003499D01*
X039909Y003484D01*
X039955Y003466D01*
X040000Y003444D01*
X040043Y003418D01*
X040084Y003389D01*
X040123Y003357D01*
X040159Y003322D01*
X040191Y003284D01*
X040221Y003244D01*
X040248Y003201D01*
X040271Y003157D01*
X040290Y003111D01*
X040306Y003063D01*
X040318Y003014D01*
X040326Y002965D01*
X040330Y002915D01*
X040330Y002865D01*
X040326Y002815D01*
X040318Y002766D01*
X040306Y002717D01*
X040290Y002669D01*
X040271Y002623D01*
X040248Y002579D01*
X040221Y002536D01*
X040191Y002496D01*
X040159Y002458D01*
X040123Y002423D01*
X040084Y002391D01*
X040043Y002362D01*
X040000Y002336D01*
X039955Y002314D01*
X039909Y002296D01*
X039861Y002281D01*
X039812Y002270D01*
X039763Y002263D01*
X039713Y002260D01*
X039662Y002261D01*
X039613Y002266D01*
X039563Y002275D01*
X039515Y002288D01*
X039468Y002304D01*
X039422Y002325D01*
X039378Y002349D01*
X039336Y002376D01*
X039296Y002406D01*
X039259Y002440D01*
X039225Y002477D01*
X039193Y002516D01*
X039165Y002557D01*
X039140Y002601D01*
X039119Y002646D01*
X039102Y002693D01*
X039088Y002741D01*
X039078Y002790D01*
X039072Y002840D01*
X039070Y002890D01*
X039150Y015570D02*
X039152Y015620D01*
X039158Y015670D01*
X039168Y015719D01*
X039182Y015767D01*
X039199Y015814D01*
X039220Y015859D01*
X039245Y015903D01*
X039273Y015944D01*
X039305Y015983D01*
X039339Y016020D01*
X039376Y016054D01*
X039416Y016084D01*
X039458Y016111D01*
X039502Y016135D01*
X039548Y016156D01*
X039595Y016172D01*
X039643Y016185D01*
X039693Y016194D01*
X039742Y016199D01*
X039793Y016200D01*
X039843Y016197D01*
X039892Y016190D01*
X039941Y016179D01*
X039989Y016164D01*
X040035Y016146D01*
X040080Y016124D01*
X040123Y016098D01*
X040164Y016069D01*
X040203Y016037D01*
X040239Y016002D01*
X040271Y015964D01*
X040301Y015924D01*
X040328Y015881D01*
X040351Y015837D01*
X040370Y015791D01*
X040386Y015743D01*
X040398Y015694D01*
X040406Y015645D01*
X040410Y015595D01*
X040410Y015545D01*
X040406Y015495D01*
X040398Y015446D01*
X040386Y015397D01*
X040370Y015349D01*
X040351Y015303D01*
X040328Y015259D01*
X040301Y015216D01*
X040271Y015176D01*
X040239Y015138D01*
X040203Y015103D01*
X040164Y015071D01*
X040123Y015042D01*
X040080Y015016D01*
X040035Y014994D01*
X039989Y014976D01*
X039941Y014961D01*
X039892Y014950D01*
X039843Y014943D01*
X039793Y014940D01*
X039742Y014941D01*
X039693Y014946D01*
X039643Y014955D01*
X039595Y014968D01*
X039548Y014984D01*
X039502Y015005D01*
X039458Y015029D01*
X039416Y015056D01*
X039376Y015086D01*
X039339Y015120D01*
X039305Y015157D01*
X039273Y015196D01*
X039245Y015237D01*
X039220Y015281D01*
X039199Y015326D01*
X039182Y015373D01*
X039168Y015421D01*
X039158Y015470D01*
X039152Y015520D01*
X039150Y015570D01*
X002150Y017070D02*
X002152Y017120D01*
X002158Y017170D01*
X002168Y017219D01*
X002182Y017267D01*
X002199Y017314D01*
X002220Y017359D01*
X002245Y017403D01*
X002273Y017444D01*
X002305Y017483D01*
X002339Y017520D01*
X002376Y017554D01*
X002416Y017584D01*
X002458Y017611D01*
X002502Y017635D01*
X002548Y017656D01*
X002595Y017672D01*
X002643Y017685D01*
X002693Y017694D01*
X002742Y017699D01*
X002793Y017700D01*
X002843Y017697D01*
X002892Y017690D01*
X002941Y017679D01*
X002989Y017664D01*
X003035Y017646D01*
X003080Y017624D01*
X003123Y017598D01*
X003164Y017569D01*
X003203Y017537D01*
X003239Y017502D01*
X003271Y017464D01*
X003301Y017424D01*
X003328Y017381D01*
X003351Y017337D01*
X003370Y017291D01*
X003386Y017243D01*
X003398Y017194D01*
X003406Y017145D01*
X003410Y017095D01*
X003410Y017045D01*
X003406Y016995D01*
X003398Y016946D01*
X003386Y016897D01*
X003370Y016849D01*
X003351Y016803D01*
X003328Y016759D01*
X003301Y016716D01*
X003271Y016676D01*
X003239Y016638D01*
X003203Y016603D01*
X003164Y016571D01*
X003123Y016542D01*
X003080Y016516D01*
X003035Y016494D01*
X002989Y016476D01*
X002941Y016461D01*
X002892Y016450D01*
X002843Y016443D01*
X002793Y016440D01*
X002742Y016441D01*
X002693Y016446D01*
X002643Y016455D01*
X002595Y016468D01*
X002548Y016484D01*
X002502Y016505D01*
X002458Y016529D01*
X002416Y016556D01*
X002376Y016586D01*
X002339Y016620D01*
X002305Y016657D01*
X002273Y016696D01*
X002245Y016737D01*
X002220Y016781D01*
X002199Y016826D01*
X002182Y016873D01*
X002168Y016921D01*
X002158Y016970D01*
X002152Y017020D01*
X002150Y017070D01*
D11*
X035190Y014960D02*
X035190Y014740D01*
X035190Y014850D02*
X035263Y014850D01*
X035190Y014960D02*
X035337Y014960D01*
X035411Y014887D02*
X035484Y014960D01*
X035558Y014887D01*
X035558Y014740D01*
X035632Y014740D02*
X035705Y014740D01*
X035669Y014740D02*
X035669Y014960D01*
X035705Y014960D02*
X035632Y014960D01*
X035558Y014850D02*
X035411Y014850D01*
X035411Y014887D02*
X035411Y014740D01*
X035558Y014600D02*
X035632Y014527D01*
X035632Y014453D01*
X035558Y014380D01*
X035484Y014380D02*
X035374Y014380D01*
X035337Y014417D01*
X035337Y014490D01*
X035374Y014527D01*
X035484Y014527D01*
X035263Y014600D02*
X035190Y014527D01*
X035190Y014453D01*
X035263Y014380D01*
X035779Y014740D02*
X035779Y014960D01*
X035853Y014887D01*
X035926Y014960D01*
X035926Y014740D01*
X036000Y014777D02*
X036037Y014740D01*
X036110Y014740D01*
X036147Y014777D01*
X036147Y014813D01*
X036110Y014850D01*
X036037Y014850D01*
X036000Y014887D01*
X036000Y014923D01*
X036037Y014960D01*
X036110Y014960D01*
X036147Y014923D01*
X036442Y014850D02*
X036442Y014777D01*
X036479Y014740D01*
X036589Y014740D01*
X036663Y014777D02*
X036700Y014740D01*
X036773Y014740D01*
X036810Y014777D01*
X036810Y014850D01*
X036773Y014887D01*
X036700Y014887D01*
X036663Y014850D01*
X036663Y014777D01*
X036589Y014887D02*
X036479Y014887D01*
X036442Y014850D01*
X036479Y014527D02*
X036515Y014490D01*
X036515Y014453D01*
X036369Y014453D01*
X036369Y014417D02*
X036369Y014490D01*
X036405Y014527D01*
X036479Y014527D01*
X036479Y014380D02*
X036405Y014380D01*
X036369Y014417D01*
X036294Y014380D02*
X036294Y014490D01*
X036258Y014527D01*
X036184Y014527D01*
X036148Y014490D01*
X036148Y014600D02*
X036148Y014380D01*
X036000Y014380D02*
X036000Y014600D01*
X035927Y014600D02*
X036073Y014600D01*
X036811Y014600D02*
X036957Y014600D01*
X036884Y014600D02*
X036884Y014380D01*
X037032Y014417D02*
X037032Y014490D01*
X037068Y014527D01*
X037142Y014527D01*
X037178Y014490D01*
X037178Y014453D01*
X037032Y014453D01*
X037032Y014417D02*
X037068Y014380D01*
X037142Y014380D01*
X037253Y014417D02*
X037253Y014490D01*
X037289Y014527D01*
X037399Y014527D01*
X037474Y014490D02*
X037510Y014527D01*
X037584Y014527D01*
X037620Y014490D01*
X037620Y014380D01*
X037474Y014380D02*
X037474Y014600D01*
X037473Y014740D02*
X037437Y014777D01*
X037437Y014850D01*
X037473Y014887D01*
X037547Y014887D01*
X037584Y014850D01*
X037584Y014777D01*
X037547Y014740D01*
X037473Y014740D01*
X037363Y014887D02*
X037326Y014887D01*
X037253Y014813D01*
X037253Y014740D02*
X037253Y014887D01*
X037179Y014887D02*
X037105Y014887D01*
X037142Y014923D02*
X037142Y014777D01*
X037179Y014740D01*
X037031Y014740D02*
X037031Y014850D01*
X036994Y014887D01*
X036884Y014887D01*
X036884Y014740D01*
X037253Y014417D02*
X037289Y014380D01*
X037399Y014380D01*
X037916Y014600D02*
X038062Y014600D01*
X037989Y014600D02*
X037989Y014380D01*
X038137Y014417D02*
X038137Y014490D01*
X038173Y014527D01*
X038247Y014527D01*
X038283Y014490D01*
X038283Y014417D01*
X038247Y014380D01*
X038173Y014380D01*
X038137Y014417D01*
X038357Y014417D02*
X038394Y014380D01*
X038504Y014380D01*
X038504Y014343D02*
X038468Y014307D01*
X038431Y014307D01*
X038504Y014343D02*
X038504Y014527D01*
X038578Y014527D02*
X038689Y014527D01*
X038725Y014490D01*
X038725Y014417D01*
X038689Y014380D01*
X038578Y014380D01*
X038578Y014600D01*
X038578Y014740D02*
X038615Y014777D01*
X038578Y014813D01*
X038505Y014813D01*
X038468Y014850D01*
X038505Y014887D01*
X038615Y014887D01*
X038689Y014887D02*
X038762Y014887D01*
X038726Y014923D02*
X038726Y014777D01*
X038762Y014740D01*
X038836Y014777D02*
X038836Y014850D01*
X038873Y014887D01*
X038946Y014887D01*
X038983Y014850D01*
X038983Y014813D01*
X038836Y014813D01*
X038836Y014777D02*
X038873Y014740D01*
X038946Y014740D01*
X039057Y014740D02*
X039057Y014887D01*
X039094Y014887D01*
X039131Y014850D01*
X039167Y014887D01*
X039204Y014850D01*
X039204Y014740D01*
X039131Y014740D02*
X039131Y014850D01*
X039167Y014527D02*
X039020Y014380D01*
X038946Y014417D02*
X038946Y014490D01*
X038910Y014527D01*
X038836Y014527D01*
X038799Y014490D01*
X038799Y014417D01*
X038836Y014380D01*
X038910Y014380D01*
X038946Y014417D01*
X039020Y014527D02*
X039167Y014380D01*
X039462Y014380D02*
X039609Y014527D01*
X039609Y014563D01*
X039573Y014600D01*
X039499Y014600D01*
X039462Y014563D01*
X039462Y014380D02*
X039609Y014380D01*
X039683Y014417D02*
X039830Y014563D01*
X039830Y014417D01*
X039794Y014380D01*
X039720Y014380D01*
X039683Y014417D01*
X039683Y014563D01*
X039720Y014600D01*
X039794Y014600D01*
X039830Y014563D01*
X039904Y014527D02*
X039978Y014600D01*
X039978Y014380D01*
X040051Y014380D02*
X039904Y014380D01*
X040125Y014417D02*
X040162Y014380D01*
X040235Y014380D01*
X040272Y014417D01*
X040272Y014453D01*
X040235Y014490D01*
X040125Y014490D01*
X040125Y014417D01*
X040125Y014490D02*
X040199Y014563D01*
X040272Y014600D01*
X040383Y014417D02*
X040383Y014380D01*
X040420Y014380D01*
X040420Y014417D01*
X040383Y014417D01*
X040420Y014380D02*
X040346Y014307D01*
X040494Y014380D02*
X040641Y014527D01*
X040641Y014563D01*
X040604Y014600D01*
X040530Y014600D01*
X040494Y014563D01*
X040494Y014380D02*
X040641Y014380D01*
X040715Y014417D02*
X040861Y014563D01*
X040861Y014417D01*
X040825Y014380D01*
X040751Y014380D01*
X040715Y014417D01*
X040715Y014563D01*
X040751Y014600D01*
X040825Y014600D01*
X040861Y014563D01*
X040936Y014527D02*
X041009Y014600D01*
X041009Y014380D01*
X040936Y014380D02*
X041082Y014380D01*
X041157Y014380D02*
X041157Y014417D01*
X041303Y014563D01*
X041303Y014600D01*
X041157Y014600D01*
X038578Y014740D02*
X038468Y014740D01*
X038394Y014740D02*
X038284Y014740D01*
X038247Y014777D01*
X038247Y014887D01*
X038173Y014887D02*
X038063Y014887D01*
X038026Y014850D01*
X038063Y014813D01*
X038136Y014813D01*
X038173Y014777D01*
X038136Y014740D01*
X038026Y014740D01*
X037731Y014740D02*
X037658Y014740D01*
X037694Y014740D02*
X037694Y014960D01*
X037658Y014960D01*
X038394Y014887D02*
X038394Y014703D01*
X038357Y014667D01*
X038320Y014667D01*
X038357Y014527D02*
X038357Y014417D01*
D12*
X038300Y011950D02*
X037800Y011950D01*
X037550Y011700D01*
X037300Y011950D01*
X036800Y011950D01*
X036550Y011700D01*
X036550Y011200D01*
X036800Y010950D01*
X037300Y010950D01*
X037550Y011200D01*
X037800Y010950D01*
X038300Y010950D01*
X038550Y011200D01*
X038800Y010950D01*
X039300Y010950D01*
X039550Y011200D01*
X039800Y010950D01*
X040300Y010950D01*
X040550Y011200D01*
X040550Y011700D01*
X040300Y011950D01*
X039800Y011950D01*
X039550Y011700D01*
X039300Y011950D01*
X038800Y011950D01*
X038550Y011700D01*
X038300Y011950D01*
X030050Y014200D02*
X030050Y014700D01*
X029800Y014950D01*
X029300Y014950D01*
X029050Y014700D01*
X028800Y014950D01*
X028300Y014950D01*
X028050Y014700D01*
X027800Y014950D01*
X027300Y014950D01*
X027050Y014700D01*
X026800Y014950D01*
X026300Y014950D01*
X026050Y014700D01*
X025800Y014950D01*
X025300Y014950D01*
X025050Y014700D01*
X024800Y014950D01*
X024300Y014950D01*
X024050Y014700D01*
X024050Y014200D01*
X024300Y013950D01*
X024800Y013950D01*
X025050Y014200D01*
X025300Y013950D01*
X025800Y013950D01*
X026050Y014200D01*
X026300Y013950D01*
X026800Y013950D01*
X027050Y014200D01*
X027300Y013950D01*
X027800Y013950D01*
X028050Y014200D01*
X028300Y013950D01*
X028800Y013950D01*
X029050Y014200D01*
X029300Y013950D01*
X029800Y013950D01*
X030050Y014200D01*
X024550Y015700D02*
X024550Y016800D01*
X024548Y016817D01*
X024544Y016834D01*
X024537Y016850D01*
X024527Y016864D01*
X024514Y016877D01*
X024500Y016887D01*
X024484Y016894D01*
X024467Y016898D01*
X024450Y016900D01*
X023850Y016900D01*
X023833Y016898D01*
X023816Y016894D01*
X023800Y016887D01*
X023786Y016877D01*
X023773Y016864D01*
X023763Y016850D01*
X023756Y016834D01*
X023752Y016817D01*
X023750Y016800D01*
X023750Y015700D01*
X023752Y015683D01*
X023756Y015666D01*
X023763Y015650D01*
X023773Y015636D01*
X023786Y015623D01*
X023800Y015613D01*
X023816Y015606D01*
X023833Y015602D01*
X023850Y015600D01*
X024450Y015600D01*
X024467Y015602D01*
X024484Y015606D01*
X024500Y015613D01*
X024514Y015623D01*
X024527Y015636D01*
X024537Y015650D01*
X024544Y015666D01*
X024548Y015683D01*
X024550Y015700D01*
X022300Y016850D02*
X022300Y017450D01*
X022298Y017467D01*
X022294Y017484D01*
X022287Y017500D01*
X022277Y017514D01*
X022264Y017527D01*
X022250Y017537D01*
X022234Y017544D01*
X022217Y017548D01*
X022200Y017550D01*
X021100Y017550D01*
X021083Y017548D01*
X021066Y017544D01*
X021050Y017537D01*
X021036Y017527D01*
X021023Y017514D01*
X021013Y017500D01*
X021006Y017484D01*
X021002Y017467D01*
X021000Y017450D01*
X021000Y016850D01*
X021002Y016833D01*
X021006Y016816D01*
X021013Y016800D01*
X021023Y016786D01*
X021036Y016773D01*
X021050Y016763D01*
X021066Y016756D01*
X021083Y016752D01*
X021100Y016750D01*
X022200Y016750D01*
X022217Y016752D01*
X022234Y016756D01*
X022250Y016763D01*
X022264Y016773D01*
X022277Y016786D01*
X022287Y016800D01*
X022294Y016816D01*
X022298Y016833D01*
X022300Y016850D01*
X022270Y014300D02*
X022160Y014300D01*
X022160Y013910D01*
X022270Y013910D01*
X022270Y014300D01*
X022070Y014300D02*
X021960Y014300D01*
X021960Y013910D01*
X022070Y013910D01*
X022070Y014300D01*
X021870Y014300D02*
X021760Y014300D01*
X021760Y013910D01*
X021870Y013910D01*
X021870Y014300D01*
X021680Y014300D02*
X021570Y014300D01*
X021570Y013910D01*
X021680Y013910D01*
X021680Y014300D01*
X021480Y014300D02*
X021370Y014300D01*
X021370Y013910D01*
X021480Y013910D01*
X021480Y014300D01*
X021280Y014300D02*
X021170Y014300D01*
X021170Y013910D01*
X021280Y013910D01*
X021280Y014300D01*
X021090Y014300D02*
X020980Y014300D01*
X020980Y013910D01*
X021090Y013910D01*
X021090Y014300D01*
X020890Y014300D02*
X020780Y014300D01*
X020780Y013910D01*
X020890Y013910D01*
X020890Y014300D01*
X020690Y014300D02*
X020580Y014300D01*
X020580Y013910D01*
X020690Y013910D01*
X020690Y014300D01*
X020500Y014300D02*
X020390Y014300D01*
X020390Y013910D01*
X020500Y013910D01*
X020500Y014300D01*
X020300Y014300D02*
X020190Y014300D01*
X020190Y013910D01*
X020300Y013910D01*
X020300Y014300D01*
X020100Y014300D02*
X019990Y014300D01*
X019990Y013910D01*
X020100Y013910D01*
X020100Y014300D01*
X019900Y014300D02*
X019790Y014300D01*
X019790Y013910D01*
X019910Y013910D01*
X019900Y014300D01*
X019710Y014300D02*
X019600Y014300D01*
X019600Y013910D01*
X019710Y013910D01*
X019710Y014300D01*
X019510Y014300D02*
X019400Y014300D01*
X019400Y013910D01*
X019510Y013910D01*
X019510Y014300D01*
X019310Y014300D02*
X019200Y014300D01*
X019200Y013910D01*
X019310Y013910D01*
X019310Y014300D01*
X019120Y014300D02*
X019010Y014300D01*
X019010Y013910D01*
X019120Y013910D01*
X019120Y014300D01*
X018920Y014300D02*
X018810Y014300D01*
X018810Y013910D01*
X018920Y013910D01*
X018920Y014300D01*
X018720Y014300D02*
X018610Y014300D01*
X018610Y013910D01*
X018720Y013910D01*
X018720Y014300D01*
X018530Y014300D02*
X018420Y014300D01*
X018420Y013910D01*
X018530Y013910D01*
X018530Y014300D01*
X018330Y014300D02*
X018220Y014300D01*
X018220Y013910D01*
X018330Y013910D01*
X018330Y014300D01*
X018130Y014300D02*
X018020Y014300D01*
X018020Y013910D01*
X018130Y013910D01*
X018130Y014300D01*
X017940Y014300D02*
X017830Y014300D01*
X017830Y013910D01*
X017940Y013910D01*
X017940Y014300D01*
X017740Y014300D02*
X017630Y014300D01*
X017630Y013910D01*
X017740Y013910D01*
X017740Y014300D01*
X017540Y014300D02*
X017430Y014300D01*
X017430Y013910D01*
X017540Y013910D01*
X017540Y014300D01*
X017090Y013910D02*
X017090Y008390D01*
X022610Y008390D01*
X022610Y013910D01*
X017090Y013910D01*
X017090Y013570D02*
X016700Y013570D01*
X016700Y013460D01*
X017090Y013460D01*
X017090Y013570D01*
X017090Y013370D02*
X016700Y013370D01*
X016700Y013260D01*
X017090Y013260D01*
X017090Y013370D01*
X017090Y013170D02*
X016700Y013170D01*
X016700Y013060D01*
X017090Y013060D01*
X017090Y013170D01*
X017090Y012980D02*
X016700Y012980D01*
X016700Y012870D01*
X017090Y012870D01*
X017090Y012980D01*
X017090Y012780D02*
X016700Y012780D01*
X016700Y012670D01*
X017090Y012670D01*
X017090Y012780D01*
X017090Y012580D02*
X016700Y012580D01*
X016700Y012470D01*
X017090Y012470D01*
X017090Y012580D01*
X017090Y012390D02*
X016700Y012390D01*
X016700Y012280D01*
X017090Y012280D01*
X017090Y012390D01*
X017090Y012190D02*
X016700Y012190D01*
X016700Y012080D01*
X017090Y012080D01*
X017090Y012190D01*
X017090Y011990D02*
X016700Y011990D01*
X016700Y011880D01*
X017090Y011880D01*
X017090Y011990D01*
X017090Y011800D02*
X016700Y011800D01*
X016700Y011690D01*
X017090Y011690D01*
X017090Y011800D01*
X017090Y011600D02*
X016700Y011600D01*
X016700Y011490D01*
X017090Y011490D01*
X017090Y011600D01*
X017090Y011400D02*
X016700Y011400D01*
X016700Y011290D01*
X017090Y011290D01*
X017090Y011400D01*
X017090Y011210D02*
X016700Y011200D01*
X016700Y011090D01*
X017090Y011090D01*
X017090Y011210D01*
X017090Y011010D02*
X016700Y011010D01*
X016700Y010900D01*
X017090Y010900D01*
X017090Y011010D01*
X017090Y010810D02*
X016700Y010810D01*
X016700Y010700D01*
X017090Y010700D01*
X017090Y010810D01*
X017090Y010610D02*
X016700Y010610D01*
X016700Y010500D01*
X017090Y010500D01*
X017090Y010610D01*
X017090Y010420D02*
X016700Y010420D01*
X016700Y010310D01*
X017090Y010310D01*
X017090Y010420D01*
X017090Y010220D02*
X016700Y010220D01*
X016700Y010110D01*
X017090Y010110D01*
X017090Y010220D01*
X017090Y010020D02*
X016700Y010020D01*
X016700Y009910D01*
X017090Y009910D01*
X017090Y010020D01*
X017090Y009830D02*
X016700Y009830D01*
X016700Y009720D01*
X017090Y009720D01*
X017090Y009830D01*
X017090Y009630D02*
X016700Y009630D01*
X016700Y009520D01*
X017090Y009520D01*
X017090Y009630D01*
X017090Y009430D02*
X016700Y009430D01*
X016700Y009320D01*
X017090Y009320D01*
X017090Y009430D01*
X017090Y009240D02*
X016700Y009240D01*
X016700Y009130D01*
X017090Y009130D01*
X017090Y009240D01*
X017090Y009040D02*
X016700Y009040D01*
X016700Y008930D01*
X017090Y008930D01*
X017090Y009040D01*
X017090Y008840D02*
X016700Y008840D01*
X016700Y008730D01*
X017090Y008730D01*
X017090Y008840D01*
X017430Y008390D02*
X017430Y008000D01*
X017540Y008000D01*
X017540Y008390D01*
X017430Y008390D01*
X017630Y008390D02*
X017630Y008000D01*
X017740Y008000D01*
X017740Y008390D01*
X017630Y008390D01*
X017830Y008390D02*
X017830Y008000D01*
X017940Y008000D01*
X017940Y008390D01*
X017830Y008390D01*
X018020Y008390D02*
X018020Y008000D01*
X018130Y008000D01*
X018130Y008390D01*
X018020Y008390D01*
X018220Y008390D02*
X018220Y008000D01*
X018330Y008000D01*
X018330Y008390D01*
X018220Y008390D01*
X018420Y008390D02*
X018420Y008000D01*
X018530Y008000D01*
X018530Y008390D01*
X018420Y008390D01*
X018610Y008390D02*
X018610Y008000D01*
X018720Y008000D01*
X018720Y008390D01*
X018610Y008390D01*
X018810Y008390D02*
X018810Y008000D01*
X018920Y008000D01*
X018920Y008390D01*
X018810Y008390D01*
X019010Y008390D02*
X019010Y008000D01*
X019120Y008000D01*
X019120Y008390D01*
X019010Y008390D01*
X019200Y008390D02*
X019200Y008000D01*
X019310Y008000D01*
X019310Y008390D01*
X019200Y008390D01*
X019400Y008390D02*
X019400Y008000D01*
X019510Y008000D01*
X019510Y008390D01*
X019400Y008390D01*
X019600Y008390D02*
X019600Y008000D01*
X019710Y008000D01*
X019710Y008390D01*
X019600Y008390D01*
X019790Y008390D02*
X019800Y008000D01*
X019910Y008000D01*
X019910Y008390D01*
X019790Y008390D01*
X019990Y008390D02*
X019990Y008000D01*
X020100Y008000D01*
X020100Y008390D01*
X019990Y008390D01*
X020190Y008390D02*
X020190Y008000D01*
X020300Y008000D01*
X020300Y008390D01*
X020190Y008390D01*
X020390Y008390D02*
X020390Y008000D01*
X020500Y008000D01*
X020500Y008390D01*
X020390Y008390D01*
X020580Y008390D02*
X020580Y008000D01*
X020690Y008000D01*
X020690Y008390D01*
X020580Y008390D01*
X020780Y008390D02*
X020780Y008000D01*
X020890Y008000D01*
X020890Y008390D01*
X020780Y008390D01*
X020980Y008390D02*
X020980Y008000D01*
X021090Y008000D01*
X021090Y008390D01*
X020980Y008390D01*
X021170Y008390D02*
X021170Y008000D01*
X021280Y008000D01*
X021280Y008390D01*
X021170Y008390D01*
X021370Y008390D02*
X021370Y008000D01*
X021480Y008000D01*
X021480Y008390D01*
X021370Y008390D01*
X021570Y008390D02*
X021570Y008000D01*
X021680Y008000D01*
X021680Y008390D01*
X021570Y008390D01*
X021760Y008390D02*
X021760Y008000D01*
X021870Y008000D01*
X021870Y008390D01*
X021760Y008390D01*
X021960Y008390D02*
X021960Y008000D01*
X022070Y008000D01*
X022070Y008390D01*
X021960Y008390D01*
X022110Y008390D02*
X022610Y008890D01*
X022610Y008930D02*
X023000Y008930D01*
X023000Y009040D01*
X022610Y009040D01*
X022610Y008930D01*
X022610Y008840D02*
X023000Y008840D01*
X023000Y008730D01*
X022610Y008730D01*
X022610Y008840D01*
X022610Y009130D02*
X023000Y009130D01*
X023000Y009240D01*
X022610Y009240D01*
X022610Y009130D01*
X022610Y009320D02*
X023000Y009320D01*
X023000Y009430D01*
X022610Y009430D01*
X022610Y009320D01*
X022610Y009520D02*
X023000Y009520D01*
X023000Y009630D01*
X022610Y009630D01*
X022610Y009520D01*
X022610Y009720D02*
X023000Y009720D01*
X023000Y009830D01*
X022610Y009830D01*
X022610Y009720D01*
X022610Y009910D02*
X023000Y009910D01*
X023000Y010020D01*
X022610Y010020D01*
X022610Y009910D01*
X022610Y010110D02*
X023000Y010110D01*
X023000Y010220D01*
X022610Y010220D01*
X022610Y010110D01*
X022610Y010310D02*
X023000Y010310D01*
X023000Y010420D01*
X022610Y010420D01*
X022610Y010310D01*
X022610Y010500D02*
X023000Y010500D01*
X023000Y010610D01*
X022610Y010610D01*
X022610Y010500D01*
X022610Y010700D02*
X023000Y010700D01*
X023000Y010810D01*
X022610Y010810D01*
X022610Y010700D01*
X022610Y010900D02*
X023000Y010900D01*
X023000Y011010D01*
X022610Y011010D01*
X022610Y010900D01*
X022610Y011090D02*
X023000Y011100D01*
X023000Y011210D01*
X022610Y011210D01*
X022610Y011090D01*
X022610Y011290D02*
X023000Y011290D01*
X023000Y011400D01*
X022610Y011400D01*
X022610Y011290D01*
X022610Y011490D02*
X023000Y011490D01*
X023000Y011600D01*
X022610Y011600D01*
X022610Y011490D01*
X022610Y011690D02*
X023000Y011690D01*
X023000Y011800D01*
X022610Y011800D01*
X022610Y011690D01*
X022610Y011880D02*
X023000Y011880D01*
X023000Y011990D01*
X022610Y011990D01*
X022610Y011880D01*
X022610Y012080D02*
X023000Y012080D01*
X023000Y012190D01*
X022610Y012190D01*
X022610Y012080D01*
X022610Y012280D02*
X023000Y012280D01*
X023000Y012390D01*
X022610Y012390D01*
X022610Y012280D01*
X022610Y012470D02*
X023000Y012470D01*
X023000Y012580D01*
X022610Y012580D01*
X022610Y012470D01*
X022610Y012670D02*
X023000Y012670D01*
X023000Y012780D01*
X022610Y012780D01*
X022610Y012670D01*
X022610Y012870D02*
X023000Y012870D01*
X023000Y012980D01*
X022610Y012980D01*
X022610Y012870D01*
X022610Y013060D02*
X023000Y013060D01*
X023000Y013170D01*
X022610Y013170D01*
X022610Y013060D01*
X022610Y013260D02*
X023000Y013260D01*
X023000Y013370D01*
X022610Y013370D01*
X022610Y013260D01*
X022610Y013460D02*
X023000Y013460D01*
X023000Y013570D01*
X022610Y013570D01*
X022610Y013460D01*
X014250Y013700D02*
X014250Y013200D01*
X014000Y012950D01*
X014250Y012700D01*
X014250Y012200D01*
X014000Y011950D01*
X014250Y011700D01*
X014250Y011200D01*
X014000Y010950D01*
X012500Y010950D01*
X012250Y011200D01*
X012250Y011700D01*
X012500Y011950D01*
X012250Y012200D01*
X012250Y012700D01*
X012500Y012950D01*
X012250Y013200D01*
X012250Y013700D01*
X012500Y013950D01*
X014000Y013950D01*
X014250Y013700D01*
X013800Y014250D02*
X013800Y014850D01*
X013798Y014867D01*
X013794Y014884D01*
X013787Y014900D01*
X013777Y014914D01*
X013764Y014927D01*
X013750Y014937D01*
X013734Y014944D01*
X013717Y014948D01*
X013700Y014950D01*
X012600Y014950D01*
X012583Y014948D01*
X012566Y014944D01*
X012550Y014937D01*
X012536Y014927D01*
X012523Y014914D01*
X012513Y014900D01*
X012506Y014884D01*
X012502Y014867D01*
X012500Y014850D01*
X012500Y014250D01*
X012502Y014233D01*
X012506Y014216D01*
X012513Y014200D01*
X012523Y014186D01*
X012536Y014173D01*
X012550Y014163D01*
X012566Y014156D01*
X012583Y014152D01*
X012600Y014150D01*
X013700Y014150D01*
X013717Y014152D01*
X013734Y014156D01*
X013750Y014163D01*
X013764Y014173D01*
X013777Y014186D01*
X013787Y014200D01*
X013794Y014216D01*
X013798Y014233D01*
X013800Y014250D01*
X010550Y013600D02*
X010550Y013100D01*
X010300Y012850D01*
X009800Y012850D01*
X009550Y013100D01*
X009300Y012850D01*
X008800Y012850D01*
X008550Y013100D01*
X008300Y012850D01*
X007800Y012850D01*
X007550Y013100D01*
X007300Y012850D01*
X006800Y012850D01*
X006550Y013100D01*
X006300Y012850D01*
X005800Y012850D01*
X005550Y013100D01*
X005300Y012850D01*
X004800Y012850D01*
X004550Y013100D01*
X004550Y013600D01*
X004800Y013850D01*
X005300Y013850D01*
X005550Y013600D01*
X005800Y013850D01*
X006300Y013850D01*
X006550Y013600D01*
X006800Y013850D01*
X007300Y013850D01*
X007550Y013600D01*
X007800Y013850D01*
X008300Y013850D01*
X008550Y013600D01*
X008800Y013850D01*
X009300Y013850D01*
X009550Y013600D01*
X009800Y013850D01*
X010300Y013850D01*
X010550Y013600D01*
X008290Y010970D02*
X006790Y010970D01*
X006773Y010968D01*
X006756Y010964D01*
X006740Y010957D01*
X006726Y010947D01*
X006713Y010934D01*
X006703Y010920D01*
X006696Y010904D01*
X006692Y010887D01*
X006690Y010870D01*
X006690Y009870D01*
X006692Y009853D01*
X006696Y009836D01*
X006703Y009820D01*
X006713Y009806D01*
X006726Y009793D01*
X006740Y009783D01*
X006756Y009776D01*
X006773Y009772D01*
X006790Y009770D01*
X008290Y009770D01*
X008307Y009772D01*
X008324Y009776D01*
X008340Y009783D01*
X008354Y009793D01*
X008367Y009806D01*
X008377Y009820D01*
X008384Y009836D01*
X008388Y009853D01*
X008390Y009870D01*
X008390Y010870D01*
X008388Y010887D01*
X008384Y010904D01*
X008377Y010920D01*
X008367Y010934D01*
X008354Y010947D01*
X008340Y010957D01*
X008324Y010964D01*
X008307Y010968D01*
X008290Y010970D01*
X008910Y010040D02*
X009970Y010040D01*
X009970Y008700D01*
X008910Y008700D01*
X008910Y010040D01*
X008910Y009740D01*
X009970Y009740D01*
X009970Y010040D01*
X008910Y010040D01*
X008910Y009610D02*
X008910Y009130D01*
X008910Y009000D02*
X008910Y008700D01*
X009970Y008700D01*
X009970Y009000D01*
X008910Y009000D01*
X008390Y008970D02*
X008390Y007970D01*
X008388Y007953D01*
X008384Y007936D01*
X008377Y007920D01*
X008367Y007906D01*
X008354Y007893D01*
X008340Y007883D01*
X008324Y007876D01*
X008307Y007872D01*
X008290Y007870D01*
X006790Y007870D01*
X006773Y007872D01*
X006756Y007876D01*
X006740Y007883D01*
X006726Y007893D01*
X006713Y007906D01*
X006703Y007920D01*
X006696Y007936D01*
X006692Y007953D01*
X006690Y007970D01*
X006690Y008970D01*
X006692Y008987D01*
X006696Y009004D01*
X006703Y009020D01*
X006713Y009034D01*
X006726Y009047D01*
X006740Y009057D01*
X006756Y009064D01*
X006773Y009068D01*
X006790Y009070D01*
X008290Y009070D01*
X008307Y009068D01*
X008324Y009064D01*
X008340Y009057D01*
X008354Y009047D01*
X008367Y009034D01*
X008377Y009020D01*
X008384Y009004D01*
X008388Y008987D01*
X008390Y008970D01*
X009970Y009130D02*
X009970Y009610D01*
X005740Y009970D02*
X005740Y010170D01*
X005740Y009970D02*
X005540Y009970D01*
X004940Y009970D02*
X004740Y009970D01*
X004740Y010170D01*
X004740Y010770D02*
X004740Y010970D01*
X004940Y010970D01*
X005540Y010970D02*
X005740Y010970D01*
X005740Y010770D01*
X005740Y009070D02*
X005740Y008870D01*
X005740Y009070D02*
X005540Y009070D01*
X004940Y009070D02*
X004740Y009070D01*
X004740Y008870D01*
X004740Y008270D02*
X004740Y008070D01*
X004940Y008070D01*
X005540Y008070D02*
X005740Y008070D01*
X005740Y008270D01*
X009910Y006350D02*
X011090Y006350D01*
X009300Y005440D02*
X009200Y005440D01*
X009200Y005290D01*
X009300Y005290D02*
X009300Y005440D01*
X009910Y005170D02*
X010380Y005170D01*
X010620Y005170D01*
X011090Y005170D01*
X006070Y002650D02*
X005870Y002650D01*
X006070Y002650D02*
X006070Y002450D01*
X005270Y002650D02*
X005070Y002650D01*
X005070Y002450D01*
X005070Y001850D02*
X005070Y001650D01*
X005270Y001650D01*
X005870Y001650D02*
X006070Y001650D01*
X006070Y001850D01*
X005200Y003180D02*
X005000Y003180D01*
X005200Y003180D02*
X005200Y003380D01*
X004400Y003180D02*
X004200Y003180D01*
X004200Y003380D01*
X004200Y003980D02*
X004200Y004180D01*
X004400Y004180D01*
X005000Y004180D02*
X005200Y004180D01*
X005200Y003980D01*
X004060Y004590D02*
X004060Y004790D01*
X004060Y004590D02*
X003860Y004590D01*
X003260Y004590D02*
X003060Y004590D01*
X003060Y004790D01*
X003060Y005390D02*
X003060Y005590D01*
X003260Y005590D01*
X003860Y005590D02*
X004060Y005590D01*
X004060Y005390D01*
X022160Y008000D02*
X022270Y008000D01*
X022270Y008390D01*
X022160Y008390D01*
X022160Y008000D01*
X023880Y006740D02*
X024130Y006990D01*
X024630Y006990D01*
X024880Y006740D01*
X025130Y006990D01*
X025630Y006990D01*
X025880Y006740D01*
X026130Y006990D01*
X026630Y006990D01*
X026880Y006740D01*
X027130Y006990D01*
X027630Y006990D01*
X027880Y006740D01*
X028130Y006990D01*
X028630Y006990D01*
X028880Y006740D01*
X029130Y006990D01*
X029630Y006990D01*
X029880Y006740D01*
X030130Y006990D01*
X030630Y006990D01*
X030880Y006740D01*
X030880Y005240D01*
X030630Y004990D01*
X030130Y004990D01*
X029880Y005240D01*
X029630Y004990D01*
X029130Y004990D01*
X028880Y005240D01*
X028630Y004990D01*
X028130Y004990D01*
X027880Y005240D01*
X027630Y004990D01*
X027130Y004990D01*
X026880Y005240D01*
X026630Y004990D01*
X026130Y004990D01*
X025880Y005240D01*
X025630Y004990D01*
X025130Y004990D01*
X024880Y005240D01*
X024630Y004990D01*
X024130Y004990D01*
X023880Y005240D01*
X023880Y006740D01*
D13*
X023605Y008383D02*
X023291Y008697D01*
X023448Y008697D02*
X023448Y008383D01*
X023291Y008383D02*
X023605Y008697D01*
X023605Y008540D02*
X023291Y008540D01*
X020965Y010915D02*
X020965Y011307D01*
X020887Y011385D01*
X020730Y011385D01*
X020651Y011307D01*
X020651Y010915D01*
X020505Y011071D02*
X020348Y010915D01*
X020348Y011385D01*
X020505Y011385D02*
X020191Y011385D01*
X009675Y010407D02*
X009675Y010250D01*
X009597Y010171D01*
X009675Y010025D02*
X009675Y009868D01*
X009675Y009946D02*
X009205Y009946D01*
X009205Y009868D02*
X009205Y010025D01*
X009283Y010171D02*
X009205Y010250D01*
X009205Y010407D01*
X009283Y010485D01*
X009597Y010485D01*
X009675Y010407D01*
X009675Y009718D02*
X009205Y009718D01*
X009205Y009404D02*
X009675Y009404D01*
X009519Y009257D02*
X009675Y009100D01*
X009205Y009100D01*
X009205Y008944D02*
X009205Y009257D01*
X009205Y009404D02*
X009675Y009718D01*
X011301Y005207D02*
X011615Y004893D01*
X011458Y004893D02*
X011458Y005207D01*
X011615Y005207D02*
X011301Y004893D01*
X011301Y005050D02*
X011615Y005050D01*
D14*
X011505Y004940D02*
X011011Y004446D01*
X011011Y004323D01*
X011135Y004199D01*
X011382Y004199D01*
X011505Y004323D01*
X011766Y004199D02*
X011766Y004817D01*
X011890Y004940D01*
X012137Y004940D01*
X012260Y004817D01*
X012260Y004199D01*
X011505Y004940D02*
X011011Y004940D01*
X010750Y004940D02*
X010256Y004940D01*
X010503Y004940D02*
X010503Y004199D01*
X010750Y004446D01*
X027126Y010710D02*
X027126Y013190D01*
X029174Y013190D01*
X029174Y010710D01*
D15*
X030520Y010897D02*
X030596Y010820D01*
X030903Y010820D01*
X030980Y010897D01*
X030980Y011050D01*
X030903Y011127D01*
X030903Y011280D02*
X030980Y011357D01*
X030980Y011511D01*
X030903Y011587D01*
X030827Y011587D01*
X030750Y011511D01*
X030750Y011434D01*
X030750Y011511D02*
X030673Y011587D01*
X030596Y011587D01*
X030520Y011511D01*
X030520Y011357D01*
X030596Y011280D01*
X030596Y011127D02*
X030520Y011050D01*
X030520Y010897D01*
X030596Y011741D02*
X030520Y011818D01*
X030520Y011971D01*
X030596Y012048D01*
X030673Y012048D01*
X030750Y011971D01*
X030827Y012048D01*
X030903Y012048D01*
X030980Y011971D01*
X030980Y011818D01*
X030903Y011741D01*
X030750Y011894D02*
X030750Y011971D01*
X030820Y012097D02*
X030896Y012020D01*
X031203Y012020D01*
X031280Y012097D01*
X031280Y012250D01*
X031203Y012327D01*
X031203Y012480D02*
X031280Y012557D01*
X031280Y012711D01*
X031203Y012787D01*
X031127Y012787D01*
X031050Y012711D01*
X031050Y012634D01*
X031050Y012711D02*
X030973Y012787D01*
X030896Y012787D01*
X030820Y012711D01*
X030820Y012557D01*
X030896Y012480D01*
X030896Y012327D02*
X030820Y012250D01*
X030820Y012097D01*
X032020Y012020D02*
X032020Y012250D01*
X032096Y012327D01*
X032250Y012327D01*
X032327Y012250D01*
X032327Y012020D01*
X032480Y012020D02*
X032020Y012020D01*
X032327Y012173D02*
X032480Y012327D01*
X032403Y012480D02*
X032480Y012557D01*
X032480Y012711D01*
X032403Y012787D01*
X032327Y012787D01*
X032250Y012711D01*
X032250Y012480D01*
X032403Y012480D01*
X032250Y012480D02*
X032096Y012634D01*
X032020Y012787D01*
X032020Y012941D02*
X032250Y012941D01*
X032173Y013094D01*
X032173Y013171D01*
X032250Y013248D01*
X032403Y013248D01*
X032480Y013171D01*
X032480Y013018D01*
X032403Y012941D01*
X032020Y012941D02*
X032020Y013248D01*
X031280Y013171D02*
X030820Y013171D01*
X031050Y012941D01*
X031050Y013248D01*
X033220Y013248D02*
X033296Y013094D01*
X033450Y012941D01*
X033450Y013171D01*
X033527Y013248D01*
X033603Y013248D01*
X033680Y013171D01*
X033680Y013018D01*
X033603Y012941D01*
X033450Y012941D01*
X033527Y012787D02*
X033450Y012711D01*
X033450Y012480D01*
X033603Y012480D01*
X033680Y012557D01*
X033680Y012711D01*
X033603Y012787D01*
X033527Y012787D01*
X033296Y012634D02*
X033450Y012480D01*
X033450Y012327D02*
X033296Y012327D01*
X033220Y012250D01*
X033220Y012020D01*
X033680Y012020D01*
X033527Y012020D02*
X033527Y012250D01*
X033450Y012327D01*
X033527Y012173D02*
X033680Y012327D01*
X033296Y012634D02*
X033220Y012787D01*
X028840Y013447D02*
X028763Y013370D01*
X028610Y013370D01*
X028533Y013447D01*
X028533Y013600D02*
X028687Y013677D01*
X028763Y013677D01*
X028840Y013600D01*
X028840Y013447D01*
X028533Y013600D02*
X028533Y013830D01*
X028840Y013830D01*
X028380Y013754D02*
X028303Y013830D01*
X028150Y013830D01*
X028073Y013754D01*
X028073Y013447D01*
X028150Y013370D01*
X028303Y013370D01*
X028380Y013447D01*
X027919Y013370D02*
X027766Y013370D01*
X027843Y013370D02*
X027843Y013830D01*
X027919Y013830D02*
X027766Y013830D01*
X022330Y015799D02*
X022330Y016106D01*
X022253Y016260D02*
X022330Y016336D01*
X022330Y016490D01*
X022253Y016567D01*
X022177Y016567D01*
X022100Y016490D01*
X022100Y016413D01*
X022100Y016490D02*
X022023Y016567D01*
X021946Y016567D01*
X021870Y016490D01*
X021870Y016336D01*
X021946Y016260D01*
X021870Y015799D02*
X022330Y015799D01*
X019515Y015667D02*
X019208Y015667D01*
X019055Y015667D02*
X018748Y016127D01*
X019055Y016127D02*
X018748Y015667D01*
X019362Y015667D02*
X019362Y016127D01*
X019208Y015974D01*
X019203Y016439D02*
X018896Y016439D01*
X018820Y016516D01*
X018820Y016669D01*
X018896Y016746D01*
X018896Y016899D02*
X018820Y016976D01*
X018820Y017129D01*
X018896Y017206D01*
X018973Y017206D01*
X019280Y016899D01*
X019280Y017206D01*
X019203Y017360D02*
X019280Y017436D01*
X019280Y017590D01*
X019203Y017667D01*
X019127Y017667D01*
X019050Y017590D01*
X019050Y017513D01*
X019050Y017590D02*
X018973Y017667D01*
X018896Y017667D01*
X018820Y017590D01*
X018820Y017436D01*
X018896Y017360D01*
X017834Y017220D02*
X017834Y016760D01*
X017681Y016760D02*
X017988Y016760D01*
X017681Y017067D02*
X017834Y017220D01*
X017527Y017220D02*
X017374Y017144D01*
X017220Y016990D01*
X017451Y016990D01*
X017527Y016913D01*
X017527Y016837D01*
X017451Y016760D01*
X017297Y016760D01*
X017220Y016837D01*
X017220Y016990D01*
X017067Y016990D02*
X016990Y016913D01*
X016760Y016913D01*
X016760Y016760D02*
X016760Y017220D01*
X016990Y017220D01*
X017067Y017144D01*
X017067Y016990D01*
X016913Y016913D02*
X017067Y016760D01*
X015980Y016916D02*
X015980Y017069D01*
X015903Y017146D01*
X015980Y017299D02*
X015673Y017606D01*
X015596Y017606D01*
X015520Y017529D01*
X015520Y017376D01*
X015596Y017299D01*
X015596Y017146D02*
X015520Y017069D01*
X015520Y016916D01*
X015596Y016839D01*
X015903Y016839D01*
X015980Y016916D01*
X015980Y017299D02*
X015980Y017606D01*
X015750Y017760D02*
X015750Y018067D01*
X015980Y017990D02*
X015520Y017990D01*
X015750Y017760D01*
X014367Y016304D02*
X014290Y016380D01*
X014136Y016380D01*
X014060Y016304D01*
X013906Y016380D02*
X013753Y016304D01*
X013599Y016150D01*
X013829Y016150D01*
X013906Y016073D01*
X013906Y015997D01*
X013829Y015920D01*
X013676Y015920D01*
X013599Y015997D01*
X013599Y016150D01*
X013446Y016150D02*
X013369Y016073D01*
X013139Y016073D01*
X013139Y015920D02*
X013139Y016380D01*
X013369Y016380D01*
X013446Y016304D01*
X013446Y016150D01*
X013292Y016073D02*
X013446Y015920D01*
X014060Y015920D02*
X014367Y016227D01*
X014367Y016304D01*
X014367Y015920D02*
X014060Y015920D01*
X019203Y016439D02*
X019280Y016516D01*
X019280Y016669D01*
X019203Y016746D01*
X025520Y016723D02*
X025750Y016723D01*
X025827Y016800D01*
X025827Y016954D01*
X025750Y017030D01*
X025520Y017030D01*
X025520Y016570D01*
X025673Y016723D02*
X025827Y016570D01*
X025980Y016647D02*
X026057Y016570D01*
X026211Y016570D01*
X026287Y016647D01*
X026287Y016723D01*
X026211Y016800D01*
X025980Y016800D01*
X025980Y016647D01*
X025980Y016800D02*
X026134Y016954D01*
X026287Y017030D01*
X026287Y017120D02*
X025980Y017120D01*
X026287Y017427D01*
X026287Y017504D01*
X026211Y017580D01*
X026057Y017580D01*
X025980Y017504D01*
X025827Y017504D02*
X025750Y017580D01*
X025597Y017580D01*
X025520Y017504D01*
X025520Y017197D01*
X025597Y017120D01*
X025750Y017120D01*
X025827Y017197D01*
X026441Y017197D02*
X026518Y017120D01*
X026671Y017120D01*
X026748Y017197D01*
X026748Y017350D01*
X026671Y017427D01*
X026594Y017427D01*
X026441Y017350D01*
X026441Y017580D01*
X026748Y017580D01*
X026671Y017030D02*
X026518Y017030D01*
X026441Y016954D01*
X026594Y016800D02*
X026671Y016800D01*
X026748Y016723D01*
X026748Y016647D01*
X026671Y016570D01*
X026518Y016570D01*
X026441Y016647D01*
X026671Y016800D02*
X026748Y016877D01*
X026748Y016954D01*
X026671Y017030D01*
X032357Y009405D02*
X032357Y009271D01*
X032357Y008519D02*
X032357Y008385D01*
X032291Y008452D02*
X032424Y008452D01*
X032424Y007151D02*
X032457Y007151D01*
X032457Y007118D01*
X032424Y007118D01*
X032424Y007151D01*
X033996Y004967D02*
X034303Y004660D01*
X034380Y004736D01*
X034380Y004890D01*
X034303Y004967D01*
X033996Y004967D01*
X033920Y004890D01*
X033920Y004736D01*
X033996Y004660D01*
X034303Y004660D01*
X033996Y004506D02*
X034303Y004199D01*
X034380Y004199D01*
X034380Y004046D02*
X034227Y003892D01*
X034227Y003969D02*
X034227Y003739D01*
X034380Y003739D02*
X033920Y003739D01*
X033920Y003969D01*
X033996Y004046D01*
X034150Y004046D01*
X034227Y003969D01*
X033920Y004199D02*
X033920Y004506D01*
X033996Y004506D01*
X035220Y004406D02*
X035296Y004253D01*
X035450Y004099D01*
X035450Y004329D01*
X035527Y004406D01*
X035603Y004406D01*
X035680Y004329D01*
X035680Y004176D01*
X035603Y004099D01*
X035450Y004099D01*
X035450Y003946D02*
X035527Y003869D01*
X035527Y003639D01*
X035680Y003639D02*
X035220Y003639D01*
X035220Y003869D01*
X035296Y003946D01*
X035450Y003946D01*
X035527Y003792D02*
X035680Y003946D01*
X035603Y004560D02*
X035527Y004560D01*
X035450Y004636D01*
X035450Y004790D01*
X035527Y004867D01*
X035603Y004867D01*
X035680Y004790D01*
X035680Y004636D01*
X035603Y004560D01*
X035450Y004636D02*
X035373Y004560D01*
X035296Y004560D01*
X035220Y004636D01*
X035220Y004790D01*
X035296Y004867D01*
X035373Y004867D01*
X035450Y004790D01*
X036920Y005720D02*
X036920Y006180D01*
X037150Y006180D01*
X037227Y006104D01*
X037227Y005950D01*
X037150Y005873D01*
X036920Y005873D01*
X037073Y005873D02*
X037227Y005720D01*
X037380Y005797D02*
X037457Y005720D01*
X037611Y005720D01*
X037687Y005797D01*
X037687Y005873D01*
X037611Y005950D01*
X037380Y005950D01*
X037380Y005797D01*
X037380Y005950D02*
X037534Y006104D01*
X037687Y006180D01*
X037841Y006180D02*
X038148Y006180D01*
X038148Y006104D01*
X037841Y005797D01*
X037841Y005720D01*
X016980Y003700D02*
X016980Y003546D01*
X016903Y003470D01*
X016903Y003316D02*
X016827Y003316D01*
X016750Y003239D01*
X016750Y003009D01*
X016903Y003009D01*
X016980Y003086D01*
X016980Y003239D01*
X016903Y003316D01*
X016673Y003470D02*
X016750Y003546D01*
X016750Y003777D01*
X016903Y003777D02*
X016596Y003777D01*
X016520Y003700D01*
X016520Y003546D01*
X016596Y003470D01*
X016673Y003470D01*
X016520Y003316D02*
X016596Y003163D01*
X016750Y003009D01*
X016750Y002856D02*
X016827Y002779D01*
X016827Y002549D01*
X016980Y002549D02*
X016520Y002549D01*
X016520Y002779D01*
X016596Y002856D01*
X016750Y002856D01*
X016827Y002702D02*
X016980Y002856D01*
X016980Y003700D02*
X016903Y003777D01*
X015380Y003800D02*
X015380Y003646D01*
X015303Y003570D01*
X015227Y003570D01*
X015150Y003646D01*
X015150Y003800D01*
X015227Y003877D01*
X015303Y003877D01*
X015380Y003800D01*
X015150Y003800D02*
X015073Y003877D01*
X014996Y003877D01*
X014920Y003800D01*
X014920Y003646D01*
X014996Y003570D01*
X015073Y003570D01*
X015150Y003646D01*
X015150Y003416D02*
X015150Y003109D01*
X014920Y003339D01*
X015380Y003339D01*
X015380Y002956D02*
X015227Y002802D01*
X015227Y002879D02*
X015150Y002956D01*
X014996Y002956D01*
X014920Y002879D01*
X014920Y002649D01*
X015380Y002649D01*
X015227Y002649D02*
X015227Y002879D01*
X013880Y002956D02*
X013727Y002802D01*
X013727Y002879D02*
X013727Y002649D01*
X013880Y002649D02*
X013420Y002649D01*
X013420Y002879D01*
X013496Y002956D01*
X013650Y002956D01*
X013727Y002879D01*
X013650Y003109D02*
X013650Y003416D01*
X013803Y003570D02*
X013880Y003570D01*
X013803Y003570D02*
X013496Y003877D01*
X013420Y003877D01*
X013420Y003570D01*
X013420Y003339D02*
X013650Y003109D01*
X013880Y003339D02*
X013420Y003339D01*
X010617Y003807D02*
X010540Y003730D01*
X010386Y003730D01*
X010310Y003807D01*
X010310Y003960D02*
X010463Y004037D01*
X010540Y004037D01*
X010617Y003960D01*
X010617Y003807D01*
X010310Y003960D02*
X010310Y004190D01*
X010617Y004190D01*
X010156Y004190D02*
X010003Y004114D01*
X009849Y003960D01*
X010079Y003960D01*
X010156Y003883D01*
X010156Y003807D01*
X010079Y003730D01*
X009926Y003730D01*
X009849Y003807D01*
X009849Y003960D01*
X009696Y003807D02*
X009619Y003730D01*
X009466Y003730D01*
X009389Y003807D01*
X009389Y004114D01*
X009466Y004190D01*
X009619Y004190D01*
X009696Y004114D01*
X003960Y006427D02*
X003883Y006350D01*
X003960Y006427D02*
X003960Y006580D01*
X003883Y006657D01*
X003807Y006657D01*
X003730Y006580D01*
X003730Y006427D01*
X003653Y006350D01*
X003576Y006350D01*
X003500Y006427D01*
X003500Y006580D01*
X003576Y006657D01*
X003500Y006810D02*
X003500Y007041D01*
X003576Y007117D01*
X003730Y007117D01*
X003807Y007041D01*
X003807Y006810D01*
X003960Y006810D02*
X003500Y006810D01*
X003807Y006964D02*
X003960Y007117D01*
X003960Y007271D02*
X003500Y007271D01*
X003500Y007578D01*
X003576Y007731D02*
X003500Y007808D01*
X003500Y007961D01*
X003576Y008038D01*
X003653Y008038D01*
X003960Y007731D01*
X003960Y008038D01*
X003883Y008192D02*
X003576Y008192D01*
X003500Y008268D01*
X003500Y008422D01*
X003576Y008498D01*
X003883Y008192D01*
X003960Y008268D01*
X003960Y008422D01*
X003883Y008498D01*
X003576Y008498D01*
X003653Y008652D02*
X003500Y008805D01*
X003960Y008805D01*
X003960Y008652D02*
X003960Y008959D01*
X004037Y009112D02*
X004037Y009419D01*
X003883Y009573D02*
X003960Y009649D01*
X003960Y009803D01*
X003883Y009880D01*
X003960Y010033D02*
X003500Y010033D01*
X003576Y009880D02*
X003500Y009803D01*
X003500Y009649D01*
X003576Y009573D01*
X003883Y009573D01*
X003730Y010033D02*
X003730Y010340D01*
X003576Y010494D02*
X003883Y010494D01*
X003960Y010570D01*
X003960Y010724D01*
X003883Y010800D01*
X003576Y010800D01*
X003500Y010724D01*
X003500Y010570D01*
X003576Y010494D01*
X003500Y010340D02*
X003960Y010340D01*
X003960Y010954D02*
X003500Y010954D01*
X003730Y011031D02*
X003960Y011261D01*
X003960Y011414D02*
X003960Y011721D01*
X003730Y011568D02*
X003730Y011414D01*
X003500Y011414D02*
X003960Y011414D01*
X003500Y011414D02*
X003500Y011721D01*
X003500Y011261D02*
X003807Y010954D01*
X008389Y011770D02*
X008389Y012230D01*
X008619Y012230D01*
X008696Y012154D01*
X008696Y012000D01*
X008619Y011923D01*
X008389Y011923D01*
X008542Y011923D02*
X008696Y011770D01*
X008849Y011847D02*
X008926Y011770D01*
X009079Y011770D01*
X009156Y011847D01*
X009156Y011923D01*
X009079Y012000D01*
X008849Y012000D01*
X008849Y011847D01*
X008849Y012000D02*
X009003Y012154D01*
X009156Y012230D01*
X009310Y012000D02*
X009617Y012000D01*
X009540Y011770D02*
X009540Y012230D01*
X009310Y012000D01*
X002540Y007578D02*
X002540Y007271D01*
X002540Y007424D02*
X002080Y007424D01*
X002233Y007271D01*
X002156Y007117D02*
X002080Y007041D01*
X002080Y006887D01*
X002156Y006810D01*
X002233Y006810D01*
X002310Y006887D01*
X002310Y007041D01*
X002387Y007117D01*
X002463Y007117D01*
X002540Y007041D01*
X002540Y006887D01*
X002463Y006810D01*
X002463Y006657D02*
X002080Y006657D01*
X002080Y006350D02*
X002463Y006350D01*
X002540Y006427D01*
X002540Y006580D01*
X002463Y006657D01*
X002617Y006964D02*
X002003Y006964D01*
X003730Y007271D02*
X003730Y007424D01*
D16*
X003360Y007910D02*
X002680Y007910D01*
X002680Y006710D01*
X003360Y006710D01*
X003360Y007910D01*
X005865Y007864D02*
X006315Y007864D01*
X006315Y007554D02*
X006165Y007404D01*
X006165Y007479D02*
X006165Y007253D01*
X006315Y007253D02*
X005865Y007253D01*
X005865Y007479D01*
X005940Y007554D01*
X006090Y007554D01*
X006165Y007479D01*
X005865Y007714D02*
X005865Y008014D01*
X005865Y008174D02*
X006315Y008174D01*
X006090Y008174D02*
X006090Y008474D01*
X005940Y008635D02*
X005865Y008710D01*
X005865Y008860D01*
X005940Y008935D01*
X006015Y008935D01*
X006315Y008635D01*
X006315Y008935D01*
X006315Y008474D02*
X005865Y008474D01*
X007034Y007670D02*
X007034Y007370D01*
X007109Y007295D01*
X007259Y007295D01*
X007334Y007370D01*
X007334Y007520D01*
X007184Y007520D01*
X007334Y007670D02*
X007259Y007745D01*
X007109Y007745D01*
X007034Y007670D01*
X007494Y007745D02*
X007794Y007295D01*
X007794Y007745D01*
X007955Y007745D02*
X008180Y007745D01*
X008255Y007670D01*
X008255Y007370D01*
X008180Y007295D01*
X007955Y007295D01*
X007955Y007745D01*
X007494Y007745D02*
X007494Y007295D01*
X006315Y007093D02*
X006015Y007093D01*
X005865Y006943D01*
X006015Y006793D01*
X006315Y006793D01*
X006315Y006633D02*
X006315Y006333D01*
X005865Y006333D01*
X005865Y006633D01*
X006090Y006483D02*
X006090Y006333D01*
X005534Y006165D02*
X005534Y005715D01*
X005233Y006165D01*
X005233Y005715D01*
X005077Y005715D02*
X004927Y005715D01*
X005002Y005715D02*
X005002Y006165D01*
X004927Y006165D02*
X005077Y006165D01*
X004766Y006165D02*
X004766Y005865D01*
X004616Y005715D01*
X004466Y005865D01*
X004466Y006165D01*
X004306Y006165D02*
X004006Y006165D01*
X004006Y005940D01*
X004156Y006015D01*
X004231Y006015D01*
X004306Y005940D01*
X004306Y005790D01*
X004231Y005715D01*
X004081Y005715D01*
X004006Y005790D01*
X003846Y005715D02*
X003545Y005715D01*
X003696Y005715D02*
X003696Y006165D01*
X003545Y006015D01*
X003385Y005940D02*
X003085Y005940D01*
X003235Y006090D02*
X003235Y005790D01*
X004685Y004605D02*
X004836Y004755D01*
X004836Y004305D01*
X004986Y004305D02*
X004685Y004305D01*
X004525Y004530D02*
X004225Y004530D01*
X005146Y004530D02*
X005296Y004605D01*
X005371Y004605D01*
X005446Y004530D01*
X005446Y004380D01*
X005371Y004305D01*
X005221Y004305D01*
X005146Y004380D01*
X005146Y004530D02*
X005146Y004755D01*
X005446Y004755D01*
X005606Y004755D02*
X005606Y004455D01*
X005756Y004305D01*
X005906Y004455D01*
X005906Y004755D01*
X006067Y004755D02*
X006217Y004755D01*
X006142Y004755D02*
X006142Y004305D01*
X006067Y004305D02*
X006217Y004305D01*
X006373Y004305D02*
X006373Y004755D01*
X006674Y004305D01*
X006674Y004755D01*
X006626Y003225D02*
X006626Y002775D01*
X006316Y002775D02*
X006166Y002925D01*
X006241Y002925D02*
X006016Y002925D01*
X006016Y002775D02*
X006016Y003225D01*
X006241Y003225D01*
X006316Y003150D01*
X006316Y003000D01*
X006241Y002925D01*
X006476Y003225D02*
X006776Y003225D01*
X006937Y003225D02*
X006937Y002775D01*
X006937Y003000D02*
X007237Y003000D01*
X007397Y003075D02*
X007547Y003225D01*
X007547Y002775D01*
X007397Y002775D02*
X007697Y002775D01*
X007237Y002775D02*
X007237Y003225D01*
X005856Y003075D02*
X005856Y002775D01*
X005856Y003000D02*
X005555Y003000D01*
X005555Y003075D02*
X005555Y002775D01*
X005395Y002775D02*
X005095Y002775D01*
X005095Y003225D01*
X005395Y003225D01*
X005555Y003075D02*
X005706Y003225D01*
X005856Y003075D01*
X005245Y003000D02*
X005095Y003000D01*
X006090Y006793D02*
X006090Y007093D01*
X006240Y009844D02*
X006315Y009919D01*
X006315Y010069D01*
X006240Y010144D01*
X006165Y010144D01*
X006090Y010069D01*
X006090Y009994D01*
X006090Y010069D02*
X006015Y010144D01*
X005940Y010144D01*
X005865Y010069D01*
X005865Y009919D01*
X005940Y009844D01*
X006240Y010304D02*
X006240Y010379D01*
X006315Y010379D01*
X006315Y010304D01*
X006240Y010304D01*
X006240Y010535D02*
X006315Y010610D01*
X006315Y010760D01*
X006240Y010835D01*
X006165Y010835D01*
X006090Y010760D01*
X006090Y010685D01*
X006090Y010760D02*
X006015Y010835D01*
X005940Y010835D01*
X005865Y010760D01*
X005865Y010610D01*
X005940Y010535D01*
X006865Y011170D02*
X006865Y011470D01*
X006715Y011320D02*
X007015Y011320D01*
X007175Y011245D02*
X007326Y011095D01*
X007476Y011245D01*
X007476Y011545D01*
X007175Y011545D02*
X007175Y011245D01*
X005125Y012225D02*
X004825Y012225D01*
X004975Y012225D02*
X004975Y012675D01*
X004825Y012525D01*
X004800Y014025D02*
X004575Y014025D01*
X004575Y014475D01*
X004800Y014475D01*
X004875Y014400D01*
X004875Y014100D01*
X004800Y014025D01*
X005035Y014025D02*
X005336Y014025D01*
X005186Y014250D02*
X005035Y014250D01*
X005035Y014475D02*
X005035Y014025D01*
X005035Y014475D02*
X005336Y014475D01*
X005496Y014475D02*
X005796Y014475D01*
X005646Y014475D02*
X005646Y014025D01*
X005956Y014025D02*
X006256Y014025D01*
X006417Y014100D02*
X006492Y014025D01*
X006642Y014025D01*
X006717Y014100D01*
X006717Y014400D02*
X006642Y014475D01*
X006492Y014475D01*
X006417Y014400D01*
X006417Y014100D01*
X006106Y014250D02*
X005956Y014250D01*
X005956Y014475D02*
X005956Y014025D01*
X005956Y014475D02*
X006256Y014475D01*
X006877Y014475D02*
X007177Y014475D01*
X007027Y014475D02*
X007027Y014025D01*
X007337Y014100D02*
X007412Y014025D01*
X007563Y014025D01*
X007638Y014100D01*
X007638Y014400D01*
X007563Y014475D01*
X007412Y014475D01*
X007337Y014400D01*
X007337Y014100D01*
X007798Y014025D02*
X007798Y014475D01*
X008023Y014475D01*
X008098Y014400D01*
X008098Y014250D01*
X008023Y014175D01*
X007798Y014175D01*
X007948Y014175D02*
X008098Y014025D01*
X009825Y014100D02*
X009900Y014025D01*
X010050Y014025D01*
X010125Y014100D01*
X010125Y014175D01*
X010050Y014250D01*
X009825Y014250D01*
X009825Y014100D01*
X009825Y014250D02*
X009975Y014400D01*
X010125Y014475D01*
X011525Y015275D02*
X011675Y015125D01*
X011825Y015275D01*
X011825Y015575D01*
X011985Y015575D02*
X012211Y015575D01*
X012286Y015500D01*
X012286Y015425D01*
X012211Y015350D01*
X011985Y015350D01*
X011985Y015125D02*
X012211Y015125D01*
X012286Y015200D01*
X012286Y015275D01*
X012211Y015350D01*
X012446Y015200D02*
X012521Y015125D01*
X012671Y015125D01*
X012746Y015200D01*
X012746Y015575D01*
X012906Y015500D02*
X012981Y015575D01*
X013131Y015575D01*
X013206Y015500D01*
X013367Y015500D02*
X013442Y015575D01*
X013592Y015575D01*
X013667Y015500D01*
X013667Y015425D01*
X013592Y015350D01*
X013667Y015275D01*
X013667Y015200D01*
X013592Y015125D01*
X013442Y015125D01*
X013367Y015200D01*
X013206Y015200D02*
X013131Y015125D01*
X012981Y015125D01*
X012906Y015200D01*
X012981Y015350D02*
X013131Y015350D01*
X013206Y015275D01*
X013206Y015200D01*
X012981Y015350D02*
X012906Y015425D01*
X012906Y015500D01*
X012446Y015575D02*
X012446Y015200D01*
X011985Y015125D02*
X011985Y015575D01*
X011525Y015575D02*
X011525Y015275D01*
X013517Y015350D02*
X013592Y015350D01*
X013827Y015275D02*
X013977Y015125D01*
X014127Y015275D01*
X014127Y015575D01*
X014287Y015500D02*
X014362Y015575D01*
X014513Y015575D01*
X014588Y015500D01*
X014588Y015425D01*
X014513Y015350D01*
X014588Y015275D01*
X014588Y015200D01*
X014513Y015125D01*
X014362Y015125D01*
X014287Y015200D01*
X014437Y015350D02*
X014513Y015350D01*
X013827Y015275D02*
X013827Y015575D01*
X016169Y016041D02*
X016208Y016080D01*
X018492Y016080D01*
X018531Y016041D01*
X018531Y016001D01*
X018531Y014859D02*
X018492Y014820D01*
X016208Y014820D01*
X016169Y014859D01*
X014875Y013815D02*
X014875Y013515D01*
X014875Y013665D02*
X014425Y013665D01*
X014575Y013515D01*
X014575Y013354D02*
X014650Y013279D01*
X014650Y013054D01*
X014725Y012894D02*
X014800Y012894D01*
X014875Y012819D01*
X014875Y012669D01*
X014800Y012594D01*
X014800Y012434D02*
X014425Y012434D01*
X014500Y012594D02*
X014575Y012594D01*
X014650Y012669D01*
X014650Y012819D01*
X014725Y012894D01*
X014875Y013054D02*
X014425Y013054D01*
X014425Y013279D01*
X014500Y013354D01*
X014575Y013354D01*
X014650Y013279D02*
X014725Y013354D01*
X014800Y013354D01*
X014875Y013279D01*
X014875Y013054D01*
X014500Y012894D02*
X014425Y012819D01*
X014425Y012669D01*
X014500Y012594D01*
X014800Y012434D02*
X014875Y012359D01*
X014875Y012208D01*
X014800Y012133D01*
X014425Y012133D01*
X012075Y013265D02*
X012075Y013565D01*
X012075Y013415D02*
X011625Y013415D01*
X011775Y013265D01*
X013525Y010715D02*
X013600Y010565D01*
X013750Y010415D01*
X013750Y010640D01*
X013825Y010715D01*
X013900Y010715D01*
X013975Y010640D01*
X013975Y010490D01*
X013900Y010415D01*
X013750Y010415D01*
X023905Y007540D02*
X023905Y007465D01*
X023980Y007390D01*
X024130Y007390D01*
X024205Y007315D01*
X024205Y007240D01*
X024130Y007165D01*
X023980Y007165D01*
X023905Y007240D01*
X023905Y007540D02*
X023980Y007615D01*
X024130Y007615D01*
X024205Y007540D01*
X024365Y007615D02*
X024365Y007315D01*
X024516Y007165D01*
X024666Y007315D01*
X024666Y007615D01*
X024826Y007465D02*
X024976Y007615D01*
X024976Y007165D01*
X024826Y007165D02*
X025126Y007165D01*
X029955Y007165D02*
X030255Y007165D01*
X030105Y007165D02*
X030105Y007615D01*
X029955Y007465D01*
X030415Y007390D02*
X030716Y007390D01*
X030641Y007165D02*
X030641Y007615D01*
X030415Y007390D01*
X031962Y006519D02*
X031988Y006521D01*
X032013Y006526D01*
X032037Y006534D01*
X032061Y006545D01*
X032082Y006560D01*
X032101Y006577D01*
X032118Y006596D01*
X032133Y006618D01*
X032144Y006641D01*
X032152Y006665D01*
X032157Y006690D01*
X032159Y006716D01*
X032159Y010259D01*
X032157Y010285D01*
X032152Y010310D01*
X032144Y010334D01*
X032133Y010358D01*
X032118Y010379D01*
X032101Y010398D01*
X032082Y010415D01*
X032061Y010430D01*
X032037Y010441D01*
X032013Y010449D01*
X031988Y010454D01*
X031962Y010456D01*
X031981Y010850D02*
X034344Y010850D01*
X034974Y010850D02*
X035033Y010850D01*
X035466Y010850D02*
X035781Y010850D01*
X035807Y010848D01*
X035832Y010843D01*
X035856Y010835D01*
X035880Y010824D01*
X035901Y010809D01*
X035920Y010792D01*
X035937Y010773D01*
X035952Y010752D01*
X035963Y010728D01*
X035971Y010704D01*
X035976Y010679D01*
X035978Y010653D01*
X035978Y006519D01*
X035564Y006126D02*
X035210Y006126D01*
X034619Y006126D02*
X031981Y006126D01*
X032754Y006104D02*
X032799Y006059D01*
X032844Y006059D01*
X032889Y006104D01*
X032889Y006194D01*
X032934Y006239D01*
X032979Y006239D01*
X033025Y006194D01*
X033025Y006104D01*
X032979Y006059D01*
X032979Y005945D02*
X032799Y005945D01*
X032754Y005899D01*
X032754Y005809D01*
X032799Y005764D01*
X032979Y005764D01*
X033025Y005809D01*
X033025Y005899D01*
X032979Y005945D01*
X032754Y006104D02*
X032754Y006194D01*
X032799Y006239D01*
X032754Y006354D02*
X032754Y006489D01*
X032799Y006534D01*
X032979Y006534D01*
X033025Y006489D01*
X033025Y006354D01*
X032754Y006354D01*
X032889Y006648D02*
X032889Y006828D01*
X032889Y006943D02*
X032889Y007123D01*
X032934Y007238D02*
X032934Y007373D01*
X032889Y007418D01*
X032799Y007418D01*
X032754Y007373D01*
X032754Y007238D01*
X033025Y007238D01*
X033025Y007123D02*
X032754Y007123D01*
X032754Y006943D02*
X033025Y006943D01*
X032934Y007328D02*
X033025Y007418D01*
X032979Y007532D02*
X033025Y007577D01*
X033025Y007667D01*
X032979Y007712D01*
X032934Y007712D01*
X032889Y007667D01*
X032889Y007577D01*
X032844Y007532D01*
X032799Y007532D01*
X032754Y007577D01*
X032754Y007667D01*
X032799Y007712D01*
X033070Y007827D02*
X033070Y008007D01*
X033025Y008122D02*
X033025Y008257D01*
X032979Y008302D01*
X032799Y008302D01*
X032754Y008257D01*
X032754Y008122D01*
X033025Y008122D01*
X033148Y008122D02*
X033373Y008122D01*
X033418Y008167D01*
X033418Y008257D01*
X033373Y008302D01*
X033148Y008302D01*
X033193Y008416D02*
X033148Y008461D01*
X033148Y008551D01*
X033193Y008596D01*
X033283Y008551D02*
X033328Y008596D01*
X033373Y008596D01*
X033418Y008551D01*
X033418Y008461D01*
X033373Y008416D01*
X033283Y008461D02*
X033238Y008416D01*
X033193Y008416D01*
X033283Y008461D02*
X033283Y008551D01*
X033238Y008711D02*
X033148Y008801D01*
X033418Y008801D01*
X033418Y008711D02*
X033418Y008891D01*
X033373Y009006D02*
X033328Y009006D01*
X033283Y009051D01*
X033283Y009141D01*
X033328Y009186D01*
X033373Y009186D01*
X033418Y009141D01*
X033418Y009051D01*
X033373Y009006D01*
X033283Y009051D02*
X033238Y009006D01*
X033193Y009006D01*
X033148Y009051D01*
X033148Y009141D01*
X033193Y009186D01*
X033238Y009186D01*
X033283Y009141D01*
X033025Y009141D02*
X032979Y009186D01*
X032799Y009186D01*
X032754Y009141D01*
X032754Y009006D01*
X033025Y009006D01*
X033025Y009141D01*
X032979Y008891D02*
X032934Y008891D01*
X032889Y008846D01*
X032889Y008801D01*
X032889Y008846D02*
X032844Y008891D01*
X032799Y008891D01*
X032754Y008846D01*
X032754Y008756D01*
X032799Y008711D01*
X032754Y008596D02*
X033025Y008596D01*
X033103Y008506D02*
X033463Y008506D01*
X033025Y008416D02*
X032754Y008416D01*
X032844Y008506D01*
X032754Y008596D01*
X032979Y008711D02*
X033025Y008756D01*
X033025Y008846D01*
X032979Y008891D01*
X036125Y011225D02*
X036425Y011225D01*
X036275Y011225D02*
X036275Y011675D01*
X036125Y011525D01*
X036650Y012125D02*
X036800Y012125D01*
X036875Y012200D01*
X037035Y012200D02*
X037110Y012125D01*
X037261Y012125D01*
X037336Y012200D01*
X037336Y012500D01*
X037261Y012575D01*
X037110Y012575D01*
X037035Y012500D01*
X037035Y012200D01*
X036650Y012125D02*
X036575Y012200D01*
X036575Y012500D01*
X036650Y012575D01*
X036800Y012575D01*
X036875Y012500D01*
X037496Y012575D02*
X037796Y012125D01*
X037796Y012575D01*
X037956Y012500D02*
X037956Y012425D01*
X038031Y012350D01*
X038181Y012350D01*
X038256Y012275D01*
X038256Y012200D01*
X038181Y012125D01*
X038031Y012125D01*
X037956Y012200D01*
X038417Y012200D02*
X038492Y012125D01*
X038642Y012125D01*
X038717Y012200D01*
X038717Y012500D01*
X038642Y012575D01*
X038492Y012575D01*
X038417Y012500D01*
X038417Y012200D01*
X038256Y012500D02*
X038181Y012575D01*
X038031Y012575D01*
X037956Y012500D01*
X037496Y012575D02*
X037496Y012125D01*
X038877Y012125D02*
X039177Y012125D01*
X039337Y012125D02*
X039638Y012125D01*
X039487Y012350D02*
X039337Y012350D01*
X039337Y012575D02*
X039337Y012125D01*
X038877Y012125D02*
X038877Y012575D01*
X039337Y012575D02*
X039638Y012575D01*
X040675Y011450D02*
X040900Y011675D01*
X040900Y011225D01*
X040975Y011450D02*
X040675Y011450D01*
X029625Y015200D02*
X029625Y015275D01*
X029550Y015350D01*
X029325Y015350D01*
X029325Y015200D01*
X029400Y015125D01*
X029550Y015125D01*
X029625Y015200D01*
X029475Y015500D02*
X029325Y015350D01*
X029475Y015500D02*
X029625Y015575D01*
X025756Y015575D02*
X025456Y015575D01*
X025606Y015575D02*
X025606Y015125D01*
X025296Y015200D02*
X025221Y015125D01*
X025071Y015125D01*
X024996Y015200D01*
X025071Y015350D02*
X025221Y015350D01*
X025296Y015275D01*
X025296Y015200D01*
X025071Y015350D02*
X024996Y015425D01*
X024996Y015500D01*
X025071Y015575D01*
X025221Y015575D01*
X025296Y015500D01*
X025075Y015619D02*
X025000Y015544D01*
X025075Y015619D02*
X025075Y015769D01*
X025000Y015844D01*
X024925Y015844D01*
X024850Y015769D01*
X024850Y015619D01*
X024775Y015544D01*
X024700Y015544D01*
X024625Y015619D01*
X024625Y015769D01*
X024700Y015844D01*
X024836Y015575D02*
X024535Y015575D01*
X024535Y015125D01*
X024836Y015125D01*
X024686Y015350D02*
X024535Y015350D01*
X024375Y015575D02*
X024075Y015575D01*
X024225Y015575D02*
X024225Y015125D01*
X025000Y016004D02*
X025075Y016079D01*
X025075Y016154D01*
X025000Y016229D01*
X024625Y016229D01*
X024625Y016154D02*
X024625Y016304D01*
X024700Y016465D02*
X024625Y016540D01*
X024625Y016690D01*
X024700Y016765D01*
X024775Y016765D01*
X024850Y016690D01*
X024925Y016765D01*
X025000Y016765D01*
X025075Y016690D01*
X025075Y016540D01*
X025000Y016465D01*
X024850Y016615D02*
X024850Y016690D01*
X022171Y017625D02*
X022171Y018075D01*
X021946Y017850D01*
X022246Y017850D01*
X021786Y018075D02*
X021636Y018075D01*
X021711Y018075D02*
X021711Y017700D01*
X021636Y017625D01*
X021560Y017625D01*
X021485Y017700D01*
X021325Y017700D02*
X021250Y017625D01*
X021100Y017625D01*
X021025Y017700D01*
X021100Y017850D02*
X021250Y017850D01*
X021325Y017775D01*
X021325Y017700D01*
X021100Y017850D02*
X021025Y017925D01*
X021025Y018000D01*
X021100Y018075D01*
X021250Y018075D01*
X021325Y018000D01*
X024475Y013775D02*
X024475Y013325D01*
X024325Y013325D02*
X024625Y013325D01*
X024325Y013625D02*
X024475Y013775D01*
X032754Y005605D02*
X032799Y005650D01*
X032889Y005650D01*
X032934Y005605D01*
X032934Y005470D01*
X032934Y005560D02*
X033025Y005650D01*
X033025Y005470D02*
X032754Y005470D01*
X032754Y005605D01*
X032799Y005355D02*
X032754Y005310D01*
X032754Y005220D01*
X032799Y005175D01*
X032979Y005175D01*
X033025Y005220D01*
X033025Y005310D01*
X032979Y005355D01*
X033025Y005069D02*
X033025Y004979D01*
X033025Y005024D02*
X032754Y005024D01*
X032754Y004979D02*
X032754Y005069D01*
X032754Y004864D02*
X033025Y004864D01*
X033025Y004684D02*
X032754Y004684D01*
X032844Y004774D01*
X032754Y004864D01*
X024505Y004365D02*
X024205Y004365D01*
X024355Y004365D02*
X024355Y004815D01*
X024205Y004665D01*
M02*
